G04 #@! TF.GenerationSoftware,KiCad,Pcbnew,5.0.2-bee76a0~70~ubuntu18.04.1*
G04 #@! TF.CreationDate,2020-04-20T17:56:11-07:00*
G04 #@! TF.ProjectId,hallway_panels_arena,68616c6c-7761-4795-9f70-616e656c735f,1.0*
G04 #@! TF.SameCoordinates,Original*
G04 #@! TF.FileFunction,Soldermask,Top*
G04 #@! TF.FilePolarity,Negative*
%FSLAX46Y46*%
G04 Gerber Fmt 4.6, Leading zero omitted, Abs format (unit mm)*
G04 Created by KiCad (PCBNEW 5.0.2-bee76a0~70~ubuntu18.04.1) date Mon 20 Apr 2020 05:56:11 PM PDT*
%MOMM*%
%LPD*%
G01*
G04 APERTURE LIST*
%ADD10C,0.150000*%
G04 APERTURE END LIST*
D10*
G36*
X52332929Y-88304682D02*
X52494008Y-88320547D01*
X52700686Y-88383242D01*
X52804026Y-88414590D01*
X52908235Y-88470291D01*
X53089739Y-88567307D01*
X53340170Y-88772830D01*
X53545693Y-89023261D01*
X53642709Y-89204765D01*
X53698410Y-89308974D01*
X53698410Y-89308975D01*
X53792453Y-89618992D01*
X53824207Y-89941400D01*
X53792453Y-90263808D01*
X53729758Y-90470486D01*
X53698410Y-90573826D01*
X53642709Y-90678035D01*
X53545693Y-90859539D01*
X53340170Y-91109970D01*
X53089739Y-91315493D01*
X52908235Y-91412509D01*
X52804026Y-91468210D01*
X52700686Y-91499558D01*
X52494008Y-91562253D01*
X52332929Y-91578118D01*
X52252391Y-91586050D01*
X52090809Y-91586050D01*
X52010271Y-91578118D01*
X51849192Y-91562253D01*
X51642514Y-91499558D01*
X51539174Y-91468210D01*
X51434965Y-91412509D01*
X51253461Y-91315493D01*
X51003030Y-91109970D01*
X50797507Y-90859539D01*
X50700491Y-90678035D01*
X50644790Y-90573826D01*
X50613442Y-90470486D01*
X50550747Y-90263808D01*
X50518993Y-89941400D01*
X50550747Y-89618992D01*
X50644790Y-89308975D01*
X50644790Y-89308974D01*
X50700491Y-89204765D01*
X50797507Y-89023261D01*
X51003030Y-88772830D01*
X51253461Y-88567307D01*
X51434965Y-88470291D01*
X51539174Y-88414590D01*
X51642514Y-88383242D01*
X51849192Y-88320547D01*
X52010271Y-88304682D01*
X52090809Y-88296750D01*
X52252391Y-88296750D01*
X52332929Y-88304682D01*
X52332929Y-88304682D01*
G37*
G36*
X52332929Y-83224682D02*
X52494008Y-83240547D01*
X52700686Y-83303242D01*
X52804026Y-83334590D01*
X52841003Y-83354355D01*
X53089739Y-83487307D01*
X53340170Y-83692830D01*
X53545693Y-83943261D01*
X53615574Y-84074000D01*
X53698410Y-84228974D01*
X53698410Y-84228975D01*
X53792453Y-84538992D01*
X53824207Y-84861400D01*
X53792453Y-85183808D01*
X53729758Y-85390486D01*
X53698410Y-85493826D01*
X53642709Y-85598035D01*
X53545693Y-85779539D01*
X53340170Y-86029970D01*
X53089739Y-86235493D01*
X52908235Y-86332509D01*
X52804026Y-86388210D01*
X52700686Y-86419558D01*
X52494008Y-86482253D01*
X52332929Y-86498118D01*
X52252391Y-86506050D01*
X52090809Y-86506050D01*
X52010271Y-86498118D01*
X51849192Y-86482253D01*
X51642514Y-86419558D01*
X51539174Y-86388210D01*
X51434965Y-86332509D01*
X51253461Y-86235493D01*
X51003030Y-86029970D01*
X50797507Y-85779539D01*
X50700491Y-85598035D01*
X50644790Y-85493826D01*
X50613442Y-85390486D01*
X50550747Y-85183808D01*
X50518993Y-84861400D01*
X50550747Y-84538992D01*
X50644790Y-84228975D01*
X50644790Y-84228974D01*
X50727626Y-84074000D01*
X50797507Y-83943261D01*
X51003030Y-83692830D01*
X51253461Y-83487307D01*
X51502197Y-83354355D01*
X51539174Y-83334590D01*
X51642514Y-83303242D01*
X51849192Y-83240547D01*
X52010271Y-83224682D01*
X52090809Y-83216750D01*
X52252391Y-83216750D01*
X52332929Y-83224682D01*
X52332929Y-83224682D01*
G37*
G36*
X302084526Y-82068029D02*
X302149956Y-82081044D01*
X302334856Y-82157632D01*
X302501265Y-82268823D01*
X302642777Y-82410335D01*
X302753968Y-82576744D01*
X302830556Y-82761645D01*
X302869600Y-82957931D01*
X302869600Y-83158069D01*
X302830556Y-83354355D01*
X302753968Y-83539256D01*
X302642777Y-83705665D01*
X302501265Y-83847177D01*
X302501262Y-83847179D01*
X302334856Y-83958368D01*
X302149956Y-84034956D01*
X302084526Y-84047971D01*
X301953669Y-84074000D01*
X301753531Y-84074000D01*
X301622674Y-84047971D01*
X301557244Y-84034956D01*
X301372344Y-83958368D01*
X301205938Y-83847179D01*
X301205935Y-83847177D01*
X301064423Y-83705665D01*
X300953232Y-83539256D01*
X300876644Y-83354355D01*
X300837600Y-83158069D01*
X300837600Y-82957931D01*
X300876644Y-82761645D01*
X300953232Y-82576744D01*
X301064423Y-82410335D01*
X301205935Y-82268823D01*
X301372344Y-82157632D01*
X301557244Y-82081044D01*
X301622674Y-82068029D01*
X301753531Y-82042000D01*
X301953669Y-82042000D01*
X302084526Y-82068029D01*
X302084526Y-82068029D01*
G37*
G36*
X277243326Y-82068029D02*
X277308756Y-82081044D01*
X277493656Y-82157632D01*
X277660065Y-82268823D01*
X277801577Y-82410335D01*
X277912768Y-82576744D01*
X277989356Y-82761645D01*
X278028400Y-82957931D01*
X278028400Y-83158069D01*
X277989356Y-83354355D01*
X277912768Y-83539256D01*
X277801577Y-83705665D01*
X277660065Y-83847177D01*
X277660062Y-83847179D01*
X277493656Y-83958368D01*
X277308756Y-84034956D01*
X277243326Y-84047971D01*
X277112469Y-84074000D01*
X276912331Y-84074000D01*
X276781474Y-84047971D01*
X276716044Y-84034956D01*
X276531144Y-83958368D01*
X276364738Y-83847179D01*
X276364735Y-83847177D01*
X276223223Y-83705665D01*
X276112032Y-83539256D01*
X276035444Y-83354355D01*
X275996400Y-83158069D01*
X275996400Y-82957931D01*
X276035444Y-82761645D01*
X276112032Y-82576744D01*
X276223223Y-82410335D01*
X276364735Y-82268823D01*
X276531144Y-82157632D01*
X276716044Y-82081044D01*
X276781474Y-82068029D01*
X276912331Y-82042000D01*
X277112469Y-82042000D01*
X277243326Y-82068029D01*
X277243326Y-82068029D01*
G37*
G36*
X274703326Y-82068029D02*
X274768756Y-82081044D01*
X274953656Y-82157632D01*
X275120065Y-82268823D01*
X275261577Y-82410335D01*
X275372768Y-82576744D01*
X275449356Y-82761645D01*
X275488400Y-82957931D01*
X275488400Y-83158069D01*
X275449356Y-83354355D01*
X275372768Y-83539256D01*
X275261577Y-83705665D01*
X275120065Y-83847177D01*
X275120062Y-83847179D01*
X274953656Y-83958368D01*
X274768756Y-84034956D01*
X274703326Y-84047971D01*
X274572469Y-84074000D01*
X274372331Y-84074000D01*
X274241474Y-84047971D01*
X274176044Y-84034956D01*
X273991144Y-83958368D01*
X273824738Y-83847179D01*
X273824735Y-83847177D01*
X273683223Y-83705665D01*
X273572032Y-83539256D01*
X273495444Y-83354355D01*
X273456400Y-83158069D01*
X273456400Y-82957931D01*
X273495444Y-82761645D01*
X273572032Y-82576744D01*
X273683223Y-82410335D01*
X273824735Y-82268823D01*
X273991144Y-82157632D01*
X274176044Y-82081044D01*
X274241474Y-82068029D01*
X274372331Y-82042000D01*
X274572469Y-82042000D01*
X274703326Y-82068029D01*
X274703326Y-82068029D01*
G37*
G36*
X272163326Y-82068029D02*
X272228756Y-82081044D01*
X272413656Y-82157632D01*
X272580065Y-82268823D01*
X272721577Y-82410335D01*
X272832768Y-82576744D01*
X272909356Y-82761645D01*
X272948400Y-82957931D01*
X272948400Y-83158069D01*
X272909356Y-83354355D01*
X272832768Y-83539256D01*
X272721577Y-83705665D01*
X272580065Y-83847177D01*
X272580062Y-83847179D01*
X272413656Y-83958368D01*
X272228756Y-84034956D01*
X272163326Y-84047971D01*
X272032469Y-84074000D01*
X271832331Y-84074000D01*
X271701474Y-84047971D01*
X271636044Y-84034956D01*
X271451144Y-83958368D01*
X271284738Y-83847179D01*
X271284735Y-83847177D01*
X271143223Y-83705665D01*
X271032032Y-83539256D01*
X270955444Y-83354355D01*
X270916400Y-83158069D01*
X270916400Y-82957931D01*
X270955444Y-82761645D01*
X271032032Y-82576744D01*
X271143223Y-82410335D01*
X271284735Y-82268823D01*
X271451144Y-82157632D01*
X271636044Y-82081044D01*
X271701474Y-82068029D01*
X271832331Y-82042000D01*
X272032469Y-82042000D01*
X272163326Y-82068029D01*
X272163326Y-82068029D01*
G37*
G36*
X269623326Y-82068029D02*
X269688756Y-82081044D01*
X269873656Y-82157632D01*
X270040065Y-82268823D01*
X270181577Y-82410335D01*
X270292768Y-82576744D01*
X270369356Y-82761645D01*
X270408400Y-82957931D01*
X270408400Y-83158069D01*
X270369356Y-83354355D01*
X270292768Y-83539256D01*
X270181577Y-83705665D01*
X270040065Y-83847177D01*
X270040062Y-83847179D01*
X269873656Y-83958368D01*
X269688756Y-84034956D01*
X269623326Y-84047971D01*
X269492469Y-84074000D01*
X269292331Y-84074000D01*
X269161474Y-84047971D01*
X269096044Y-84034956D01*
X268911144Y-83958368D01*
X268744738Y-83847179D01*
X268744735Y-83847177D01*
X268603223Y-83705665D01*
X268492032Y-83539256D01*
X268415444Y-83354355D01*
X268376400Y-83158069D01*
X268376400Y-82957931D01*
X268415444Y-82761645D01*
X268492032Y-82576744D01*
X268603223Y-82410335D01*
X268744735Y-82268823D01*
X268911144Y-82157632D01*
X269096044Y-82081044D01*
X269161474Y-82068029D01*
X269292331Y-82042000D01*
X269492469Y-82042000D01*
X269623326Y-82068029D01*
X269623326Y-82068029D01*
G37*
G36*
X267083326Y-82068029D02*
X267148756Y-82081044D01*
X267333656Y-82157632D01*
X267500065Y-82268823D01*
X267641577Y-82410335D01*
X267752768Y-82576744D01*
X267829356Y-82761645D01*
X267868400Y-82957931D01*
X267868400Y-83158069D01*
X267829356Y-83354355D01*
X267752768Y-83539256D01*
X267641577Y-83705665D01*
X267500065Y-83847177D01*
X267500062Y-83847179D01*
X267333656Y-83958368D01*
X267148756Y-84034956D01*
X267083326Y-84047971D01*
X266952469Y-84074000D01*
X266752331Y-84074000D01*
X266621474Y-84047971D01*
X266556044Y-84034956D01*
X266371144Y-83958368D01*
X266204738Y-83847179D01*
X266204735Y-83847177D01*
X266063223Y-83705665D01*
X265952032Y-83539256D01*
X265875444Y-83354355D01*
X265836400Y-83158069D01*
X265836400Y-82957931D01*
X265875444Y-82761645D01*
X265952032Y-82576744D01*
X266063223Y-82410335D01*
X266204735Y-82268823D01*
X266371144Y-82157632D01*
X266556044Y-82081044D01*
X266621474Y-82068029D01*
X266752331Y-82042000D01*
X266952469Y-82042000D01*
X267083326Y-82068029D01*
X267083326Y-82068029D01*
G37*
G36*
X264543326Y-82068029D02*
X264608756Y-82081044D01*
X264793656Y-82157632D01*
X264960065Y-82268823D01*
X265101577Y-82410335D01*
X265212768Y-82576744D01*
X265289356Y-82761645D01*
X265328400Y-82957931D01*
X265328400Y-83158069D01*
X265289356Y-83354355D01*
X265212768Y-83539256D01*
X265101577Y-83705665D01*
X264960065Y-83847177D01*
X264960062Y-83847179D01*
X264793656Y-83958368D01*
X264608756Y-84034956D01*
X264543326Y-84047971D01*
X264412469Y-84074000D01*
X264212331Y-84074000D01*
X264081474Y-84047971D01*
X264016044Y-84034956D01*
X263831144Y-83958368D01*
X263664738Y-83847179D01*
X263664735Y-83847177D01*
X263523223Y-83705665D01*
X263412032Y-83539256D01*
X263335444Y-83354355D01*
X263296400Y-83158069D01*
X263296400Y-82957931D01*
X263335444Y-82761645D01*
X263412032Y-82576744D01*
X263523223Y-82410335D01*
X263664735Y-82268823D01*
X263831144Y-82157632D01*
X264016044Y-82081044D01*
X264081474Y-82068029D01*
X264212331Y-82042000D01*
X264412469Y-82042000D01*
X264543326Y-82068029D01*
X264543326Y-82068029D01*
G37*
G36*
X262003326Y-82068029D02*
X262068756Y-82081044D01*
X262253656Y-82157632D01*
X262420065Y-82268823D01*
X262561577Y-82410335D01*
X262672768Y-82576744D01*
X262749356Y-82761645D01*
X262788400Y-82957931D01*
X262788400Y-83158069D01*
X262749356Y-83354355D01*
X262672768Y-83539256D01*
X262561577Y-83705665D01*
X262420065Y-83847177D01*
X262420062Y-83847179D01*
X262253656Y-83958368D01*
X262068756Y-84034956D01*
X262003326Y-84047971D01*
X261872469Y-84074000D01*
X261672331Y-84074000D01*
X261541474Y-84047971D01*
X261476044Y-84034956D01*
X261291144Y-83958368D01*
X261124738Y-83847179D01*
X261124735Y-83847177D01*
X260983223Y-83705665D01*
X260872032Y-83539256D01*
X260795444Y-83354355D01*
X260756400Y-83158069D01*
X260756400Y-82957931D01*
X260795444Y-82761645D01*
X260872032Y-82576744D01*
X260983223Y-82410335D01*
X261124735Y-82268823D01*
X261291144Y-82157632D01*
X261476044Y-82081044D01*
X261541474Y-82068029D01*
X261672331Y-82042000D01*
X261872469Y-82042000D01*
X262003326Y-82068029D01*
X262003326Y-82068029D01*
G37*
G36*
X260248400Y-84074000D02*
X258216400Y-84074000D01*
X258216400Y-82042000D01*
X260248400Y-82042000D01*
X260248400Y-84074000D01*
X260248400Y-84074000D01*
G37*
G36*
X147398526Y-82068029D02*
X147463956Y-82081044D01*
X147648856Y-82157632D01*
X147815265Y-82268823D01*
X147956777Y-82410335D01*
X148067968Y-82576744D01*
X148144556Y-82761645D01*
X148183600Y-82957931D01*
X148183600Y-83158069D01*
X148144556Y-83354355D01*
X148067968Y-83539256D01*
X147956777Y-83705665D01*
X147815265Y-83847177D01*
X147815262Y-83847179D01*
X147648856Y-83958368D01*
X147463956Y-84034956D01*
X147398526Y-84047971D01*
X147267669Y-84074000D01*
X147067531Y-84074000D01*
X146936674Y-84047971D01*
X146871244Y-84034956D01*
X146686344Y-83958368D01*
X146519938Y-83847179D01*
X146519935Y-83847177D01*
X146378423Y-83705665D01*
X146267232Y-83539256D01*
X146190644Y-83354355D01*
X146151600Y-83158069D01*
X146151600Y-82957931D01*
X146190644Y-82761645D01*
X146267232Y-82576744D01*
X146378423Y-82410335D01*
X146519935Y-82268823D01*
X146686344Y-82157632D01*
X146871244Y-82081044D01*
X146936674Y-82068029D01*
X147067531Y-82042000D01*
X147267669Y-82042000D01*
X147398526Y-82068029D01*
X147398526Y-82068029D01*
G37*
G36*
X144858526Y-82068029D02*
X144923956Y-82081044D01*
X145108856Y-82157632D01*
X145275265Y-82268823D01*
X145416777Y-82410335D01*
X145527968Y-82576744D01*
X145604556Y-82761645D01*
X145643600Y-82957931D01*
X145643600Y-83158069D01*
X145604556Y-83354355D01*
X145527968Y-83539256D01*
X145416777Y-83705665D01*
X145275265Y-83847177D01*
X145275262Y-83847179D01*
X145108856Y-83958368D01*
X144923956Y-84034956D01*
X144858526Y-84047971D01*
X144727669Y-84074000D01*
X144527531Y-84074000D01*
X144396674Y-84047971D01*
X144331244Y-84034956D01*
X144146344Y-83958368D01*
X143979938Y-83847179D01*
X143979935Y-83847177D01*
X143838423Y-83705665D01*
X143727232Y-83539256D01*
X143650644Y-83354355D01*
X143611600Y-83158069D01*
X143611600Y-82957931D01*
X143650644Y-82761645D01*
X143727232Y-82576744D01*
X143838423Y-82410335D01*
X143979935Y-82268823D01*
X144146344Y-82157632D01*
X144331244Y-82081044D01*
X144396674Y-82068029D01*
X144527531Y-82042000D01*
X144727669Y-82042000D01*
X144858526Y-82068029D01*
X144858526Y-82068029D01*
G37*
G36*
X142318526Y-82068029D02*
X142383956Y-82081044D01*
X142568856Y-82157632D01*
X142735265Y-82268823D01*
X142876777Y-82410335D01*
X142987968Y-82576744D01*
X143064556Y-82761645D01*
X143103600Y-82957931D01*
X143103600Y-83158069D01*
X143064556Y-83354355D01*
X142987968Y-83539256D01*
X142876777Y-83705665D01*
X142735265Y-83847177D01*
X142735262Y-83847179D01*
X142568856Y-83958368D01*
X142383956Y-84034956D01*
X142318526Y-84047971D01*
X142187669Y-84074000D01*
X141987531Y-84074000D01*
X141856674Y-84047971D01*
X141791244Y-84034956D01*
X141606344Y-83958368D01*
X141439938Y-83847179D01*
X141439935Y-83847177D01*
X141298423Y-83705665D01*
X141187232Y-83539256D01*
X141110644Y-83354355D01*
X141071600Y-83158069D01*
X141071600Y-82957931D01*
X141110644Y-82761645D01*
X141187232Y-82576744D01*
X141298423Y-82410335D01*
X141439935Y-82268823D01*
X141606344Y-82157632D01*
X141791244Y-82081044D01*
X141856674Y-82068029D01*
X141987531Y-82042000D01*
X142187669Y-82042000D01*
X142318526Y-82068029D01*
X142318526Y-82068029D01*
G37*
G36*
X139778526Y-82068029D02*
X139843956Y-82081044D01*
X140028856Y-82157632D01*
X140195265Y-82268823D01*
X140336777Y-82410335D01*
X140447968Y-82576744D01*
X140524556Y-82761645D01*
X140563600Y-82957931D01*
X140563600Y-83158069D01*
X140524556Y-83354355D01*
X140447968Y-83539256D01*
X140336777Y-83705665D01*
X140195265Y-83847177D01*
X140195262Y-83847179D01*
X140028856Y-83958368D01*
X139843956Y-84034956D01*
X139778526Y-84047971D01*
X139647669Y-84074000D01*
X139447531Y-84074000D01*
X139316674Y-84047971D01*
X139251244Y-84034956D01*
X139066344Y-83958368D01*
X138899938Y-83847179D01*
X138899935Y-83847177D01*
X138758423Y-83705665D01*
X138647232Y-83539256D01*
X138570644Y-83354355D01*
X138531600Y-83158069D01*
X138531600Y-82957931D01*
X138570644Y-82761645D01*
X138647232Y-82576744D01*
X138758423Y-82410335D01*
X138899935Y-82268823D01*
X139066344Y-82157632D01*
X139251244Y-82081044D01*
X139316674Y-82068029D01*
X139447531Y-82042000D01*
X139647669Y-82042000D01*
X139778526Y-82068029D01*
X139778526Y-82068029D01*
G37*
G36*
X137238526Y-82068029D02*
X137303956Y-82081044D01*
X137488856Y-82157632D01*
X137655265Y-82268823D01*
X137796777Y-82410335D01*
X137907968Y-82576744D01*
X137984556Y-82761645D01*
X138023600Y-82957931D01*
X138023600Y-83158069D01*
X137984556Y-83354355D01*
X137907968Y-83539256D01*
X137796777Y-83705665D01*
X137655265Y-83847177D01*
X137655262Y-83847179D01*
X137488856Y-83958368D01*
X137303956Y-84034956D01*
X137238526Y-84047971D01*
X137107669Y-84074000D01*
X136907531Y-84074000D01*
X136776674Y-84047971D01*
X136711244Y-84034956D01*
X136526344Y-83958368D01*
X136359938Y-83847179D01*
X136359935Y-83847177D01*
X136218423Y-83705665D01*
X136107232Y-83539256D01*
X136030644Y-83354355D01*
X135991600Y-83158069D01*
X135991600Y-82957931D01*
X136030644Y-82761645D01*
X136107232Y-82576744D01*
X136218423Y-82410335D01*
X136359935Y-82268823D01*
X136526344Y-82157632D01*
X136711244Y-82081044D01*
X136776674Y-82068029D01*
X136907531Y-82042000D01*
X137107669Y-82042000D01*
X137238526Y-82068029D01*
X137238526Y-82068029D01*
G37*
G36*
X299544526Y-82068029D02*
X299609956Y-82081044D01*
X299794856Y-82157632D01*
X299961265Y-82268823D01*
X300102777Y-82410335D01*
X300213968Y-82576744D01*
X300290556Y-82761645D01*
X300329600Y-82957931D01*
X300329600Y-83158069D01*
X300290556Y-83354355D01*
X300213968Y-83539256D01*
X300102777Y-83705665D01*
X299961265Y-83847177D01*
X299961262Y-83847179D01*
X299794856Y-83958368D01*
X299609956Y-84034956D01*
X299544526Y-84047971D01*
X299413669Y-84074000D01*
X299213531Y-84074000D01*
X299082674Y-84047971D01*
X299017244Y-84034956D01*
X298832344Y-83958368D01*
X298665938Y-83847179D01*
X298665935Y-83847177D01*
X298524423Y-83705665D01*
X298413232Y-83539256D01*
X298336644Y-83354355D01*
X298297600Y-83158069D01*
X298297600Y-82957931D01*
X298336644Y-82761645D01*
X298413232Y-82576744D01*
X298524423Y-82410335D01*
X298665935Y-82268823D01*
X298832344Y-82157632D01*
X299017244Y-82081044D01*
X299082674Y-82068029D01*
X299213531Y-82042000D01*
X299413669Y-82042000D01*
X299544526Y-82068029D01*
X299544526Y-82068029D01*
G37*
G36*
X132158526Y-82068029D02*
X132223956Y-82081044D01*
X132408856Y-82157632D01*
X132575265Y-82268823D01*
X132716777Y-82410335D01*
X132827968Y-82576744D01*
X132904556Y-82761645D01*
X132943600Y-82957931D01*
X132943600Y-83158069D01*
X132904556Y-83354355D01*
X132827968Y-83539256D01*
X132716777Y-83705665D01*
X132575265Y-83847177D01*
X132575262Y-83847179D01*
X132408856Y-83958368D01*
X132223956Y-84034956D01*
X132158526Y-84047971D01*
X132027669Y-84074000D01*
X131827531Y-84074000D01*
X131696674Y-84047971D01*
X131631244Y-84034956D01*
X131446344Y-83958368D01*
X131279938Y-83847179D01*
X131279935Y-83847177D01*
X131138423Y-83705665D01*
X131027232Y-83539256D01*
X130950644Y-83354355D01*
X130911600Y-83158069D01*
X130911600Y-82957931D01*
X130950644Y-82761645D01*
X131027232Y-82576744D01*
X131138423Y-82410335D01*
X131279935Y-82268823D01*
X131446344Y-82157632D01*
X131631244Y-82081044D01*
X131696674Y-82068029D01*
X131827531Y-82042000D01*
X132027669Y-82042000D01*
X132158526Y-82068029D01*
X132158526Y-82068029D01*
G37*
G36*
X130403600Y-84074000D02*
X128371600Y-84074000D01*
X128371600Y-82042000D01*
X130403600Y-82042000D01*
X130403600Y-84074000D01*
X130403600Y-84074000D01*
G37*
G36*
X244782126Y-82068029D02*
X244847556Y-82081044D01*
X245032456Y-82157632D01*
X245198865Y-82268823D01*
X245340377Y-82410335D01*
X245451568Y-82576744D01*
X245528156Y-82761645D01*
X245567200Y-82957931D01*
X245567200Y-83158069D01*
X245528156Y-83354355D01*
X245451568Y-83539256D01*
X245340377Y-83705665D01*
X245198865Y-83847177D01*
X245198862Y-83847179D01*
X245032456Y-83958368D01*
X244847556Y-84034956D01*
X244782126Y-84047971D01*
X244651269Y-84074000D01*
X244451131Y-84074000D01*
X244320274Y-84047971D01*
X244254844Y-84034956D01*
X244069944Y-83958368D01*
X243903538Y-83847179D01*
X243903535Y-83847177D01*
X243762023Y-83705665D01*
X243650832Y-83539256D01*
X243574244Y-83354355D01*
X243535200Y-83158069D01*
X243535200Y-82957931D01*
X243574244Y-82761645D01*
X243650832Y-82576744D01*
X243762023Y-82410335D01*
X243903535Y-82268823D01*
X244069944Y-82157632D01*
X244254844Y-82081044D01*
X244320274Y-82068029D01*
X244451131Y-82042000D01*
X244651269Y-82042000D01*
X244782126Y-82068029D01*
X244782126Y-82068029D01*
G37*
G36*
X242242126Y-82068029D02*
X242307556Y-82081044D01*
X242492456Y-82157632D01*
X242658865Y-82268823D01*
X242800377Y-82410335D01*
X242911568Y-82576744D01*
X242988156Y-82761645D01*
X243027200Y-82957931D01*
X243027200Y-83158069D01*
X242988156Y-83354355D01*
X242911568Y-83539256D01*
X242800377Y-83705665D01*
X242658865Y-83847177D01*
X242658862Y-83847179D01*
X242492456Y-83958368D01*
X242307556Y-84034956D01*
X242242126Y-84047971D01*
X242111269Y-84074000D01*
X241911131Y-84074000D01*
X241780274Y-84047971D01*
X241714844Y-84034956D01*
X241529944Y-83958368D01*
X241363538Y-83847179D01*
X241363535Y-83847177D01*
X241222023Y-83705665D01*
X241110832Y-83539256D01*
X241034244Y-83354355D01*
X240995200Y-83158069D01*
X240995200Y-82957931D01*
X241034244Y-82761645D01*
X241110832Y-82576744D01*
X241222023Y-82410335D01*
X241363535Y-82268823D01*
X241529944Y-82157632D01*
X241714844Y-82081044D01*
X241780274Y-82068029D01*
X241911131Y-82042000D01*
X242111269Y-82042000D01*
X242242126Y-82068029D01*
X242242126Y-82068029D01*
G37*
G36*
X239702126Y-82068029D02*
X239767556Y-82081044D01*
X239952456Y-82157632D01*
X240118865Y-82268823D01*
X240260377Y-82410335D01*
X240371568Y-82576744D01*
X240448156Y-82761645D01*
X240487200Y-82957931D01*
X240487200Y-83158069D01*
X240448156Y-83354355D01*
X240371568Y-83539256D01*
X240260377Y-83705665D01*
X240118865Y-83847177D01*
X240118862Y-83847179D01*
X239952456Y-83958368D01*
X239767556Y-84034956D01*
X239702126Y-84047971D01*
X239571269Y-84074000D01*
X239371131Y-84074000D01*
X239240274Y-84047971D01*
X239174844Y-84034956D01*
X238989944Y-83958368D01*
X238823538Y-83847179D01*
X238823535Y-83847177D01*
X238682023Y-83705665D01*
X238570832Y-83539256D01*
X238494244Y-83354355D01*
X238455200Y-83158069D01*
X238455200Y-82957931D01*
X238494244Y-82761645D01*
X238570832Y-82576744D01*
X238682023Y-82410335D01*
X238823535Y-82268823D01*
X238989944Y-82157632D01*
X239174844Y-82081044D01*
X239240274Y-82068029D01*
X239371131Y-82042000D01*
X239571269Y-82042000D01*
X239702126Y-82068029D01*
X239702126Y-82068029D01*
G37*
G36*
X237162126Y-82068029D02*
X237227556Y-82081044D01*
X237412456Y-82157632D01*
X237578865Y-82268823D01*
X237720377Y-82410335D01*
X237831568Y-82576744D01*
X237908156Y-82761645D01*
X237947200Y-82957931D01*
X237947200Y-83158069D01*
X237908156Y-83354355D01*
X237831568Y-83539256D01*
X237720377Y-83705665D01*
X237578865Y-83847177D01*
X237578862Y-83847179D01*
X237412456Y-83958368D01*
X237227556Y-84034956D01*
X237162126Y-84047971D01*
X237031269Y-84074000D01*
X236831131Y-84074000D01*
X236700274Y-84047971D01*
X236634844Y-84034956D01*
X236449944Y-83958368D01*
X236283538Y-83847179D01*
X236283535Y-83847177D01*
X236142023Y-83705665D01*
X236030832Y-83539256D01*
X235954244Y-83354355D01*
X235915200Y-83158069D01*
X235915200Y-82957931D01*
X235954244Y-82761645D01*
X236030832Y-82576744D01*
X236142023Y-82410335D01*
X236283535Y-82268823D01*
X236449944Y-82157632D01*
X236634844Y-82081044D01*
X236700274Y-82068029D01*
X236831131Y-82042000D01*
X237031269Y-82042000D01*
X237162126Y-82068029D01*
X237162126Y-82068029D01*
G37*
G36*
X234622126Y-82068029D02*
X234687556Y-82081044D01*
X234872456Y-82157632D01*
X235038865Y-82268823D01*
X235180377Y-82410335D01*
X235291568Y-82576744D01*
X235368156Y-82761645D01*
X235407200Y-82957931D01*
X235407200Y-83158069D01*
X235368156Y-83354355D01*
X235291568Y-83539256D01*
X235180377Y-83705665D01*
X235038865Y-83847177D01*
X235038862Y-83847179D01*
X234872456Y-83958368D01*
X234687556Y-84034956D01*
X234622126Y-84047971D01*
X234491269Y-84074000D01*
X234291131Y-84074000D01*
X234160274Y-84047971D01*
X234094844Y-84034956D01*
X233909944Y-83958368D01*
X233743538Y-83847179D01*
X233743535Y-83847177D01*
X233602023Y-83705665D01*
X233490832Y-83539256D01*
X233414244Y-83354355D01*
X233375200Y-83158069D01*
X233375200Y-82957931D01*
X233414244Y-82761645D01*
X233490832Y-82576744D01*
X233602023Y-82410335D01*
X233743535Y-82268823D01*
X233909944Y-82157632D01*
X234094844Y-82081044D01*
X234160274Y-82068029D01*
X234291131Y-82042000D01*
X234491269Y-82042000D01*
X234622126Y-82068029D01*
X234622126Y-82068029D01*
G37*
G36*
X232082126Y-82068029D02*
X232147556Y-82081044D01*
X232332456Y-82157632D01*
X232498865Y-82268823D01*
X232640377Y-82410335D01*
X232751568Y-82576744D01*
X232828156Y-82761645D01*
X232867200Y-82957931D01*
X232867200Y-83158069D01*
X232828156Y-83354355D01*
X232751568Y-83539256D01*
X232640377Y-83705665D01*
X232498865Y-83847177D01*
X232498862Y-83847179D01*
X232332456Y-83958368D01*
X232147556Y-84034956D01*
X232082126Y-84047971D01*
X231951269Y-84074000D01*
X231751131Y-84074000D01*
X231620274Y-84047971D01*
X231554844Y-84034956D01*
X231369944Y-83958368D01*
X231203538Y-83847179D01*
X231203535Y-83847177D01*
X231062023Y-83705665D01*
X230950832Y-83539256D01*
X230874244Y-83354355D01*
X230835200Y-83158069D01*
X230835200Y-82957931D01*
X230874244Y-82761645D01*
X230950832Y-82576744D01*
X231062023Y-82410335D01*
X231203535Y-82268823D01*
X231369944Y-82157632D01*
X231554844Y-82081044D01*
X231620274Y-82068029D01*
X231751131Y-82042000D01*
X231951269Y-82042000D01*
X232082126Y-82068029D01*
X232082126Y-82068029D01*
G37*
G36*
X229542126Y-82068029D02*
X229607556Y-82081044D01*
X229792456Y-82157632D01*
X229958865Y-82268823D01*
X230100377Y-82410335D01*
X230211568Y-82576744D01*
X230288156Y-82761645D01*
X230327200Y-82957931D01*
X230327200Y-83158069D01*
X230288156Y-83354355D01*
X230211568Y-83539256D01*
X230100377Y-83705665D01*
X229958865Y-83847177D01*
X229958862Y-83847179D01*
X229792456Y-83958368D01*
X229607556Y-84034956D01*
X229542126Y-84047971D01*
X229411269Y-84074000D01*
X229211131Y-84074000D01*
X229080274Y-84047971D01*
X229014844Y-84034956D01*
X228829944Y-83958368D01*
X228663538Y-83847179D01*
X228663535Y-83847177D01*
X228522023Y-83705665D01*
X228410832Y-83539256D01*
X228334244Y-83354355D01*
X228295200Y-83158069D01*
X228295200Y-82957931D01*
X228334244Y-82761645D01*
X228410832Y-82576744D01*
X228522023Y-82410335D01*
X228663535Y-82268823D01*
X228829944Y-82157632D01*
X229014844Y-82081044D01*
X229080274Y-82068029D01*
X229211131Y-82042000D01*
X229411269Y-82042000D01*
X229542126Y-82068029D01*
X229542126Y-82068029D01*
G37*
G36*
X227787200Y-84074000D02*
X225755200Y-84074000D01*
X225755200Y-82042000D01*
X227787200Y-82042000D01*
X227787200Y-84074000D01*
X227787200Y-84074000D01*
G37*
G36*
X309704526Y-82068029D02*
X309769956Y-82081044D01*
X309954856Y-82157632D01*
X310121265Y-82268823D01*
X310262777Y-82410335D01*
X310373968Y-82576744D01*
X310450556Y-82761645D01*
X310489600Y-82957931D01*
X310489600Y-83158069D01*
X310450556Y-83354355D01*
X310373968Y-83539256D01*
X310262777Y-83705665D01*
X310121265Y-83847177D01*
X310121262Y-83847179D01*
X309954856Y-83958368D01*
X309769956Y-84034956D01*
X309704526Y-84047971D01*
X309573669Y-84074000D01*
X309373531Y-84074000D01*
X309242674Y-84047971D01*
X309177244Y-84034956D01*
X308992344Y-83958368D01*
X308825938Y-83847179D01*
X308825935Y-83847177D01*
X308684423Y-83705665D01*
X308573232Y-83539256D01*
X308496644Y-83354355D01*
X308457600Y-83158069D01*
X308457600Y-82957931D01*
X308496644Y-82761645D01*
X308573232Y-82576744D01*
X308684423Y-82410335D01*
X308825935Y-82268823D01*
X308992344Y-82157632D01*
X309177244Y-82081044D01*
X309242674Y-82068029D01*
X309373531Y-82042000D01*
X309573669Y-82042000D01*
X309704526Y-82068029D01*
X309704526Y-82068029D01*
G37*
G36*
X307164526Y-82068029D02*
X307229956Y-82081044D01*
X307414856Y-82157632D01*
X307581265Y-82268823D01*
X307722777Y-82410335D01*
X307833968Y-82576744D01*
X307910556Y-82761645D01*
X307949600Y-82957931D01*
X307949600Y-83158069D01*
X307910556Y-83354355D01*
X307833968Y-83539256D01*
X307722777Y-83705665D01*
X307581265Y-83847177D01*
X307581262Y-83847179D01*
X307414856Y-83958368D01*
X307229956Y-84034956D01*
X307164526Y-84047971D01*
X307033669Y-84074000D01*
X306833531Y-84074000D01*
X306702674Y-84047971D01*
X306637244Y-84034956D01*
X306452344Y-83958368D01*
X306285938Y-83847179D01*
X306285935Y-83847177D01*
X306144423Y-83705665D01*
X306033232Y-83539256D01*
X305956644Y-83354355D01*
X305917600Y-83158069D01*
X305917600Y-82957931D01*
X305956644Y-82761645D01*
X306033232Y-82576744D01*
X306144423Y-82410335D01*
X306285935Y-82268823D01*
X306452344Y-82157632D01*
X306637244Y-82081044D01*
X306702674Y-82068029D01*
X306833531Y-82042000D01*
X307033669Y-82042000D01*
X307164526Y-82068029D01*
X307164526Y-82068029D01*
G37*
G36*
X304624526Y-82068029D02*
X304689956Y-82081044D01*
X304874856Y-82157632D01*
X305041265Y-82268823D01*
X305182777Y-82410335D01*
X305293968Y-82576744D01*
X305370556Y-82761645D01*
X305409600Y-82957931D01*
X305409600Y-83158069D01*
X305370556Y-83354355D01*
X305293968Y-83539256D01*
X305182777Y-83705665D01*
X305041265Y-83847177D01*
X305041262Y-83847179D01*
X304874856Y-83958368D01*
X304689956Y-84034956D01*
X304624526Y-84047971D01*
X304493669Y-84074000D01*
X304293531Y-84074000D01*
X304162674Y-84047971D01*
X304097244Y-84034956D01*
X303912344Y-83958368D01*
X303745938Y-83847179D01*
X303745935Y-83847177D01*
X303604423Y-83705665D01*
X303493232Y-83539256D01*
X303416644Y-83354355D01*
X303377600Y-83158069D01*
X303377600Y-82957931D01*
X303416644Y-82761645D01*
X303493232Y-82576744D01*
X303604423Y-82410335D01*
X303745935Y-82268823D01*
X303912344Y-82157632D01*
X304097244Y-82081044D01*
X304162674Y-82068029D01*
X304293531Y-82042000D01*
X304493669Y-82042000D01*
X304624526Y-82068029D01*
X304624526Y-82068029D01*
G37*
G36*
X197080926Y-82068029D02*
X197146356Y-82081044D01*
X197331256Y-82157632D01*
X197497665Y-82268823D01*
X197639177Y-82410335D01*
X197750368Y-82576744D01*
X197826956Y-82761645D01*
X197866000Y-82957931D01*
X197866000Y-83158069D01*
X197826956Y-83354355D01*
X197750368Y-83539256D01*
X197639177Y-83705665D01*
X197497665Y-83847177D01*
X197497662Y-83847179D01*
X197331256Y-83958368D01*
X197146356Y-84034956D01*
X197080926Y-84047971D01*
X196950069Y-84074000D01*
X196749931Y-84074000D01*
X196619074Y-84047971D01*
X196553644Y-84034956D01*
X196368744Y-83958368D01*
X196202338Y-83847179D01*
X196202335Y-83847177D01*
X196060823Y-83705665D01*
X195949632Y-83539256D01*
X195873044Y-83354355D01*
X195834000Y-83158069D01*
X195834000Y-82957931D01*
X195873044Y-82761645D01*
X195949632Y-82576744D01*
X196060823Y-82410335D01*
X196202335Y-82268823D01*
X196368744Y-82157632D01*
X196553644Y-82081044D01*
X196619074Y-82068029D01*
X196749931Y-82042000D01*
X196950069Y-82042000D01*
X197080926Y-82068029D01*
X197080926Y-82068029D01*
G37*
G36*
X114937326Y-82068029D02*
X115002756Y-82081044D01*
X115187656Y-82157632D01*
X115354065Y-82268823D01*
X115495577Y-82410335D01*
X115606768Y-82576744D01*
X115683356Y-82761645D01*
X115722400Y-82957931D01*
X115722400Y-83158069D01*
X115683356Y-83354355D01*
X115606768Y-83539256D01*
X115495577Y-83705665D01*
X115354065Y-83847177D01*
X115354062Y-83847179D01*
X115187656Y-83958368D01*
X115002756Y-84034956D01*
X114937326Y-84047971D01*
X114806469Y-84074000D01*
X114606331Y-84074000D01*
X114475474Y-84047971D01*
X114410044Y-84034956D01*
X114225144Y-83958368D01*
X114058738Y-83847179D01*
X114058735Y-83847177D01*
X113917223Y-83705665D01*
X113806032Y-83539256D01*
X113729444Y-83354355D01*
X113690400Y-83158069D01*
X113690400Y-82957931D01*
X113729444Y-82761645D01*
X113806032Y-82576744D01*
X113917223Y-82410335D01*
X114058735Y-82268823D01*
X114225144Y-82157632D01*
X114410044Y-82081044D01*
X114475474Y-82068029D01*
X114606331Y-82042000D01*
X114806469Y-82042000D01*
X114937326Y-82068029D01*
X114937326Y-82068029D01*
G37*
G36*
X162864800Y-84074000D02*
X160832800Y-84074000D01*
X160832800Y-82042000D01*
X162864800Y-82042000D01*
X162864800Y-84074000D01*
X162864800Y-84074000D01*
G37*
G36*
X164619726Y-82068029D02*
X164685156Y-82081044D01*
X164870056Y-82157632D01*
X165036465Y-82268823D01*
X165177977Y-82410335D01*
X165289168Y-82576744D01*
X165365756Y-82761645D01*
X165404800Y-82957931D01*
X165404800Y-83158069D01*
X165365756Y-83354355D01*
X165289168Y-83539256D01*
X165177977Y-83705665D01*
X165036465Y-83847177D01*
X165036462Y-83847179D01*
X164870056Y-83958368D01*
X164685156Y-84034956D01*
X164619726Y-84047971D01*
X164488869Y-84074000D01*
X164288731Y-84074000D01*
X164157874Y-84047971D01*
X164092444Y-84034956D01*
X163907544Y-83958368D01*
X163741138Y-83847179D01*
X163741135Y-83847177D01*
X163599623Y-83705665D01*
X163488432Y-83539256D01*
X163411844Y-83354355D01*
X163372800Y-83158069D01*
X163372800Y-82957931D01*
X163411844Y-82761645D01*
X163488432Y-82576744D01*
X163599623Y-82410335D01*
X163741135Y-82268823D01*
X163907544Y-82157632D01*
X164092444Y-82081044D01*
X164157874Y-82068029D01*
X164288731Y-82042000D01*
X164488869Y-82042000D01*
X164619726Y-82068029D01*
X164619726Y-82068029D01*
G37*
G36*
X167159726Y-82068029D02*
X167225156Y-82081044D01*
X167410056Y-82157632D01*
X167576465Y-82268823D01*
X167717977Y-82410335D01*
X167829168Y-82576744D01*
X167905756Y-82761645D01*
X167944800Y-82957931D01*
X167944800Y-83158069D01*
X167905756Y-83354355D01*
X167829168Y-83539256D01*
X167717977Y-83705665D01*
X167576465Y-83847177D01*
X167576462Y-83847179D01*
X167410056Y-83958368D01*
X167225156Y-84034956D01*
X167159726Y-84047971D01*
X167028869Y-84074000D01*
X166828731Y-84074000D01*
X166697874Y-84047971D01*
X166632444Y-84034956D01*
X166447544Y-83958368D01*
X166281138Y-83847179D01*
X166281135Y-83847177D01*
X166139623Y-83705665D01*
X166028432Y-83539256D01*
X165951844Y-83354355D01*
X165912800Y-83158069D01*
X165912800Y-82957931D01*
X165951844Y-82761645D01*
X166028432Y-82576744D01*
X166139623Y-82410335D01*
X166281135Y-82268823D01*
X166447544Y-82157632D01*
X166632444Y-82081044D01*
X166697874Y-82068029D01*
X166828731Y-82042000D01*
X167028869Y-82042000D01*
X167159726Y-82068029D01*
X167159726Y-82068029D01*
G37*
G36*
X169699726Y-82068029D02*
X169765156Y-82081044D01*
X169950056Y-82157632D01*
X170116465Y-82268823D01*
X170257977Y-82410335D01*
X170369168Y-82576744D01*
X170445756Y-82761645D01*
X170484800Y-82957931D01*
X170484800Y-83158069D01*
X170445756Y-83354355D01*
X170369168Y-83539256D01*
X170257977Y-83705665D01*
X170116465Y-83847177D01*
X170116462Y-83847179D01*
X169950056Y-83958368D01*
X169765156Y-84034956D01*
X169699726Y-84047971D01*
X169568869Y-84074000D01*
X169368731Y-84074000D01*
X169237874Y-84047971D01*
X169172444Y-84034956D01*
X168987544Y-83958368D01*
X168821138Y-83847179D01*
X168821135Y-83847177D01*
X168679623Y-83705665D01*
X168568432Y-83539256D01*
X168491844Y-83354355D01*
X168452800Y-83158069D01*
X168452800Y-82957931D01*
X168491844Y-82761645D01*
X168568432Y-82576744D01*
X168679623Y-82410335D01*
X168821135Y-82268823D01*
X168987544Y-82157632D01*
X169172444Y-82081044D01*
X169237874Y-82068029D01*
X169368731Y-82042000D01*
X169568869Y-82042000D01*
X169699726Y-82068029D01*
X169699726Y-82068029D01*
G37*
G36*
X172239726Y-82068029D02*
X172305156Y-82081044D01*
X172490056Y-82157632D01*
X172656465Y-82268823D01*
X172797977Y-82410335D01*
X172909168Y-82576744D01*
X172985756Y-82761645D01*
X173024800Y-82957931D01*
X173024800Y-83158069D01*
X172985756Y-83354355D01*
X172909168Y-83539256D01*
X172797977Y-83705665D01*
X172656465Y-83847177D01*
X172656462Y-83847179D01*
X172490056Y-83958368D01*
X172305156Y-84034956D01*
X172239726Y-84047971D01*
X172108869Y-84074000D01*
X171908731Y-84074000D01*
X171777874Y-84047971D01*
X171712444Y-84034956D01*
X171527544Y-83958368D01*
X171361138Y-83847179D01*
X171361135Y-83847177D01*
X171219623Y-83705665D01*
X171108432Y-83539256D01*
X171031844Y-83354355D01*
X170992800Y-83158069D01*
X170992800Y-82957931D01*
X171031844Y-82761645D01*
X171108432Y-82576744D01*
X171219623Y-82410335D01*
X171361135Y-82268823D01*
X171527544Y-82157632D01*
X171712444Y-82081044D01*
X171777874Y-82068029D01*
X171908731Y-82042000D01*
X172108869Y-82042000D01*
X172239726Y-82068029D01*
X172239726Y-82068029D01*
G37*
G36*
X174779726Y-82068029D02*
X174845156Y-82081044D01*
X175030056Y-82157632D01*
X175196465Y-82268823D01*
X175337977Y-82410335D01*
X175449168Y-82576744D01*
X175525756Y-82761645D01*
X175564800Y-82957931D01*
X175564800Y-83158069D01*
X175525756Y-83354355D01*
X175449168Y-83539256D01*
X175337977Y-83705665D01*
X175196465Y-83847177D01*
X175196462Y-83847179D01*
X175030056Y-83958368D01*
X174845156Y-84034956D01*
X174779726Y-84047971D01*
X174648869Y-84074000D01*
X174448731Y-84074000D01*
X174317874Y-84047971D01*
X174252444Y-84034956D01*
X174067544Y-83958368D01*
X173901138Y-83847179D01*
X173901135Y-83847177D01*
X173759623Y-83705665D01*
X173648432Y-83539256D01*
X173571844Y-83354355D01*
X173532800Y-83158069D01*
X173532800Y-82957931D01*
X173571844Y-82761645D01*
X173648432Y-82576744D01*
X173759623Y-82410335D01*
X173901135Y-82268823D01*
X174067544Y-82157632D01*
X174252444Y-82081044D01*
X174317874Y-82068029D01*
X174448731Y-82042000D01*
X174648869Y-82042000D01*
X174779726Y-82068029D01*
X174779726Y-82068029D01*
G37*
G36*
X177319726Y-82068029D02*
X177385156Y-82081044D01*
X177570056Y-82157632D01*
X177736465Y-82268823D01*
X177877977Y-82410335D01*
X177989168Y-82576744D01*
X178065756Y-82761645D01*
X178104800Y-82957931D01*
X178104800Y-83158069D01*
X178065756Y-83354355D01*
X177989168Y-83539256D01*
X177877977Y-83705665D01*
X177736465Y-83847177D01*
X177736462Y-83847179D01*
X177570056Y-83958368D01*
X177385156Y-84034956D01*
X177319726Y-84047971D01*
X177188869Y-84074000D01*
X176988731Y-84074000D01*
X176857874Y-84047971D01*
X176792444Y-84034956D01*
X176607544Y-83958368D01*
X176441138Y-83847179D01*
X176441135Y-83847177D01*
X176299623Y-83705665D01*
X176188432Y-83539256D01*
X176111844Y-83354355D01*
X176072800Y-83158069D01*
X176072800Y-82957931D01*
X176111844Y-82761645D01*
X176188432Y-82576744D01*
X176299623Y-82410335D01*
X176441135Y-82268823D01*
X176607544Y-82157632D01*
X176792444Y-82081044D01*
X176857874Y-82068029D01*
X176988731Y-82042000D01*
X177188869Y-82042000D01*
X177319726Y-82068029D01*
X177319726Y-82068029D01*
G37*
G36*
X179859726Y-82068029D02*
X179925156Y-82081044D01*
X180110056Y-82157632D01*
X180276465Y-82268823D01*
X180417977Y-82410335D01*
X180529168Y-82576744D01*
X180605756Y-82761645D01*
X180644800Y-82957931D01*
X180644800Y-83158069D01*
X180605756Y-83354355D01*
X180529168Y-83539256D01*
X180417977Y-83705665D01*
X180276465Y-83847177D01*
X180276462Y-83847179D01*
X180110056Y-83958368D01*
X179925156Y-84034956D01*
X179859726Y-84047971D01*
X179728869Y-84074000D01*
X179528731Y-84074000D01*
X179397874Y-84047971D01*
X179332444Y-84034956D01*
X179147544Y-83958368D01*
X178981138Y-83847179D01*
X178981135Y-83847177D01*
X178839623Y-83705665D01*
X178728432Y-83539256D01*
X178651844Y-83354355D01*
X178612800Y-83158069D01*
X178612800Y-82957931D01*
X178651844Y-82761645D01*
X178728432Y-82576744D01*
X178839623Y-82410335D01*
X178981135Y-82268823D01*
X179147544Y-82157632D01*
X179332444Y-82081044D01*
X179397874Y-82068029D01*
X179528731Y-82042000D01*
X179728869Y-82042000D01*
X179859726Y-82068029D01*
X179859726Y-82068029D01*
G37*
G36*
X292709600Y-84074000D02*
X290677600Y-84074000D01*
X290677600Y-82042000D01*
X292709600Y-82042000D01*
X292709600Y-84074000D01*
X292709600Y-84074000D01*
G37*
G36*
X294464526Y-82068029D02*
X294529956Y-82081044D01*
X294714856Y-82157632D01*
X294881265Y-82268823D01*
X295022777Y-82410335D01*
X295133968Y-82576744D01*
X295210556Y-82761645D01*
X295249600Y-82957931D01*
X295249600Y-83158069D01*
X295210556Y-83354355D01*
X295133968Y-83539256D01*
X295022777Y-83705665D01*
X294881265Y-83847177D01*
X294881262Y-83847179D01*
X294714856Y-83958368D01*
X294529956Y-84034956D01*
X294464526Y-84047971D01*
X294333669Y-84074000D01*
X294133531Y-84074000D01*
X294002674Y-84047971D01*
X293937244Y-84034956D01*
X293752344Y-83958368D01*
X293585938Y-83847179D01*
X293585935Y-83847177D01*
X293444423Y-83705665D01*
X293333232Y-83539256D01*
X293256644Y-83354355D01*
X293217600Y-83158069D01*
X293217600Y-82957931D01*
X293256644Y-82761645D01*
X293333232Y-82576744D01*
X293444423Y-82410335D01*
X293585935Y-82268823D01*
X293752344Y-82157632D01*
X293937244Y-82081044D01*
X294002674Y-82068029D01*
X294133531Y-82042000D01*
X294333669Y-82042000D01*
X294464526Y-82068029D01*
X294464526Y-82068029D01*
G37*
G36*
X297004526Y-82068029D02*
X297069956Y-82081044D01*
X297254856Y-82157632D01*
X297421265Y-82268823D01*
X297562777Y-82410335D01*
X297673968Y-82576744D01*
X297750556Y-82761645D01*
X297789600Y-82957931D01*
X297789600Y-83158069D01*
X297750556Y-83354355D01*
X297673968Y-83539256D01*
X297562777Y-83705665D01*
X297421265Y-83847177D01*
X297421262Y-83847179D01*
X297254856Y-83958368D01*
X297069956Y-84034956D01*
X297004526Y-84047971D01*
X296873669Y-84074000D01*
X296673531Y-84074000D01*
X296542674Y-84047971D01*
X296477244Y-84034956D01*
X296292344Y-83958368D01*
X296125938Y-83847179D01*
X296125935Y-83847177D01*
X295984423Y-83705665D01*
X295873232Y-83539256D01*
X295796644Y-83354355D01*
X295757600Y-83158069D01*
X295757600Y-82957931D01*
X295796644Y-82761645D01*
X295873232Y-82576744D01*
X295984423Y-82410335D01*
X296125935Y-82268823D01*
X296292344Y-82157632D01*
X296477244Y-82081044D01*
X296542674Y-82068029D01*
X296673531Y-82042000D01*
X296873669Y-82042000D01*
X297004526Y-82068029D01*
X297004526Y-82068029D01*
G37*
G36*
X195326000Y-84074000D02*
X193294000Y-84074000D01*
X193294000Y-82042000D01*
X195326000Y-82042000D01*
X195326000Y-84074000D01*
X195326000Y-84074000D01*
G37*
G36*
X109857326Y-82068029D02*
X109922756Y-82081044D01*
X110107656Y-82157632D01*
X110274065Y-82268823D01*
X110415577Y-82410335D01*
X110526768Y-82576744D01*
X110603356Y-82761645D01*
X110642400Y-82957931D01*
X110642400Y-83158069D01*
X110603356Y-83354355D01*
X110526768Y-83539256D01*
X110415577Y-83705665D01*
X110274065Y-83847177D01*
X110274062Y-83847179D01*
X110107656Y-83958368D01*
X109922756Y-84034956D01*
X109857326Y-84047971D01*
X109726469Y-84074000D01*
X109526331Y-84074000D01*
X109395474Y-84047971D01*
X109330044Y-84034956D01*
X109145144Y-83958368D01*
X108978738Y-83847179D01*
X108978735Y-83847177D01*
X108837223Y-83705665D01*
X108726032Y-83539256D01*
X108649444Y-83354355D01*
X108610400Y-83158069D01*
X108610400Y-82957931D01*
X108649444Y-82761645D01*
X108726032Y-82576744D01*
X108837223Y-82410335D01*
X108978735Y-82268823D01*
X109145144Y-82157632D01*
X109330044Y-82081044D01*
X109395474Y-82068029D01*
X109526331Y-82042000D01*
X109726469Y-82042000D01*
X109857326Y-82068029D01*
X109857326Y-82068029D01*
G37*
G36*
X134698526Y-82068029D02*
X134763956Y-82081044D01*
X134948856Y-82157632D01*
X135115265Y-82268823D01*
X135256777Y-82410335D01*
X135367968Y-82576744D01*
X135444556Y-82761645D01*
X135483600Y-82957931D01*
X135483600Y-83158069D01*
X135444556Y-83354355D01*
X135367968Y-83539256D01*
X135256777Y-83705665D01*
X135115265Y-83847177D01*
X135115262Y-83847179D01*
X134948856Y-83958368D01*
X134763956Y-84034956D01*
X134698526Y-84047971D01*
X134567669Y-84074000D01*
X134367531Y-84074000D01*
X134236674Y-84047971D01*
X134171244Y-84034956D01*
X133986344Y-83958368D01*
X133819938Y-83847179D01*
X133819935Y-83847177D01*
X133678423Y-83705665D01*
X133567232Y-83539256D01*
X133490644Y-83354355D01*
X133451600Y-83158069D01*
X133451600Y-82957931D01*
X133490644Y-82761645D01*
X133567232Y-82576744D01*
X133678423Y-82410335D01*
X133819935Y-82268823D01*
X133986344Y-82157632D01*
X134171244Y-82081044D01*
X134236674Y-82068029D01*
X134367531Y-82042000D01*
X134567669Y-82042000D01*
X134698526Y-82068029D01*
X134698526Y-82068029D01*
G37*
G36*
X199620926Y-82068029D02*
X199686356Y-82081044D01*
X199871256Y-82157632D01*
X200037665Y-82268823D01*
X200179177Y-82410335D01*
X200290368Y-82576744D01*
X200366956Y-82761645D01*
X200406000Y-82957931D01*
X200406000Y-83158069D01*
X200366956Y-83354355D01*
X200290368Y-83539256D01*
X200179177Y-83705665D01*
X200037665Y-83847177D01*
X200037662Y-83847179D01*
X199871256Y-83958368D01*
X199686356Y-84034956D01*
X199620926Y-84047971D01*
X199490069Y-84074000D01*
X199289931Y-84074000D01*
X199159074Y-84047971D01*
X199093644Y-84034956D01*
X198908744Y-83958368D01*
X198742338Y-83847179D01*
X198742335Y-83847177D01*
X198600823Y-83705665D01*
X198489632Y-83539256D01*
X198413044Y-83354355D01*
X198374000Y-83158069D01*
X198374000Y-82957931D01*
X198413044Y-82761645D01*
X198489632Y-82576744D01*
X198600823Y-82410335D01*
X198742335Y-82268823D01*
X198908744Y-82157632D01*
X199093644Y-82081044D01*
X199159074Y-82068029D01*
X199289931Y-82042000D01*
X199490069Y-82042000D01*
X199620926Y-82068029D01*
X199620926Y-82068029D01*
G37*
G36*
X202160926Y-82068029D02*
X202226356Y-82081044D01*
X202411256Y-82157632D01*
X202577665Y-82268823D01*
X202719177Y-82410335D01*
X202830368Y-82576744D01*
X202906956Y-82761645D01*
X202946000Y-82957931D01*
X202946000Y-83158069D01*
X202906956Y-83354355D01*
X202830368Y-83539256D01*
X202719177Y-83705665D01*
X202577665Y-83847177D01*
X202577662Y-83847179D01*
X202411256Y-83958368D01*
X202226356Y-84034956D01*
X202160926Y-84047971D01*
X202030069Y-84074000D01*
X201829931Y-84074000D01*
X201699074Y-84047971D01*
X201633644Y-84034956D01*
X201448744Y-83958368D01*
X201282338Y-83847179D01*
X201282335Y-83847177D01*
X201140823Y-83705665D01*
X201029632Y-83539256D01*
X200953044Y-83354355D01*
X200914000Y-83158069D01*
X200914000Y-82957931D01*
X200953044Y-82761645D01*
X201029632Y-82576744D01*
X201140823Y-82410335D01*
X201282335Y-82268823D01*
X201448744Y-82157632D01*
X201633644Y-82081044D01*
X201699074Y-82068029D01*
X201829931Y-82042000D01*
X202030069Y-82042000D01*
X202160926Y-82068029D01*
X202160926Y-82068029D01*
G37*
G36*
X204700926Y-82068029D02*
X204766356Y-82081044D01*
X204951256Y-82157632D01*
X205117665Y-82268823D01*
X205259177Y-82410335D01*
X205370368Y-82576744D01*
X205446956Y-82761645D01*
X205486000Y-82957931D01*
X205486000Y-83158069D01*
X205446956Y-83354355D01*
X205370368Y-83539256D01*
X205259177Y-83705665D01*
X205117665Y-83847177D01*
X205117662Y-83847179D01*
X204951256Y-83958368D01*
X204766356Y-84034956D01*
X204700926Y-84047971D01*
X204570069Y-84074000D01*
X204369931Y-84074000D01*
X204239074Y-84047971D01*
X204173644Y-84034956D01*
X203988744Y-83958368D01*
X203822338Y-83847179D01*
X203822335Y-83847177D01*
X203680823Y-83705665D01*
X203569632Y-83539256D01*
X203493044Y-83354355D01*
X203454000Y-83158069D01*
X203454000Y-82957931D01*
X203493044Y-82761645D01*
X203569632Y-82576744D01*
X203680823Y-82410335D01*
X203822335Y-82268823D01*
X203988744Y-82157632D01*
X204173644Y-82081044D01*
X204239074Y-82068029D01*
X204369931Y-82042000D01*
X204570069Y-82042000D01*
X204700926Y-82068029D01*
X204700926Y-82068029D01*
G37*
G36*
X207240926Y-82068029D02*
X207306356Y-82081044D01*
X207491256Y-82157632D01*
X207657665Y-82268823D01*
X207799177Y-82410335D01*
X207910368Y-82576744D01*
X207986956Y-82761645D01*
X208026000Y-82957931D01*
X208026000Y-83158069D01*
X207986956Y-83354355D01*
X207910368Y-83539256D01*
X207799177Y-83705665D01*
X207657665Y-83847177D01*
X207657662Y-83847179D01*
X207491256Y-83958368D01*
X207306356Y-84034956D01*
X207240926Y-84047971D01*
X207110069Y-84074000D01*
X206909931Y-84074000D01*
X206779074Y-84047971D01*
X206713644Y-84034956D01*
X206528744Y-83958368D01*
X206362338Y-83847179D01*
X206362335Y-83847177D01*
X206220823Y-83705665D01*
X206109632Y-83539256D01*
X206033044Y-83354355D01*
X205994000Y-83158069D01*
X205994000Y-82957931D01*
X206033044Y-82761645D01*
X206109632Y-82576744D01*
X206220823Y-82410335D01*
X206362335Y-82268823D01*
X206528744Y-82157632D01*
X206713644Y-82081044D01*
X206779074Y-82068029D01*
X206909931Y-82042000D01*
X207110069Y-82042000D01*
X207240926Y-82068029D01*
X207240926Y-82068029D01*
G37*
G36*
X209780926Y-82068029D02*
X209846356Y-82081044D01*
X210031256Y-82157632D01*
X210197665Y-82268823D01*
X210339177Y-82410335D01*
X210450368Y-82576744D01*
X210526956Y-82761645D01*
X210566000Y-82957931D01*
X210566000Y-83158069D01*
X210526956Y-83354355D01*
X210450368Y-83539256D01*
X210339177Y-83705665D01*
X210197665Y-83847177D01*
X210197662Y-83847179D01*
X210031256Y-83958368D01*
X209846356Y-84034956D01*
X209780926Y-84047971D01*
X209650069Y-84074000D01*
X209449931Y-84074000D01*
X209319074Y-84047971D01*
X209253644Y-84034956D01*
X209068744Y-83958368D01*
X208902338Y-83847179D01*
X208902335Y-83847177D01*
X208760823Y-83705665D01*
X208649632Y-83539256D01*
X208573044Y-83354355D01*
X208534000Y-83158069D01*
X208534000Y-82957931D01*
X208573044Y-82761645D01*
X208649632Y-82576744D01*
X208760823Y-82410335D01*
X208902335Y-82268823D01*
X209068744Y-82157632D01*
X209253644Y-82081044D01*
X209319074Y-82068029D01*
X209449931Y-82042000D01*
X209650069Y-82042000D01*
X209780926Y-82068029D01*
X209780926Y-82068029D01*
G37*
G36*
X212320926Y-82068029D02*
X212386356Y-82081044D01*
X212571256Y-82157632D01*
X212737665Y-82268823D01*
X212879177Y-82410335D01*
X212990368Y-82576744D01*
X213066956Y-82761645D01*
X213106000Y-82957931D01*
X213106000Y-83158069D01*
X213066956Y-83354355D01*
X212990368Y-83539256D01*
X212879177Y-83705665D01*
X212737665Y-83847177D01*
X212737662Y-83847179D01*
X212571256Y-83958368D01*
X212386356Y-84034956D01*
X212320926Y-84047971D01*
X212190069Y-84074000D01*
X211989931Y-84074000D01*
X211859074Y-84047971D01*
X211793644Y-84034956D01*
X211608744Y-83958368D01*
X211442338Y-83847179D01*
X211442335Y-83847177D01*
X211300823Y-83705665D01*
X211189632Y-83539256D01*
X211113044Y-83354355D01*
X211074000Y-83158069D01*
X211074000Y-82957931D01*
X211113044Y-82761645D01*
X211189632Y-82576744D01*
X211300823Y-82410335D01*
X211442335Y-82268823D01*
X211608744Y-82157632D01*
X211793644Y-82081044D01*
X211859074Y-82068029D01*
X211989931Y-82042000D01*
X212190069Y-82042000D01*
X212320926Y-82068029D01*
X212320926Y-82068029D01*
G37*
G36*
X97942400Y-84074000D02*
X95910400Y-84074000D01*
X95910400Y-82042000D01*
X97942400Y-82042000D01*
X97942400Y-84074000D01*
X97942400Y-84074000D01*
G37*
G36*
X99697326Y-82068029D02*
X99762756Y-82081044D01*
X99947656Y-82157632D01*
X100114065Y-82268823D01*
X100255577Y-82410335D01*
X100366768Y-82576744D01*
X100443356Y-82761645D01*
X100482400Y-82957931D01*
X100482400Y-83158069D01*
X100443356Y-83354355D01*
X100366768Y-83539256D01*
X100255577Y-83705665D01*
X100114065Y-83847177D01*
X100114062Y-83847179D01*
X99947656Y-83958368D01*
X99762756Y-84034956D01*
X99697326Y-84047971D01*
X99566469Y-84074000D01*
X99366331Y-84074000D01*
X99235474Y-84047971D01*
X99170044Y-84034956D01*
X98985144Y-83958368D01*
X98818738Y-83847179D01*
X98818735Y-83847177D01*
X98677223Y-83705665D01*
X98566032Y-83539256D01*
X98489444Y-83354355D01*
X98450400Y-83158069D01*
X98450400Y-82957931D01*
X98489444Y-82761645D01*
X98566032Y-82576744D01*
X98677223Y-82410335D01*
X98818735Y-82268823D01*
X98985144Y-82157632D01*
X99170044Y-82081044D01*
X99235474Y-82068029D01*
X99366331Y-82042000D01*
X99566469Y-82042000D01*
X99697326Y-82068029D01*
X99697326Y-82068029D01*
G37*
G36*
X102237326Y-82068029D02*
X102302756Y-82081044D01*
X102487656Y-82157632D01*
X102654065Y-82268823D01*
X102795577Y-82410335D01*
X102906768Y-82576744D01*
X102983356Y-82761645D01*
X103022400Y-82957931D01*
X103022400Y-83158069D01*
X102983356Y-83354355D01*
X102906768Y-83539256D01*
X102795577Y-83705665D01*
X102654065Y-83847177D01*
X102654062Y-83847179D01*
X102487656Y-83958368D01*
X102302756Y-84034956D01*
X102237326Y-84047971D01*
X102106469Y-84074000D01*
X101906331Y-84074000D01*
X101775474Y-84047971D01*
X101710044Y-84034956D01*
X101525144Y-83958368D01*
X101358738Y-83847179D01*
X101358735Y-83847177D01*
X101217223Y-83705665D01*
X101106032Y-83539256D01*
X101029444Y-83354355D01*
X100990400Y-83158069D01*
X100990400Y-82957931D01*
X101029444Y-82761645D01*
X101106032Y-82576744D01*
X101217223Y-82410335D01*
X101358735Y-82268823D01*
X101525144Y-82157632D01*
X101710044Y-82081044D01*
X101775474Y-82068029D01*
X101906331Y-82042000D01*
X102106469Y-82042000D01*
X102237326Y-82068029D01*
X102237326Y-82068029D01*
G37*
G36*
X104777326Y-82068029D02*
X104842756Y-82081044D01*
X105027656Y-82157632D01*
X105194065Y-82268823D01*
X105335577Y-82410335D01*
X105446768Y-82576744D01*
X105523356Y-82761645D01*
X105562400Y-82957931D01*
X105562400Y-83158069D01*
X105523356Y-83354355D01*
X105446768Y-83539256D01*
X105335577Y-83705665D01*
X105194065Y-83847177D01*
X105194062Y-83847179D01*
X105027656Y-83958368D01*
X104842756Y-84034956D01*
X104777326Y-84047971D01*
X104646469Y-84074000D01*
X104446331Y-84074000D01*
X104315474Y-84047971D01*
X104250044Y-84034956D01*
X104065144Y-83958368D01*
X103898738Y-83847179D01*
X103898735Y-83847177D01*
X103757223Y-83705665D01*
X103646032Y-83539256D01*
X103569444Y-83354355D01*
X103530400Y-83158069D01*
X103530400Y-82957931D01*
X103569444Y-82761645D01*
X103646032Y-82576744D01*
X103757223Y-82410335D01*
X103898735Y-82268823D01*
X104065144Y-82157632D01*
X104250044Y-82081044D01*
X104315474Y-82068029D01*
X104446331Y-82042000D01*
X104646469Y-82042000D01*
X104777326Y-82068029D01*
X104777326Y-82068029D01*
G37*
G36*
X107317326Y-82068029D02*
X107382756Y-82081044D01*
X107567656Y-82157632D01*
X107734065Y-82268823D01*
X107875577Y-82410335D01*
X107986768Y-82576744D01*
X108063356Y-82761645D01*
X108102400Y-82957931D01*
X108102400Y-83158069D01*
X108063356Y-83354355D01*
X107986768Y-83539256D01*
X107875577Y-83705665D01*
X107734065Y-83847177D01*
X107734062Y-83847179D01*
X107567656Y-83958368D01*
X107382756Y-84034956D01*
X107317326Y-84047971D01*
X107186469Y-84074000D01*
X106986331Y-84074000D01*
X106855474Y-84047971D01*
X106790044Y-84034956D01*
X106605144Y-83958368D01*
X106438738Y-83847179D01*
X106438735Y-83847177D01*
X106297223Y-83705665D01*
X106186032Y-83539256D01*
X106109444Y-83354355D01*
X106070400Y-83158069D01*
X106070400Y-82957931D01*
X106109444Y-82761645D01*
X106186032Y-82576744D01*
X106297223Y-82410335D01*
X106438735Y-82268823D01*
X106605144Y-82157632D01*
X106790044Y-82081044D01*
X106855474Y-82068029D01*
X106986331Y-82042000D01*
X107186469Y-82042000D01*
X107317326Y-82068029D01*
X107317326Y-82068029D01*
G37*
G36*
X112397326Y-82068029D02*
X112462756Y-82081044D01*
X112647656Y-82157632D01*
X112814065Y-82268823D01*
X112955577Y-82410335D01*
X113066768Y-82576744D01*
X113143356Y-82761645D01*
X113182400Y-82957931D01*
X113182400Y-83158069D01*
X113143356Y-83354355D01*
X113066768Y-83539256D01*
X112955577Y-83705665D01*
X112814065Y-83847177D01*
X112814062Y-83847179D01*
X112647656Y-83958368D01*
X112462756Y-84034956D01*
X112397326Y-84047971D01*
X112266469Y-84074000D01*
X112066331Y-84074000D01*
X111935474Y-84047971D01*
X111870044Y-84034956D01*
X111685144Y-83958368D01*
X111518738Y-83847179D01*
X111518735Y-83847177D01*
X111377223Y-83705665D01*
X111266032Y-83539256D01*
X111189444Y-83354355D01*
X111150400Y-83158069D01*
X111150400Y-82957931D01*
X111189444Y-82761645D01*
X111266032Y-82576744D01*
X111377223Y-82410335D01*
X111518735Y-82268823D01*
X111685144Y-82157632D01*
X111870044Y-82081044D01*
X111935474Y-82068029D01*
X112066331Y-82042000D01*
X112266469Y-82042000D01*
X112397326Y-82068029D01*
X112397326Y-82068029D01*
G37*
G36*
X64326418Y-74867550D02*
X64759514Y-74953698D01*
X65085013Y-75088524D01*
X65545339Y-75279197D01*
X66252568Y-75751752D01*
X66854008Y-76353192D01*
X67326563Y-77060421D01*
X67652062Y-77846247D01*
X67818000Y-78680473D01*
X67818000Y-79531047D01*
X67768202Y-79781400D01*
X67652062Y-80365274D01*
X67631951Y-80413826D01*
X67326563Y-81151099D01*
X66854008Y-81858328D01*
X66252568Y-82459768D01*
X65545339Y-82932323D01*
X65085013Y-83122996D01*
X64759514Y-83257822D01*
X64373575Y-83334590D01*
X63925287Y-83423760D01*
X63074713Y-83423760D01*
X62626425Y-83334590D01*
X62240486Y-83257822D01*
X61914987Y-83122996D01*
X61454661Y-82932323D01*
X60747432Y-82459768D01*
X60145992Y-81858328D01*
X59673437Y-81151099D01*
X59368049Y-80413826D01*
X59347938Y-80365274D01*
X59231798Y-79781400D01*
X59182000Y-79531047D01*
X59182000Y-78680473D01*
X59347938Y-77846247D01*
X59673437Y-77060421D01*
X60145992Y-76353192D01*
X60747432Y-75751752D01*
X61454661Y-75279197D01*
X61914987Y-75088524D01*
X62240486Y-74953698D01*
X62673582Y-74867550D01*
X63074713Y-74787760D01*
X63925287Y-74787760D01*
X64326418Y-74867550D01*
X64326418Y-74867550D01*
G37*
G36*
X343726418Y-74867550D02*
X344159514Y-74953698D01*
X344485013Y-75088524D01*
X344945339Y-75279197D01*
X345652568Y-75751752D01*
X346254008Y-76353192D01*
X346726563Y-77060421D01*
X347052062Y-77846247D01*
X347218000Y-78680473D01*
X347218000Y-79531047D01*
X347168202Y-79781400D01*
X347052062Y-80365274D01*
X347031951Y-80413826D01*
X346726563Y-81151099D01*
X346254008Y-81858328D01*
X345652568Y-82459768D01*
X344945339Y-82932323D01*
X344485013Y-83122996D01*
X344159514Y-83257822D01*
X343773575Y-83334590D01*
X343325287Y-83423760D01*
X342474713Y-83423760D01*
X342026425Y-83334590D01*
X341640486Y-83257822D01*
X341314987Y-83122996D01*
X340854661Y-82932323D01*
X340147432Y-82459768D01*
X339545992Y-81858328D01*
X339073437Y-81151099D01*
X338768049Y-80413826D01*
X338747938Y-80365274D01*
X338631798Y-79781400D01*
X338582000Y-79531047D01*
X338582000Y-78680473D01*
X338747938Y-77846247D01*
X339073437Y-77060421D01*
X339545992Y-76353192D01*
X340147432Y-75751752D01*
X340854661Y-75279197D01*
X341314987Y-75088524D01*
X341640486Y-74953698D01*
X342073582Y-74867550D01*
X342474713Y-74787760D01*
X343325287Y-74787760D01*
X343726418Y-74867550D01*
X343726418Y-74867550D01*
G37*
G36*
X44172926Y-80696429D02*
X44238356Y-80709444D01*
X44423256Y-80786032D01*
X44589665Y-80897223D01*
X44731177Y-81038735D01*
X44731179Y-81038738D01*
X44842368Y-81205144D01*
X44918956Y-81390044D01*
X44926118Y-81426050D01*
X44958000Y-81586331D01*
X44958000Y-81786469D01*
X44918956Y-81982755D01*
X44842368Y-82167656D01*
X44731177Y-82334065D01*
X44589665Y-82475577D01*
X44589662Y-82475579D01*
X44423256Y-82586768D01*
X44238356Y-82663356D01*
X44172926Y-82676371D01*
X44042069Y-82702400D01*
X43841931Y-82702400D01*
X43711074Y-82676371D01*
X43645644Y-82663356D01*
X43460744Y-82586768D01*
X43294338Y-82475579D01*
X43294335Y-82475577D01*
X43152823Y-82334065D01*
X43041632Y-82167656D01*
X42965044Y-81982755D01*
X42926000Y-81786469D01*
X42926000Y-81586331D01*
X42957882Y-81426050D01*
X42965044Y-81390044D01*
X43041632Y-81205144D01*
X43152821Y-81038738D01*
X43152823Y-81038735D01*
X43294335Y-80897223D01*
X43460744Y-80786032D01*
X43645644Y-80709444D01*
X43711074Y-80696429D01*
X43841931Y-80670400D01*
X44042069Y-80670400D01*
X44172926Y-80696429D01*
X44172926Y-80696429D01*
G37*
G36*
X362688926Y-80696429D02*
X362754356Y-80709444D01*
X362939256Y-80786032D01*
X363105665Y-80897223D01*
X363247177Y-81038735D01*
X363247179Y-81038738D01*
X363358368Y-81205144D01*
X363434956Y-81390044D01*
X363442118Y-81426050D01*
X363474000Y-81586331D01*
X363474000Y-81786469D01*
X363434956Y-81982755D01*
X363358368Y-82167656D01*
X363247177Y-82334065D01*
X363105665Y-82475577D01*
X363105662Y-82475579D01*
X362939256Y-82586768D01*
X362754356Y-82663356D01*
X362688926Y-82676371D01*
X362558069Y-82702400D01*
X362357931Y-82702400D01*
X362227074Y-82676371D01*
X362161644Y-82663356D01*
X361976744Y-82586768D01*
X361810338Y-82475579D01*
X361810335Y-82475577D01*
X361668823Y-82334065D01*
X361557632Y-82167656D01*
X361481044Y-81982755D01*
X361442000Y-81786469D01*
X361442000Y-81586331D01*
X361473882Y-81426050D01*
X361481044Y-81390044D01*
X361557632Y-81205144D01*
X361668821Y-81038738D01*
X361668823Y-81038735D01*
X361810335Y-80897223D01*
X361976744Y-80786032D01*
X362161644Y-80709444D01*
X362227074Y-80696429D01*
X362357931Y-80670400D01*
X362558069Y-80670400D01*
X362688926Y-80696429D01*
X362688926Y-80696429D01*
G37*
G36*
X52332929Y-78144682D02*
X52494008Y-78160547D01*
X52700686Y-78223242D01*
X52804026Y-78254590D01*
X52908235Y-78310291D01*
X53089739Y-78407307D01*
X53340170Y-78612830D01*
X53545693Y-78863261D01*
X53641908Y-79043267D01*
X53698410Y-79148974D01*
X53698410Y-79148975D01*
X53792453Y-79458992D01*
X53824207Y-79781400D01*
X53792453Y-80103808D01*
X53758804Y-80214733D01*
X53698410Y-80413826D01*
X53642709Y-80518035D01*
X53545693Y-80699539D01*
X53340170Y-80949970D01*
X53089739Y-81155493D01*
X52908235Y-81252509D01*
X52804026Y-81308210D01*
X52729556Y-81330800D01*
X52494008Y-81402253D01*
X52332929Y-81418118D01*
X52252391Y-81426050D01*
X52090809Y-81426050D01*
X52010271Y-81418118D01*
X51849192Y-81402253D01*
X51613644Y-81330800D01*
X51539174Y-81308210D01*
X51434965Y-81252509D01*
X51253461Y-81155493D01*
X51003030Y-80949970D01*
X50797507Y-80699539D01*
X50700491Y-80518035D01*
X50644790Y-80413826D01*
X50584396Y-80214733D01*
X50550747Y-80103808D01*
X50518993Y-79781400D01*
X50550747Y-79458992D01*
X50644790Y-79148975D01*
X50644790Y-79148974D01*
X50701292Y-79043267D01*
X50797507Y-78863261D01*
X51003030Y-78612830D01*
X51253461Y-78407307D01*
X51434965Y-78310291D01*
X51539174Y-78254590D01*
X51642514Y-78223242D01*
X51849192Y-78160547D01*
X52010271Y-78144682D01*
X52090809Y-78136750D01*
X52252391Y-78136750D01*
X52332929Y-78144682D01*
X52332929Y-78144682D01*
G37*
G36*
X365228926Y-79324829D02*
X365294356Y-79337844D01*
X365479256Y-79414432D01*
X365645665Y-79525623D01*
X365787177Y-79667135D01*
X365787179Y-79667138D01*
X365898368Y-79833544D01*
X365974956Y-80018444D01*
X366014000Y-80214733D01*
X366014000Y-80414867D01*
X365974956Y-80611156D01*
X365938346Y-80699541D01*
X365898368Y-80796056D01*
X365787177Y-80962465D01*
X365645665Y-81103977D01*
X365645662Y-81103979D01*
X365479256Y-81215168D01*
X365294356Y-81291756D01*
X365228926Y-81304771D01*
X365098069Y-81330800D01*
X364897931Y-81330800D01*
X364767074Y-81304771D01*
X364701644Y-81291756D01*
X364516744Y-81215168D01*
X364350338Y-81103979D01*
X364350335Y-81103977D01*
X364208823Y-80962465D01*
X364097632Y-80796056D01*
X364057654Y-80699541D01*
X364021044Y-80611156D01*
X363982000Y-80414867D01*
X363982000Y-80214733D01*
X364021044Y-80018444D01*
X364097632Y-79833544D01*
X364208821Y-79667138D01*
X364208823Y-79667135D01*
X364350335Y-79525623D01*
X364516744Y-79414432D01*
X364701644Y-79337844D01*
X364767074Y-79324829D01*
X364897931Y-79298800D01*
X365098069Y-79298800D01*
X365228926Y-79324829D01*
X365228926Y-79324829D01*
G37*
G36*
X41632926Y-79324829D02*
X41698356Y-79337844D01*
X41883256Y-79414432D01*
X42049665Y-79525623D01*
X42191177Y-79667135D01*
X42191179Y-79667138D01*
X42302368Y-79833544D01*
X42378956Y-80018444D01*
X42418000Y-80214733D01*
X42418000Y-80414867D01*
X42378956Y-80611156D01*
X42342346Y-80699541D01*
X42302368Y-80796056D01*
X42191177Y-80962465D01*
X42049665Y-81103977D01*
X42049662Y-81103979D01*
X41883256Y-81215168D01*
X41698356Y-81291756D01*
X41632926Y-81304771D01*
X41502069Y-81330800D01*
X41301931Y-81330800D01*
X41171074Y-81304771D01*
X41105644Y-81291756D01*
X40920744Y-81215168D01*
X40754338Y-81103979D01*
X40754335Y-81103977D01*
X40612823Y-80962465D01*
X40501632Y-80796056D01*
X40461654Y-80699541D01*
X40425044Y-80611156D01*
X40386000Y-80414867D01*
X40386000Y-80214733D01*
X40425044Y-80018444D01*
X40501632Y-79833544D01*
X40612821Y-79667138D01*
X40612823Y-79667135D01*
X40754335Y-79525623D01*
X40920744Y-79414432D01*
X41105644Y-79337844D01*
X41171074Y-79324829D01*
X41301931Y-79298800D01*
X41502069Y-79298800D01*
X41632926Y-79324829D01*
X41632926Y-79324829D01*
G37*
G36*
X44172926Y-77953229D02*
X44238356Y-77966244D01*
X44423256Y-78042832D01*
X44589665Y-78154023D01*
X44731177Y-78295535D01*
X44842368Y-78461944D01*
X44918956Y-78646845D01*
X44958000Y-78843131D01*
X44958000Y-79043269D01*
X44918956Y-79239555D01*
X44842368Y-79424456D01*
X44731177Y-79590865D01*
X44589665Y-79732377D01*
X44589662Y-79732379D01*
X44423256Y-79843568D01*
X44238356Y-79920156D01*
X44172926Y-79933171D01*
X44042069Y-79959200D01*
X43841931Y-79959200D01*
X43711074Y-79933171D01*
X43645644Y-79920156D01*
X43460744Y-79843568D01*
X43294338Y-79732379D01*
X43294335Y-79732377D01*
X43152823Y-79590865D01*
X43041632Y-79424456D01*
X42965044Y-79239555D01*
X42926000Y-79043269D01*
X42926000Y-78843131D01*
X42965044Y-78646845D01*
X43041632Y-78461944D01*
X43152823Y-78295535D01*
X43294335Y-78154023D01*
X43460744Y-78042832D01*
X43645644Y-77966244D01*
X43711074Y-77953229D01*
X43841931Y-77927200D01*
X44042069Y-77927200D01*
X44172926Y-77953229D01*
X44172926Y-77953229D01*
G37*
G36*
X362688926Y-77953229D02*
X362754356Y-77966244D01*
X362939256Y-78042832D01*
X363105665Y-78154023D01*
X363247177Y-78295535D01*
X363358368Y-78461944D01*
X363434956Y-78646845D01*
X363474000Y-78843131D01*
X363474000Y-79043269D01*
X363434956Y-79239555D01*
X363358368Y-79424456D01*
X363247177Y-79590865D01*
X363105665Y-79732377D01*
X363105662Y-79732379D01*
X362939256Y-79843568D01*
X362754356Y-79920156D01*
X362688926Y-79933171D01*
X362558069Y-79959200D01*
X362357931Y-79959200D01*
X362227074Y-79933171D01*
X362161644Y-79920156D01*
X361976744Y-79843568D01*
X361810338Y-79732379D01*
X361810335Y-79732377D01*
X361668823Y-79590865D01*
X361557632Y-79424456D01*
X361481044Y-79239555D01*
X361442000Y-79043269D01*
X361442000Y-78843131D01*
X361481044Y-78646845D01*
X361557632Y-78461944D01*
X361668823Y-78295535D01*
X361810335Y-78154023D01*
X361976744Y-78042832D01*
X362161644Y-77966244D01*
X362227074Y-77953229D01*
X362357931Y-77927200D01*
X362558069Y-77927200D01*
X362688926Y-77953229D01*
X362688926Y-77953229D01*
G37*
G36*
X41632926Y-76581629D02*
X41698356Y-76594644D01*
X41883256Y-76671232D01*
X42049665Y-76782423D01*
X42191177Y-76923935D01*
X42302368Y-77090344D01*
X42378956Y-77275245D01*
X42418000Y-77471531D01*
X42418000Y-77671669D01*
X42378956Y-77867955D01*
X42302368Y-78052856D01*
X42191177Y-78219265D01*
X42049665Y-78360777D01*
X42049662Y-78360779D01*
X41883256Y-78471968D01*
X41698356Y-78548556D01*
X41632926Y-78561571D01*
X41502069Y-78587600D01*
X41301931Y-78587600D01*
X41171074Y-78561571D01*
X41105644Y-78548556D01*
X40920744Y-78471968D01*
X40754338Y-78360779D01*
X40754335Y-78360777D01*
X40612823Y-78219265D01*
X40501632Y-78052856D01*
X40425044Y-77867955D01*
X40386000Y-77671669D01*
X40386000Y-77471531D01*
X40425044Y-77275245D01*
X40501632Y-77090344D01*
X40612823Y-76923935D01*
X40754335Y-76782423D01*
X40920744Y-76671232D01*
X41105644Y-76594644D01*
X41171074Y-76581629D01*
X41301931Y-76555600D01*
X41502069Y-76555600D01*
X41632926Y-76581629D01*
X41632926Y-76581629D01*
G37*
G36*
X365228926Y-76581629D02*
X365294356Y-76594644D01*
X365479256Y-76671232D01*
X365645665Y-76782423D01*
X365787177Y-76923935D01*
X365898368Y-77090344D01*
X365974956Y-77275245D01*
X366014000Y-77471531D01*
X366014000Y-77671669D01*
X365974956Y-77867955D01*
X365898368Y-78052856D01*
X365787177Y-78219265D01*
X365645665Y-78360777D01*
X365645662Y-78360779D01*
X365479256Y-78471968D01*
X365294356Y-78548556D01*
X365228926Y-78561571D01*
X365098069Y-78587600D01*
X364897931Y-78587600D01*
X364767074Y-78561571D01*
X364701644Y-78548556D01*
X364516744Y-78471968D01*
X364350338Y-78360779D01*
X364350335Y-78360777D01*
X364208823Y-78219265D01*
X364097632Y-78052856D01*
X364021044Y-77867955D01*
X363982000Y-77671669D01*
X363982000Y-77471531D01*
X364021044Y-77275245D01*
X364097632Y-77090344D01*
X364208823Y-76923935D01*
X364350335Y-76782423D01*
X364516744Y-76671232D01*
X364701644Y-76594644D01*
X364767074Y-76581629D01*
X364897931Y-76555600D01*
X365098069Y-76555600D01*
X365228926Y-76581629D01*
X365228926Y-76581629D01*
G37*
G36*
X362688926Y-75210029D02*
X362754356Y-75223044D01*
X362889921Y-75279197D01*
X362939256Y-75299632D01*
X363105665Y-75410823D01*
X363247177Y-75552335D01*
X363247179Y-75552338D01*
X363358368Y-75718744D01*
X363372040Y-75751750D01*
X363434956Y-75903645D01*
X363474000Y-76099931D01*
X363474000Y-76300069D01*
X363434956Y-76496355D01*
X363358368Y-76681256D01*
X363247177Y-76847665D01*
X363105665Y-76989177D01*
X363105662Y-76989179D01*
X362939256Y-77100368D01*
X362754356Y-77176956D01*
X362688926Y-77189971D01*
X362558069Y-77216000D01*
X362357931Y-77216000D01*
X362227074Y-77189971D01*
X362161644Y-77176956D01*
X361976744Y-77100368D01*
X361810338Y-76989179D01*
X361810335Y-76989177D01*
X361668823Y-76847665D01*
X361557632Y-76681256D01*
X361481044Y-76496355D01*
X361442000Y-76300069D01*
X361442000Y-76099931D01*
X361481044Y-75903645D01*
X361543961Y-75751750D01*
X361557632Y-75718744D01*
X361668821Y-75552338D01*
X361668823Y-75552335D01*
X361810335Y-75410823D01*
X361976744Y-75299632D01*
X362026079Y-75279197D01*
X362161644Y-75223044D01*
X362227074Y-75210029D01*
X362357931Y-75184000D01*
X362558069Y-75184000D01*
X362688926Y-75210029D01*
X362688926Y-75210029D01*
G37*
G36*
X44172926Y-75210029D02*
X44238356Y-75223044D01*
X44373921Y-75279197D01*
X44423256Y-75299632D01*
X44589665Y-75410823D01*
X44731177Y-75552335D01*
X44731179Y-75552338D01*
X44842368Y-75718744D01*
X44856040Y-75751750D01*
X44918956Y-75903645D01*
X44958000Y-76099931D01*
X44958000Y-76300069D01*
X44918956Y-76496355D01*
X44842368Y-76681256D01*
X44731177Y-76847665D01*
X44589665Y-76989177D01*
X44589662Y-76989179D01*
X44423256Y-77100368D01*
X44238356Y-77176956D01*
X44172926Y-77189971D01*
X44042069Y-77216000D01*
X43841931Y-77216000D01*
X43711074Y-77189971D01*
X43645644Y-77176956D01*
X43460744Y-77100368D01*
X43294338Y-76989179D01*
X43294335Y-76989177D01*
X43152823Y-76847665D01*
X43041632Y-76681256D01*
X42965044Y-76496355D01*
X42926000Y-76300069D01*
X42926000Y-76099931D01*
X42965044Y-75903645D01*
X43027961Y-75751750D01*
X43041632Y-75718744D01*
X43152821Y-75552338D01*
X43152823Y-75552335D01*
X43294335Y-75410823D01*
X43460744Y-75299632D01*
X43510079Y-75279197D01*
X43645644Y-75223044D01*
X43711074Y-75210029D01*
X43841931Y-75184000D01*
X44042069Y-75184000D01*
X44172926Y-75210029D01*
X44172926Y-75210029D01*
G37*
G36*
X41632926Y-73838429D02*
X41698356Y-73851444D01*
X41883256Y-73928032D01*
X42049665Y-74039223D01*
X42191177Y-74180735D01*
X42302368Y-74347144D01*
X42378956Y-74532045D01*
X42418000Y-74728331D01*
X42418000Y-74928469D01*
X42412643Y-74955400D01*
X42378956Y-75124756D01*
X42314984Y-75279198D01*
X42302368Y-75309656D01*
X42191177Y-75476065D01*
X42049665Y-75617577D01*
X42049662Y-75617579D01*
X41883256Y-75728768D01*
X41698356Y-75805356D01*
X41632926Y-75818371D01*
X41502069Y-75844400D01*
X41301931Y-75844400D01*
X41171074Y-75818371D01*
X41105644Y-75805356D01*
X40920744Y-75728768D01*
X40754338Y-75617579D01*
X40754335Y-75617577D01*
X40612823Y-75476065D01*
X40501632Y-75309656D01*
X40489016Y-75279198D01*
X40425044Y-75124756D01*
X40391357Y-74955400D01*
X40386000Y-74928469D01*
X40386000Y-74728331D01*
X40425044Y-74532045D01*
X40501632Y-74347144D01*
X40612823Y-74180735D01*
X40754335Y-74039223D01*
X40920744Y-73928032D01*
X41105644Y-73851444D01*
X41171074Y-73838429D01*
X41301931Y-73812400D01*
X41502069Y-73812400D01*
X41632926Y-73838429D01*
X41632926Y-73838429D01*
G37*
G36*
X365228926Y-73838429D02*
X365294356Y-73851444D01*
X365479256Y-73928032D01*
X365645665Y-74039223D01*
X365787177Y-74180735D01*
X365898368Y-74347144D01*
X365974956Y-74532045D01*
X366014000Y-74728331D01*
X366014000Y-74928469D01*
X366008643Y-74955400D01*
X365974956Y-75124756D01*
X365910984Y-75279198D01*
X365898368Y-75309656D01*
X365787177Y-75476065D01*
X365645665Y-75617577D01*
X365645662Y-75617579D01*
X365479256Y-75728768D01*
X365294356Y-75805356D01*
X365228926Y-75818371D01*
X365098069Y-75844400D01*
X364897931Y-75844400D01*
X364767074Y-75818371D01*
X364701644Y-75805356D01*
X364516744Y-75728768D01*
X364350338Y-75617579D01*
X364350335Y-75617577D01*
X364208823Y-75476065D01*
X364097632Y-75309656D01*
X364085016Y-75279198D01*
X364021044Y-75124756D01*
X363987357Y-74955400D01*
X363982000Y-74928469D01*
X363982000Y-74728331D01*
X364021044Y-74532045D01*
X364097632Y-74347144D01*
X364208823Y-74180735D01*
X364350335Y-74039223D01*
X364516744Y-73928032D01*
X364701644Y-73851444D01*
X364767074Y-73838429D01*
X364897931Y-73812400D01*
X365098069Y-73812400D01*
X365228926Y-73838429D01*
X365228926Y-73838429D01*
G37*
G36*
X311816801Y-70471249D02*
X312232826Y-70643572D01*
X312607243Y-70893750D01*
X312925650Y-71212157D01*
X313175828Y-71586574D01*
X313348151Y-72002599D01*
X313436000Y-72444247D01*
X313436000Y-72894553D01*
X313348151Y-73336201D01*
X313175828Y-73752226D01*
X312925650Y-74126643D01*
X312607243Y-74445050D01*
X312232826Y-74695228D01*
X311816801Y-74867551D01*
X311375153Y-74955400D01*
X310924847Y-74955400D01*
X310483199Y-74867551D01*
X310067174Y-74695228D01*
X309692757Y-74445050D01*
X309374350Y-74126643D01*
X309124172Y-73752226D01*
X308951849Y-73336201D01*
X308864000Y-72894553D01*
X308864000Y-72444247D01*
X308951849Y-72002599D01*
X309124172Y-71586574D01*
X309374350Y-71212157D01*
X309692757Y-70893750D01*
X310067174Y-70643572D01*
X310483199Y-70471249D01*
X310924847Y-70383400D01*
X311375153Y-70383400D01*
X311816801Y-70471249D01*
X311816801Y-70471249D01*
G37*
G36*
X95916801Y-70471249D02*
X96332826Y-70643572D01*
X96707243Y-70893750D01*
X97025650Y-71212157D01*
X97275828Y-71586574D01*
X97448151Y-72002599D01*
X97536000Y-72444247D01*
X97536000Y-72894553D01*
X97448151Y-73336201D01*
X97275828Y-73752226D01*
X97025650Y-74126643D01*
X96707243Y-74445050D01*
X96332826Y-74695228D01*
X95916801Y-74867551D01*
X95475153Y-74955400D01*
X95024847Y-74955400D01*
X94583199Y-74867551D01*
X94167174Y-74695228D01*
X93792757Y-74445050D01*
X93474350Y-74126643D01*
X93224172Y-73752226D01*
X93051849Y-73336201D01*
X92964000Y-72894553D01*
X92964000Y-72444247D01*
X93051849Y-72002599D01*
X93224172Y-71586574D01*
X93474350Y-71212157D01*
X93792757Y-70893750D01*
X94167174Y-70643572D01*
X94583199Y-70471249D01*
X95024847Y-70383400D01*
X95475153Y-70383400D01*
X95916801Y-70471249D01*
X95916801Y-70471249D01*
G37*
G36*
X44172926Y-72466829D02*
X44238356Y-72479844D01*
X44423256Y-72556432D01*
X44589665Y-72667623D01*
X44731177Y-72809135D01*
X44842368Y-72975544D01*
X44918956Y-73160445D01*
X44958000Y-73356731D01*
X44958000Y-73556869D01*
X44918956Y-73753155D01*
X44842368Y-73938056D01*
X44731177Y-74104465D01*
X44589665Y-74245977D01*
X44589662Y-74245979D01*
X44423256Y-74357168D01*
X44238356Y-74433756D01*
X44181577Y-74445050D01*
X44042069Y-74472800D01*
X43841931Y-74472800D01*
X43702423Y-74445050D01*
X43645644Y-74433756D01*
X43460744Y-74357168D01*
X43294338Y-74245979D01*
X43294335Y-74245977D01*
X43152823Y-74104465D01*
X43041632Y-73938056D01*
X42965044Y-73753155D01*
X42926000Y-73556869D01*
X42926000Y-73356731D01*
X42965044Y-73160445D01*
X43041632Y-72975544D01*
X43152823Y-72809135D01*
X43294335Y-72667623D01*
X43460744Y-72556432D01*
X43645644Y-72479844D01*
X43711074Y-72466829D01*
X43841931Y-72440800D01*
X44042069Y-72440800D01*
X44172926Y-72466829D01*
X44172926Y-72466829D01*
G37*
G36*
X362688926Y-72466829D02*
X362754356Y-72479844D01*
X362939256Y-72556432D01*
X363105665Y-72667623D01*
X363247177Y-72809135D01*
X363358368Y-72975544D01*
X363434956Y-73160445D01*
X363474000Y-73356731D01*
X363474000Y-73556869D01*
X363434956Y-73753155D01*
X363358368Y-73938056D01*
X363247177Y-74104465D01*
X363105665Y-74245977D01*
X363105662Y-74245979D01*
X362939256Y-74357168D01*
X362754356Y-74433756D01*
X362697577Y-74445050D01*
X362558069Y-74472800D01*
X362357931Y-74472800D01*
X362218423Y-74445050D01*
X362161644Y-74433756D01*
X361976744Y-74357168D01*
X361810338Y-74245979D01*
X361810335Y-74245977D01*
X361668823Y-74104465D01*
X361557632Y-73938056D01*
X361481044Y-73753155D01*
X361442000Y-73556869D01*
X361442000Y-73356731D01*
X361481044Y-73160445D01*
X361557632Y-72975544D01*
X361668823Y-72809135D01*
X361810335Y-72667623D01*
X361976744Y-72556432D01*
X362161644Y-72479844D01*
X362227074Y-72466829D01*
X362357931Y-72440800D01*
X362558069Y-72440800D01*
X362688926Y-72466829D01*
X362688926Y-72466829D01*
G37*
G36*
X365228926Y-71095229D02*
X365294356Y-71108244D01*
X365479256Y-71184832D01*
X365645665Y-71296023D01*
X365787177Y-71437535D01*
X365787179Y-71437538D01*
X365898368Y-71603944D01*
X365974956Y-71788844D01*
X366014000Y-71985133D01*
X366014000Y-72185267D01*
X365974956Y-72381556D01*
X365934244Y-72479844D01*
X365898368Y-72566456D01*
X365787177Y-72732865D01*
X365645665Y-72874377D01*
X365645662Y-72874379D01*
X365479256Y-72985568D01*
X365294356Y-73062156D01*
X365228926Y-73075171D01*
X365098069Y-73101200D01*
X364897931Y-73101200D01*
X364767074Y-73075171D01*
X364701644Y-73062156D01*
X364516744Y-72985568D01*
X364350338Y-72874379D01*
X364350335Y-72874377D01*
X364208823Y-72732865D01*
X364097632Y-72566456D01*
X364061756Y-72479844D01*
X364021044Y-72381556D01*
X363982000Y-72185267D01*
X363982000Y-71985133D01*
X364021044Y-71788844D01*
X364097632Y-71603944D01*
X364208821Y-71437538D01*
X364208823Y-71437535D01*
X364350335Y-71296023D01*
X364516744Y-71184832D01*
X364701644Y-71108244D01*
X364767074Y-71095229D01*
X364897931Y-71069200D01*
X365098069Y-71069200D01*
X365228926Y-71095229D01*
X365228926Y-71095229D01*
G37*
G36*
X41632926Y-71095229D02*
X41698356Y-71108244D01*
X41883256Y-71184832D01*
X42049665Y-71296023D01*
X42191177Y-71437535D01*
X42191179Y-71437538D01*
X42302368Y-71603944D01*
X42378956Y-71788844D01*
X42418000Y-71985133D01*
X42418000Y-72185267D01*
X42378956Y-72381556D01*
X42338244Y-72479844D01*
X42302368Y-72566456D01*
X42191177Y-72732865D01*
X42049665Y-72874377D01*
X42049662Y-72874379D01*
X41883256Y-72985568D01*
X41698356Y-73062156D01*
X41632926Y-73075171D01*
X41502069Y-73101200D01*
X41301931Y-73101200D01*
X41171074Y-73075171D01*
X41105644Y-73062156D01*
X40920744Y-72985568D01*
X40754338Y-72874379D01*
X40754335Y-72874377D01*
X40612823Y-72732865D01*
X40501632Y-72566456D01*
X40465756Y-72479844D01*
X40425044Y-72381556D01*
X40386000Y-72185267D01*
X40386000Y-71985133D01*
X40425044Y-71788844D01*
X40501632Y-71603944D01*
X40612821Y-71437538D01*
X40612823Y-71437535D01*
X40754335Y-71296023D01*
X40920744Y-71184832D01*
X41105644Y-71108244D01*
X41171074Y-71095229D01*
X41301931Y-71069200D01*
X41502069Y-71069200D01*
X41632926Y-71095229D01*
X41632926Y-71095229D01*
G37*
G36*
X192786000Y-72136000D02*
X190754000Y-72136000D01*
X190754000Y-70104000D01*
X192786000Y-70104000D01*
X192786000Y-72136000D01*
X192786000Y-72136000D01*
G37*
G36*
X218186000Y-72136000D02*
X216154000Y-72136000D01*
X216154000Y-70104000D01*
X218186000Y-70104000D01*
X218186000Y-72136000D01*
X218186000Y-72136000D01*
G37*
G36*
X189460926Y-70130029D02*
X189526356Y-70143044D01*
X189711256Y-70219632D01*
X189877665Y-70330823D01*
X190019177Y-70472335D01*
X190130368Y-70638744D01*
X190206956Y-70823645D01*
X190246000Y-71019931D01*
X190246000Y-71220069D01*
X190206956Y-71416355D01*
X190130368Y-71601256D01*
X190019177Y-71767665D01*
X189877665Y-71909177D01*
X189877662Y-71909179D01*
X189711256Y-72020368D01*
X189526356Y-72096956D01*
X189460926Y-72109971D01*
X189330069Y-72136000D01*
X189129931Y-72136000D01*
X188999074Y-72109971D01*
X188933644Y-72096956D01*
X188748744Y-72020368D01*
X188582338Y-71909179D01*
X188582335Y-71909177D01*
X188440823Y-71767665D01*
X188329632Y-71601256D01*
X188253044Y-71416355D01*
X188214000Y-71220069D01*
X188214000Y-71019931D01*
X188253044Y-70823645D01*
X188329632Y-70638744D01*
X188440823Y-70472335D01*
X188582335Y-70330823D01*
X188748744Y-70219632D01*
X188933644Y-70143044D01*
X188999074Y-70130029D01*
X189129931Y-70104000D01*
X189330069Y-70104000D01*
X189460926Y-70130029D01*
X189460926Y-70130029D01*
G37*
G36*
X214860926Y-70130029D02*
X214926356Y-70143044D01*
X215111256Y-70219632D01*
X215277665Y-70330823D01*
X215419177Y-70472335D01*
X215530368Y-70638744D01*
X215606956Y-70823645D01*
X215646000Y-71019931D01*
X215646000Y-71220069D01*
X215606956Y-71416355D01*
X215530368Y-71601256D01*
X215419177Y-71767665D01*
X215277665Y-71909177D01*
X215277662Y-71909179D01*
X215111256Y-72020368D01*
X214926356Y-72096956D01*
X214860926Y-72109971D01*
X214730069Y-72136000D01*
X214529931Y-72136000D01*
X214399074Y-72109971D01*
X214333644Y-72096956D01*
X214148744Y-72020368D01*
X213982338Y-71909179D01*
X213982335Y-71909177D01*
X213840823Y-71767665D01*
X213729632Y-71601256D01*
X213653044Y-71416355D01*
X213614000Y-71220069D01*
X213614000Y-71019931D01*
X213653044Y-70823645D01*
X213729632Y-70638744D01*
X213840823Y-70472335D01*
X213982335Y-70330823D01*
X214148744Y-70219632D01*
X214333644Y-70143044D01*
X214399074Y-70130029D01*
X214529931Y-70104000D01*
X214730069Y-70104000D01*
X214860926Y-70130029D01*
X214860926Y-70130029D01*
G37*
G36*
X44172926Y-69723629D02*
X44238356Y-69736644D01*
X44423256Y-69813232D01*
X44589665Y-69924423D01*
X44731177Y-70065935D01*
X44842368Y-70232344D01*
X44918956Y-70417245D01*
X44958000Y-70613531D01*
X44958000Y-70813669D01*
X44918956Y-71009955D01*
X44842368Y-71194856D01*
X44731177Y-71361265D01*
X44589665Y-71502777D01*
X44589662Y-71502779D01*
X44423256Y-71613968D01*
X44238356Y-71690556D01*
X44172926Y-71703571D01*
X44042069Y-71729600D01*
X43841931Y-71729600D01*
X43711074Y-71703571D01*
X43645644Y-71690556D01*
X43460744Y-71613968D01*
X43294338Y-71502779D01*
X43294335Y-71502777D01*
X43152823Y-71361265D01*
X43041632Y-71194856D01*
X42965044Y-71009955D01*
X42926000Y-70813669D01*
X42926000Y-70613531D01*
X42965044Y-70417245D01*
X43041632Y-70232344D01*
X43152823Y-70065935D01*
X43294335Y-69924423D01*
X43460744Y-69813232D01*
X43645644Y-69736644D01*
X43711074Y-69723629D01*
X43841931Y-69697600D01*
X44042069Y-69697600D01*
X44172926Y-69723629D01*
X44172926Y-69723629D01*
G37*
G36*
X362688926Y-69723629D02*
X362754356Y-69736644D01*
X362939256Y-69813232D01*
X363105665Y-69924423D01*
X363247177Y-70065935D01*
X363358368Y-70232344D01*
X363434956Y-70417245D01*
X363474000Y-70613531D01*
X363474000Y-70813669D01*
X363434956Y-71009955D01*
X363358368Y-71194856D01*
X363247177Y-71361265D01*
X363105665Y-71502777D01*
X363105662Y-71502779D01*
X362939256Y-71613968D01*
X362754356Y-71690556D01*
X362688926Y-71703571D01*
X362558069Y-71729600D01*
X362357931Y-71729600D01*
X362227074Y-71703571D01*
X362161644Y-71690556D01*
X361976744Y-71613968D01*
X361810338Y-71502779D01*
X361810335Y-71502777D01*
X361668823Y-71361265D01*
X361557632Y-71194856D01*
X361481044Y-71009955D01*
X361442000Y-70813669D01*
X361442000Y-70613531D01*
X361481044Y-70417245D01*
X361557632Y-70232344D01*
X361668823Y-70065935D01*
X361810335Y-69924423D01*
X361976744Y-69813232D01*
X362161644Y-69736644D01*
X362227074Y-69723629D01*
X362357931Y-69697600D01*
X362558069Y-69697600D01*
X362688926Y-69723629D01*
X362688926Y-69723629D01*
G37*
G36*
X217400926Y-67590029D02*
X217466356Y-67603044D01*
X217651256Y-67679632D01*
X217817665Y-67790823D01*
X217959177Y-67932335D01*
X217959179Y-67932338D01*
X218070368Y-68098744D01*
X218134411Y-68253357D01*
X218146956Y-68283645D01*
X218186000Y-68479931D01*
X218186000Y-68680069D01*
X218146956Y-68876355D01*
X218070368Y-69061256D01*
X217959177Y-69227665D01*
X217817665Y-69369177D01*
X217817662Y-69369179D01*
X217651256Y-69480368D01*
X217466356Y-69556956D01*
X217400926Y-69569971D01*
X217270069Y-69596000D01*
X217069931Y-69596000D01*
X216939074Y-69569971D01*
X216873644Y-69556956D01*
X216688744Y-69480368D01*
X216522338Y-69369179D01*
X216522335Y-69369177D01*
X216380823Y-69227665D01*
X216269632Y-69061256D01*
X216193044Y-68876355D01*
X216154000Y-68680069D01*
X216154000Y-68479931D01*
X216193044Y-68283645D01*
X216205590Y-68253357D01*
X216269632Y-68098744D01*
X216380821Y-67932338D01*
X216380823Y-67932335D01*
X216522335Y-67790823D01*
X216688744Y-67679632D01*
X216873644Y-67603044D01*
X216939074Y-67590029D01*
X217069931Y-67564000D01*
X217270069Y-67564000D01*
X217400926Y-67590029D01*
X217400926Y-67590029D01*
G37*
G36*
X214860926Y-67590029D02*
X214926356Y-67603044D01*
X215111256Y-67679632D01*
X215277665Y-67790823D01*
X215419177Y-67932335D01*
X215419179Y-67932338D01*
X215530368Y-68098744D01*
X215594411Y-68253357D01*
X215606956Y-68283645D01*
X215646000Y-68479931D01*
X215646000Y-68680069D01*
X215606956Y-68876355D01*
X215530368Y-69061256D01*
X215419177Y-69227665D01*
X215277665Y-69369177D01*
X215277662Y-69369179D01*
X215111256Y-69480368D01*
X214926356Y-69556956D01*
X214860926Y-69569971D01*
X214730069Y-69596000D01*
X214529931Y-69596000D01*
X214399074Y-69569971D01*
X214333644Y-69556956D01*
X214148744Y-69480368D01*
X213982338Y-69369179D01*
X213982335Y-69369177D01*
X213840823Y-69227665D01*
X213729632Y-69061256D01*
X213653044Y-68876355D01*
X213614000Y-68680069D01*
X213614000Y-68479931D01*
X213653044Y-68283645D01*
X213665590Y-68253357D01*
X213729632Y-68098744D01*
X213840821Y-67932338D01*
X213840823Y-67932335D01*
X213982335Y-67790823D01*
X214148744Y-67679632D01*
X214333644Y-67603044D01*
X214399074Y-67590029D01*
X214529931Y-67564000D01*
X214730069Y-67564000D01*
X214860926Y-67590029D01*
X214860926Y-67590029D01*
G37*
G36*
X192000926Y-67590029D02*
X192066356Y-67603044D01*
X192251256Y-67679632D01*
X192417665Y-67790823D01*
X192559177Y-67932335D01*
X192559179Y-67932338D01*
X192670368Y-68098744D01*
X192734411Y-68253357D01*
X192746956Y-68283645D01*
X192786000Y-68479931D01*
X192786000Y-68680069D01*
X192746956Y-68876355D01*
X192670368Y-69061256D01*
X192559177Y-69227665D01*
X192417665Y-69369177D01*
X192417662Y-69369179D01*
X192251256Y-69480368D01*
X192066356Y-69556956D01*
X192000926Y-69569971D01*
X191870069Y-69596000D01*
X191669931Y-69596000D01*
X191539074Y-69569971D01*
X191473644Y-69556956D01*
X191288744Y-69480368D01*
X191122338Y-69369179D01*
X191122335Y-69369177D01*
X190980823Y-69227665D01*
X190869632Y-69061256D01*
X190793044Y-68876355D01*
X190754000Y-68680069D01*
X190754000Y-68479931D01*
X190793044Y-68283645D01*
X190805590Y-68253357D01*
X190869632Y-68098744D01*
X190980821Y-67932338D01*
X190980823Y-67932335D01*
X191122335Y-67790823D01*
X191288744Y-67679632D01*
X191473644Y-67603044D01*
X191539074Y-67590029D01*
X191669931Y-67564000D01*
X191870069Y-67564000D01*
X192000926Y-67590029D01*
X192000926Y-67590029D01*
G37*
G36*
X189460926Y-67590029D02*
X189526356Y-67603044D01*
X189711256Y-67679632D01*
X189877665Y-67790823D01*
X190019177Y-67932335D01*
X190019179Y-67932338D01*
X190130368Y-68098744D01*
X190194411Y-68253357D01*
X190206956Y-68283645D01*
X190246000Y-68479931D01*
X190246000Y-68680069D01*
X190206956Y-68876355D01*
X190130368Y-69061256D01*
X190019177Y-69227665D01*
X189877665Y-69369177D01*
X189877662Y-69369179D01*
X189711256Y-69480368D01*
X189526356Y-69556956D01*
X189460926Y-69569971D01*
X189330069Y-69596000D01*
X189129931Y-69596000D01*
X188999074Y-69569971D01*
X188933644Y-69556956D01*
X188748744Y-69480368D01*
X188582338Y-69369179D01*
X188582335Y-69369177D01*
X188440823Y-69227665D01*
X188329632Y-69061256D01*
X188253044Y-68876355D01*
X188214000Y-68680069D01*
X188214000Y-68479931D01*
X188253044Y-68283645D01*
X188265590Y-68253357D01*
X188329632Y-68098744D01*
X188440821Y-67932338D01*
X188440823Y-67932335D01*
X188582335Y-67790823D01*
X188748744Y-67679632D01*
X188933644Y-67603044D01*
X188999074Y-67590029D01*
X189129931Y-67564000D01*
X189330069Y-67564000D01*
X189460926Y-67590029D01*
X189460926Y-67590029D01*
G37*
G36*
X50111327Y-65499952D02*
X50410633Y-65623929D01*
X50680005Y-65803918D01*
X50909082Y-66032995D01*
X51089071Y-66302367D01*
X51213048Y-66601673D01*
X51276250Y-66919415D01*
X51276250Y-67243385D01*
X51213048Y-67561127D01*
X51089071Y-67860433D01*
X50909082Y-68129805D01*
X50680005Y-68358882D01*
X50410633Y-68538871D01*
X50111327Y-68662848D01*
X49793585Y-68726050D01*
X49469615Y-68726050D01*
X49151873Y-68662848D01*
X48852567Y-68538871D01*
X48583195Y-68358882D01*
X48354118Y-68129805D01*
X48174129Y-67860433D01*
X48050152Y-67561127D01*
X47986950Y-67243385D01*
X47986950Y-66919415D01*
X48050152Y-66601673D01*
X48174129Y-66302367D01*
X48354118Y-66032995D01*
X48583195Y-65803918D01*
X48852567Y-65623929D01*
X49151873Y-65499952D01*
X49469615Y-65436750D01*
X49793585Y-65436750D01*
X50111327Y-65499952D01*
X50111327Y-65499952D01*
G37*
G36*
X55191327Y-65499952D02*
X55490633Y-65623929D01*
X55760005Y-65803918D01*
X55989082Y-66032995D01*
X56169071Y-66302367D01*
X56293048Y-66601673D01*
X56356250Y-66919415D01*
X56356250Y-67243385D01*
X56293048Y-67561127D01*
X56169071Y-67860433D01*
X55989082Y-68129805D01*
X55760005Y-68358882D01*
X55490633Y-68538871D01*
X55191327Y-68662848D01*
X54873585Y-68726050D01*
X54549615Y-68726050D01*
X54231873Y-68662848D01*
X53932567Y-68538871D01*
X53663195Y-68358882D01*
X53434118Y-68129805D01*
X53254129Y-67860433D01*
X53130152Y-67561127D01*
X53066950Y-67243385D01*
X53066950Y-66919415D01*
X53130152Y-66601673D01*
X53254129Y-66302367D01*
X53434118Y-66032995D01*
X53663195Y-65803918D01*
X53932567Y-65623929D01*
X54231873Y-65499952D01*
X54549615Y-65436750D01*
X54873585Y-65436750D01*
X55191327Y-65499952D01*
X55191327Y-65499952D01*
G37*
G36*
X95605627Y-62505453D02*
X95648096Y-62523044D01*
X95827508Y-62597359D01*
X95997315Y-62710821D01*
X96027198Y-62730788D01*
X96197012Y-62900602D01*
X96330442Y-63100294D01*
X96422347Y-63322173D01*
X96469200Y-63557718D01*
X96469200Y-63797882D01*
X96422347Y-64033427D01*
X96330442Y-64255306D01*
X96197012Y-64454998D01*
X96037368Y-64614642D01*
X96021822Y-64633584D01*
X96010271Y-64655195D01*
X96003158Y-64678644D01*
X96000756Y-64703030D01*
X96003158Y-64727416D01*
X96010271Y-64750865D01*
X96021822Y-64772476D01*
X96037368Y-64791418D01*
X96056310Y-64806964D01*
X96077921Y-64818515D01*
X96212510Y-64874263D01*
X96212513Y-64874265D01*
X96545325Y-65096643D01*
X96828357Y-65379675D01*
X97050735Y-65712487D01*
X97050737Y-65712490D01*
X97203912Y-66082288D01*
X97282000Y-66474864D01*
X97282000Y-66875136D01*
X97203912Y-67267712D01*
X97050737Y-67637510D01*
X97050735Y-67637513D01*
X96828357Y-67970325D01*
X96545325Y-68253357D01*
X96246538Y-68453000D01*
X96212510Y-68475737D01*
X95842712Y-68628912D01*
X95450136Y-68707000D01*
X95049864Y-68707000D01*
X94657288Y-68628912D01*
X94287490Y-68475737D01*
X94253462Y-68453000D01*
X93954675Y-68253357D01*
X93671643Y-67970325D01*
X93449265Y-67637513D01*
X93449263Y-67637510D01*
X93296088Y-67267712D01*
X93218000Y-66875136D01*
X93218000Y-66474864D01*
X93296088Y-66082288D01*
X93449263Y-65712490D01*
X93449265Y-65712487D01*
X93671643Y-65379675D01*
X93954675Y-65096643D01*
X94287487Y-64874265D01*
X94287490Y-64874263D01*
X94422079Y-64818515D01*
X94443690Y-64806964D01*
X94462632Y-64791419D01*
X94478177Y-64772477D01*
X94489729Y-64750866D01*
X94496842Y-64727417D01*
X94499244Y-64703030D01*
X94496842Y-64678644D01*
X94489729Y-64655195D01*
X94478178Y-64633584D01*
X94462632Y-64614642D01*
X94302988Y-64454998D01*
X94169558Y-64255306D01*
X94077653Y-64033427D01*
X94030800Y-63797882D01*
X94030800Y-63557718D01*
X94077653Y-63322173D01*
X94169558Y-63100294D01*
X94302988Y-62900602D01*
X94472802Y-62730788D01*
X94502685Y-62710821D01*
X94672492Y-62597359D01*
X94851905Y-62523044D01*
X94894373Y-62505453D01*
X95129918Y-62458600D01*
X95370082Y-62458600D01*
X95605627Y-62505453D01*
X95605627Y-62505453D01*
G37*
G36*
X311505627Y-62505453D02*
X311548096Y-62523044D01*
X311727508Y-62597359D01*
X311897315Y-62710821D01*
X311927198Y-62730788D01*
X312097012Y-62900602D01*
X312230442Y-63100294D01*
X312322347Y-63322173D01*
X312369200Y-63557718D01*
X312369200Y-63797882D01*
X312322347Y-64033427D01*
X312230442Y-64255306D01*
X312097012Y-64454998D01*
X311937368Y-64614642D01*
X311921822Y-64633584D01*
X311910271Y-64655195D01*
X311903158Y-64678644D01*
X311900756Y-64703030D01*
X311903158Y-64727416D01*
X311910271Y-64750865D01*
X311921822Y-64772476D01*
X311937368Y-64791418D01*
X311956310Y-64806964D01*
X311977921Y-64818515D01*
X312112510Y-64874263D01*
X312112513Y-64874265D01*
X312445325Y-65096643D01*
X312728357Y-65379675D01*
X312950735Y-65712487D01*
X312950737Y-65712490D01*
X313103912Y-66082288D01*
X313182000Y-66474864D01*
X313182000Y-66875136D01*
X313103912Y-67267712D01*
X312950737Y-67637510D01*
X312950735Y-67637513D01*
X312728357Y-67970325D01*
X312445325Y-68253357D01*
X312146538Y-68453000D01*
X312112510Y-68475737D01*
X311742712Y-68628912D01*
X311350136Y-68707000D01*
X310949864Y-68707000D01*
X310557288Y-68628912D01*
X310187490Y-68475737D01*
X310153462Y-68453000D01*
X309854675Y-68253357D01*
X309571643Y-67970325D01*
X309349265Y-67637513D01*
X309349263Y-67637510D01*
X309196088Y-67267712D01*
X309118000Y-66875136D01*
X309118000Y-66474864D01*
X309196088Y-66082288D01*
X309349263Y-65712490D01*
X309349265Y-65712487D01*
X309571643Y-65379675D01*
X309854675Y-65096643D01*
X310187487Y-64874265D01*
X310187490Y-64874263D01*
X310322079Y-64818515D01*
X310343690Y-64806964D01*
X310362632Y-64791419D01*
X310378177Y-64772477D01*
X310389729Y-64750866D01*
X310396842Y-64727417D01*
X310399244Y-64703030D01*
X310396842Y-64678644D01*
X310389729Y-64655195D01*
X310378178Y-64633584D01*
X310362632Y-64614642D01*
X310202988Y-64454998D01*
X310069558Y-64255306D01*
X309977653Y-64033427D01*
X309930800Y-63797882D01*
X309930800Y-63557718D01*
X309977653Y-63322173D01*
X310069558Y-63100294D01*
X310202988Y-62900602D01*
X310372802Y-62730788D01*
X310402685Y-62710821D01*
X310572492Y-62597359D01*
X310751905Y-62523044D01*
X310794373Y-62505453D01*
X311029918Y-62458600D01*
X311270082Y-62458600D01*
X311505627Y-62505453D01*
X311505627Y-62505453D01*
G37*
G36*
X68453000Y-68453000D02*
X66167000Y-68453000D01*
X66167000Y-66167000D01*
X68453000Y-66167000D01*
X68453000Y-68453000D01*
X68453000Y-68453000D01*
G37*
G36*
X70183401Y-66210925D02*
X70391413Y-66297086D01*
X70578623Y-66422176D01*
X70737824Y-66581377D01*
X70862914Y-66768587D01*
X70949075Y-66976599D01*
X70993000Y-67197424D01*
X70993000Y-67422576D01*
X70949075Y-67643401D01*
X70862914Y-67851413D01*
X70737824Y-68038623D01*
X70578623Y-68197824D01*
X70391413Y-68322914D01*
X70183401Y-68409075D01*
X69962576Y-68453000D01*
X69737424Y-68453000D01*
X69516599Y-68409075D01*
X69308587Y-68322914D01*
X69121377Y-68197824D01*
X68962176Y-68038623D01*
X68837086Y-67851413D01*
X68750925Y-67643401D01*
X68707000Y-67422576D01*
X68707000Y-67197424D01*
X68750925Y-66976599D01*
X68837086Y-66768587D01*
X68962176Y-66581377D01*
X69121377Y-66422176D01*
X69308587Y-66297086D01*
X69516599Y-66210925D01*
X69737424Y-66167000D01*
X69962576Y-66167000D01*
X70183401Y-66210925D01*
X70183401Y-66210925D01*
G37*
G36*
X72723401Y-66210925D02*
X72931413Y-66297086D01*
X73118623Y-66422176D01*
X73277824Y-66581377D01*
X73402914Y-66768587D01*
X73489075Y-66976599D01*
X73533000Y-67197424D01*
X73533000Y-67422576D01*
X73489075Y-67643401D01*
X73402914Y-67851413D01*
X73277824Y-68038623D01*
X73118623Y-68197824D01*
X72931413Y-68322914D01*
X72723401Y-68409075D01*
X72502576Y-68453000D01*
X72277424Y-68453000D01*
X72056599Y-68409075D01*
X71848587Y-68322914D01*
X71661377Y-68197824D01*
X71502176Y-68038623D01*
X71377086Y-67851413D01*
X71290925Y-67643401D01*
X71247000Y-67422576D01*
X71247000Y-67197424D01*
X71290925Y-66976599D01*
X71377086Y-66768587D01*
X71502176Y-66581377D01*
X71661377Y-66422176D01*
X71848587Y-66297086D01*
X72056599Y-66210925D01*
X72277424Y-66167000D01*
X72502576Y-66167000D01*
X72723401Y-66210925D01*
X72723401Y-66210925D01*
G37*
G36*
X334343401Y-66210925D02*
X334551413Y-66297086D01*
X334738623Y-66422176D01*
X334897824Y-66581377D01*
X335022914Y-66768587D01*
X335109075Y-66976599D01*
X335153000Y-67197424D01*
X335153000Y-67422576D01*
X335109075Y-67643401D01*
X335022914Y-67851413D01*
X334897824Y-68038623D01*
X334738623Y-68197824D01*
X334551413Y-68322914D01*
X334343401Y-68409075D01*
X334122576Y-68453000D01*
X333897424Y-68453000D01*
X333676599Y-68409075D01*
X333468587Y-68322914D01*
X333281377Y-68197824D01*
X333122176Y-68038623D01*
X332997086Y-67851413D01*
X332910925Y-67643401D01*
X332867000Y-67422576D01*
X332867000Y-67197424D01*
X332910925Y-66976599D01*
X332997086Y-66768587D01*
X333122176Y-66581377D01*
X333281377Y-66422176D01*
X333468587Y-66297086D01*
X333676599Y-66210925D01*
X333897424Y-66167000D01*
X334122576Y-66167000D01*
X334343401Y-66210925D01*
X334343401Y-66210925D01*
G37*
G36*
X77803401Y-66210925D02*
X78011413Y-66297086D01*
X78198623Y-66422176D01*
X78357824Y-66581377D01*
X78482914Y-66768587D01*
X78569075Y-66976599D01*
X78613000Y-67197424D01*
X78613000Y-67422576D01*
X78569075Y-67643401D01*
X78482914Y-67851413D01*
X78357824Y-68038623D01*
X78198623Y-68197824D01*
X78011413Y-68322914D01*
X77803401Y-68409075D01*
X77582576Y-68453000D01*
X77357424Y-68453000D01*
X77136599Y-68409075D01*
X76928587Y-68322914D01*
X76741377Y-68197824D01*
X76582176Y-68038623D01*
X76457086Y-67851413D01*
X76370925Y-67643401D01*
X76327000Y-67422576D01*
X76327000Y-67197424D01*
X76370925Y-66976599D01*
X76457086Y-66768587D01*
X76582176Y-66581377D01*
X76741377Y-66422176D01*
X76928587Y-66297086D01*
X77136599Y-66210925D01*
X77357424Y-66167000D01*
X77582576Y-66167000D01*
X77803401Y-66210925D01*
X77803401Y-66210925D01*
G37*
G36*
X331803401Y-66210925D02*
X332011413Y-66297086D01*
X332198623Y-66422176D01*
X332357824Y-66581377D01*
X332482914Y-66768587D01*
X332569075Y-66976599D01*
X332613000Y-67197424D01*
X332613000Y-67422576D01*
X332569075Y-67643401D01*
X332482914Y-67851413D01*
X332357824Y-68038623D01*
X332198623Y-68197824D01*
X332011413Y-68322914D01*
X331803401Y-68409075D01*
X331582576Y-68453000D01*
X331357424Y-68453000D01*
X331136599Y-68409075D01*
X330928587Y-68322914D01*
X330741377Y-68197824D01*
X330582176Y-68038623D01*
X330457086Y-67851413D01*
X330370925Y-67643401D01*
X330327000Y-67422576D01*
X330327000Y-67197424D01*
X330370925Y-66976599D01*
X330457086Y-66768587D01*
X330582176Y-66581377D01*
X330741377Y-66422176D01*
X330928587Y-66297086D01*
X331136599Y-66210925D01*
X331357424Y-66167000D01*
X331582576Y-66167000D01*
X331803401Y-66210925D01*
X331803401Y-66210925D01*
G37*
G36*
X336883401Y-66210925D02*
X337091413Y-66297086D01*
X337278623Y-66422176D01*
X337437824Y-66581377D01*
X337562914Y-66768587D01*
X337649075Y-66976599D01*
X337693000Y-67197424D01*
X337693000Y-67422576D01*
X337649075Y-67643401D01*
X337562914Y-67851413D01*
X337437824Y-68038623D01*
X337278623Y-68197824D01*
X337091413Y-68322914D01*
X336883401Y-68409075D01*
X336662576Y-68453000D01*
X336437424Y-68453000D01*
X336216599Y-68409075D01*
X336008587Y-68322914D01*
X335821377Y-68197824D01*
X335662176Y-68038623D01*
X335537086Y-67851413D01*
X335450925Y-67643401D01*
X335407000Y-67422576D01*
X335407000Y-67197424D01*
X335450925Y-66976599D01*
X335537086Y-66768587D01*
X335662176Y-66581377D01*
X335821377Y-66422176D01*
X336008587Y-66297086D01*
X336216599Y-66210925D01*
X336437424Y-66167000D01*
X336662576Y-66167000D01*
X336883401Y-66210925D01*
X336883401Y-66210925D01*
G37*
G36*
X339423401Y-66210925D02*
X339631413Y-66297086D01*
X339818623Y-66422176D01*
X339977824Y-66581377D01*
X340102914Y-66768587D01*
X340189075Y-66976599D01*
X340233000Y-67197424D01*
X340233000Y-67422576D01*
X340189075Y-67643401D01*
X340102914Y-67851413D01*
X339977824Y-68038623D01*
X339818623Y-68197824D01*
X339631413Y-68322914D01*
X339423401Y-68409075D01*
X339202576Y-68453000D01*
X338977424Y-68453000D01*
X338756599Y-68409075D01*
X338548587Y-68322914D01*
X338361377Y-68197824D01*
X338202176Y-68038623D01*
X338077086Y-67851413D01*
X337990925Y-67643401D01*
X337947000Y-67422576D01*
X337947000Y-67197424D01*
X337990925Y-66976599D01*
X338077086Y-66768587D01*
X338202176Y-66581377D01*
X338361377Y-66422176D01*
X338548587Y-66297086D01*
X338756599Y-66210925D01*
X338977424Y-66167000D01*
X339202576Y-66167000D01*
X339423401Y-66210925D01*
X339423401Y-66210925D01*
G37*
G36*
X75263401Y-66210925D02*
X75471413Y-66297086D01*
X75658623Y-66422176D01*
X75817824Y-66581377D01*
X75942914Y-66768587D01*
X76029075Y-66976599D01*
X76073000Y-67197424D01*
X76073000Y-67422576D01*
X76029075Y-67643401D01*
X75942914Y-67851413D01*
X75817824Y-68038623D01*
X75658623Y-68197824D01*
X75471413Y-68322914D01*
X75263401Y-68409075D01*
X75042576Y-68453000D01*
X74817424Y-68453000D01*
X74596599Y-68409075D01*
X74388587Y-68322914D01*
X74201377Y-68197824D01*
X74042176Y-68038623D01*
X73917086Y-67851413D01*
X73830925Y-67643401D01*
X73787000Y-67422576D01*
X73787000Y-67197424D01*
X73830925Y-66976599D01*
X73917086Y-66768587D01*
X74042176Y-66581377D01*
X74201377Y-66422176D01*
X74388587Y-66297086D01*
X74596599Y-66210925D01*
X74817424Y-66167000D01*
X75042576Y-66167000D01*
X75263401Y-66210925D01*
X75263401Y-66210925D01*
G37*
G36*
X330073000Y-68453000D02*
X327787000Y-68453000D01*
X327787000Y-66167000D01*
X330073000Y-66167000D01*
X330073000Y-68453000D01*
X330073000Y-68453000D01*
G37*
G36*
X91346912Y-63730488D02*
X91716710Y-63883663D01*
X91716713Y-63883665D01*
X92049525Y-64106043D01*
X92332557Y-64389075D01*
X92456498Y-64574566D01*
X92554937Y-64721890D01*
X92708112Y-65091688D01*
X92786200Y-65484264D01*
X92786200Y-65884536D01*
X92708112Y-66277112D01*
X92554937Y-66646910D01*
X92554935Y-66646913D01*
X92332557Y-66979725D01*
X92049525Y-67262757D01*
X91810339Y-67422576D01*
X91716710Y-67485137D01*
X91346912Y-67638312D01*
X90954336Y-67716400D01*
X90554064Y-67716400D01*
X90161488Y-67638312D01*
X89791690Y-67485137D01*
X89698061Y-67422576D01*
X89458875Y-67262757D01*
X89175843Y-66979725D01*
X88953465Y-66646913D01*
X88953463Y-66646910D01*
X88800288Y-66277112D01*
X88722200Y-65884536D01*
X88722200Y-65484264D01*
X88800288Y-65091688D01*
X88953463Y-64721890D01*
X89051902Y-64574566D01*
X89175843Y-64389075D01*
X89458875Y-64106043D01*
X89791687Y-63883665D01*
X89791690Y-63883663D01*
X90161488Y-63730488D01*
X90554064Y-63652400D01*
X90954336Y-63652400D01*
X91346912Y-63730488D01*
X91346912Y-63730488D01*
G37*
G36*
X307246912Y-63730488D02*
X307616710Y-63883663D01*
X307616713Y-63883665D01*
X307949525Y-64106043D01*
X308232557Y-64389075D01*
X308356498Y-64574566D01*
X308454937Y-64721890D01*
X308608112Y-65091688D01*
X308686200Y-65484264D01*
X308686200Y-65884536D01*
X308608112Y-66277112D01*
X308454937Y-66646910D01*
X308454935Y-66646913D01*
X308232557Y-66979725D01*
X307949525Y-67262757D01*
X307710339Y-67422576D01*
X307616710Y-67485137D01*
X307246912Y-67638312D01*
X306854336Y-67716400D01*
X306454064Y-67716400D01*
X306061488Y-67638312D01*
X305691690Y-67485137D01*
X305598061Y-67422576D01*
X305358875Y-67262757D01*
X305075843Y-66979725D01*
X304853465Y-66646913D01*
X304853463Y-66646910D01*
X304700288Y-66277112D01*
X304622200Y-65884536D01*
X304622200Y-65484264D01*
X304700288Y-65091688D01*
X304853463Y-64721890D01*
X304951902Y-64574566D01*
X305075843Y-64389075D01*
X305358875Y-64106043D01*
X305691687Y-63883665D01*
X305691690Y-63883663D01*
X306061488Y-63730488D01*
X306454064Y-63652400D01*
X306854336Y-63652400D01*
X307246912Y-63730488D01*
X307246912Y-63730488D01*
G37*
G36*
X100338512Y-63730488D02*
X100708310Y-63883663D01*
X100708313Y-63883665D01*
X101041125Y-64106043D01*
X101324157Y-64389075D01*
X101448098Y-64574566D01*
X101546537Y-64721890D01*
X101699712Y-65091688D01*
X101777800Y-65484264D01*
X101777800Y-65884536D01*
X101699712Y-66277112D01*
X101546537Y-66646910D01*
X101546535Y-66646913D01*
X101324157Y-66979725D01*
X101041125Y-67262757D01*
X100801939Y-67422576D01*
X100708310Y-67485137D01*
X100338512Y-67638312D01*
X99945936Y-67716400D01*
X99545664Y-67716400D01*
X99153088Y-67638312D01*
X98783290Y-67485137D01*
X98689661Y-67422576D01*
X98450475Y-67262757D01*
X98167443Y-66979725D01*
X97945065Y-66646913D01*
X97945063Y-66646910D01*
X97791888Y-66277112D01*
X97713800Y-65884536D01*
X97713800Y-65484264D01*
X97791888Y-65091688D01*
X97945063Y-64721890D01*
X98043502Y-64574566D01*
X98167443Y-64389075D01*
X98450475Y-64106043D01*
X98783287Y-63883665D01*
X98783290Y-63883663D01*
X99153088Y-63730488D01*
X99545664Y-63652400D01*
X99945936Y-63652400D01*
X100338512Y-63730488D01*
X100338512Y-63730488D01*
G37*
G36*
X316238512Y-63730488D02*
X316608310Y-63883663D01*
X316608313Y-63883665D01*
X316941125Y-64106043D01*
X317224157Y-64389075D01*
X317348098Y-64574566D01*
X317446537Y-64721890D01*
X317599712Y-65091688D01*
X317677800Y-65484264D01*
X317677800Y-65884536D01*
X317599712Y-66277112D01*
X317446537Y-66646910D01*
X317446535Y-66646913D01*
X317224157Y-66979725D01*
X316941125Y-67262757D01*
X316701939Y-67422576D01*
X316608310Y-67485137D01*
X316238512Y-67638312D01*
X315845936Y-67716400D01*
X315445664Y-67716400D01*
X315053088Y-67638312D01*
X314683290Y-67485137D01*
X314589661Y-67422576D01*
X314350475Y-67262757D01*
X314067443Y-66979725D01*
X313845065Y-66646913D01*
X313845063Y-66646910D01*
X313691888Y-66277112D01*
X313613800Y-65884536D01*
X313613800Y-65484264D01*
X313691888Y-65091688D01*
X313845063Y-64721890D01*
X313943502Y-64574566D01*
X314067443Y-64389075D01*
X314350475Y-64106043D01*
X314683287Y-63883665D01*
X314683290Y-63883663D01*
X315053088Y-63730488D01*
X315445664Y-63652400D01*
X315845936Y-63652400D01*
X316238512Y-63730488D01*
X316238512Y-63730488D01*
G37*
G36*
X251708245Y-64535522D02*
X251904534Y-64574566D01*
X252181885Y-64689449D01*
X252431496Y-64856234D01*
X252643766Y-65068504D01*
X252643768Y-65068507D01*
X252810551Y-65318115D01*
X252925434Y-65595466D01*
X252984000Y-65889899D01*
X252984000Y-66190101D01*
X252925434Y-66484534D01*
X252876913Y-66601673D01*
X252810551Y-66761885D01*
X252643766Y-67011496D01*
X252431496Y-67223766D01*
X252431493Y-67223768D01*
X252181885Y-67390551D01*
X251904534Y-67505434D01*
X251708245Y-67544478D01*
X251610102Y-67564000D01*
X251309898Y-67564000D01*
X251211755Y-67544478D01*
X251015466Y-67505434D01*
X250738115Y-67390551D01*
X250488507Y-67223768D01*
X250488504Y-67223766D01*
X250276234Y-67011496D01*
X250109449Y-66761885D01*
X250043087Y-66601673D01*
X249994566Y-66484534D01*
X249936000Y-66190101D01*
X249936000Y-65889899D01*
X249994566Y-65595466D01*
X250109449Y-65318115D01*
X250276232Y-65068507D01*
X250276234Y-65068504D01*
X250488504Y-64856234D01*
X250738115Y-64689449D01*
X251015466Y-64574566D01*
X251211755Y-64535522D01*
X251309898Y-64516000D01*
X251610102Y-64516000D01*
X251708245Y-64535522D01*
X251708245Y-64535522D01*
G37*
G36*
X155188245Y-64535522D02*
X155384534Y-64574566D01*
X155661885Y-64689449D01*
X155911496Y-64856234D01*
X156123766Y-65068504D01*
X156123768Y-65068507D01*
X156290551Y-65318115D01*
X156405434Y-65595466D01*
X156464000Y-65889899D01*
X156464000Y-66190101D01*
X156405434Y-66484534D01*
X156356913Y-66601673D01*
X156290551Y-66761885D01*
X156123766Y-67011496D01*
X155911496Y-67223766D01*
X155911493Y-67223768D01*
X155661885Y-67390551D01*
X155384534Y-67505434D01*
X155188245Y-67544478D01*
X155090102Y-67564000D01*
X154789898Y-67564000D01*
X154691755Y-67544478D01*
X154495466Y-67505434D01*
X154218115Y-67390551D01*
X153968507Y-67223768D01*
X153968504Y-67223766D01*
X153756234Y-67011496D01*
X153589449Y-66761885D01*
X153523087Y-66601673D01*
X153474566Y-66484534D01*
X153416000Y-66190101D01*
X153416000Y-65889899D01*
X153474566Y-65595466D01*
X153589449Y-65318115D01*
X153756232Y-65068507D01*
X153756234Y-65068504D01*
X153968504Y-64856234D01*
X154218115Y-64689449D01*
X154495466Y-64574566D01*
X154691755Y-64535522D01*
X154789898Y-64516000D01*
X155090102Y-64516000D01*
X155188245Y-64535522D01*
X155188245Y-64535522D01*
G37*
G36*
X150108245Y-64535522D02*
X150304534Y-64574566D01*
X150581885Y-64689449D01*
X150831496Y-64856234D01*
X151043766Y-65068504D01*
X151043768Y-65068507D01*
X151210551Y-65318115D01*
X151325434Y-65595466D01*
X151384000Y-65889899D01*
X151384000Y-66190101D01*
X151325434Y-66484534D01*
X151276913Y-66601673D01*
X151210551Y-66761885D01*
X151043766Y-67011496D01*
X150831496Y-67223766D01*
X150831493Y-67223768D01*
X150581885Y-67390551D01*
X150304534Y-67505434D01*
X150108245Y-67544478D01*
X150010102Y-67564000D01*
X149709898Y-67564000D01*
X149611755Y-67544478D01*
X149415466Y-67505434D01*
X149138115Y-67390551D01*
X148888507Y-67223768D01*
X148888504Y-67223766D01*
X148676234Y-67011496D01*
X148509449Y-66761885D01*
X148443087Y-66601673D01*
X148394566Y-66484534D01*
X148336000Y-66190101D01*
X148336000Y-65889899D01*
X148394566Y-65595466D01*
X148509449Y-65318115D01*
X148676232Y-65068507D01*
X148676234Y-65068504D01*
X148888504Y-64856234D01*
X149138115Y-64689449D01*
X149415466Y-64574566D01*
X149611755Y-64535522D01*
X149709898Y-64516000D01*
X150010102Y-64516000D01*
X150108245Y-64535522D01*
X150108245Y-64535522D01*
G37*
G36*
X256788245Y-64535522D02*
X256984534Y-64574566D01*
X257261885Y-64689449D01*
X257511496Y-64856234D01*
X257723766Y-65068504D01*
X257723768Y-65068507D01*
X257890551Y-65318115D01*
X258005434Y-65595466D01*
X258064000Y-65889899D01*
X258064000Y-66190101D01*
X258005434Y-66484534D01*
X257956913Y-66601673D01*
X257890551Y-66761885D01*
X257723766Y-67011496D01*
X257511496Y-67223766D01*
X257511493Y-67223768D01*
X257261885Y-67390551D01*
X256984534Y-67505434D01*
X256788245Y-67544478D01*
X256690102Y-67564000D01*
X256389898Y-67564000D01*
X256291755Y-67544478D01*
X256095466Y-67505434D01*
X255818115Y-67390551D01*
X255568507Y-67223768D01*
X255568504Y-67223766D01*
X255356234Y-67011496D01*
X255189449Y-66761885D01*
X255123087Y-66601673D01*
X255074566Y-66484534D01*
X255016000Y-66190101D01*
X255016000Y-65889899D01*
X255074566Y-65595466D01*
X255189449Y-65318115D01*
X255356232Y-65068507D01*
X255356234Y-65068504D01*
X255568504Y-64856234D01*
X255818115Y-64689449D01*
X256095466Y-64574566D01*
X256291755Y-64535522D01*
X256389898Y-64516000D01*
X256690102Y-64516000D01*
X256788245Y-64535522D01*
X256788245Y-64535522D01*
G37*
G36*
X192000926Y-65050029D02*
X192066356Y-65063044D01*
X192251256Y-65139632D01*
X192417665Y-65250823D01*
X192559177Y-65392335D01*
X192559179Y-65392338D01*
X192670368Y-65558744D01*
X192734052Y-65712490D01*
X192746956Y-65743645D01*
X192786000Y-65939931D01*
X192786000Y-66140069D01*
X192771906Y-66210925D01*
X192746956Y-66336356D01*
X192685579Y-66484534D01*
X192670368Y-66521256D01*
X192559177Y-66687665D01*
X192417665Y-66829177D01*
X192417662Y-66829179D01*
X192251256Y-66940368D01*
X192066356Y-67016956D01*
X192000926Y-67029971D01*
X191870069Y-67056000D01*
X191669931Y-67056000D01*
X191539074Y-67029971D01*
X191473644Y-67016956D01*
X191288744Y-66940368D01*
X191122338Y-66829179D01*
X191122335Y-66829177D01*
X190980823Y-66687665D01*
X190869632Y-66521256D01*
X190854421Y-66484534D01*
X190793044Y-66336356D01*
X190768094Y-66210925D01*
X190754000Y-66140069D01*
X190754000Y-65939931D01*
X190793044Y-65743645D01*
X190805949Y-65712490D01*
X190869632Y-65558744D01*
X190980821Y-65392338D01*
X190980823Y-65392335D01*
X191122335Y-65250823D01*
X191288744Y-65139632D01*
X191473644Y-65063044D01*
X191539074Y-65050029D01*
X191669931Y-65024000D01*
X191870069Y-65024000D01*
X192000926Y-65050029D01*
X192000926Y-65050029D01*
G37*
G36*
X217400926Y-65050029D02*
X217466356Y-65063044D01*
X217651256Y-65139632D01*
X217817665Y-65250823D01*
X217959177Y-65392335D01*
X217959179Y-65392338D01*
X218070368Y-65558744D01*
X218134052Y-65712490D01*
X218146956Y-65743645D01*
X218186000Y-65939931D01*
X218186000Y-66140069D01*
X218171906Y-66210925D01*
X218146956Y-66336356D01*
X218085579Y-66484534D01*
X218070368Y-66521256D01*
X217959177Y-66687665D01*
X217817665Y-66829177D01*
X217817662Y-66829179D01*
X217651256Y-66940368D01*
X217466356Y-67016956D01*
X217400926Y-67029971D01*
X217270069Y-67056000D01*
X217069931Y-67056000D01*
X216939074Y-67029971D01*
X216873644Y-67016956D01*
X216688744Y-66940368D01*
X216522338Y-66829179D01*
X216522335Y-66829177D01*
X216380823Y-66687665D01*
X216269632Y-66521256D01*
X216254421Y-66484534D01*
X216193044Y-66336356D01*
X216168094Y-66210925D01*
X216154000Y-66140069D01*
X216154000Y-65939931D01*
X216193044Y-65743645D01*
X216205949Y-65712490D01*
X216269632Y-65558744D01*
X216380821Y-65392338D01*
X216380823Y-65392335D01*
X216522335Y-65250823D01*
X216688744Y-65139632D01*
X216873644Y-65063044D01*
X216939074Y-65050029D01*
X217069931Y-65024000D01*
X217270069Y-65024000D01*
X217400926Y-65050029D01*
X217400926Y-65050029D01*
G37*
G36*
X189460926Y-65050029D02*
X189526356Y-65063044D01*
X189711256Y-65139632D01*
X189877665Y-65250823D01*
X190019177Y-65392335D01*
X190019179Y-65392338D01*
X190130368Y-65558744D01*
X190194052Y-65712490D01*
X190206956Y-65743645D01*
X190246000Y-65939931D01*
X190246000Y-66140069D01*
X190231906Y-66210925D01*
X190206956Y-66336356D01*
X190145579Y-66484534D01*
X190130368Y-66521256D01*
X190019177Y-66687665D01*
X189877665Y-66829177D01*
X189877662Y-66829179D01*
X189711256Y-66940368D01*
X189526356Y-67016956D01*
X189460926Y-67029971D01*
X189330069Y-67056000D01*
X189129931Y-67056000D01*
X188999074Y-67029971D01*
X188933644Y-67016956D01*
X188748744Y-66940368D01*
X188582338Y-66829179D01*
X188582335Y-66829177D01*
X188440823Y-66687665D01*
X188329632Y-66521256D01*
X188314421Y-66484534D01*
X188253044Y-66336356D01*
X188228094Y-66210925D01*
X188214000Y-66140069D01*
X188214000Y-65939931D01*
X188253044Y-65743645D01*
X188265949Y-65712490D01*
X188329632Y-65558744D01*
X188440821Y-65392338D01*
X188440823Y-65392335D01*
X188582335Y-65250823D01*
X188748744Y-65139632D01*
X188933644Y-65063044D01*
X188999074Y-65050029D01*
X189129931Y-65024000D01*
X189330069Y-65024000D01*
X189460926Y-65050029D01*
X189460926Y-65050029D01*
G37*
G36*
X214860926Y-65050029D02*
X214926356Y-65063044D01*
X215111256Y-65139632D01*
X215277665Y-65250823D01*
X215419177Y-65392335D01*
X215419179Y-65392338D01*
X215530368Y-65558744D01*
X215594052Y-65712490D01*
X215606956Y-65743645D01*
X215646000Y-65939931D01*
X215646000Y-66140069D01*
X215631906Y-66210925D01*
X215606956Y-66336356D01*
X215545579Y-66484534D01*
X215530368Y-66521256D01*
X215419177Y-66687665D01*
X215277665Y-66829177D01*
X215277662Y-66829179D01*
X215111256Y-66940368D01*
X214926356Y-67016956D01*
X214860926Y-67029971D01*
X214730069Y-67056000D01*
X214529931Y-67056000D01*
X214399074Y-67029971D01*
X214333644Y-67016956D01*
X214148744Y-66940368D01*
X213982338Y-66829179D01*
X213982335Y-66829177D01*
X213840823Y-66687665D01*
X213729632Y-66521256D01*
X213714421Y-66484534D01*
X213653044Y-66336356D01*
X213628094Y-66210925D01*
X213614000Y-66140069D01*
X213614000Y-65939931D01*
X213653044Y-65743645D01*
X213665949Y-65712490D01*
X213729632Y-65558744D01*
X213840821Y-65392338D01*
X213840823Y-65392335D01*
X213982335Y-65250823D01*
X214148744Y-65139632D01*
X214333644Y-65063044D01*
X214399074Y-65050029D01*
X214529931Y-65024000D01*
X214730069Y-65024000D01*
X214860926Y-65050029D01*
X214860926Y-65050029D01*
G37*
G36*
X77803401Y-63670925D02*
X78011413Y-63757086D01*
X78198623Y-63882176D01*
X78357824Y-64041377D01*
X78482914Y-64228587D01*
X78569075Y-64436599D01*
X78613000Y-64657424D01*
X78613000Y-64882576D01*
X78569075Y-65103401D01*
X78482914Y-65311413D01*
X78357824Y-65498623D01*
X78198623Y-65657824D01*
X78011413Y-65782914D01*
X77803401Y-65869075D01*
X77582576Y-65913000D01*
X77357424Y-65913000D01*
X77136599Y-65869075D01*
X76928587Y-65782914D01*
X76741377Y-65657824D01*
X76582176Y-65498623D01*
X76457086Y-65311413D01*
X76370925Y-65103401D01*
X76327000Y-64882576D01*
X76327000Y-64657424D01*
X76370925Y-64436599D01*
X76457086Y-64228587D01*
X76582176Y-64041377D01*
X76741377Y-63882176D01*
X76928587Y-63757086D01*
X77136599Y-63670925D01*
X77357424Y-63627000D01*
X77582576Y-63627000D01*
X77803401Y-63670925D01*
X77803401Y-63670925D01*
G37*
G36*
X329263401Y-63670925D02*
X329471413Y-63757086D01*
X329658623Y-63882176D01*
X329817824Y-64041377D01*
X329942914Y-64228587D01*
X330029075Y-64436599D01*
X330073000Y-64657424D01*
X330073000Y-64882576D01*
X330029075Y-65103401D01*
X329942914Y-65311413D01*
X329817824Y-65498623D01*
X329658623Y-65657824D01*
X329471413Y-65782914D01*
X329263401Y-65869075D01*
X329042576Y-65913000D01*
X328817424Y-65913000D01*
X328596599Y-65869075D01*
X328388587Y-65782914D01*
X328201377Y-65657824D01*
X328042176Y-65498623D01*
X327917086Y-65311413D01*
X327830925Y-65103401D01*
X327787000Y-64882576D01*
X327787000Y-64657424D01*
X327830925Y-64436599D01*
X327917086Y-64228587D01*
X328042176Y-64041377D01*
X328201377Y-63882176D01*
X328388587Y-63757086D01*
X328596599Y-63670925D01*
X328817424Y-63627000D01*
X329042576Y-63627000D01*
X329263401Y-63670925D01*
X329263401Y-63670925D01*
G37*
G36*
X339423401Y-63670925D02*
X339631413Y-63757086D01*
X339818623Y-63882176D01*
X339977824Y-64041377D01*
X340102914Y-64228587D01*
X340189075Y-64436599D01*
X340233000Y-64657424D01*
X340233000Y-64882576D01*
X340189075Y-65103401D01*
X340102914Y-65311413D01*
X339977824Y-65498623D01*
X339818623Y-65657824D01*
X339631413Y-65782914D01*
X339423401Y-65869075D01*
X339202576Y-65913000D01*
X338977424Y-65913000D01*
X338756599Y-65869075D01*
X338548587Y-65782914D01*
X338361377Y-65657824D01*
X338202176Y-65498623D01*
X338077086Y-65311413D01*
X337990925Y-65103401D01*
X337947000Y-64882576D01*
X337947000Y-64657424D01*
X337990925Y-64436599D01*
X338077086Y-64228587D01*
X338202176Y-64041377D01*
X338361377Y-63882176D01*
X338548587Y-63757086D01*
X338756599Y-63670925D01*
X338977424Y-63627000D01*
X339202576Y-63627000D01*
X339423401Y-63670925D01*
X339423401Y-63670925D01*
G37*
G36*
X331803401Y-63670925D02*
X332011413Y-63757086D01*
X332198623Y-63882176D01*
X332357824Y-64041377D01*
X332482914Y-64228587D01*
X332569075Y-64436599D01*
X332613000Y-64657424D01*
X332613000Y-64882576D01*
X332569075Y-65103401D01*
X332482914Y-65311413D01*
X332357824Y-65498623D01*
X332198623Y-65657824D01*
X332011413Y-65782914D01*
X331803401Y-65869075D01*
X331582576Y-65913000D01*
X331357424Y-65913000D01*
X331136599Y-65869075D01*
X330928587Y-65782914D01*
X330741377Y-65657824D01*
X330582176Y-65498623D01*
X330457086Y-65311413D01*
X330370925Y-65103401D01*
X330327000Y-64882576D01*
X330327000Y-64657424D01*
X330370925Y-64436599D01*
X330457086Y-64228587D01*
X330582176Y-64041377D01*
X330741377Y-63882176D01*
X330928587Y-63757086D01*
X331136599Y-63670925D01*
X331357424Y-63627000D01*
X331582576Y-63627000D01*
X331803401Y-63670925D01*
X331803401Y-63670925D01*
G37*
G36*
X75263401Y-63670925D02*
X75471413Y-63757086D01*
X75658623Y-63882176D01*
X75817824Y-64041377D01*
X75942914Y-64228587D01*
X76029075Y-64436599D01*
X76073000Y-64657424D01*
X76073000Y-64882576D01*
X76029075Y-65103401D01*
X75942914Y-65311413D01*
X75817824Y-65498623D01*
X75658623Y-65657824D01*
X75471413Y-65782914D01*
X75263401Y-65869075D01*
X75042576Y-65913000D01*
X74817424Y-65913000D01*
X74596599Y-65869075D01*
X74388587Y-65782914D01*
X74201377Y-65657824D01*
X74042176Y-65498623D01*
X73917086Y-65311413D01*
X73830925Y-65103401D01*
X73787000Y-64882576D01*
X73787000Y-64657424D01*
X73830925Y-64436599D01*
X73917086Y-64228587D01*
X74042176Y-64041377D01*
X74201377Y-63882176D01*
X74388587Y-63757086D01*
X74596599Y-63670925D01*
X74817424Y-63627000D01*
X75042576Y-63627000D01*
X75263401Y-63670925D01*
X75263401Y-63670925D01*
G37*
G36*
X334343401Y-63670925D02*
X334551413Y-63757086D01*
X334738623Y-63882176D01*
X334897824Y-64041377D01*
X335022914Y-64228587D01*
X335109075Y-64436599D01*
X335153000Y-64657424D01*
X335153000Y-64882576D01*
X335109075Y-65103401D01*
X335022914Y-65311413D01*
X334897824Y-65498623D01*
X334738623Y-65657824D01*
X334551413Y-65782914D01*
X334343401Y-65869075D01*
X334122576Y-65913000D01*
X333897424Y-65913000D01*
X333676599Y-65869075D01*
X333468587Y-65782914D01*
X333281377Y-65657824D01*
X333122176Y-65498623D01*
X332997086Y-65311413D01*
X332910925Y-65103401D01*
X332867000Y-64882576D01*
X332867000Y-64657424D01*
X332910925Y-64436599D01*
X332997086Y-64228587D01*
X333122176Y-64041377D01*
X333281377Y-63882176D01*
X333468587Y-63757086D01*
X333676599Y-63670925D01*
X333897424Y-63627000D01*
X334122576Y-63627000D01*
X334343401Y-63670925D01*
X334343401Y-63670925D01*
G37*
G36*
X72723401Y-63670925D02*
X72931413Y-63757086D01*
X73118623Y-63882176D01*
X73277824Y-64041377D01*
X73402914Y-64228587D01*
X73489075Y-64436599D01*
X73533000Y-64657424D01*
X73533000Y-64882576D01*
X73489075Y-65103401D01*
X73402914Y-65311413D01*
X73277824Y-65498623D01*
X73118623Y-65657824D01*
X72931413Y-65782914D01*
X72723401Y-65869075D01*
X72502576Y-65913000D01*
X72277424Y-65913000D01*
X72056599Y-65869075D01*
X71848587Y-65782914D01*
X71661377Y-65657824D01*
X71502176Y-65498623D01*
X71377086Y-65311413D01*
X71290925Y-65103401D01*
X71247000Y-64882576D01*
X71247000Y-64657424D01*
X71290925Y-64436599D01*
X71377086Y-64228587D01*
X71502176Y-64041377D01*
X71661377Y-63882176D01*
X71848587Y-63757086D01*
X72056599Y-63670925D01*
X72277424Y-63627000D01*
X72502576Y-63627000D01*
X72723401Y-63670925D01*
X72723401Y-63670925D01*
G37*
G36*
X336883401Y-63670925D02*
X337091413Y-63757086D01*
X337278623Y-63882176D01*
X337437824Y-64041377D01*
X337562914Y-64228587D01*
X337649075Y-64436599D01*
X337693000Y-64657424D01*
X337693000Y-64882576D01*
X337649075Y-65103401D01*
X337562914Y-65311413D01*
X337437824Y-65498623D01*
X337278623Y-65657824D01*
X337091413Y-65782914D01*
X336883401Y-65869075D01*
X336662576Y-65913000D01*
X336437424Y-65913000D01*
X336216599Y-65869075D01*
X336008587Y-65782914D01*
X335821377Y-65657824D01*
X335662176Y-65498623D01*
X335537086Y-65311413D01*
X335450925Y-65103401D01*
X335407000Y-64882576D01*
X335407000Y-64657424D01*
X335450925Y-64436599D01*
X335537086Y-64228587D01*
X335662176Y-64041377D01*
X335821377Y-63882176D01*
X336008587Y-63757086D01*
X336216599Y-63670925D01*
X336437424Y-63627000D01*
X336662576Y-63627000D01*
X336883401Y-63670925D01*
X336883401Y-63670925D01*
G37*
G36*
X67643401Y-63670925D02*
X67851413Y-63757086D01*
X68038623Y-63882176D01*
X68197824Y-64041377D01*
X68322914Y-64228587D01*
X68409075Y-64436599D01*
X68453000Y-64657424D01*
X68453000Y-64882576D01*
X68409075Y-65103401D01*
X68322914Y-65311413D01*
X68197824Y-65498623D01*
X68038623Y-65657824D01*
X67851413Y-65782914D01*
X67643401Y-65869075D01*
X67422576Y-65913000D01*
X67197424Y-65913000D01*
X66976599Y-65869075D01*
X66768587Y-65782914D01*
X66581377Y-65657824D01*
X66422176Y-65498623D01*
X66297086Y-65311413D01*
X66210925Y-65103401D01*
X66167000Y-64882576D01*
X66167000Y-64657424D01*
X66210925Y-64436599D01*
X66297086Y-64228587D01*
X66422176Y-64041377D01*
X66581377Y-63882176D01*
X66768587Y-63757086D01*
X66976599Y-63670925D01*
X67197424Y-63627000D01*
X67422576Y-63627000D01*
X67643401Y-63670925D01*
X67643401Y-63670925D01*
G37*
G36*
X70183401Y-63670925D02*
X70391413Y-63757086D01*
X70578623Y-63882176D01*
X70737824Y-64041377D01*
X70862914Y-64228587D01*
X70949075Y-64436599D01*
X70993000Y-64657424D01*
X70993000Y-64882576D01*
X70949075Y-65103401D01*
X70862914Y-65311413D01*
X70737824Y-65498623D01*
X70578623Y-65657824D01*
X70391413Y-65782914D01*
X70183401Y-65869075D01*
X69962576Y-65913000D01*
X69737424Y-65913000D01*
X69516599Y-65869075D01*
X69308587Y-65782914D01*
X69121377Y-65657824D01*
X68962176Y-65498623D01*
X68837086Y-65311413D01*
X68750925Y-65103401D01*
X68707000Y-64882576D01*
X68707000Y-64657424D01*
X68750925Y-64436599D01*
X68837086Y-64228587D01*
X68962176Y-64041377D01*
X69121377Y-63882176D01*
X69308587Y-63757086D01*
X69516599Y-63670925D01*
X69737424Y-63627000D01*
X69962576Y-63627000D01*
X70183401Y-63670925D01*
X70183401Y-63670925D01*
G37*
G36*
X217400926Y-62510029D02*
X217466356Y-62523044D01*
X217645766Y-62597358D01*
X217651256Y-62599632D01*
X217817665Y-62710823D01*
X217959177Y-62852335D01*
X218070368Y-63018744D01*
X218146956Y-63203645D01*
X218186000Y-63399931D01*
X218186000Y-63600069D01*
X218146956Y-63796355D01*
X218070368Y-63981256D01*
X217959177Y-64147665D01*
X217817665Y-64289177D01*
X217817662Y-64289179D01*
X217651256Y-64400368D01*
X217466356Y-64476956D01*
X217400926Y-64489971D01*
X217270069Y-64516000D01*
X217069931Y-64516000D01*
X216939074Y-64489971D01*
X216873644Y-64476956D01*
X216688744Y-64400368D01*
X216522338Y-64289179D01*
X216522335Y-64289177D01*
X216380823Y-64147665D01*
X216269632Y-63981256D01*
X216193044Y-63796355D01*
X216154000Y-63600069D01*
X216154000Y-63399931D01*
X216193044Y-63203645D01*
X216269632Y-63018744D01*
X216380823Y-62852335D01*
X216522335Y-62710823D01*
X216688744Y-62599632D01*
X216694234Y-62597358D01*
X216873644Y-62523044D01*
X216939074Y-62510029D01*
X217069931Y-62484000D01*
X217270069Y-62484000D01*
X217400926Y-62510029D01*
X217400926Y-62510029D01*
G37*
G36*
X214860926Y-62510029D02*
X214926356Y-62523044D01*
X215105766Y-62597358D01*
X215111256Y-62599632D01*
X215277665Y-62710823D01*
X215419177Y-62852335D01*
X215530368Y-63018744D01*
X215606956Y-63203645D01*
X215646000Y-63399931D01*
X215646000Y-63600069D01*
X215606956Y-63796355D01*
X215530368Y-63981256D01*
X215419177Y-64147665D01*
X215277665Y-64289177D01*
X215277662Y-64289179D01*
X215111256Y-64400368D01*
X214926356Y-64476956D01*
X214860926Y-64489971D01*
X214730069Y-64516000D01*
X214529931Y-64516000D01*
X214399074Y-64489971D01*
X214333644Y-64476956D01*
X214148744Y-64400368D01*
X213982338Y-64289179D01*
X213982335Y-64289177D01*
X213840823Y-64147665D01*
X213729632Y-63981256D01*
X213653044Y-63796355D01*
X213614000Y-63600069D01*
X213614000Y-63399931D01*
X213653044Y-63203645D01*
X213729632Y-63018744D01*
X213840823Y-62852335D01*
X213982335Y-62710823D01*
X214148744Y-62599632D01*
X214154234Y-62597358D01*
X214333644Y-62523044D01*
X214399074Y-62510029D01*
X214529931Y-62484000D01*
X214730069Y-62484000D01*
X214860926Y-62510029D01*
X214860926Y-62510029D01*
G37*
G36*
X189460926Y-62510029D02*
X189526356Y-62523044D01*
X189705766Y-62597358D01*
X189711256Y-62599632D01*
X189877665Y-62710823D01*
X190019177Y-62852335D01*
X190130368Y-63018744D01*
X190206956Y-63203645D01*
X190246000Y-63399931D01*
X190246000Y-63600069D01*
X190206956Y-63796355D01*
X190130368Y-63981256D01*
X190019177Y-64147665D01*
X189877665Y-64289177D01*
X189877662Y-64289179D01*
X189711256Y-64400368D01*
X189526356Y-64476956D01*
X189460926Y-64489971D01*
X189330069Y-64516000D01*
X189129931Y-64516000D01*
X188999074Y-64489971D01*
X188933644Y-64476956D01*
X188748744Y-64400368D01*
X188582338Y-64289179D01*
X188582335Y-64289177D01*
X188440823Y-64147665D01*
X188329632Y-63981256D01*
X188253044Y-63796355D01*
X188214000Y-63600069D01*
X188214000Y-63399931D01*
X188253044Y-63203645D01*
X188329632Y-63018744D01*
X188440823Y-62852335D01*
X188582335Y-62710823D01*
X188748744Y-62599632D01*
X188754234Y-62597358D01*
X188933644Y-62523044D01*
X188999074Y-62510029D01*
X189129931Y-62484000D01*
X189330069Y-62484000D01*
X189460926Y-62510029D01*
X189460926Y-62510029D01*
G37*
G36*
X192000926Y-62510029D02*
X192066356Y-62523044D01*
X192245766Y-62597358D01*
X192251256Y-62599632D01*
X192417665Y-62710823D01*
X192559177Y-62852335D01*
X192670368Y-63018744D01*
X192746956Y-63203645D01*
X192786000Y-63399931D01*
X192786000Y-63600069D01*
X192746956Y-63796355D01*
X192670368Y-63981256D01*
X192559177Y-64147665D01*
X192417665Y-64289177D01*
X192417662Y-64289179D01*
X192251256Y-64400368D01*
X192066356Y-64476956D01*
X192000926Y-64489971D01*
X191870069Y-64516000D01*
X191669931Y-64516000D01*
X191539074Y-64489971D01*
X191473644Y-64476956D01*
X191288744Y-64400368D01*
X191122338Y-64289179D01*
X191122335Y-64289177D01*
X190980823Y-64147665D01*
X190869632Y-63981256D01*
X190793044Y-63796355D01*
X190754000Y-63600069D01*
X190754000Y-63399931D01*
X190793044Y-63203645D01*
X190869632Y-63018744D01*
X190980823Y-62852335D01*
X191122335Y-62710823D01*
X191288744Y-62599632D01*
X191294234Y-62597358D01*
X191473644Y-62523044D01*
X191539074Y-62510029D01*
X191669931Y-62484000D01*
X191870069Y-62484000D01*
X192000926Y-62510029D01*
X192000926Y-62510029D01*
G37*
M02*
