M48
;DRILL file {KiCad 5.0.2-bee76a0~70~ubuntu18.04.1} date Mon 20 Apr 2020 05:56:18 PM PDT
;FORMAT={-:-/ absolute / inch / decimal}
FMAT,2
INCH,TZ
T1C0.0250
T2C0.0390
T3C0.0400
T4C0.0630
T5C0.0730
T6C0.1060
T7C0.1240
T8C0.1300
T9C0.2600
%
G90
G05
T1
X2.7614Y-2.8503
X9.3222Y-2.7075
X9.6733Y-2.4853
X12.8592Y-2.6208
T2
X12.95Y-2.55
X12.95Y-2.65
X13.05Y-2.55
X13.05Y-2.65
X13.15Y-2.55
X13.15Y-2.65
X13.25Y-2.55
X13.25Y-2.65
X13.35Y-2.55
X13.35Y-2.65
X2.65Y-2.55
X2.65Y-2.65
X2.75Y-2.55
X2.75Y-2.65
X2.85Y-2.55
X2.85Y-2.65
X2.95Y-2.55
X2.95Y-2.65
X3.05Y-2.55
X3.05Y-2.65
T3
X10.206Y-3.27
X10.306Y-3.27
X10.406Y-3.27
X10.506Y-3.27
X10.606Y-3.27
X10.706Y-3.27
X10.806Y-3.27
X10.906Y-3.27
X5.9Y-2.6
X6.1Y-2.6
X6.372Y-3.27
X6.472Y-3.27
X6.572Y-3.27
X6.672Y-3.27
X6.772Y-3.27
X6.872Y-3.27
X6.972Y-3.27
X7.072Y-3.27
X3.816Y-3.27
X3.916Y-3.27
X4.016Y-3.27
X4.116Y-3.27
X4.216Y-3.27
X4.316Y-3.27
X4.416Y-3.27
X4.516Y-3.27
X8.928Y-3.27
X9.028Y-3.27
X9.128Y-3.27
X9.228Y-3.27
X9.328Y-3.27
X9.428Y-3.27
X9.528Y-3.27
X9.628Y-3.27
X7.45Y-2.5
X7.45Y-2.6
X7.45Y-2.7
X7.45Y-2.8
X7.55Y-2.5
X7.55Y-2.6
X7.55Y-2.7
X7.55Y-2.8
X9.9Y-2.6
X10.1Y-2.6
X5.094Y-3.27
X5.194Y-3.27
X5.294Y-3.27
X5.394Y-3.27
X5.494Y-3.27
X5.594Y-3.27
X5.694Y-3.27
X5.794Y-3.27
X1.63Y-2.838
X1.63Y-2.946
X1.63Y-3.054
X1.63Y-3.162
X1.73Y-2.784
X1.73Y-2.892
X1.73Y-3.
X1.73Y-3.108
X1.73Y-3.216
X11.484Y-3.27
X11.584Y-3.27
X11.684Y-3.27
X11.784Y-3.27
X11.884Y-3.27
X11.984Y-3.27
X12.084Y-3.27
X12.184Y-3.27
X7.65Y-3.27
X7.75Y-3.27
X7.85Y-3.27
X7.95Y-3.27
X8.05Y-3.27
X8.15Y-3.27
X8.25Y-3.27
X8.35Y-3.27
X14.27Y-2.784
X14.27Y-2.892
X14.27Y-3.
X14.27Y-3.108
X14.27Y-3.216
X14.37Y-2.838
X14.37Y-2.946
X14.37Y-3.054
X14.37Y-3.162
X8.45Y-2.5
X8.45Y-2.6
X8.45Y-2.7
X8.45Y-2.8
X8.55Y-2.5
X8.55Y-2.6
X8.55Y-2.7
X8.55Y-2.8
T4
X3.75Y-2.507
X12.25Y-2.507
T5
X1.954Y-2.641
X2.054Y-3.141
X2.054Y-3.341
X2.054Y-3.541
X2.154Y-2.641
T6
X3.573Y-2.586
X3.75Y-2.625
X3.927Y-2.586
X12.073Y-2.586
X12.25Y-2.625
X12.427Y-2.586
T7
X3.75Y-2.861
X12.25Y-2.861
T8
X1.68Y-2.507
X1.68Y-3.493
X14.32Y-2.507
X14.32Y-3.493
T9
X2.5Y-3.1144
X13.5Y-3.1144
T0
M30
