G04 #@! TF.GenerationSoftware,KiCad,Pcbnew,5.0.2-bee76a0~70~ubuntu18.04.1*
G04 #@! TF.CreationDate,2020-04-20T17:56:11-07:00*
G04 #@! TF.ProjectId,hallway_panels_arena,68616c6c-7761-4795-9f70-616e656c735f,1.0*
G04 #@! TF.SameCoordinates,Original*
G04 #@! TF.FileFunction,Legend,Top*
G04 #@! TF.FilePolarity,Positive*
%FSLAX46Y46*%
G04 Gerber Fmt 4.6, Leading zero omitted, Abs format (unit mm)*
G04 Created by KiCad (PCBNEW 5.0.2-bee76a0~70~ubuntu18.04.1) date Mon 20 Apr 2020 05:56:11 PM PDT*
%MOMM*%
%LPD*%
G01*
G04 APERTURE LIST*
%ADD10C,0.304800*%
%ADD11C,0.381000*%
%ADD12C,0.203200*%
%ADD13C,0.152400*%
%ADD14C,0.812800*%
%ADD15C,0.127000*%
%ADD16C,0.254000*%
G04 APERTURE END LIST*
D10*
X48163238Y-83275714D02*
X46131238Y-83275714D01*
X46324761Y-82622571D02*
X46228000Y-82550000D01*
X46131238Y-82404857D01*
X46131238Y-82042000D01*
X46228000Y-81896857D01*
X46324761Y-81824285D01*
X46518285Y-81751714D01*
X46711809Y-81751714D01*
X47002095Y-81824285D01*
X48163238Y-82695142D01*
X48163238Y-81751714D01*
X47969714Y-80227714D02*
X48066476Y-80300285D01*
X48163238Y-80518000D01*
X48163238Y-80663142D01*
X48066476Y-80880857D01*
X47872952Y-81026000D01*
X47679428Y-81098571D01*
X47292380Y-81171142D01*
X47002095Y-81171142D01*
X46615047Y-81098571D01*
X46421523Y-81026000D01*
X46228000Y-80880857D01*
X46131238Y-80663142D01*
X46131238Y-80518000D01*
X46228000Y-80300285D01*
X46324761Y-80227714D01*
X360583238Y-77179714D02*
X358551238Y-77179714D01*
X358744761Y-76526571D02*
X358648000Y-76454000D01*
X358551238Y-76308857D01*
X358551238Y-75946000D01*
X358648000Y-75800857D01*
X358744761Y-75728285D01*
X358938285Y-75655714D01*
X359131809Y-75655714D01*
X359422095Y-75728285D01*
X360583238Y-76599142D01*
X360583238Y-75655714D01*
X360389714Y-74131714D02*
X360486476Y-74204285D01*
X360583238Y-74422000D01*
X360583238Y-74567142D01*
X360486476Y-74784857D01*
X360292952Y-74930000D01*
X360099428Y-75002571D01*
X359712380Y-75075142D01*
X359422095Y-75075142D01*
X359035047Y-75002571D01*
X358841523Y-74930000D01*
X358648000Y-74784857D01*
X358551238Y-74567142D01*
X358551238Y-74422000D01*
X358648000Y-74204285D01*
X358744761Y-74131714D01*
X211328000Y-62919428D02*
X212271428Y-62919428D01*
X211763428Y-63500000D01*
X211981142Y-63500000D01*
X212126285Y-63572571D01*
X212198857Y-63645142D01*
X212271428Y-63790285D01*
X212271428Y-64153142D01*
X212198857Y-64298285D01*
X212126285Y-64370857D01*
X211981142Y-64443428D01*
X211545714Y-64443428D01*
X211400571Y-64370857D01*
X211328000Y-64298285D01*
X212271428Y-69523428D02*
X211400571Y-69523428D01*
X211836000Y-69523428D02*
X211836000Y-67999428D01*
X211690857Y-68217142D01*
X211545714Y-68362285D01*
X211400571Y-68434857D01*
X211400571Y-65604571D02*
X211473142Y-65532000D01*
X211618285Y-65459428D01*
X211981142Y-65459428D01*
X212126285Y-65532000D01*
X212198857Y-65604571D01*
X212271428Y-65749714D01*
X212271428Y-65894857D01*
X212198857Y-66112571D01*
X211328000Y-66983428D01*
X212271428Y-66983428D01*
X211763428Y-70539428D02*
X211908571Y-70539428D01*
X212053714Y-70612000D01*
X212126285Y-70684571D01*
X212198857Y-70829714D01*
X212271428Y-71120000D01*
X212271428Y-71482857D01*
X212198857Y-71773142D01*
X212126285Y-71918285D01*
X212053714Y-71990857D01*
X211908571Y-72063428D01*
X211763428Y-72063428D01*
X211618285Y-71990857D01*
X211545714Y-71918285D01*
X211473142Y-71773142D01*
X211400571Y-71482857D01*
X211400571Y-71120000D01*
X211473142Y-70829714D01*
X211545714Y-70684571D01*
X211618285Y-70612000D01*
X211763428Y-70539428D01*
X214049428Y-75244476D02*
X214267142Y-75341238D01*
X214630000Y-75341238D01*
X214775142Y-75244476D01*
X214847714Y-75147714D01*
X214920285Y-74954190D01*
X214920285Y-74760666D01*
X214847714Y-74567142D01*
X214775142Y-74470380D01*
X214630000Y-74373619D01*
X214339714Y-74276857D01*
X214194571Y-74180095D01*
X214122000Y-74083333D01*
X214049428Y-73889809D01*
X214049428Y-73696285D01*
X214122000Y-73502761D01*
X214194571Y-73406000D01*
X214339714Y-73309238D01*
X214702571Y-73309238D01*
X214920285Y-73406000D01*
X215573428Y-75341238D02*
X215573428Y-73309238D01*
X215936285Y-73309238D01*
X216154000Y-73406000D01*
X216299142Y-73599523D01*
X216371714Y-73793047D01*
X216444285Y-74180095D01*
X216444285Y-74470380D01*
X216371714Y-74857428D01*
X216299142Y-75050952D01*
X216154000Y-75244476D01*
X215936285Y-75341238D01*
X215573428Y-75341238D01*
X217024857Y-74760666D02*
X217750571Y-74760666D01*
X216879714Y-75341238D02*
X217387714Y-73309238D01*
X217895714Y-75341238D01*
X185928000Y-62919428D02*
X186871428Y-62919428D01*
X186363428Y-63500000D01*
X186581142Y-63500000D01*
X186726285Y-63572571D01*
X186798857Y-63645142D01*
X186871428Y-63790285D01*
X186871428Y-64153142D01*
X186798857Y-64298285D01*
X186726285Y-64370857D01*
X186581142Y-64443428D01*
X186145714Y-64443428D01*
X186000571Y-64370857D01*
X185928000Y-64298285D01*
X186000571Y-65604571D02*
X186073142Y-65532000D01*
X186218285Y-65459428D01*
X186581142Y-65459428D01*
X186726285Y-65532000D01*
X186798857Y-65604571D01*
X186871428Y-65749714D01*
X186871428Y-65894857D01*
X186798857Y-66112571D01*
X185928000Y-66983428D01*
X186871428Y-66983428D01*
X188939714Y-75117476D02*
X189157428Y-75214238D01*
X189520285Y-75214238D01*
X189665428Y-75117476D01*
X189738000Y-75020714D01*
X189810571Y-74827190D01*
X189810571Y-74633666D01*
X189738000Y-74440142D01*
X189665428Y-74343380D01*
X189520285Y-74246619D01*
X189230000Y-74149857D01*
X189084857Y-74053095D01*
X189012285Y-73956333D01*
X188939714Y-73762809D01*
X188939714Y-73569285D01*
X189012285Y-73375761D01*
X189084857Y-73279000D01*
X189230000Y-73182238D01*
X189592857Y-73182238D01*
X189810571Y-73279000D01*
X191334571Y-75020714D02*
X191262000Y-75117476D01*
X191044285Y-75214238D01*
X190899142Y-75214238D01*
X190681428Y-75117476D01*
X190536285Y-74923952D01*
X190463714Y-74730428D01*
X190391142Y-74343380D01*
X190391142Y-74053095D01*
X190463714Y-73666047D01*
X190536285Y-73472523D01*
X190681428Y-73279000D01*
X190899142Y-73182238D01*
X191044285Y-73182238D01*
X191262000Y-73279000D01*
X191334571Y-73375761D01*
X192713428Y-75214238D02*
X191987714Y-75214238D01*
X191987714Y-73182238D01*
X186871428Y-69523428D02*
X186000571Y-69523428D01*
X186436000Y-69523428D02*
X186436000Y-67999428D01*
X186290857Y-68217142D01*
X186145714Y-68362285D01*
X186000571Y-68434857D01*
X186363428Y-70539428D02*
X186508571Y-70539428D01*
X186653714Y-70612000D01*
X186726285Y-70684571D01*
X186798857Y-70829714D01*
X186871428Y-71120000D01*
X186871428Y-71482857D01*
X186798857Y-71773142D01*
X186726285Y-71918285D01*
X186653714Y-71990857D01*
X186508571Y-72063428D01*
X186363428Y-72063428D01*
X186218285Y-71990857D01*
X186145714Y-71918285D01*
X186073142Y-71773142D01*
X186000571Y-71482857D01*
X186000571Y-71120000D01*
X186073142Y-70829714D01*
X186145714Y-70684571D01*
X186218285Y-70612000D01*
X186363428Y-70539428D01*
X199117857Y-63377838D02*
X199117857Y-61345838D01*
X199771000Y-61539361D02*
X199843571Y-61442600D01*
X199988714Y-61345838D01*
X200351571Y-61345838D01*
X200496714Y-61442600D01*
X200569285Y-61539361D01*
X200641857Y-61732885D01*
X200641857Y-61926409D01*
X200569285Y-62216695D01*
X199698428Y-63377838D01*
X200641857Y-63377838D01*
X202165857Y-63184314D02*
X202093285Y-63281076D01*
X201875571Y-63377838D01*
X201730428Y-63377838D01*
X201512714Y-63281076D01*
X201367571Y-63087552D01*
X201295000Y-62894028D01*
X201222428Y-62506980D01*
X201222428Y-62216695D01*
X201295000Y-61829647D01*
X201367571Y-61636123D01*
X201512714Y-61442600D01*
X201730428Y-61345838D01*
X201875571Y-61345838D01*
X202093285Y-61442600D01*
X202165857Y-61539361D01*
X204488142Y-62313457D02*
X204705857Y-62410219D01*
X204778428Y-62506980D01*
X204851000Y-62700504D01*
X204851000Y-62990790D01*
X204778428Y-63184314D01*
X204705857Y-63281076D01*
X204560714Y-63377838D01*
X203980142Y-63377838D01*
X203980142Y-61345838D01*
X204488142Y-61345838D01*
X204633285Y-61442600D01*
X204705857Y-61539361D01*
X204778428Y-61732885D01*
X204778428Y-61926409D01*
X204705857Y-62119933D01*
X204633285Y-62216695D01*
X204488142Y-62313457D01*
X203980142Y-62313457D01*
X206157285Y-62023171D02*
X206157285Y-63377838D01*
X205504142Y-62023171D02*
X205504142Y-63087552D01*
X205576714Y-63281076D01*
X205721857Y-63377838D01*
X205939571Y-63377838D01*
X206084714Y-63281076D01*
X206157285Y-63184314D01*
X206810428Y-63281076D02*
X206955571Y-63377838D01*
X207245857Y-63377838D01*
X207391000Y-63281076D01*
X207463571Y-63087552D01*
X207463571Y-62990790D01*
X207391000Y-62797266D01*
X207245857Y-62700504D01*
X207028142Y-62700504D01*
X206883000Y-62603742D01*
X206810428Y-62410219D01*
X206810428Y-62313457D01*
X206883000Y-62119933D01*
X207028142Y-62023171D01*
X207245857Y-62023171D01*
X207391000Y-62119933D01*
X198863857Y-66633876D02*
X199081571Y-66730638D01*
X199444428Y-66730638D01*
X199589571Y-66633876D01*
X199662142Y-66537114D01*
X199734714Y-66343590D01*
X199734714Y-66150066D01*
X199662142Y-65956542D01*
X199589571Y-65859780D01*
X199444428Y-65763019D01*
X199154142Y-65666257D01*
X199009000Y-65569495D01*
X198936428Y-65472733D01*
X198863857Y-65279209D01*
X198863857Y-65085685D01*
X198936428Y-64892161D01*
X199009000Y-64795400D01*
X199154142Y-64698638D01*
X199517000Y-64698638D01*
X199734714Y-64795400D01*
X200968428Y-66633876D02*
X200823285Y-66730638D01*
X200533000Y-66730638D01*
X200387857Y-66633876D01*
X200315285Y-66440352D01*
X200315285Y-65666257D01*
X200387857Y-65472733D01*
X200533000Y-65375971D01*
X200823285Y-65375971D01*
X200968428Y-65472733D01*
X201041000Y-65666257D01*
X201041000Y-65859780D01*
X200315285Y-66053304D01*
X201911857Y-66730638D02*
X201766714Y-66633876D01*
X201694142Y-66440352D01*
X201694142Y-64698638D01*
X203073000Y-66633876D02*
X202927857Y-66730638D01*
X202637571Y-66730638D01*
X202492428Y-66633876D01*
X202419857Y-66440352D01*
X202419857Y-65666257D01*
X202492428Y-65472733D01*
X202637571Y-65375971D01*
X202927857Y-65375971D01*
X203073000Y-65472733D01*
X203145571Y-65666257D01*
X203145571Y-65859780D01*
X202419857Y-66053304D01*
X204451857Y-66633876D02*
X204306714Y-66730638D01*
X204016428Y-66730638D01*
X203871285Y-66633876D01*
X203798714Y-66537114D01*
X203726142Y-66343590D01*
X203726142Y-65763019D01*
X203798714Y-65569495D01*
X203871285Y-65472733D01*
X204016428Y-65375971D01*
X204306714Y-65375971D01*
X204451857Y-65472733D01*
X204887285Y-65375971D02*
X205467857Y-65375971D01*
X205105000Y-64698638D02*
X205105000Y-66440352D01*
X205177571Y-66633876D01*
X205322714Y-66730638D01*
X205467857Y-66730638D01*
X205975857Y-66730638D02*
X205975857Y-65375971D01*
X205975857Y-64698638D02*
X205903285Y-64795400D01*
X205975857Y-64892161D01*
X206048428Y-64795400D01*
X205975857Y-64698638D01*
X205975857Y-64892161D01*
X206919285Y-66730638D02*
X206774142Y-66633876D01*
X206701571Y-66537114D01*
X206629000Y-66343590D01*
X206629000Y-65763019D01*
X206701571Y-65569495D01*
X206774142Y-65472733D01*
X206919285Y-65375971D01*
X207137000Y-65375971D01*
X207282142Y-65472733D01*
X207354714Y-65569495D01*
X207427285Y-65763019D01*
X207427285Y-66343590D01*
X207354714Y-66537114D01*
X207282142Y-66633876D01*
X207137000Y-66730638D01*
X206919285Y-66730638D01*
X208080428Y-65375971D02*
X208080428Y-66730638D01*
X208080428Y-65569495D02*
X208153000Y-65472733D01*
X208298142Y-65375971D01*
X208515857Y-65375971D01*
X208661000Y-65472733D01*
X208733571Y-65666257D01*
X208733571Y-66730638D01*
X71410285Y-75214238D02*
X71410285Y-73182238D01*
X72063428Y-73375761D02*
X72136000Y-73279000D01*
X72281142Y-73182238D01*
X72644000Y-73182238D01*
X72789142Y-73279000D01*
X72861714Y-73375761D01*
X72934285Y-73569285D01*
X72934285Y-73762809D01*
X72861714Y-74053095D01*
X71990857Y-75214238D01*
X72934285Y-75214238D01*
X74458285Y-75020714D02*
X74385714Y-75117476D01*
X74168000Y-75214238D01*
X74022857Y-75214238D01*
X73805142Y-75117476D01*
X73660000Y-74923952D01*
X73587428Y-74730428D01*
X73514857Y-74343380D01*
X73514857Y-74053095D01*
X73587428Y-73666047D01*
X73660000Y-73472523D01*
X73805142Y-73279000D01*
X74022857Y-73182238D01*
X74168000Y-73182238D01*
X74385714Y-73279000D01*
X74458285Y-73375761D01*
X333284285Y-74960238D02*
X333284285Y-72928238D01*
X333937428Y-73121761D02*
X334010000Y-73025000D01*
X334155142Y-72928238D01*
X334518000Y-72928238D01*
X334663142Y-73025000D01*
X334735714Y-73121761D01*
X334808285Y-73315285D01*
X334808285Y-73508809D01*
X334735714Y-73799095D01*
X333864857Y-74960238D01*
X334808285Y-74960238D01*
X336332285Y-74766714D02*
X336259714Y-74863476D01*
X336042000Y-74960238D01*
X335896857Y-74960238D01*
X335679142Y-74863476D01*
X335534000Y-74669952D01*
X335461428Y-74476428D01*
X335388857Y-74089380D01*
X335388857Y-73799095D01*
X335461428Y-73412047D01*
X335534000Y-73218523D01*
X335679142Y-73025000D01*
X335896857Y-72928238D01*
X336042000Y-72928238D01*
X336259714Y-73025000D01*
X336332285Y-73121761D01*
X301528238Y-71337714D02*
X301528238Y-72063428D01*
X302495857Y-72136000D01*
X302399095Y-72063428D01*
X302302333Y-71918285D01*
X302302333Y-71555428D01*
X302399095Y-71410285D01*
X302495857Y-71337714D01*
X302689380Y-71265142D01*
X303173190Y-71265142D01*
X303366714Y-71337714D01*
X303463476Y-71410285D01*
X303560238Y-71555428D01*
X303560238Y-71918285D01*
X303463476Y-72063428D01*
X303366714Y-72136000D01*
X301528238Y-70829714D02*
X303560238Y-70321714D01*
X301528238Y-69813714D01*
X303560238Y-68144571D02*
X301528238Y-68144571D01*
X301528238Y-67564000D01*
X301625000Y-67418857D01*
X301721761Y-67346285D01*
X301915285Y-67273714D01*
X302205571Y-67273714D01*
X302399095Y-67346285D01*
X302495857Y-67418857D01*
X302592619Y-67564000D01*
X302592619Y-68144571D01*
X301528238Y-66765714D02*
X303560238Y-66402857D01*
X302108809Y-66112571D01*
X303560238Y-65822285D01*
X301528238Y-65459428D01*
X303560238Y-64008000D02*
X302592619Y-64516000D01*
X303560238Y-64878857D02*
X301528238Y-64878857D01*
X301528238Y-64298285D01*
X301625000Y-64153142D01*
X301721761Y-64080571D01*
X301915285Y-64008000D01*
X302205571Y-64008000D01*
X302399095Y-64080571D01*
X302495857Y-64153142D01*
X302592619Y-64298285D01*
X302592619Y-64878857D01*
X85755238Y-72226714D02*
X85755238Y-72952428D01*
X86722857Y-73025000D01*
X86626095Y-72952428D01*
X86529333Y-72807285D01*
X86529333Y-72444428D01*
X86626095Y-72299285D01*
X86722857Y-72226714D01*
X86916380Y-72154142D01*
X87400190Y-72154142D01*
X87593714Y-72226714D01*
X87690476Y-72299285D01*
X87787238Y-72444428D01*
X87787238Y-72807285D01*
X87690476Y-72952428D01*
X87593714Y-73025000D01*
X85755238Y-71718714D02*
X87787238Y-71210714D01*
X85755238Y-70702714D01*
X87787238Y-69033571D02*
X85755238Y-69033571D01*
X85755238Y-68453000D01*
X85852000Y-68307857D01*
X85948761Y-68235285D01*
X86142285Y-68162714D01*
X86432571Y-68162714D01*
X86626095Y-68235285D01*
X86722857Y-68307857D01*
X86819619Y-68453000D01*
X86819619Y-69033571D01*
X85755238Y-67654714D02*
X87787238Y-67291857D01*
X86335809Y-67001571D01*
X87787238Y-66711285D01*
X85755238Y-66348428D01*
X87787238Y-64897000D02*
X86819619Y-65405000D01*
X87787238Y-65767857D02*
X85755238Y-65767857D01*
X85755238Y-65187285D01*
X85852000Y-65042142D01*
X85948761Y-64969571D01*
X86142285Y-64897000D01*
X86432571Y-64897000D01*
X86626095Y-64969571D01*
X86722857Y-65042142D01*
X86819619Y-65187285D01*
X86819619Y-65767857D01*
X117638285Y-68356238D02*
X117638285Y-66324238D01*
X118654285Y-66324238D02*
X118944571Y-66324238D01*
X119089714Y-66421000D01*
X119234857Y-66614523D01*
X119307428Y-67001571D01*
X119307428Y-67678904D01*
X119234857Y-68065952D01*
X119089714Y-68259476D01*
X118944571Y-68356238D01*
X118654285Y-68356238D01*
X118509142Y-68259476D01*
X118364000Y-68065952D01*
X118291428Y-67678904D01*
X118291428Y-67001571D01*
X118364000Y-66614523D01*
X118509142Y-66421000D01*
X118654285Y-66324238D01*
X121992571Y-68356238D02*
X121484571Y-67388619D01*
X121121714Y-68356238D02*
X121121714Y-66324238D01*
X121702285Y-66324238D01*
X121847428Y-66421000D01*
X121920000Y-66517761D01*
X121992571Y-66711285D01*
X121992571Y-67001571D01*
X121920000Y-67195095D01*
X121847428Y-67291857D01*
X121702285Y-67388619D01*
X121121714Y-67388619D01*
X122863428Y-68356238D02*
X122718285Y-68259476D01*
X122645714Y-68162714D01*
X122573142Y-67969190D01*
X122573142Y-67388619D01*
X122645714Y-67195095D01*
X122718285Y-67098333D01*
X122863428Y-67001571D01*
X123081142Y-67001571D01*
X123226285Y-67098333D01*
X123298857Y-67195095D01*
X123371428Y-67388619D01*
X123371428Y-67969190D01*
X123298857Y-68162714D01*
X123226285Y-68259476D01*
X123081142Y-68356238D01*
X122863428Y-68356238D01*
X124677714Y-68356238D02*
X124677714Y-66324238D01*
X124677714Y-68259476D02*
X124532571Y-68356238D01*
X124242285Y-68356238D01*
X124097142Y-68259476D01*
X124024571Y-68162714D01*
X123952000Y-67969190D01*
X123952000Y-67388619D01*
X124024571Y-67195095D01*
X124097142Y-67098333D01*
X124242285Y-67001571D01*
X124532571Y-67001571D01*
X124677714Y-67098333D01*
X125984000Y-68259476D02*
X125838857Y-68356238D01*
X125548571Y-68356238D01*
X125403428Y-68259476D01*
X125330857Y-68065952D01*
X125330857Y-67291857D01*
X125403428Y-67098333D01*
X125548571Y-67001571D01*
X125838857Y-67001571D01*
X125984000Y-67098333D01*
X126056571Y-67291857D01*
X126056571Y-67485380D01*
X125330857Y-67678904D01*
X126927428Y-68356238D02*
X126782285Y-68259476D01*
X126709714Y-68162714D01*
X126637142Y-67969190D01*
X126637142Y-67388619D01*
X126709714Y-67195095D01*
X126782285Y-67098333D01*
X126927428Y-67001571D01*
X127145142Y-67001571D01*
X127290285Y-67098333D01*
X127362857Y-67195095D01*
X127435428Y-67388619D01*
X127435428Y-67969190D01*
X127362857Y-68162714D01*
X127290285Y-68259476D01*
X127145142Y-68356238D01*
X126927428Y-68356238D01*
X129249714Y-68356238D02*
X129249714Y-66324238D01*
X129975428Y-67001571D02*
X129975428Y-68356238D01*
X129975428Y-67195095D02*
X130048000Y-67098333D01*
X130193142Y-67001571D01*
X130410857Y-67001571D01*
X130556000Y-67098333D01*
X130628571Y-67291857D01*
X130628571Y-68356238D01*
X132007428Y-68259476D02*
X131862285Y-68356238D01*
X131572000Y-68356238D01*
X131426857Y-68259476D01*
X131354285Y-68162714D01*
X131281714Y-67969190D01*
X131281714Y-67388619D01*
X131354285Y-67195095D01*
X131426857Y-67098333D01*
X131572000Y-67001571D01*
X131862285Y-67001571D01*
X132007428Y-67098333D01*
X132660571Y-68162714D02*
X132733142Y-68259476D01*
X132660571Y-68356238D01*
X132588000Y-68259476D01*
X132660571Y-68162714D01*
X132660571Y-68356238D01*
X109038571Y-64927238D02*
X109038571Y-62895238D01*
X109038571Y-63862857D02*
X109909428Y-63862857D01*
X109909428Y-64927238D02*
X109909428Y-62895238D01*
X111288285Y-64927238D02*
X111288285Y-63862857D01*
X111215714Y-63669333D01*
X111070571Y-63572571D01*
X110780285Y-63572571D01*
X110635142Y-63669333D01*
X111288285Y-64830476D02*
X111143142Y-64927238D01*
X110780285Y-64927238D01*
X110635142Y-64830476D01*
X110562571Y-64636952D01*
X110562571Y-64443428D01*
X110635142Y-64249904D01*
X110780285Y-64153142D01*
X111143142Y-64153142D01*
X111288285Y-64056380D01*
X112231714Y-64927238D02*
X112086571Y-64830476D01*
X112014000Y-64636952D01*
X112014000Y-62895238D01*
X113030000Y-64927238D02*
X112884857Y-64830476D01*
X112812285Y-64636952D01*
X112812285Y-62895238D01*
X113465428Y-63572571D02*
X113755714Y-64927238D01*
X114046000Y-63959619D01*
X114336285Y-64927238D01*
X114626571Y-63572571D01*
X115860285Y-64927238D02*
X115860285Y-63862857D01*
X115787714Y-63669333D01*
X115642571Y-63572571D01*
X115352285Y-63572571D01*
X115207142Y-63669333D01*
X115860285Y-64830476D02*
X115715142Y-64927238D01*
X115352285Y-64927238D01*
X115207142Y-64830476D01*
X115134571Y-64636952D01*
X115134571Y-64443428D01*
X115207142Y-64249904D01*
X115352285Y-64153142D01*
X115715142Y-64153142D01*
X115860285Y-64056380D01*
X116440857Y-63572571D02*
X116803714Y-64927238D01*
X117166571Y-63572571D02*
X116803714Y-64927238D01*
X116658571Y-65411047D01*
X116586000Y-65507809D01*
X116440857Y-65604571D01*
X118908285Y-64927238D02*
X118908285Y-62895238D01*
X119488857Y-62895238D01*
X119634000Y-62992000D01*
X119706571Y-63088761D01*
X119779142Y-63282285D01*
X119779142Y-63572571D01*
X119706571Y-63766095D01*
X119634000Y-63862857D01*
X119488857Y-63959619D01*
X118908285Y-63959619D01*
X121085428Y-64927238D02*
X121085428Y-63862857D01*
X121012857Y-63669333D01*
X120867714Y-63572571D01*
X120577428Y-63572571D01*
X120432285Y-63669333D01*
X121085428Y-64830476D02*
X120940285Y-64927238D01*
X120577428Y-64927238D01*
X120432285Y-64830476D01*
X120359714Y-64636952D01*
X120359714Y-64443428D01*
X120432285Y-64249904D01*
X120577428Y-64153142D01*
X120940285Y-64153142D01*
X121085428Y-64056380D01*
X121811142Y-63572571D02*
X121811142Y-64927238D01*
X121811142Y-63766095D02*
X121883714Y-63669333D01*
X122028857Y-63572571D01*
X122246571Y-63572571D01*
X122391714Y-63669333D01*
X122464285Y-63862857D01*
X122464285Y-64927238D01*
X123770571Y-64830476D02*
X123625428Y-64927238D01*
X123335142Y-64927238D01*
X123190000Y-64830476D01*
X123117428Y-64636952D01*
X123117428Y-63862857D01*
X123190000Y-63669333D01*
X123335142Y-63572571D01*
X123625428Y-63572571D01*
X123770571Y-63669333D01*
X123843142Y-63862857D01*
X123843142Y-64056380D01*
X123117428Y-64249904D01*
X124714000Y-64927238D02*
X124568857Y-64830476D01*
X124496285Y-64636952D01*
X124496285Y-62895238D01*
X125222000Y-64830476D02*
X125367142Y-64927238D01*
X125657428Y-64927238D01*
X125802571Y-64830476D01*
X125875142Y-64636952D01*
X125875142Y-64540190D01*
X125802571Y-64346666D01*
X125657428Y-64249904D01*
X125439714Y-64249904D01*
X125294571Y-64153142D01*
X125222000Y-63959619D01*
X125222000Y-63862857D01*
X125294571Y-63669333D01*
X125439714Y-63572571D01*
X125657428Y-63572571D01*
X125802571Y-63669333D01*
X127616857Y-64346666D02*
X128342571Y-64346666D01*
X127471714Y-64927238D02*
X127979714Y-62895238D01*
X128487714Y-64927238D01*
X128995714Y-64927238D02*
X128995714Y-63572571D01*
X128995714Y-63959619D02*
X129068285Y-63766095D01*
X129140857Y-63669333D01*
X129286000Y-63572571D01*
X129431142Y-63572571D01*
X130519714Y-64830476D02*
X130374571Y-64927238D01*
X130084285Y-64927238D01*
X129939142Y-64830476D01*
X129866571Y-64636952D01*
X129866571Y-63862857D01*
X129939142Y-63669333D01*
X130084285Y-63572571D01*
X130374571Y-63572571D01*
X130519714Y-63669333D01*
X130592285Y-63862857D01*
X130592285Y-64056380D01*
X129866571Y-64249904D01*
X131245428Y-63572571D02*
X131245428Y-64927238D01*
X131245428Y-63766095D02*
X131318000Y-63669333D01*
X131463142Y-63572571D01*
X131680857Y-63572571D01*
X131826000Y-63669333D01*
X131898571Y-63862857D01*
X131898571Y-64927238D01*
X133277428Y-64927238D02*
X133277428Y-63862857D01*
X133204857Y-63669333D01*
X133059714Y-63572571D01*
X132769428Y-63572571D01*
X132624285Y-63669333D01*
X133277428Y-64830476D02*
X133132285Y-64927238D01*
X132769428Y-64927238D01*
X132624285Y-64830476D01*
X132551714Y-64636952D01*
X132551714Y-64443428D01*
X132624285Y-64249904D01*
X132769428Y-64153142D01*
X133132285Y-64153142D01*
X133277428Y-64056380D01*
X134946571Y-62895238D02*
X135454571Y-64927238D01*
X135962571Y-62895238D01*
X137268857Y-64927238D02*
X136398000Y-64927238D01*
X136833428Y-64927238D02*
X136833428Y-62895238D01*
X136688285Y-63185523D01*
X136543142Y-63379047D01*
X136398000Y-63475809D01*
X137922000Y-64733714D02*
X137994571Y-64830476D01*
X137922000Y-64927238D01*
X137849428Y-64830476D01*
X137922000Y-64733714D01*
X137922000Y-64927238D01*
X139446000Y-64927238D02*
X138575142Y-64927238D01*
X139010571Y-64927238D02*
X139010571Y-62895238D01*
X138865428Y-63185523D01*
X138720285Y-63379047D01*
X138575142Y-63475809D01*
D11*
G04 #@! TO.C,P10*
X187071000Y-91694000D02*
X219329000Y-91694000D01*
X219329000Y-91694000D02*
X219329000Y-77089000D01*
X219329000Y-77089000D02*
X187071000Y-77089000D01*
X187071000Y-77089000D02*
X187071000Y-91694000D01*
D12*
X208915000Y-81788000D02*
X210185000Y-81788000D01*
X210185000Y-81788000D02*
X210820000Y-82423000D01*
X210820000Y-83693000D02*
X210185000Y-84328000D01*
X205740000Y-82423000D02*
X206375000Y-81788000D01*
X206375000Y-81788000D02*
X207645000Y-81788000D01*
X207645000Y-81788000D02*
X208280000Y-82423000D01*
X208280000Y-83693000D02*
X207645000Y-84328000D01*
X207645000Y-84328000D02*
X206375000Y-84328000D01*
X206375000Y-84328000D02*
X205740000Y-83693000D01*
X208915000Y-81788000D02*
X208280000Y-82423000D01*
X208280000Y-83693000D02*
X208915000Y-84328000D01*
X210185000Y-84328000D02*
X208915000Y-84328000D01*
X201295000Y-81788000D02*
X202565000Y-81788000D01*
X202565000Y-81788000D02*
X203200000Y-82423000D01*
X203200000Y-83693000D02*
X202565000Y-84328000D01*
X203200000Y-82423000D02*
X203835000Y-81788000D01*
X203835000Y-81788000D02*
X205105000Y-81788000D01*
X205105000Y-81788000D02*
X205740000Y-82423000D01*
X205740000Y-83693000D02*
X205105000Y-84328000D01*
X205105000Y-84328000D02*
X203835000Y-84328000D01*
X203835000Y-84328000D02*
X203200000Y-83693000D01*
X198120000Y-82423000D02*
X198755000Y-81788000D01*
X198755000Y-81788000D02*
X200025000Y-81788000D01*
X200025000Y-81788000D02*
X200660000Y-82423000D01*
X200660000Y-83693000D02*
X200025000Y-84328000D01*
X200025000Y-84328000D02*
X198755000Y-84328000D01*
X198755000Y-84328000D02*
X198120000Y-83693000D01*
X201295000Y-81788000D02*
X200660000Y-82423000D01*
X200660000Y-83693000D02*
X201295000Y-84328000D01*
X202565000Y-84328000D02*
X201295000Y-84328000D01*
X193675000Y-81788000D02*
X194945000Y-81788000D01*
X194945000Y-81788000D02*
X195580000Y-82423000D01*
X195580000Y-83693000D02*
X194945000Y-84328000D01*
X195580000Y-82423000D02*
X196215000Y-81788000D01*
X196215000Y-81788000D02*
X197485000Y-81788000D01*
X197485000Y-81788000D02*
X198120000Y-82423000D01*
X198120000Y-83693000D02*
X197485000Y-84328000D01*
X197485000Y-84328000D02*
X196215000Y-84328000D01*
X196215000Y-84328000D02*
X195580000Y-83693000D01*
X193040000Y-82423000D02*
X193040000Y-83693000D01*
X193675000Y-81788000D02*
X193040000Y-82423000D01*
X193040000Y-83693000D02*
X193675000Y-84328000D01*
X194945000Y-84328000D02*
X193675000Y-84328000D01*
X211455000Y-81788000D02*
X212725000Y-81788000D01*
X212725000Y-81788000D02*
X213360000Y-82423000D01*
X213360000Y-82423000D02*
X213360000Y-83693000D01*
X213360000Y-83693000D02*
X212725000Y-84328000D01*
X211455000Y-81788000D02*
X210820000Y-82423000D01*
X210820000Y-83693000D02*
X211455000Y-84328000D01*
X212725000Y-84328000D02*
X211455000Y-84328000D01*
G04 #@! TO.C,J2*
X32004000Y-85852000D02*
X32004000Y-86106000D01*
X32004000Y-86106000D02*
X34417000Y-86106000D01*
X34417000Y-85852000D02*
X34417000Y-86106000D01*
X32004000Y-85852000D02*
X34417000Y-85852000D01*
X32004000Y-66294000D02*
X32004000Y-66548000D01*
X32004000Y-66548000D02*
X34417000Y-66548000D01*
X34417000Y-66294000D02*
X34417000Y-66548000D01*
X32004000Y-66294000D02*
X34417000Y-66294000D01*
X35052000Y-88214200D02*
X35052000Y-89230200D01*
X35052000Y-89230200D02*
X36703000Y-89230200D01*
X36703000Y-88214200D02*
X36703000Y-89230200D01*
X35052000Y-88214200D02*
X36703000Y-88214200D01*
X35052000Y-63169800D02*
X35052000Y-64185800D01*
X35052000Y-64185800D02*
X36703000Y-64185800D01*
X36703000Y-63169800D02*
X36703000Y-64185800D01*
X35052000Y-63169800D02*
X36703000Y-63169800D01*
X35052000Y-66929000D02*
X35052000Y-85471000D01*
X35052000Y-85471000D02*
X35814000Y-85471000D01*
X35814000Y-66929000D02*
X35814000Y-85471000D01*
X35052000Y-66929000D02*
X35814000Y-66929000D01*
X30988000Y-60706000D02*
X30988000Y-91694000D01*
X30988000Y-91694000D02*
X31496000Y-91694000D01*
X31496000Y-60706000D02*
X31496000Y-91694000D01*
X30988000Y-60706000D02*
X31496000Y-60706000D01*
X35814000Y-70307200D02*
X35814000Y-71120000D01*
X35814000Y-71120000D02*
X43053000Y-71120000D01*
X43053000Y-70307200D02*
X43053000Y-71120000D01*
X35814000Y-70307200D02*
X43053000Y-70307200D01*
X35814000Y-71678800D02*
X35814000Y-72491600D01*
X35814000Y-72491600D02*
X40513000Y-72491600D01*
X40513000Y-71678800D02*
X40513000Y-72491600D01*
X35814000Y-71678800D02*
X40513000Y-71678800D01*
X35814000Y-73050400D02*
X35814000Y-73863200D01*
X35814000Y-73863200D02*
X43053000Y-73863200D01*
X43053000Y-73050400D02*
X43053000Y-73863200D01*
X35814000Y-73050400D02*
X43053000Y-73050400D01*
X35814000Y-74422000D02*
X35814000Y-75234800D01*
X35814000Y-75234800D02*
X40513000Y-75234800D01*
X40513000Y-74422000D02*
X40513000Y-75234800D01*
X35814000Y-74422000D02*
X40513000Y-74422000D01*
X35814000Y-75793600D02*
X35814000Y-76606400D01*
X35814000Y-76606400D02*
X43053000Y-76606400D01*
X43053000Y-75793600D02*
X43053000Y-76606400D01*
X35814000Y-75793600D02*
X43053000Y-75793600D01*
X35814000Y-77165200D02*
X35814000Y-77978000D01*
X35814000Y-77978000D02*
X40513000Y-77978000D01*
X40513000Y-77165200D02*
X40513000Y-77978000D01*
X35814000Y-77165200D02*
X40513000Y-77165200D01*
X35814000Y-78536800D02*
X35814000Y-79349600D01*
X35814000Y-79349600D02*
X43053000Y-79349600D01*
X43053000Y-78536800D02*
X43053000Y-79349600D01*
X35814000Y-78536800D02*
X43053000Y-78536800D01*
X35814000Y-79908400D02*
X35814000Y-80721200D01*
X35814000Y-80721200D02*
X40513000Y-80721200D01*
X40513000Y-79908400D02*
X40513000Y-80721200D01*
X35814000Y-79908400D02*
X40513000Y-79908400D01*
X35814000Y-81280000D02*
X35814000Y-82092800D01*
X35814000Y-82092800D02*
X43053000Y-82092800D01*
X43053000Y-81280000D02*
X43053000Y-82092800D01*
X35814000Y-81280000D02*
X43053000Y-81280000D01*
D13*
X25148540Y-84455000D02*
X25148540Y-84201000D01*
X30988000Y-84582000D02*
X25654000Y-84582000D01*
X30988000Y-84582000D02*
X30988000Y-67818000D01*
X30988000Y-67818000D02*
X25654000Y-67818000D01*
X35052000Y-91694000D02*
X35052000Y-86614000D01*
X35052000Y-91694000D02*
X32004000Y-91694000D01*
X35052000Y-91694000D02*
X35179000Y-91694000D01*
X32004000Y-91694000D02*
X32004000Y-89154000D01*
X32004000Y-91694000D02*
X31496000Y-91694000D01*
X31496000Y-91694000D02*
X30988000Y-91694000D01*
X30988000Y-60706000D02*
X31496000Y-60706000D01*
X31496000Y-60706000D02*
X32004000Y-60706000D01*
X32004000Y-60706000D02*
X35052000Y-60706000D01*
X35052000Y-60706000D02*
X35179000Y-60706000D01*
X32258000Y-89154000D02*
X32258000Y-86614000D01*
X31496000Y-91694000D02*
X31496000Y-89154000D01*
X31496000Y-89154000D02*
X31496000Y-86614000D01*
X32004000Y-89154000D02*
X31496000Y-89154000D01*
X32004000Y-89154000D02*
X32258000Y-89154000D01*
X32258000Y-86614000D02*
X32004000Y-86614000D01*
X32004000Y-86614000D02*
X31496000Y-86614000D01*
X35179000Y-91694000D02*
X35179000Y-86614000D01*
X35179000Y-86614000D02*
X35052000Y-86614000D01*
X32004000Y-86614000D02*
X32004000Y-86487000D01*
X32004000Y-86487000D02*
X32004000Y-65913000D01*
X35052000Y-86614000D02*
X35052000Y-85725000D01*
X35052000Y-85725000D02*
X35052000Y-85471000D01*
X34417000Y-86487000D02*
X32004000Y-86487000D01*
X35052000Y-85471000D02*
X35814000Y-85471000D01*
X35052000Y-85471000D02*
X35052000Y-66929000D01*
X35814000Y-85471000D02*
X35814000Y-66929000D01*
X35052000Y-66929000D02*
X35814000Y-66929000D01*
X35052000Y-66929000D02*
X35052000Y-66675000D01*
X35052000Y-66675000D02*
X35052000Y-66548000D01*
X35052000Y-66548000D02*
X35052000Y-65786000D01*
X35179000Y-65786000D02*
X35179000Y-60706000D01*
X32004000Y-63246000D02*
X31496000Y-63246000D01*
X32004000Y-63246000D02*
X32004000Y-60706000D01*
X31496000Y-63246000D02*
X31496000Y-60706000D01*
X32258000Y-65786000D02*
X32258000Y-63246000D01*
X32004000Y-63246000D02*
X32258000Y-63246000D01*
X31496000Y-86614000D02*
X31496000Y-65786000D01*
X31496000Y-65786000D02*
X31496000Y-63246000D01*
X32258000Y-65786000D02*
X32004000Y-65786000D01*
X32004000Y-65786000D02*
X31496000Y-65786000D01*
X34417000Y-65913000D02*
X32004000Y-65913000D01*
X32004000Y-65913000D02*
X32004000Y-65786000D01*
X45847000Y-91059000D02*
X45212000Y-91694000D01*
X45212000Y-91694000D02*
X35179000Y-91694000D01*
X45847000Y-86233000D02*
X45847000Y-91059000D01*
X45847000Y-86233000D02*
X45339000Y-85725000D01*
X45339000Y-85725000D02*
X35052000Y-85725000D01*
X45339000Y-66675000D02*
X35052000Y-66675000D01*
X45339000Y-66675000D02*
X45847000Y-66167000D01*
X45847000Y-66167000D02*
X45847000Y-61214000D01*
X45847000Y-61214000D02*
X45339000Y-60706000D01*
X45339000Y-60706000D02*
X35179000Y-60706000D01*
X28702000Y-71120000D02*
X28702000Y-73406000D01*
X28702000Y-73406000D02*
X26416000Y-73406000D01*
X26416000Y-73406000D02*
X26416000Y-73025000D01*
X26416000Y-73025000D02*
X28323540Y-73025000D01*
X28323540Y-73025000D02*
X28323540Y-71501000D01*
X28323540Y-71501000D02*
X26416000Y-71501000D01*
X26416000Y-71501000D02*
X26416000Y-71120000D01*
X26416000Y-71120000D02*
X28702000Y-71120000D01*
X28702000Y-75057000D02*
X28702000Y-77343000D01*
X28702000Y-77343000D02*
X26416000Y-77343000D01*
X26416000Y-77343000D02*
X26416000Y-76962000D01*
X26416000Y-76962000D02*
X28323540Y-76962000D01*
X28323540Y-76962000D02*
X28323540Y-75438000D01*
X28323540Y-75438000D02*
X26416000Y-75438000D01*
X26416000Y-75438000D02*
X26416000Y-75057000D01*
X26416000Y-75057000D02*
X28702000Y-75057000D01*
X28702000Y-78994000D02*
X28702000Y-81280000D01*
X28702000Y-81280000D02*
X26416000Y-81280000D01*
X26416000Y-81280000D02*
X26416000Y-80899000D01*
X26416000Y-80899000D02*
X28323540Y-80899000D01*
X28323540Y-80899000D02*
X28323540Y-79375000D01*
X28323540Y-79375000D02*
X26416000Y-79375000D01*
X26416000Y-79375000D02*
X26416000Y-78994000D01*
X26416000Y-78994000D02*
X28702000Y-78994000D01*
X35179000Y-65786000D02*
X35052000Y-65786000D01*
X35052000Y-65786000D02*
X35052000Y-60706000D01*
X30988000Y-67818000D02*
X30988000Y-66802000D01*
X30988000Y-66802000D02*
X30988000Y-60706000D01*
X30353000Y-67439540D02*
X25654000Y-67439540D01*
X30988000Y-91694000D02*
X30988000Y-85598000D01*
X30988000Y-85598000D02*
X30988000Y-84582000D01*
X30353000Y-84960460D02*
X25654000Y-84960460D01*
X30480000Y-68199000D02*
X25148540Y-68199000D01*
X25148540Y-68199000D02*
X25148540Y-67945000D01*
X30480000Y-84201000D02*
X25148540Y-84201000D01*
X25148540Y-84201000D02*
X25148540Y-68199000D01*
D14*
X43815000Y-76200000D02*
X42799000Y-76200000D01*
X43815000Y-78943200D02*
X42799000Y-78943200D01*
X43815000Y-81686400D02*
X42799000Y-81686400D01*
X41275000Y-80314800D02*
X40259000Y-80314800D01*
X41275000Y-77571600D02*
X40259000Y-77571600D01*
X41275000Y-74828400D02*
X40259000Y-74828400D01*
X43815000Y-73456800D02*
X42799000Y-73456800D01*
X41275000Y-72085200D02*
X40259000Y-72085200D01*
X43815000Y-70713600D02*
X42799000Y-70713600D01*
D13*
X43839433Y-88722200D02*
G75*
G03X43839433Y-88722200I-1167433J0D01*
G01*
X43839433Y-63677800D02*
G75*
G03X43839433Y-63677800I-1167433J0D01*
G01*
X25148540Y-84455000D02*
G75*
G03X25654000Y-84960460I505460J0D01*
G01*
X25654000Y-67439540D02*
G75*
G03X25148540Y-67945000I0J-505460D01*
G01*
X34417000Y-86487000D02*
G75*
G03X35052000Y-85852000I0J635000D01*
G01*
X35052000Y-66548000D02*
G75*
G03X34417000Y-65913000I-635000J0D01*
G01*
X30353000Y-67437000D02*
G75*
G03X30988000Y-66802000I0J635000D01*
G01*
X30990540Y-85598000D02*
G75*
G03X30353000Y-84960460I-637540J0D01*
G01*
D12*
G04 #@! TO.C,J1*
X374396000Y-66548000D02*
X374396000Y-66294000D01*
X374396000Y-66294000D02*
X371983000Y-66294000D01*
X371983000Y-66548000D02*
X371983000Y-66294000D01*
X374396000Y-66548000D02*
X371983000Y-66548000D01*
X374396000Y-86106000D02*
X374396000Y-85852000D01*
X374396000Y-85852000D02*
X371983000Y-85852000D01*
X371983000Y-86106000D02*
X371983000Y-85852000D01*
X374396000Y-86106000D02*
X371983000Y-86106000D01*
X371348000Y-64185800D02*
X371348000Y-63169800D01*
X371348000Y-63169800D02*
X369697000Y-63169800D01*
X369697000Y-64185800D02*
X369697000Y-63169800D01*
X371348000Y-64185800D02*
X369697000Y-64185800D01*
X371348000Y-89230200D02*
X371348000Y-88214200D01*
X371348000Y-88214200D02*
X369697000Y-88214200D01*
X369697000Y-89230200D02*
X369697000Y-88214200D01*
X371348000Y-89230200D02*
X369697000Y-89230200D01*
X371348000Y-85471000D02*
X371348000Y-66929000D01*
X371348000Y-66929000D02*
X370586000Y-66929000D01*
X370586000Y-85471000D02*
X370586000Y-66929000D01*
X371348000Y-85471000D02*
X370586000Y-85471000D01*
X375412000Y-91694000D02*
X375412000Y-60706000D01*
X375412000Y-60706000D02*
X374904000Y-60706000D01*
X374904000Y-91694000D02*
X374904000Y-60706000D01*
X375412000Y-91694000D02*
X374904000Y-91694000D01*
X370586000Y-82092800D02*
X370586000Y-81280000D01*
X370586000Y-81280000D02*
X363347000Y-81280000D01*
X363347000Y-82092800D02*
X363347000Y-81280000D01*
X370586000Y-82092800D02*
X363347000Y-82092800D01*
X370586000Y-80721200D02*
X370586000Y-79908400D01*
X370586000Y-79908400D02*
X365887000Y-79908400D01*
X365887000Y-80721200D02*
X365887000Y-79908400D01*
X370586000Y-80721200D02*
X365887000Y-80721200D01*
X370586000Y-79349600D02*
X370586000Y-78536800D01*
X370586000Y-78536800D02*
X363347000Y-78536800D01*
X363347000Y-79349600D02*
X363347000Y-78536800D01*
X370586000Y-79349600D02*
X363347000Y-79349600D01*
X370586000Y-77978000D02*
X370586000Y-77165200D01*
X370586000Y-77165200D02*
X365887000Y-77165200D01*
X365887000Y-77978000D02*
X365887000Y-77165200D01*
X370586000Y-77978000D02*
X365887000Y-77978000D01*
X370586000Y-76606400D02*
X370586000Y-75793600D01*
X370586000Y-75793600D02*
X363347000Y-75793600D01*
X363347000Y-76606400D02*
X363347000Y-75793600D01*
X370586000Y-76606400D02*
X363347000Y-76606400D01*
X370586000Y-75234800D02*
X370586000Y-74422000D01*
X370586000Y-74422000D02*
X365887000Y-74422000D01*
X365887000Y-75234800D02*
X365887000Y-74422000D01*
X370586000Y-75234800D02*
X365887000Y-75234800D01*
X370586000Y-73863200D02*
X370586000Y-73050400D01*
X370586000Y-73050400D02*
X363347000Y-73050400D01*
X363347000Y-73863200D02*
X363347000Y-73050400D01*
X370586000Y-73863200D02*
X363347000Y-73863200D01*
X370586000Y-72491600D02*
X370586000Y-71678800D01*
X370586000Y-71678800D02*
X365887000Y-71678800D01*
X365887000Y-72491600D02*
X365887000Y-71678800D01*
X370586000Y-72491600D02*
X365887000Y-72491600D01*
X370586000Y-71120000D02*
X370586000Y-70307200D01*
X370586000Y-70307200D02*
X363347000Y-70307200D01*
X363347000Y-71120000D02*
X363347000Y-70307200D01*
X370586000Y-71120000D02*
X363347000Y-71120000D01*
D13*
X381251460Y-67945000D02*
X381251460Y-68199000D01*
X375412000Y-67818000D02*
X380746000Y-67818000D01*
X375412000Y-67818000D02*
X375412000Y-84582000D01*
X375412000Y-84582000D02*
X380746000Y-84582000D01*
X371348000Y-60706000D02*
X371348000Y-65786000D01*
X371348000Y-60706000D02*
X374396000Y-60706000D01*
X371348000Y-60706000D02*
X371221000Y-60706000D01*
X374396000Y-60706000D02*
X374396000Y-63246000D01*
X374396000Y-60706000D02*
X374904000Y-60706000D01*
X374904000Y-60706000D02*
X375412000Y-60706000D01*
X375412000Y-91694000D02*
X374904000Y-91694000D01*
X374904000Y-91694000D02*
X374396000Y-91694000D01*
X374396000Y-91694000D02*
X371348000Y-91694000D01*
X371348000Y-91694000D02*
X371221000Y-91694000D01*
X374142000Y-63246000D02*
X374142000Y-65786000D01*
X374904000Y-60706000D02*
X374904000Y-63246000D01*
X374904000Y-63246000D02*
X374904000Y-65786000D01*
X374396000Y-63246000D02*
X374904000Y-63246000D01*
X374396000Y-63246000D02*
X374142000Y-63246000D01*
X374142000Y-65786000D02*
X374396000Y-65786000D01*
X374396000Y-65786000D02*
X374904000Y-65786000D01*
X371221000Y-60706000D02*
X371221000Y-65786000D01*
X371221000Y-65786000D02*
X371348000Y-65786000D01*
X374396000Y-65786000D02*
X374396000Y-65913000D01*
X374396000Y-65913000D02*
X374396000Y-86487000D01*
X371348000Y-65786000D02*
X371348000Y-66675000D01*
X371348000Y-66675000D02*
X371348000Y-66929000D01*
X371983000Y-65913000D02*
X374396000Y-65913000D01*
X371348000Y-66929000D02*
X370586000Y-66929000D01*
X371348000Y-66929000D02*
X371348000Y-85471000D01*
X370586000Y-66929000D02*
X370586000Y-85471000D01*
X371348000Y-85471000D02*
X370586000Y-85471000D01*
X371348000Y-85471000D02*
X371348000Y-85725000D01*
X371348000Y-85725000D02*
X371348000Y-85852000D01*
X371348000Y-85852000D02*
X371348000Y-86614000D01*
X371221000Y-86614000D02*
X371221000Y-91694000D01*
X374396000Y-89154000D02*
X374904000Y-89154000D01*
X374396000Y-89154000D02*
X374396000Y-91694000D01*
X374904000Y-89154000D02*
X374904000Y-91694000D01*
X374142000Y-86614000D02*
X374142000Y-89154000D01*
X374396000Y-89154000D02*
X374142000Y-89154000D01*
X374904000Y-65786000D02*
X374904000Y-86614000D01*
X374904000Y-86614000D02*
X374904000Y-89154000D01*
X374142000Y-86614000D02*
X374396000Y-86614000D01*
X374396000Y-86614000D02*
X374904000Y-86614000D01*
X371983000Y-86487000D02*
X374396000Y-86487000D01*
X374396000Y-86487000D02*
X374396000Y-86614000D01*
X360553000Y-61341000D02*
X361188000Y-60706000D01*
X361188000Y-60706000D02*
X371221000Y-60706000D01*
X360553000Y-66167000D02*
X360553000Y-61341000D01*
X360553000Y-66167000D02*
X361061000Y-66675000D01*
X361061000Y-66675000D02*
X371348000Y-66675000D01*
X361061000Y-85725000D02*
X371348000Y-85725000D01*
X361061000Y-85725000D02*
X360553000Y-86233000D01*
X360553000Y-86233000D02*
X360553000Y-91186000D01*
X360553000Y-91186000D02*
X361061000Y-91694000D01*
X361061000Y-91694000D02*
X371221000Y-91694000D01*
X377698000Y-81280000D02*
X377698000Y-78994000D01*
X377698000Y-78994000D02*
X379984000Y-78994000D01*
X379984000Y-78994000D02*
X379984000Y-79375000D01*
X379984000Y-79375000D02*
X378076460Y-79375000D01*
X378076460Y-79375000D02*
X378076460Y-80899000D01*
X378076460Y-80899000D02*
X379984000Y-80899000D01*
X379984000Y-80899000D02*
X379984000Y-81280000D01*
X379984000Y-81280000D02*
X377698000Y-81280000D01*
X377698000Y-77343000D02*
X377698000Y-75057000D01*
X377698000Y-75057000D02*
X379984000Y-75057000D01*
X379984000Y-75057000D02*
X379984000Y-75438000D01*
X379984000Y-75438000D02*
X378076460Y-75438000D01*
X378076460Y-75438000D02*
X378076460Y-76962000D01*
X378076460Y-76962000D02*
X379984000Y-76962000D01*
X379984000Y-76962000D02*
X379984000Y-77343000D01*
X379984000Y-77343000D02*
X377698000Y-77343000D01*
X377698000Y-73406000D02*
X377698000Y-71120000D01*
X377698000Y-71120000D02*
X379984000Y-71120000D01*
X379984000Y-71120000D02*
X379984000Y-71501000D01*
X379984000Y-71501000D02*
X378076460Y-71501000D01*
X378076460Y-71501000D02*
X378076460Y-73025000D01*
X378076460Y-73025000D02*
X379984000Y-73025000D01*
X379984000Y-73025000D02*
X379984000Y-73406000D01*
X379984000Y-73406000D02*
X377698000Y-73406000D01*
X371221000Y-86614000D02*
X371348000Y-86614000D01*
X371348000Y-86614000D02*
X371348000Y-91694000D01*
X375412000Y-84582000D02*
X375412000Y-85598000D01*
X375412000Y-85598000D02*
X375412000Y-91694000D01*
X376047000Y-84960460D02*
X380746000Y-84960460D01*
X375412000Y-60706000D02*
X375412000Y-66802000D01*
X375412000Y-66802000D02*
X375412000Y-67818000D01*
X376047000Y-67439540D02*
X380746000Y-67439540D01*
X375920000Y-84201000D02*
X381251460Y-84201000D01*
X381251460Y-84201000D02*
X381251460Y-84455000D01*
X375920000Y-68199000D02*
X381251460Y-68199000D01*
X381251460Y-68199000D02*
X381251460Y-84201000D01*
D14*
X362585000Y-76200000D02*
X363601000Y-76200000D01*
X362585000Y-73456800D02*
X363601000Y-73456800D01*
X362585000Y-70713600D02*
X363601000Y-70713600D01*
X365125000Y-72085200D02*
X366141000Y-72085200D01*
X365125000Y-74828400D02*
X366141000Y-74828400D01*
X365125000Y-77571600D02*
X366141000Y-77571600D01*
X362585000Y-78943200D02*
X363601000Y-78943200D01*
X365125000Y-80314800D02*
X366141000Y-80314800D01*
X362585000Y-81686400D02*
X363601000Y-81686400D01*
D13*
X364895433Y-63677800D02*
G75*
G03X364895433Y-63677800I-1167433J0D01*
G01*
X364895433Y-88722200D02*
G75*
G03X364895433Y-88722200I-1167433J0D01*
G01*
X381251460Y-67945000D02*
G75*
G03X380746000Y-67439540I-505460J0D01*
G01*
X380746000Y-84960460D02*
G75*
G03X381251460Y-84455000I0J505460D01*
G01*
X371983000Y-65913000D02*
G75*
G03X371348000Y-66548000I0J-635000D01*
G01*
X371348000Y-85852000D02*
G75*
G03X371983000Y-86487000I635000J0D01*
G01*
X376047000Y-84963000D02*
G75*
G03X375412000Y-85598000I0J-635000D01*
G01*
X375409460Y-66802000D02*
G75*
G03X376047000Y-67439540I637540J0D01*
G01*
D11*
G04 #@! TO.C,P6*
X88265000Y-60680600D02*
X102235000Y-60680600D01*
X102235000Y-60680600D02*
X102235000Y-75285600D01*
X102235000Y-75285600D02*
X88265000Y-75285600D01*
X88265000Y-75285600D02*
X88265000Y-60680600D01*
G04 #@! TO.C,P3*
X304165000Y-60680600D02*
X318135000Y-60680600D01*
X318135000Y-60680600D02*
X318135000Y-75285600D01*
X318135000Y-75285600D02*
X304165000Y-75285600D01*
X304165000Y-75285600D02*
X304165000Y-60680600D01*
G04 #@! TO.C,P4*
X323850000Y-61468000D02*
X323850000Y-70612000D01*
X323850000Y-70612000D02*
X344170000Y-70612000D01*
X344170000Y-70612000D02*
X344170000Y-61468000D01*
X344170000Y-61468000D02*
X323850000Y-61468000D01*
X328930000Y-71120000D02*
X327660000Y-72644000D01*
X327660000Y-72644000D02*
X330200000Y-72644000D01*
X330200000Y-72644000D02*
X328930000Y-71120000D01*
G04 #@! TO.C,P1*
X62230000Y-61468000D02*
X62230000Y-70612000D01*
X62230000Y-70612000D02*
X82550000Y-70612000D01*
X82550000Y-70612000D02*
X82550000Y-61468000D01*
X82550000Y-61468000D02*
X62230000Y-61468000D01*
X67310000Y-71120000D02*
X66040000Y-72644000D01*
X66040000Y-72644000D02*
X68580000Y-72644000D01*
X68580000Y-72644000D02*
X67310000Y-71120000D01*
G04 #@! TO.C,P7*
X89687400Y-91694000D02*
X121945400Y-91694000D01*
X121945400Y-91694000D02*
X121945400Y-77089000D01*
X121945400Y-77089000D02*
X89687400Y-77089000D01*
X89687400Y-77089000D02*
X89687400Y-91694000D01*
D12*
X111531400Y-81788000D02*
X112801400Y-81788000D01*
X112801400Y-81788000D02*
X113436400Y-82423000D01*
X113436400Y-83693000D02*
X112801400Y-84328000D01*
X108356400Y-82423000D02*
X108991400Y-81788000D01*
X108991400Y-81788000D02*
X110261400Y-81788000D01*
X110261400Y-81788000D02*
X110896400Y-82423000D01*
X110896400Y-83693000D02*
X110261400Y-84328000D01*
X110261400Y-84328000D02*
X108991400Y-84328000D01*
X108991400Y-84328000D02*
X108356400Y-83693000D01*
X111531400Y-81788000D02*
X110896400Y-82423000D01*
X110896400Y-83693000D02*
X111531400Y-84328000D01*
X112801400Y-84328000D02*
X111531400Y-84328000D01*
X103911400Y-81788000D02*
X105181400Y-81788000D01*
X105181400Y-81788000D02*
X105816400Y-82423000D01*
X105816400Y-83693000D02*
X105181400Y-84328000D01*
X105816400Y-82423000D02*
X106451400Y-81788000D01*
X106451400Y-81788000D02*
X107721400Y-81788000D01*
X107721400Y-81788000D02*
X108356400Y-82423000D01*
X108356400Y-83693000D02*
X107721400Y-84328000D01*
X107721400Y-84328000D02*
X106451400Y-84328000D01*
X106451400Y-84328000D02*
X105816400Y-83693000D01*
X100736400Y-82423000D02*
X101371400Y-81788000D01*
X101371400Y-81788000D02*
X102641400Y-81788000D01*
X102641400Y-81788000D02*
X103276400Y-82423000D01*
X103276400Y-83693000D02*
X102641400Y-84328000D01*
X102641400Y-84328000D02*
X101371400Y-84328000D01*
X101371400Y-84328000D02*
X100736400Y-83693000D01*
X103911400Y-81788000D02*
X103276400Y-82423000D01*
X103276400Y-83693000D02*
X103911400Y-84328000D01*
X105181400Y-84328000D02*
X103911400Y-84328000D01*
X96291400Y-81788000D02*
X97561400Y-81788000D01*
X97561400Y-81788000D02*
X98196400Y-82423000D01*
X98196400Y-83693000D02*
X97561400Y-84328000D01*
X98196400Y-82423000D02*
X98831400Y-81788000D01*
X98831400Y-81788000D02*
X100101400Y-81788000D01*
X100101400Y-81788000D02*
X100736400Y-82423000D01*
X100736400Y-83693000D02*
X100101400Y-84328000D01*
X100101400Y-84328000D02*
X98831400Y-84328000D01*
X98831400Y-84328000D02*
X98196400Y-83693000D01*
X95656400Y-82423000D02*
X95656400Y-83693000D01*
X96291400Y-81788000D02*
X95656400Y-82423000D01*
X95656400Y-83693000D02*
X96291400Y-84328000D01*
X97561400Y-84328000D02*
X96291400Y-84328000D01*
X114071400Y-81788000D02*
X115341400Y-81788000D01*
X115341400Y-81788000D02*
X115976400Y-82423000D01*
X115976400Y-82423000D02*
X115976400Y-83693000D01*
X115976400Y-83693000D02*
X115341400Y-84328000D01*
X114071400Y-81788000D02*
X113436400Y-82423000D01*
X113436400Y-83693000D02*
X114071400Y-84328000D01*
X115341400Y-84328000D02*
X114071400Y-84328000D01*
D11*
G04 #@! TO.C,P9*
X154609800Y-91694000D02*
X186867800Y-91694000D01*
X186867800Y-91694000D02*
X186867800Y-77089000D01*
X186867800Y-77089000D02*
X154609800Y-77089000D01*
X154609800Y-77089000D02*
X154609800Y-91694000D01*
D12*
X176453800Y-81788000D02*
X177723800Y-81788000D01*
X177723800Y-81788000D02*
X178358800Y-82423000D01*
X178358800Y-83693000D02*
X177723800Y-84328000D01*
X173278800Y-82423000D02*
X173913800Y-81788000D01*
X173913800Y-81788000D02*
X175183800Y-81788000D01*
X175183800Y-81788000D02*
X175818800Y-82423000D01*
X175818800Y-83693000D02*
X175183800Y-84328000D01*
X175183800Y-84328000D02*
X173913800Y-84328000D01*
X173913800Y-84328000D02*
X173278800Y-83693000D01*
X176453800Y-81788000D02*
X175818800Y-82423000D01*
X175818800Y-83693000D02*
X176453800Y-84328000D01*
X177723800Y-84328000D02*
X176453800Y-84328000D01*
X168833800Y-81788000D02*
X170103800Y-81788000D01*
X170103800Y-81788000D02*
X170738800Y-82423000D01*
X170738800Y-83693000D02*
X170103800Y-84328000D01*
X170738800Y-82423000D02*
X171373800Y-81788000D01*
X171373800Y-81788000D02*
X172643800Y-81788000D01*
X172643800Y-81788000D02*
X173278800Y-82423000D01*
X173278800Y-83693000D02*
X172643800Y-84328000D01*
X172643800Y-84328000D02*
X171373800Y-84328000D01*
X171373800Y-84328000D02*
X170738800Y-83693000D01*
X165658800Y-82423000D02*
X166293800Y-81788000D01*
X166293800Y-81788000D02*
X167563800Y-81788000D01*
X167563800Y-81788000D02*
X168198800Y-82423000D01*
X168198800Y-83693000D02*
X167563800Y-84328000D01*
X167563800Y-84328000D02*
X166293800Y-84328000D01*
X166293800Y-84328000D02*
X165658800Y-83693000D01*
X168833800Y-81788000D02*
X168198800Y-82423000D01*
X168198800Y-83693000D02*
X168833800Y-84328000D01*
X170103800Y-84328000D02*
X168833800Y-84328000D01*
X161213800Y-81788000D02*
X162483800Y-81788000D01*
X162483800Y-81788000D02*
X163118800Y-82423000D01*
X163118800Y-83693000D02*
X162483800Y-84328000D01*
X163118800Y-82423000D02*
X163753800Y-81788000D01*
X163753800Y-81788000D02*
X165023800Y-81788000D01*
X165023800Y-81788000D02*
X165658800Y-82423000D01*
X165658800Y-83693000D02*
X165023800Y-84328000D01*
X165023800Y-84328000D02*
X163753800Y-84328000D01*
X163753800Y-84328000D02*
X163118800Y-83693000D01*
X160578800Y-82423000D02*
X160578800Y-83693000D01*
X161213800Y-81788000D02*
X160578800Y-82423000D01*
X160578800Y-83693000D02*
X161213800Y-84328000D01*
X162483800Y-84328000D02*
X161213800Y-84328000D01*
X178993800Y-81788000D02*
X180263800Y-81788000D01*
X180263800Y-81788000D02*
X180898800Y-82423000D01*
X180898800Y-82423000D02*
X180898800Y-83693000D01*
X180898800Y-83693000D02*
X180263800Y-84328000D01*
X178993800Y-81788000D02*
X178358800Y-82423000D01*
X178358800Y-83693000D02*
X178993800Y-84328000D01*
X180263800Y-84328000D02*
X178993800Y-84328000D01*
D11*
G04 #@! TO.C,P13*
X284454600Y-91694000D02*
X316712600Y-91694000D01*
X316712600Y-91694000D02*
X316712600Y-77089000D01*
X316712600Y-77089000D02*
X284454600Y-77089000D01*
X284454600Y-77089000D02*
X284454600Y-91694000D01*
D12*
X306298600Y-81788000D02*
X307568600Y-81788000D01*
X307568600Y-81788000D02*
X308203600Y-82423000D01*
X308203600Y-83693000D02*
X307568600Y-84328000D01*
X303123600Y-82423000D02*
X303758600Y-81788000D01*
X303758600Y-81788000D02*
X305028600Y-81788000D01*
X305028600Y-81788000D02*
X305663600Y-82423000D01*
X305663600Y-83693000D02*
X305028600Y-84328000D01*
X305028600Y-84328000D02*
X303758600Y-84328000D01*
X303758600Y-84328000D02*
X303123600Y-83693000D01*
X306298600Y-81788000D02*
X305663600Y-82423000D01*
X305663600Y-83693000D02*
X306298600Y-84328000D01*
X307568600Y-84328000D02*
X306298600Y-84328000D01*
X298678600Y-81788000D02*
X299948600Y-81788000D01*
X299948600Y-81788000D02*
X300583600Y-82423000D01*
X300583600Y-83693000D02*
X299948600Y-84328000D01*
X300583600Y-82423000D02*
X301218600Y-81788000D01*
X301218600Y-81788000D02*
X302488600Y-81788000D01*
X302488600Y-81788000D02*
X303123600Y-82423000D01*
X303123600Y-83693000D02*
X302488600Y-84328000D01*
X302488600Y-84328000D02*
X301218600Y-84328000D01*
X301218600Y-84328000D02*
X300583600Y-83693000D01*
X295503600Y-82423000D02*
X296138600Y-81788000D01*
X296138600Y-81788000D02*
X297408600Y-81788000D01*
X297408600Y-81788000D02*
X298043600Y-82423000D01*
X298043600Y-83693000D02*
X297408600Y-84328000D01*
X297408600Y-84328000D02*
X296138600Y-84328000D01*
X296138600Y-84328000D02*
X295503600Y-83693000D01*
X298678600Y-81788000D02*
X298043600Y-82423000D01*
X298043600Y-83693000D02*
X298678600Y-84328000D01*
X299948600Y-84328000D02*
X298678600Y-84328000D01*
X291058600Y-81788000D02*
X292328600Y-81788000D01*
X292328600Y-81788000D02*
X292963600Y-82423000D01*
X292963600Y-83693000D02*
X292328600Y-84328000D01*
X292963600Y-82423000D02*
X293598600Y-81788000D01*
X293598600Y-81788000D02*
X294868600Y-81788000D01*
X294868600Y-81788000D02*
X295503600Y-82423000D01*
X295503600Y-83693000D02*
X294868600Y-84328000D01*
X294868600Y-84328000D02*
X293598600Y-84328000D01*
X293598600Y-84328000D02*
X292963600Y-83693000D01*
X290423600Y-82423000D02*
X290423600Y-83693000D01*
X291058600Y-81788000D02*
X290423600Y-82423000D01*
X290423600Y-83693000D02*
X291058600Y-84328000D01*
X292328600Y-84328000D02*
X291058600Y-84328000D01*
X308838600Y-81788000D02*
X310108600Y-81788000D01*
X310108600Y-81788000D02*
X310743600Y-82423000D01*
X310743600Y-82423000D02*
X310743600Y-83693000D01*
X310743600Y-83693000D02*
X310108600Y-84328000D01*
X308838600Y-81788000D02*
X308203600Y-82423000D01*
X308203600Y-83693000D02*
X308838600Y-84328000D01*
X310108600Y-84328000D02*
X308838600Y-84328000D01*
D11*
G04 #@! TO.C,P11*
X219532200Y-91694000D02*
X251790200Y-91694000D01*
X251790200Y-91694000D02*
X251790200Y-77089000D01*
X251790200Y-77089000D02*
X219532200Y-77089000D01*
X219532200Y-77089000D02*
X219532200Y-91694000D01*
D12*
X241376200Y-81788000D02*
X242646200Y-81788000D01*
X242646200Y-81788000D02*
X243281200Y-82423000D01*
X243281200Y-83693000D02*
X242646200Y-84328000D01*
X238201200Y-82423000D02*
X238836200Y-81788000D01*
X238836200Y-81788000D02*
X240106200Y-81788000D01*
X240106200Y-81788000D02*
X240741200Y-82423000D01*
X240741200Y-83693000D02*
X240106200Y-84328000D01*
X240106200Y-84328000D02*
X238836200Y-84328000D01*
X238836200Y-84328000D02*
X238201200Y-83693000D01*
X241376200Y-81788000D02*
X240741200Y-82423000D01*
X240741200Y-83693000D02*
X241376200Y-84328000D01*
X242646200Y-84328000D02*
X241376200Y-84328000D01*
X233756200Y-81788000D02*
X235026200Y-81788000D01*
X235026200Y-81788000D02*
X235661200Y-82423000D01*
X235661200Y-83693000D02*
X235026200Y-84328000D01*
X235661200Y-82423000D02*
X236296200Y-81788000D01*
X236296200Y-81788000D02*
X237566200Y-81788000D01*
X237566200Y-81788000D02*
X238201200Y-82423000D01*
X238201200Y-83693000D02*
X237566200Y-84328000D01*
X237566200Y-84328000D02*
X236296200Y-84328000D01*
X236296200Y-84328000D02*
X235661200Y-83693000D01*
X230581200Y-82423000D02*
X231216200Y-81788000D01*
X231216200Y-81788000D02*
X232486200Y-81788000D01*
X232486200Y-81788000D02*
X233121200Y-82423000D01*
X233121200Y-83693000D02*
X232486200Y-84328000D01*
X232486200Y-84328000D02*
X231216200Y-84328000D01*
X231216200Y-84328000D02*
X230581200Y-83693000D01*
X233756200Y-81788000D02*
X233121200Y-82423000D01*
X233121200Y-83693000D02*
X233756200Y-84328000D01*
X235026200Y-84328000D02*
X233756200Y-84328000D01*
X226136200Y-81788000D02*
X227406200Y-81788000D01*
X227406200Y-81788000D02*
X228041200Y-82423000D01*
X228041200Y-83693000D02*
X227406200Y-84328000D01*
X228041200Y-82423000D02*
X228676200Y-81788000D01*
X228676200Y-81788000D02*
X229946200Y-81788000D01*
X229946200Y-81788000D02*
X230581200Y-82423000D01*
X230581200Y-83693000D02*
X229946200Y-84328000D01*
X229946200Y-84328000D02*
X228676200Y-84328000D01*
X228676200Y-84328000D02*
X228041200Y-83693000D01*
X225501200Y-82423000D02*
X225501200Y-83693000D01*
X226136200Y-81788000D02*
X225501200Y-82423000D01*
X225501200Y-83693000D02*
X226136200Y-84328000D01*
X227406200Y-84328000D02*
X226136200Y-84328000D01*
X243916200Y-81788000D02*
X245186200Y-81788000D01*
X245186200Y-81788000D02*
X245821200Y-82423000D01*
X245821200Y-82423000D02*
X245821200Y-83693000D01*
X245821200Y-83693000D02*
X245186200Y-84328000D01*
X243916200Y-81788000D02*
X243281200Y-82423000D01*
X243281200Y-83693000D02*
X243916200Y-84328000D01*
X245186200Y-84328000D02*
X243916200Y-84328000D01*
D11*
G04 #@! TO.C,P8*
X122148600Y-91694000D02*
X154406600Y-91694000D01*
X154406600Y-91694000D02*
X154406600Y-77089000D01*
X154406600Y-77089000D02*
X122148600Y-77089000D01*
X122148600Y-77089000D02*
X122148600Y-91694000D01*
D12*
X143992600Y-81788000D02*
X145262600Y-81788000D01*
X145262600Y-81788000D02*
X145897600Y-82423000D01*
X145897600Y-83693000D02*
X145262600Y-84328000D01*
X140817600Y-82423000D02*
X141452600Y-81788000D01*
X141452600Y-81788000D02*
X142722600Y-81788000D01*
X142722600Y-81788000D02*
X143357600Y-82423000D01*
X143357600Y-83693000D02*
X142722600Y-84328000D01*
X142722600Y-84328000D02*
X141452600Y-84328000D01*
X141452600Y-84328000D02*
X140817600Y-83693000D01*
X143992600Y-81788000D02*
X143357600Y-82423000D01*
X143357600Y-83693000D02*
X143992600Y-84328000D01*
X145262600Y-84328000D02*
X143992600Y-84328000D01*
X136372600Y-81788000D02*
X137642600Y-81788000D01*
X137642600Y-81788000D02*
X138277600Y-82423000D01*
X138277600Y-83693000D02*
X137642600Y-84328000D01*
X138277600Y-82423000D02*
X138912600Y-81788000D01*
X138912600Y-81788000D02*
X140182600Y-81788000D01*
X140182600Y-81788000D02*
X140817600Y-82423000D01*
X140817600Y-83693000D02*
X140182600Y-84328000D01*
X140182600Y-84328000D02*
X138912600Y-84328000D01*
X138912600Y-84328000D02*
X138277600Y-83693000D01*
X133197600Y-82423000D02*
X133832600Y-81788000D01*
X133832600Y-81788000D02*
X135102600Y-81788000D01*
X135102600Y-81788000D02*
X135737600Y-82423000D01*
X135737600Y-83693000D02*
X135102600Y-84328000D01*
X135102600Y-84328000D02*
X133832600Y-84328000D01*
X133832600Y-84328000D02*
X133197600Y-83693000D01*
X136372600Y-81788000D02*
X135737600Y-82423000D01*
X135737600Y-83693000D02*
X136372600Y-84328000D01*
X137642600Y-84328000D02*
X136372600Y-84328000D01*
X128752600Y-81788000D02*
X130022600Y-81788000D01*
X130022600Y-81788000D02*
X130657600Y-82423000D01*
X130657600Y-83693000D02*
X130022600Y-84328000D01*
X130657600Y-82423000D02*
X131292600Y-81788000D01*
X131292600Y-81788000D02*
X132562600Y-81788000D01*
X132562600Y-81788000D02*
X133197600Y-82423000D01*
X133197600Y-83693000D02*
X132562600Y-84328000D01*
X132562600Y-84328000D02*
X131292600Y-84328000D01*
X131292600Y-84328000D02*
X130657600Y-83693000D01*
X128117600Y-82423000D02*
X128117600Y-83693000D01*
X128752600Y-81788000D02*
X128117600Y-82423000D01*
X128117600Y-83693000D02*
X128752600Y-84328000D01*
X130022600Y-84328000D02*
X128752600Y-84328000D01*
X146532600Y-81788000D02*
X147802600Y-81788000D01*
X147802600Y-81788000D02*
X148437600Y-82423000D01*
X148437600Y-82423000D02*
X148437600Y-83693000D01*
X148437600Y-83693000D02*
X147802600Y-84328000D01*
X146532600Y-81788000D02*
X145897600Y-82423000D01*
X145897600Y-83693000D02*
X146532600Y-84328000D01*
X147802600Y-84328000D02*
X146532600Y-84328000D01*
D11*
G04 #@! TO.C,P12*
X251993400Y-91694000D02*
X284251400Y-91694000D01*
X284251400Y-91694000D02*
X284251400Y-77089000D01*
X284251400Y-77089000D02*
X251993400Y-77089000D01*
X251993400Y-77089000D02*
X251993400Y-91694000D01*
D12*
X273837400Y-81788000D02*
X275107400Y-81788000D01*
X275107400Y-81788000D02*
X275742400Y-82423000D01*
X275742400Y-83693000D02*
X275107400Y-84328000D01*
X270662400Y-82423000D02*
X271297400Y-81788000D01*
X271297400Y-81788000D02*
X272567400Y-81788000D01*
X272567400Y-81788000D02*
X273202400Y-82423000D01*
X273202400Y-83693000D02*
X272567400Y-84328000D01*
X272567400Y-84328000D02*
X271297400Y-84328000D01*
X271297400Y-84328000D02*
X270662400Y-83693000D01*
X273837400Y-81788000D02*
X273202400Y-82423000D01*
X273202400Y-83693000D02*
X273837400Y-84328000D01*
X275107400Y-84328000D02*
X273837400Y-84328000D01*
X266217400Y-81788000D02*
X267487400Y-81788000D01*
X267487400Y-81788000D02*
X268122400Y-82423000D01*
X268122400Y-83693000D02*
X267487400Y-84328000D01*
X268122400Y-82423000D02*
X268757400Y-81788000D01*
X268757400Y-81788000D02*
X270027400Y-81788000D01*
X270027400Y-81788000D02*
X270662400Y-82423000D01*
X270662400Y-83693000D02*
X270027400Y-84328000D01*
X270027400Y-84328000D02*
X268757400Y-84328000D01*
X268757400Y-84328000D02*
X268122400Y-83693000D01*
X263042400Y-82423000D02*
X263677400Y-81788000D01*
X263677400Y-81788000D02*
X264947400Y-81788000D01*
X264947400Y-81788000D02*
X265582400Y-82423000D01*
X265582400Y-83693000D02*
X264947400Y-84328000D01*
X264947400Y-84328000D02*
X263677400Y-84328000D01*
X263677400Y-84328000D02*
X263042400Y-83693000D01*
X266217400Y-81788000D02*
X265582400Y-82423000D01*
X265582400Y-83693000D02*
X266217400Y-84328000D01*
X267487400Y-84328000D02*
X266217400Y-84328000D01*
X258597400Y-81788000D02*
X259867400Y-81788000D01*
X259867400Y-81788000D02*
X260502400Y-82423000D01*
X260502400Y-83693000D02*
X259867400Y-84328000D01*
X260502400Y-82423000D02*
X261137400Y-81788000D01*
X261137400Y-81788000D02*
X262407400Y-81788000D01*
X262407400Y-81788000D02*
X263042400Y-82423000D01*
X263042400Y-83693000D02*
X262407400Y-84328000D01*
X262407400Y-84328000D02*
X261137400Y-84328000D01*
X261137400Y-84328000D02*
X260502400Y-83693000D01*
X257962400Y-82423000D02*
X257962400Y-83693000D01*
X258597400Y-81788000D02*
X257962400Y-82423000D01*
X257962400Y-83693000D02*
X258597400Y-84328000D01*
X259867400Y-84328000D02*
X258597400Y-84328000D01*
X276377400Y-81788000D02*
X277647400Y-81788000D01*
X277647400Y-81788000D02*
X278282400Y-82423000D01*
X278282400Y-82423000D02*
X278282400Y-83693000D01*
X278282400Y-83693000D02*
X277647400Y-84328000D01*
X276377400Y-81788000D02*
X275742400Y-82423000D01*
X275742400Y-83693000D02*
X276377400Y-84328000D01*
X277647400Y-84328000D02*
X276377400Y-84328000D01*
D11*
G04 #@! TO.C,C2*
X259236344Y-66040000D02*
G75*
G03X259236344Y-66040000I-5236344J0D01*
G01*
D12*
X254254000Y-67183000D02*
X254889000Y-67183000D01*
X254889000Y-67183000D02*
X254889000Y-64897000D01*
X254254000Y-64897000D02*
X254889000Y-64897000D01*
X254254000Y-67183000D02*
X254254000Y-64897000D01*
D13*
X252857000Y-66040000D02*
X253111000Y-66040000D01*
X253111000Y-66040000D02*
X253111000Y-67183000D01*
X253111000Y-67183000D02*
X253746000Y-67183000D01*
X253746000Y-67183000D02*
X253746000Y-64897000D01*
X253746000Y-64897000D02*
X253111000Y-64897000D01*
X253111000Y-64897000D02*
X253111000Y-66040000D01*
X254635000Y-66040000D02*
X255143000Y-66040000D01*
X247650000Y-65659000D02*
X247650000Y-66421000D01*
X248031000Y-66040000D02*
X247269000Y-66040000D01*
X255143000Y-66040000D02*
X255651000Y-66040000D01*
X252349000Y-66040000D02*
X252857000Y-66040000D01*
D11*
G04 #@! TO.C,C1*
X157636344Y-66040000D02*
G75*
G03X157636344Y-66040000I-5236344J0D01*
G01*
D12*
X152654000Y-67183000D02*
X153289000Y-67183000D01*
X153289000Y-67183000D02*
X153289000Y-64897000D01*
X152654000Y-64897000D02*
X153289000Y-64897000D01*
X152654000Y-67183000D02*
X152654000Y-64897000D01*
D13*
X151257000Y-66040000D02*
X151511000Y-66040000D01*
X151511000Y-66040000D02*
X151511000Y-67183000D01*
X151511000Y-67183000D02*
X152146000Y-67183000D01*
X152146000Y-67183000D02*
X152146000Y-64897000D01*
X152146000Y-64897000D02*
X151511000Y-64897000D01*
X151511000Y-64897000D02*
X151511000Y-66040000D01*
X153035000Y-66040000D02*
X153543000Y-66040000D01*
X146050000Y-65659000D02*
X146050000Y-66421000D01*
X146431000Y-66040000D02*
X145669000Y-66040000D01*
X153543000Y-66040000D02*
X154051000Y-66040000D01*
X150749000Y-66040000D02*
X151257000Y-66040000D01*
D12*
G04 #@! TO.C,SW1*
X52806600Y-80289400D02*
X51536600Y-80289400D01*
X51536600Y-80289400D02*
X51536600Y-81051400D01*
X52806600Y-81051400D02*
X51536600Y-81051400D01*
X52806600Y-80289400D02*
X52806600Y-81051400D01*
X52806600Y-83591400D02*
X51536600Y-83591400D01*
X51536600Y-83591400D02*
X51536600Y-86131400D01*
X52806600Y-86131400D02*
X51536600Y-86131400D01*
X52806600Y-83591400D02*
X52806600Y-86131400D01*
X52806600Y-88671400D02*
X51536600Y-88671400D01*
X51536600Y-88671400D02*
X51536600Y-91211400D01*
X52806600Y-91211400D02*
X51536600Y-91211400D01*
X52806600Y-88671400D02*
X52806600Y-91211400D01*
X52806600Y-81051400D02*
X51536600Y-81051400D01*
X51536600Y-81051400D02*
X51536600Y-83591400D01*
X52806600Y-83591400D02*
X51536600Y-83591400D01*
X52806600Y-81051400D02*
X52806600Y-83591400D01*
X52806600Y-86131400D02*
X51536600Y-86131400D01*
X51536600Y-86131400D02*
X51536600Y-88671400D01*
X52806600Y-88671400D02*
X51536600Y-88671400D01*
X52806600Y-86131400D02*
X52806600Y-88671400D01*
X52806600Y-88671400D02*
X51536600Y-88671400D01*
X51536600Y-88671400D02*
X51536600Y-90322400D01*
X52806600Y-90322400D02*
X51536600Y-90322400D01*
X52806600Y-88671400D02*
X52806600Y-90322400D01*
X48742600Y-67081400D02*
X48107600Y-67081400D01*
X48107600Y-67081400D02*
X48107600Y-68224400D01*
X48742600Y-68224400D02*
X48107600Y-68224400D01*
X48742600Y-67081400D02*
X48742600Y-68224400D01*
X48742600Y-68224400D02*
X48107600Y-68224400D01*
X48107600Y-68224400D02*
X48107600Y-74701400D01*
X48742600Y-74701400D02*
X48107600Y-74701400D01*
X48742600Y-68224400D02*
X48742600Y-74701400D01*
X53187600Y-67081400D02*
X51155600Y-67081400D01*
X51155600Y-67081400D02*
X51155600Y-70891400D01*
X53187600Y-70891400D02*
X51155600Y-70891400D01*
X53187600Y-67081400D02*
X53187600Y-70891400D01*
X53441600Y-67081400D02*
X53187600Y-67081400D01*
X53187600Y-67081400D02*
X53187600Y-70891400D01*
X53441600Y-70891400D02*
X53187600Y-70891400D01*
X53441600Y-67081400D02*
X53441600Y-70891400D01*
X51155600Y-67081400D02*
X50901600Y-67081400D01*
X50901600Y-67081400D02*
X50901600Y-70891400D01*
X51155600Y-70891400D02*
X50901600Y-70891400D01*
X51155600Y-67081400D02*
X51155600Y-70891400D01*
X56235600Y-67081400D02*
X55600600Y-67081400D01*
X55600600Y-67081400D02*
X55600600Y-68224400D01*
X56235600Y-68224400D02*
X55600600Y-68224400D01*
X56235600Y-67081400D02*
X56235600Y-68224400D01*
X56235600Y-68224400D02*
X55600600Y-68224400D01*
X55600600Y-68224400D02*
X55600600Y-74701400D01*
X56235600Y-74701400D02*
X55600600Y-74701400D01*
X56235600Y-68224400D02*
X56235600Y-74701400D01*
D13*
X56235600Y-67081400D02*
X56235600Y-77749400D01*
X56235600Y-67081400D02*
X55854600Y-67081400D01*
X55854600Y-67081400D02*
X55854600Y-66827400D01*
X48488600Y-66827400D02*
X48742600Y-66827400D01*
X48488600Y-66827400D02*
X48488600Y-67081400D01*
X48488600Y-67081400D02*
X48107600Y-67081400D01*
X55600600Y-66827400D02*
X55600600Y-66192400D01*
X55600600Y-66827400D02*
X55854600Y-66827400D01*
X48742600Y-66192400D02*
X49631600Y-66192400D01*
X48742600Y-66192400D02*
X48742600Y-66827400D01*
X49631600Y-59969400D02*
X51917600Y-59969400D01*
X54711600Y-59969400D02*
X54330600Y-59588400D01*
X54330600Y-59588400D02*
X53060600Y-59588400D01*
X49631600Y-59969400D02*
X50012600Y-59588400D01*
X51917600Y-59969400D02*
X51917600Y-66192400D01*
X51917600Y-59969400D02*
X52425600Y-59969400D01*
X51917600Y-66192400D02*
X52425600Y-66192400D01*
X52425600Y-59969400D02*
X52425600Y-66192400D01*
X52425600Y-59969400D02*
X54711600Y-59969400D01*
X53060600Y-59588400D02*
X53441600Y-54381400D01*
X50901600Y-54381400D02*
X51282600Y-59588400D01*
X51282600Y-59588400D02*
X50012600Y-59588400D01*
X53060600Y-59588400D02*
X51282600Y-59588400D01*
X48234600Y-77876400D02*
X49631600Y-77876400D01*
X49631600Y-77749400D02*
X49631600Y-77876400D01*
X54711600Y-77749400D02*
X54711600Y-77876400D01*
X48234600Y-77876400D02*
X48107600Y-77749400D01*
X48107600Y-77749400D02*
X48107600Y-67081400D01*
X56235600Y-77749400D02*
X56108600Y-77876400D01*
X56108600Y-77876400D02*
X54711600Y-77876400D01*
X54711600Y-77749400D02*
X49631600Y-77749400D01*
X49631600Y-66192400D02*
X49631600Y-65684400D01*
X49631600Y-65684400D02*
X49631600Y-59969400D01*
X49631600Y-66192400D02*
X50774600Y-66192400D01*
X50774600Y-66192400D02*
X51917600Y-66192400D01*
X48742600Y-66827400D02*
X51028600Y-66827400D01*
X48488600Y-67081400D02*
X51028600Y-67081400D01*
X53187600Y-67081400D02*
X51028600Y-67081400D01*
X53187600Y-67081400D02*
X55854600Y-67081400D01*
X53314600Y-66827400D02*
X51028600Y-66827400D01*
X53314600Y-66827400D02*
X55600600Y-66827400D01*
X53568600Y-66192400D02*
X52425600Y-66192400D01*
X53568600Y-66192400D02*
X54711600Y-66192400D01*
X54711600Y-66192400D02*
X55600600Y-66192400D01*
X54711600Y-66192400D02*
X54711600Y-65684400D01*
X54711600Y-65684400D02*
X54711600Y-59969400D01*
X53441600Y-54381400D02*
G75*
G03X50901600Y-54381400I-1270000J0D01*
G01*
D10*
G04 #@! TO.C,P5*
X213360000Y-72390000D02*
X213360000Y-62230000D01*
X213360000Y-62230000D02*
X218440000Y-62230000D01*
X218440000Y-62230000D02*
X218440000Y-72390000D01*
X218440000Y-72390000D02*
X213360000Y-72390000D01*
G04 #@! TO.C,P2*
X187960000Y-72390000D02*
X187960000Y-62230000D01*
X187960000Y-62230000D02*
X193040000Y-62230000D01*
X193040000Y-62230000D02*
X193040000Y-72390000D01*
X193040000Y-72390000D02*
X187960000Y-72390000D01*
D11*
G04 #@! TO.C,1/4-20\002C1*
X68997795Y-79105760D02*
G75*
G03X68997795Y-79105760I-5497795J0D01*
G01*
G04 #@! TO.C,1/4-20\002C2*
X348397795Y-79105760D02*
G75*
G03X348397795Y-79105760I-5497795J0D01*
G01*
G04 #@! TO.C,P10*
D10*
X201349428Y-76584628D02*
X201349428Y-75060628D01*
X201930000Y-75060628D01*
X202075142Y-75133200D01*
X202147714Y-75205771D01*
X202220285Y-75350914D01*
X202220285Y-75568628D01*
X202147714Y-75713771D01*
X202075142Y-75786342D01*
X201930000Y-75858914D01*
X201349428Y-75858914D01*
X203671714Y-76584628D02*
X202800857Y-76584628D01*
X203236285Y-76584628D02*
X203236285Y-75060628D01*
X203091142Y-75278342D01*
X202946000Y-75423485D01*
X202800857Y-75496057D01*
X204615142Y-75060628D02*
X204760285Y-75060628D01*
X204905428Y-75133200D01*
X204978000Y-75205771D01*
X205050571Y-75350914D01*
X205123142Y-75641200D01*
X205123142Y-76004057D01*
X205050571Y-76294342D01*
X204978000Y-76439485D01*
X204905428Y-76512057D01*
X204760285Y-76584628D01*
X204615142Y-76584628D01*
X204470000Y-76512057D01*
X204397428Y-76439485D01*
X204324857Y-76294342D01*
X204252285Y-76004057D01*
X204252285Y-75641200D01*
X204324857Y-75350914D01*
X204397428Y-75205771D01*
X204470000Y-75133200D01*
X204615142Y-75060628D01*
G04 #@! TO.C,J2*
X46282428Y-89027000D02*
X47371000Y-89027000D01*
X47588714Y-89099571D01*
X47733857Y-89244714D01*
X47806428Y-89462428D01*
X47806428Y-89607571D01*
X46427571Y-88373857D02*
X46355000Y-88301285D01*
X46282428Y-88156142D01*
X46282428Y-87793285D01*
X46355000Y-87648142D01*
X46427571Y-87575571D01*
X46572714Y-87503000D01*
X46717857Y-87503000D01*
X46935571Y-87575571D01*
X47806428Y-88446428D01*
X47806428Y-87503000D01*
D15*
X43881523Y-68217142D02*
X43881523Y-68942857D01*
X43881523Y-68580000D02*
X42611523Y-68580000D01*
X42792952Y-68700952D01*
X42913904Y-68821904D01*
X42974380Y-68942857D01*
X42611523Y-83134079D02*
X42611523Y-83738840D01*
X43216285Y-83799317D01*
X43155809Y-83738840D01*
X43095333Y-83617888D01*
X43095333Y-83315507D01*
X43155809Y-83194555D01*
X43216285Y-83134079D01*
X43337238Y-83073602D01*
X43639619Y-83073602D01*
X43760571Y-83134079D01*
X43821047Y-83194555D01*
X43881523Y-83315507D01*
X43881523Y-83617888D01*
X43821047Y-83738840D01*
X43760571Y-83799317D01*
X41341523Y-83678364D02*
X41341523Y-83436460D01*
X41281047Y-83315507D01*
X41220571Y-83255031D01*
X41039142Y-83134079D01*
X40797238Y-83073602D01*
X40313428Y-83073602D01*
X40192476Y-83134079D01*
X40132000Y-83194555D01*
X40071523Y-83315507D01*
X40071523Y-83557412D01*
X40132000Y-83678364D01*
X40192476Y-83738840D01*
X40313428Y-83799317D01*
X40615809Y-83799317D01*
X40736761Y-83738840D01*
X40797238Y-83678364D01*
X40857714Y-83557412D01*
X40857714Y-83315507D01*
X40797238Y-83194555D01*
X40736761Y-83134079D01*
X40615809Y-83073602D01*
X39944523Y-68338095D02*
X39944523Y-68580000D01*
X40005000Y-68700952D01*
X40065476Y-68761428D01*
X40246904Y-68882380D01*
X40488809Y-68942857D01*
X40972619Y-68942857D01*
X41093571Y-68882380D01*
X41154047Y-68821904D01*
X41214523Y-68700952D01*
X41214523Y-68459047D01*
X41154047Y-68338095D01*
X41093571Y-68277619D01*
X40972619Y-68217142D01*
X40670238Y-68217142D01*
X40549285Y-68277619D01*
X40488809Y-68338095D01*
X40428333Y-68459047D01*
X40428333Y-68700952D01*
X40488809Y-68821904D01*
X40549285Y-68882380D01*
X40670238Y-68942857D01*
G04 #@! TO.C,J1*
D10*
X358448428Y-64389000D02*
X359537000Y-64389000D01*
X359754714Y-64461571D01*
X359899857Y-64606714D01*
X359972428Y-64824428D01*
X359972428Y-64969571D01*
X359972428Y-62865000D02*
X359972428Y-63735857D01*
X359972428Y-63300428D02*
X358448428Y-63300428D01*
X358666142Y-63445571D01*
X358811285Y-63590714D01*
X358883857Y-63735857D01*
D15*
X363667523Y-83457142D02*
X363667523Y-84182857D01*
X363667523Y-83820000D02*
X362397523Y-83820000D01*
X362578952Y-83940952D01*
X362699904Y-84061904D01*
X362760380Y-84182857D01*
X362397523Y-68661159D02*
X362397523Y-69265920D01*
X363002285Y-69326397D01*
X362941809Y-69265920D01*
X362881333Y-69144968D01*
X362881333Y-68842587D01*
X362941809Y-68721635D01*
X363002285Y-68661159D01*
X363123238Y-68600682D01*
X363425619Y-68600682D01*
X363546571Y-68661159D01*
X363607047Y-68721635D01*
X363667523Y-68842587D01*
X363667523Y-69144968D01*
X363607047Y-69265920D01*
X363546571Y-69326397D01*
X366207523Y-69205444D02*
X366207523Y-68963540D01*
X366147047Y-68842587D01*
X366086571Y-68782111D01*
X365905142Y-68661159D01*
X365663238Y-68600682D01*
X365179428Y-68600682D01*
X365058476Y-68661159D01*
X364998000Y-68721635D01*
X364937523Y-68842587D01*
X364937523Y-69084492D01*
X364998000Y-69205444D01*
X365058476Y-69265920D01*
X365179428Y-69326397D01*
X365481809Y-69326397D01*
X365602761Y-69265920D01*
X365663238Y-69205444D01*
X365723714Y-69084492D01*
X365723714Y-68842587D01*
X365663238Y-68721635D01*
X365602761Y-68661159D01*
X365481809Y-68600682D01*
X365064523Y-83578095D02*
X365064523Y-83820000D01*
X365125000Y-83940952D01*
X365185476Y-84001428D01*
X365366904Y-84122380D01*
X365608809Y-84182857D01*
X366092619Y-84182857D01*
X366213571Y-84122380D01*
X366274047Y-84061904D01*
X366334523Y-83940952D01*
X366334523Y-83699047D01*
X366274047Y-83578095D01*
X366213571Y-83517619D01*
X366092619Y-83457142D01*
X365790238Y-83457142D01*
X365669285Y-83517619D01*
X365608809Y-83578095D01*
X365548333Y-83699047D01*
X365548333Y-83940952D01*
X365608809Y-84061904D01*
X365669285Y-84122380D01*
X365790238Y-84182857D01*
G04 #@! TO.C,P6*
D10*
X104575428Y-68688857D02*
X103051428Y-68688857D01*
X103051428Y-68108285D01*
X103124000Y-67963142D01*
X103196571Y-67890571D01*
X103341714Y-67818000D01*
X103559428Y-67818000D01*
X103704571Y-67890571D01*
X103777142Y-67963142D01*
X103849714Y-68108285D01*
X103849714Y-68688857D01*
X103051428Y-66511714D02*
X103051428Y-66802000D01*
X103124000Y-66947142D01*
X103196571Y-67019714D01*
X103414285Y-67164857D01*
X103704571Y-67237428D01*
X104285142Y-67237428D01*
X104430285Y-67164857D01*
X104502857Y-67092285D01*
X104575428Y-66947142D01*
X104575428Y-66656857D01*
X104502857Y-66511714D01*
X104430285Y-66439142D01*
X104285142Y-66366571D01*
X103922285Y-66366571D01*
X103777142Y-66439142D01*
X103704571Y-66511714D01*
X103632000Y-66656857D01*
X103632000Y-66947142D01*
X103704571Y-67092285D01*
X103777142Y-67164857D01*
X103922285Y-67237428D01*
G04 #@! TO.C,P3*
X320602428Y-69069857D02*
X319078428Y-69069857D01*
X319078428Y-68489285D01*
X319151000Y-68344142D01*
X319223571Y-68271571D01*
X319368714Y-68199000D01*
X319586428Y-68199000D01*
X319731571Y-68271571D01*
X319804142Y-68344142D01*
X319876714Y-68489285D01*
X319876714Y-69069857D01*
X319078428Y-67691000D02*
X319078428Y-66747571D01*
X319659000Y-67255571D01*
X319659000Y-67037857D01*
X319731571Y-66892714D01*
X319804142Y-66820142D01*
X319949285Y-66747571D01*
X320312142Y-66747571D01*
X320457285Y-66820142D01*
X320529857Y-66892714D01*
X320602428Y-67037857D01*
X320602428Y-67473285D01*
X320529857Y-67618428D01*
X320457285Y-67691000D01*
G04 #@! TO.C,P4*
X344696142Y-66729428D02*
X344696142Y-65205428D01*
X345276714Y-65205428D01*
X345421857Y-65278000D01*
X345494428Y-65350571D01*
X345567000Y-65495714D01*
X345567000Y-65713428D01*
X345494428Y-65858571D01*
X345421857Y-65931142D01*
X345276714Y-66003714D01*
X344696142Y-66003714D01*
X346873285Y-65713428D02*
X346873285Y-66729428D01*
X346510428Y-65132857D02*
X346147571Y-66221428D01*
X347091000Y-66221428D01*
D16*
X328639714Y-62278380D02*
X328688095Y-62230000D01*
X328784857Y-62181619D01*
X329026761Y-62181619D01*
X329123523Y-62230000D01*
X329171904Y-62278380D01*
X329220285Y-62375142D01*
X329220285Y-62471904D01*
X329171904Y-62617047D01*
X328591333Y-63197619D01*
X329220285Y-63197619D01*
X338896476Y-63197619D02*
X338315904Y-63197619D01*
X338606190Y-63197619D02*
X338606190Y-62181619D01*
X338509428Y-62326761D01*
X338412666Y-62423523D01*
X338315904Y-62471904D01*
X339525428Y-62181619D02*
X339622190Y-62181619D01*
X339718952Y-62230000D01*
X339767333Y-62278380D01*
X339815714Y-62375142D01*
X339864095Y-62568666D01*
X339864095Y-62810571D01*
X339815714Y-63004095D01*
X339767333Y-63100857D01*
X339718952Y-63149238D01*
X339622190Y-63197619D01*
X339525428Y-63197619D01*
X339428666Y-63149238D01*
X339380285Y-63100857D01*
X339331904Y-63004095D01*
X339283523Y-62810571D01*
X339283523Y-62568666D01*
X339331904Y-62375142D01*
X339380285Y-62278380D01*
X339428666Y-62230000D01*
X339525428Y-62181619D01*
X338896476Y-70055619D02*
X339090000Y-70055619D01*
X339186761Y-70007238D01*
X339235142Y-69958857D01*
X339331904Y-69813714D01*
X339380285Y-69620190D01*
X339380285Y-69233142D01*
X339331904Y-69136380D01*
X339283523Y-69088000D01*
X339186761Y-69039619D01*
X338993238Y-69039619D01*
X338896476Y-69088000D01*
X338848095Y-69136380D01*
X338799714Y-69233142D01*
X338799714Y-69475047D01*
X338848095Y-69571809D01*
X338896476Y-69620190D01*
X338993238Y-69668571D01*
X339186761Y-69668571D01*
X339283523Y-69620190D01*
X339331904Y-69571809D01*
X339380285Y-69475047D01*
G04 #@! TO.C,P1*
D10*
X59835142Y-67110428D02*
X59835142Y-65586428D01*
X60415714Y-65586428D01*
X60560857Y-65659000D01*
X60633428Y-65731571D01*
X60706000Y-65876714D01*
X60706000Y-66094428D01*
X60633428Y-66239571D01*
X60560857Y-66312142D01*
X60415714Y-66384714D01*
X59835142Y-66384714D01*
X62157428Y-67110428D02*
X61286571Y-67110428D01*
X61722000Y-67110428D02*
X61722000Y-65586428D01*
X61576857Y-65804142D01*
X61431714Y-65949285D01*
X61286571Y-66021857D01*
D16*
X67019714Y-62278380D02*
X67068095Y-62230000D01*
X67164857Y-62181619D01*
X67406761Y-62181619D01*
X67503523Y-62230000D01*
X67551904Y-62278380D01*
X67600285Y-62375142D01*
X67600285Y-62471904D01*
X67551904Y-62617047D01*
X66971333Y-63197619D01*
X67600285Y-63197619D01*
X77276476Y-63197619D02*
X76695904Y-63197619D01*
X76986190Y-63197619D02*
X76986190Y-62181619D01*
X76889428Y-62326761D01*
X76792666Y-62423523D01*
X76695904Y-62471904D01*
X77905428Y-62181619D02*
X78002190Y-62181619D01*
X78098952Y-62230000D01*
X78147333Y-62278380D01*
X78195714Y-62375142D01*
X78244095Y-62568666D01*
X78244095Y-62810571D01*
X78195714Y-63004095D01*
X78147333Y-63100857D01*
X78098952Y-63149238D01*
X78002190Y-63197619D01*
X77905428Y-63197619D01*
X77808666Y-63149238D01*
X77760285Y-63100857D01*
X77711904Y-63004095D01*
X77663523Y-62810571D01*
X77663523Y-62568666D01*
X77711904Y-62375142D01*
X77760285Y-62278380D01*
X77808666Y-62230000D01*
X77905428Y-62181619D01*
X77276476Y-70055619D02*
X77470000Y-70055619D01*
X77566761Y-70007238D01*
X77615142Y-69958857D01*
X77711904Y-69813714D01*
X77760285Y-69620190D01*
X77760285Y-69233142D01*
X77711904Y-69136380D01*
X77663523Y-69088000D01*
X77566761Y-69039619D01*
X77373238Y-69039619D01*
X77276476Y-69088000D01*
X77228095Y-69136380D01*
X77179714Y-69233142D01*
X77179714Y-69475047D01*
X77228095Y-69571809D01*
X77276476Y-69620190D01*
X77373238Y-69668571D01*
X77566761Y-69668571D01*
X77663523Y-69620190D01*
X77711904Y-69571809D01*
X77760285Y-69475047D01*
G04 #@! TO.C,P7*
D10*
X104691542Y-76635428D02*
X104691542Y-75111428D01*
X105272114Y-75111428D01*
X105417257Y-75184000D01*
X105489828Y-75256571D01*
X105562400Y-75401714D01*
X105562400Y-75619428D01*
X105489828Y-75764571D01*
X105417257Y-75837142D01*
X105272114Y-75909714D01*
X104691542Y-75909714D01*
X106070400Y-75111428D02*
X107086400Y-75111428D01*
X106433257Y-76635428D01*
G04 #@! TO.C,P9*
X169613942Y-76559228D02*
X169613942Y-75035228D01*
X170194514Y-75035228D01*
X170339657Y-75107800D01*
X170412228Y-75180371D01*
X170484800Y-75325514D01*
X170484800Y-75543228D01*
X170412228Y-75688371D01*
X170339657Y-75760942D01*
X170194514Y-75833514D01*
X169613942Y-75833514D01*
X171210514Y-76559228D02*
X171500800Y-76559228D01*
X171645942Y-76486657D01*
X171718514Y-76414085D01*
X171863657Y-76196371D01*
X171936228Y-75906085D01*
X171936228Y-75325514D01*
X171863657Y-75180371D01*
X171791085Y-75107800D01*
X171645942Y-75035228D01*
X171355657Y-75035228D01*
X171210514Y-75107800D01*
X171137942Y-75180371D01*
X171065371Y-75325514D01*
X171065371Y-75688371D01*
X171137942Y-75833514D01*
X171210514Y-75906085D01*
X171355657Y-75978657D01*
X171645942Y-75978657D01*
X171791085Y-75906085D01*
X171863657Y-75833514D01*
X171936228Y-75688371D01*
G04 #@! TO.C,P13*
X298733028Y-76584628D02*
X298733028Y-75060628D01*
X299313600Y-75060628D01*
X299458742Y-75133200D01*
X299531314Y-75205771D01*
X299603885Y-75350914D01*
X299603885Y-75568628D01*
X299531314Y-75713771D01*
X299458742Y-75786342D01*
X299313600Y-75858914D01*
X298733028Y-75858914D01*
X301055314Y-76584628D02*
X300184457Y-76584628D01*
X300619885Y-76584628D02*
X300619885Y-75060628D01*
X300474742Y-75278342D01*
X300329600Y-75423485D01*
X300184457Y-75496057D01*
X301563314Y-75060628D02*
X302506742Y-75060628D01*
X301998742Y-75641200D01*
X302216457Y-75641200D01*
X302361600Y-75713771D01*
X302434171Y-75786342D01*
X302506742Y-75931485D01*
X302506742Y-76294342D01*
X302434171Y-76439485D01*
X302361600Y-76512057D01*
X302216457Y-76584628D01*
X301781028Y-76584628D01*
X301635885Y-76512057D01*
X301563314Y-76439485D01*
G04 #@! TO.C,P11*
X233759828Y-76660828D02*
X233759828Y-75136828D01*
X234340400Y-75136828D01*
X234485542Y-75209400D01*
X234558114Y-75281971D01*
X234630685Y-75427114D01*
X234630685Y-75644828D01*
X234558114Y-75789971D01*
X234485542Y-75862542D01*
X234340400Y-75935114D01*
X233759828Y-75935114D01*
X236082114Y-76660828D02*
X235211257Y-76660828D01*
X235646685Y-76660828D02*
X235646685Y-75136828D01*
X235501542Y-75354542D01*
X235356400Y-75499685D01*
X235211257Y-75572257D01*
X237533542Y-76660828D02*
X236662685Y-76660828D01*
X237098114Y-76660828D02*
X237098114Y-75136828D01*
X236952971Y-75354542D01*
X236807828Y-75499685D01*
X236662685Y-75572257D01*
G04 #@! TO.C,P8*
X137152742Y-76559228D02*
X137152742Y-75035228D01*
X137733314Y-75035228D01*
X137878457Y-75107800D01*
X137951028Y-75180371D01*
X138023600Y-75325514D01*
X138023600Y-75543228D01*
X137951028Y-75688371D01*
X137878457Y-75760942D01*
X137733314Y-75833514D01*
X137152742Y-75833514D01*
X138894457Y-75688371D02*
X138749314Y-75615800D01*
X138676742Y-75543228D01*
X138604171Y-75398085D01*
X138604171Y-75325514D01*
X138676742Y-75180371D01*
X138749314Y-75107800D01*
X138894457Y-75035228D01*
X139184742Y-75035228D01*
X139329885Y-75107800D01*
X139402457Y-75180371D01*
X139475028Y-75325514D01*
X139475028Y-75398085D01*
X139402457Y-75543228D01*
X139329885Y-75615800D01*
X139184742Y-75688371D01*
X138894457Y-75688371D01*
X138749314Y-75760942D01*
X138676742Y-75833514D01*
X138604171Y-75978657D01*
X138604171Y-76268942D01*
X138676742Y-76414085D01*
X138749314Y-76486657D01*
X138894457Y-76559228D01*
X139184742Y-76559228D01*
X139329885Y-76486657D01*
X139402457Y-76414085D01*
X139475028Y-76268942D01*
X139475028Y-75978657D01*
X139402457Y-75833514D01*
X139329885Y-75760942D01*
X139184742Y-75688371D01*
G04 #@! TO.C,P12*
X266271828Y-76610028D02*
X266271828Y-75086028D01*
X266852400Y-75086028D01*
X266997542Y-75158600D01*
X267070114Y-75231171D01*
X267142685Y-75376314D01*
X267142685Y-75594028D01*
X267070114Y-75739171D01*
X266997542Y-75811742D01*
X266852400Y-75884314D01*
X266271828Y-75884314D01*
X268594114Y-76610028D02*
X267723257Y-76610028D01*
X268158685Y-76610028D02*
X268158685Y-75086028D01*
X268013542Y-75303742D01*
X267868400Y-75448885D01*
X267723257Y-75521457D01*
X269174685Y-75231171D02*
X269247257Y-75158600D01*
X269392400Y-75086028D01*
X269755257Y-75086028D01*
X269900400Y-75158600D01*
X269972971Y-75231171D01*
X270045542Y-75376314D01*
X270045542Y-75521457D01*
X269972971Y-75739171D01*
X269102114Y-76610028D01*
X270045542Y-76610028D01*
G04 #@! TO.C,C2*
X260985000Y-66584285D02*
X260912428Y-66656857D01*
X260694714Y-66729428D01*
X260549571Y-66729428D01*
X260331857Y-66656857D01*
X260186714Y-66511714D01*
X260114142Y-66366571D01*
X260041571Y-66076285D01*
X260041571Y-65858571D01*
X260114142Y-65568285D01*
X260186714Y-65423142D01*
X260331857Y-65278000D01*
X260549571Y-65205428D01*
X260694714Y-65205428D01*
X260912428Y-65278000D01*
X260985000Y-65350571D01*
X261565571Y-65350571D02*
X261638142Y-65278000D01*
X261783285Y-65205428D01*
X262146142Y-65205428D01*
X262291285Y-65278000D01*
X262363857Y-65350571D01*
X262436428Y-65495714D01*
X262436428Y-65640857D01*
X262363857Y-65858571D01*
X261493000Y-66729428D01*
X262436428Y-66729428D01*
X252875142Y-73460428D02*
X252004285Y-73460428D01*
X252439714Y-73460428D02*
X252439714Y-71936428D01*
X252294571Y-72154142D01*
X252149428Y-72299285D01*
X252004285Y-72371857D01*
X253818571Y-71936428D02*
X253963714Y-71936428D01*
X254108857Y-72009000D01*
X254181428Y-72081571D01*
X254254000Y-72226714D01*
X254326571Y-72517000D01*
X254326571Y-72879857D01*
X254254000Y-73170142D01*
X254181428Y-73315285D01*
X254108857Y-73387857D01*
X253963714Y-73460428D01*
X253818571Y-73460428D01*
X253673428Y-73387857D01*
X253600857Y-73315285D01*
X253528285Y-73170142D01*
X253455714Y-72879857D01*
X253455714Y-72517000D01*
X253528285Y-72226714D01*
X253600857Y-72081571D01*
X253673428Y-72009000D01*
X253818571Y-71936428D01*
X255632857Y-72444428D02*
X255632857Y-73460428D01*
X254979714Y-72444428D02*
X254979714Y-73242714D01*
X255052285Y-73387857D01*
X255197428Y-73460428D01*
X255415142Y-73460428D01*
X255560285Y-73387857D01*
X255632857Y-73315285D01*
X256866571Y-72662142D02*
X256358571Y-72662142D01*
X256358571Y-73460428D02*
X256358571Y-71936428D01*
X257084285Y-71936428D01*
G04 #@! TO.C,C1*
X159258000Y-66584285D02*
X159185428Y-66656857D01*
X158967714Y-66729428D01*
X158822571Y-66729428D01*
X158604857Y-66656857D01*
X158459714Y-66511714D01*
X158387142Y-66366571D01*
X158314571Y-66076285D01*
X158314571Y-65858571D01*
X158387142Y-65568285D01*
X158459714Y-65423142D01*
X158604857Y-65278000D01*
X158822571Y-65205428D01*
X158967714Y-65205428D01*
X159185428Y-65278000D01*
X159258000Y-65350571D01*
X160709428Y-66729428D02*
X159838571Y-66729428D01*
X160274000Y-66729428D02*
X160274000Y-65205428D01*
X160128857Y-65423142D01*
X159983714Y-65568285D01*
X159838571Y-65640857D01*
X151275142Y-73587428D02*
X150404285Y-73587428D01*
X150839714Y-73587428D02*
X150839714Y-72063428D01*
X150694571Y-72281142D01*
X150549428Y-72426285D01*
X150404285Y-72498857D01*
X152218571Y-72063428D02*
X152363714Y-72063428D01*
X152508857Y-72136000D01*
X152581428Y-72208571D01*
X152654000Y-72353714D01*
X152726571Y-72644000D01*
X152726571Y-73006857D01*
X152654000Y-73297142D01*
X152581428Y-73442285D01*
X152508857Y-73514857D01*
X152363714Y-73587428D01*
X152218571Y-73587428D01*
X152073428Y-73514857D01*
X152000857Y-73442285D01*
X151928285Y-73297142D01*
X151855714Y-73006857D01*
X151855714Y-72644000D01*
X151928285Y-72353714D01*
X152000857Y-72208571D01*
X152073428Y-72136000D01*
X152218571Y-72063428D01*
X154032857Y-72571428D02*
X154032857Y-73587428D01*
X153379714Y-72571428D02*
X153379714Y-73369714D01*
X153452285Y-73514857D01*
X153597428Y-73587428D01*
X153815142Y-73587428D01*
X153960285Y-73514857D01*
X154032857Y-73442285D01*
X155266571Y-72789142D02*
X154758571Y-72789142D01*
X154758571Y-73587428D02*
X154758571Y-72063428D01*
X155484285Y-72063428D01*
G04 #@! TO.C,SW1*
X58274857Y-74041000D02*
X58347428Y-73823285D01*
X58347428Y-73460428D01*
X58274857Y-73315285D01*
X58202285Y-73242714D01*
X58057142Y-73170142D01*
X57912000Y-73170142D01*
X57766857Y-73242714D01*
X57694285Y-73315285D01*
X57621714Y-73460428D01*
X57549142Y-73750714D01*
X57476571Y-73895857D01*
X57404000Y-73968428D01*
X57258857Y-74041000D01*
X57113714Y-74041000D01*
X56968571Y-73968428D01*
X56896000Y-73895857D01*
X56823428Y-73750714D01*
X56823428Y-73387857D01*
X56896000Y-73170142D01*
X56823428Y-72662142D02*
X58347428Y-72299285D01*
X57258857Y-72009000D01*
X58347428Y-71718714D01*
X56823428Y-71355857D01*
X58347428Y-69977000D02*
X58347428Y-70847857D01*
X58347428Y-70412428D02*
X56823428Y-70412428D01*
X57041142Y-70557571D01*
X57186285Y-70702714D01*
X57258857Y-70847857D01*
G04 #@! TO.C,P5*
D16*
X225987428Y-68434857D02*
X224463428Y-68434857D01*
X224463428Y-67854285D01*
X224536000Y-67709142D01*
X224608571Y-67636571D01*
X224753714Y-67564000D01*
X224971428Y-67564000D01*
X225116571Y-67636571D01*
X225189142Y-67709142D01*
X225261714Y-67854285D01*
X225261714Y-68434857D01*
X224463428Y-66185142D02*
X224463428Y-66910857D01*
X225189142Y-66983428D01*
X225116571Y-66910857D01*
X225044000Y-66765714D01*
X225044000Y-66402857D01*
X225116571Y-66257714D01*
X225189142Y-66185142D01*
X225334285Y-66112571D01*
X225697142Y-66112571D01*
X225842285Y-66185142D01*
X225914857Y-66257714D01*
X225987428Y-66402857D01*
X225987428Y-66765714D01*
X225914857Y-66910857D01*
X225842285Y-66983428D01*
G04 #@! TO.C,P2*
D10*
X195634428Y-68688857D02*
X194110428Y-68688857D01*
X194110428Y-68108285D01*
X194183000Y-67963142D01*
X194255571Y-67890571D01*
X194400714Y-67818000D01*
X194618428Y-67818000D01*
X194763571Y-67890571D01*
X194836142Y-67963142D01*
X194908714Y-68108285D01*
X194908714Y-68688857D01*
X194255571Y-67237428D02*
X194183000Y-67164857D01*
X194110428Y-67019714D01*
X194110428Y-66656857D01*
X194183000Y-66511714D01*
X194255571Y-66439142D01*
X194400714Y-66366571D01*
X194545857Y-66366571D01*
X194763571Y-66439142D01*
X195634428Y-67310000D01*
X195634428Y-66366571D01*
G04 #@! TD*
M02*
