G04 #@! TF.GenerationSoftware,KiCad,Pcbnew,5.0.2-bee76a0~70~ubuntu18.04.1*
G04 #@! TF.CreationDate,2020-04-21T07:34:43-07:00*
G04 #@! TF.ProjectId,hallway_backlight,68616c6c-7761-4795-9f62-61636b6c6967,1.0*
G04 #@! TF.SameCoordinates,Original*
G04 #@! TF.FileFunction,Soldermask,Bot*
G04 #@! TF.FilePolarity,Negative*
%FSLAX46Y46*%
G04 Gerber Fmt 4.6, Leading zero omitted, Abs format (unit mm)*
G04 Created by KiCad (PCBNEW 5.0.2-bee76a0~70~ubuntu18.04.1) date Tue 21 Apr 2020 07:34:43 AM PDT*
%MOMM*%
%LPD*%
G01*
G04 APERTURE LIST*
%ADD10C,0.150000*%
G04 APERTURE END LIST*
D10*
G36*
X127923706Y-284965118D02*
X128185425Y-285017177D01*
X128491777Y-285144072D01*
X128925025Y-285323529D01*
X129590652Y-285768287D01*
X130156713Y-286334348D01*
X130601471Y-286999975D01*
X130907823Y-287739576D01*
X131064000Y-288524729D01*
X131064000Y-289325271D01*
X130907823Y-290110424D01*
X130601471Y-290850025D01*
X130156713Y-291515652D01*
X129590652Y-292081713D01*
X128925025Y-292526471D01*
X128491777Y-292705928D01*
X128185425Y-292832823D01*
X127923706Y-292884882D01*
X127400271Y-292989000D01*
X126599729Y-292989000D01*
X126076294Y-292884882D01*
X125814575Y-292832823D01*
X125508223Y-292705928D01*
X125074975Y-292526471D01*
X124409348Y-292081713D01*
X123843287Y-291515652D01*
X123398529Y-290850025D01*
X123092177Y-290110424D01*
X122936000Y-289325271D01*
X122936000Y-288524729D01*
X123092177Y-287739576D01*
X123398529Y-286999975D01*
X123843287Y-286334348D01*
X124409348Y-285768287D01*
X125074975Y-285323529D01*
X125508223Y-285144072D01*
X125814575Y-285017177D01*
X126076294Y-284965118D01*
X126599729Y-284861000D01*
X127400271Y-284861000D01*
X127923706Y-284965118D01*
X127923706Y-284965118D01*
G37*
G36*
X107196512Y-62358888D02*
X107566310Y-62512063D01*
X107566313Y-62512065D01*
X107899125Y-62734443D01*
X108182157Y-63017475D01*
X108404535Y-63350287D01*
X108404537Y-63350290D01*
X108557712Y-63720088D01*
X108635800Y-64112664D01*
X108635800Y-64512936D01*
X108557712Y-64905512D01*
X108404537Y-65275310D01*
X108404535Y-65275313D01*
X108182157Y-65608125D01*
X107899125Y-65891157D01*
X107566313Y-66113535D01*
X107566310Y-66113537D01*
X107196512Y-66266712D01*
X106803936Y-66344800D01*
X106403664Y-66344800D01*
X106011088Y-66266712D01*
X105641290Y-66113537D01*
X105641287Y-66113535D01*
X105308475Y-65891157D01*
X105025443Y-65608125D01*
X104803065Y-65275313D01*
X104803063Y-65275310D01*
X104649888Y-64905512D01*
X104571800Y-64512936D01*
X104571800Y-64112664D01*
X104649888Y-63720088D01*
X104803063Y-63350290D01*
X104803065Y-63350287D01*
X105025443Y-63017475D01*
X105308475Y-62734443D01*
X105641287Y-62512065D01*
X105641290Y-62512063D01*
X106011088Y-62358888D01*
X106403664Y-62280800D01*
X106803936Y-62280800D01*
X107196512Y-62358888D01*
X107196512Y-62358888D01*
G37*
G36*
X127923706Y-56365118D02*
X128185425Y-56417177D01*
X128491777Y-56544072D01*
X128925025Y-56723529D01*
X129590652Y-57168287D01*
X130156713Y-57734348D01*
X130601471Y-58399975D01*
X130739900Y-58734173D01*
X130866496Y-59039802D01*
X130907823Y-59139576D01*
X131064000Y-59924729D01*
X131064000Y-60725271D01*
X131011472Y-60989347D01*
X130907823Y-61510425D01*
X130863373Y-61617737D01*
X130601471Y-62250025D01*
X130156713Y-62915652D01*
X129590652Y-63481713D01*
X128925025Y-63926471D01*
X128491777Y-64105928D01*
X128185425Y-64232823D01*
X127923706Y-64284882D01*
X127400271Y-64389000D01*
X126599729Y-64389000D01*
X126076294Y-64284882D01*
X125814575Y-64232823D01*
X125508223Y-64105928D01*
X125074975Y-63926471D01*
X124409348Y-63481713D01*
X123843287Y-62915652D01*
X123398529Y-62250025D01*
X123136627Y-61617737D01*
X123092177Y-61510425D01*
X122988528Y-60989347D01*
X122936000Y-60725271D01*
X122936000Y-59924729D01*
X123092177Y-59139576D01*
X123133505Y-59039802D01*
X123260100Y-58734173D01*
X123398529Y-58399975D01*
X123843287Y-57734348D01*
X124409348Y-57168287D01*
X125074975Y-56723529D01*
X125508223Y-56544072D01*
X125814575Y-56417177D01*
X126076294Y-56365118D01*
X126599729Y-56261000D01*
X127400271Y-56261000D01*
X127923706Y-56365118D01*
X127923706Y-56365118D01*
G37*
G36*
X114255601Y-57618849D02*
X114671626Y-57791172D01*
X115046043Y-58041350D01*
X115364450Y-58359757D01*
X115614628Y-58734174D01*
X115786951Y-59150199D01*
X115874800Y-59591847D01*
X115874800Y-60042153D01*
X115786951Y-60483801D01*
X115614628Y-60899826D01*
X115364450Y-61274243D01*
X115046043Y-61592650D01*
X114671626Y-61842828D01*
X114255601Y-62015151D01*
X113813953Y-62103000D01*
X113363647Y-62103000D01*
X112921999Y-62015151D01*
X112505974Y-61842828D01*
X112131557Y-61592650D01*
X111813150Y-61274243D01*
X111562972Y-60899826D01*
X111390649Y-60483801D01*
X111302800Y-60042153D01*
X111302800Y-59591847D01*
X111390649Y-59150199D01*
X111562972Y-58734174D01*
X111813150Y-58359757D01*
X112131557Y-58041350D01*
X112505974Y-57791172D01*
X112921999Y-57618849D01*
X113363647Y-57531000D01*
X113813953Y-57531000D01*
X114255601Y-57618849D01*
X114255601Y-57618849D01*
G37*
G36*
X108187112Y-57863088D02*
X108556910Y-58016263D01*
X108556913Y-58016265D01*
X108889725Y-58238643D01*
X109172757Y-58521675D01*
X109314744Y-58734174D01*
X109395137Y-58854490D01*
X109548312Y-59224288D01*
X109626400Y-59616864D01*
X109626400Y-60017136D01*
X109548312Y-60409712D01*
X109395137Y-60779510D01*
X109395135Y-60779513D01*
X109172757Y-61112325D01*
X108889725Y-61395357D01*
X108594455Y-61592650D01*
X108556910Y-61617737D01*
X108187112Y-61770912D01*
X107794536Y-61849000D01*
X107394264Y-61849000D01*
X107001688Y-61770912D01*
X106631890Y-61617737D01*
X106594345Y-61592650D01*
X106299075Y-61395357D01*
X106016043Y-61112325D01*
X105793665Y-60779513D01*
X105793663Y-60779510D01*
X105737915Y-60644921D01*
X105726364Y-60623310D01*
X105710819Y-60604368D01*
X105691877Y-60588823D01*
X105670266Y-60577271D01*
X105646817Y-60570158D01*
X105622430Y-60567756D01*
X105598044Y-60570158D01*
X105574595Y-60577271D01*
X105552984Y-60588822D01*
X105534042Y-60604368D01*
X105374398Y-60764012D01*
X105374395Y-60764014D01*
X105174708Y-60897441D01*
X105174707Y-60897442D01*
X105174706Y-60897442D01*
X104952827Y-60989347D01*
X104717282Y-61036200D01*
X104477118Y-61036200D01*
X104241573Y-60989347D01*
X104019694Y-60897442D01*
X104019693Y-60897442D01*
X104019692Y-60897441D01*
X103820005Y-60764014D01*
X103820002Y-60764012D01*
X103650188Y-60594198D01*
X103516758Y-60394506D01*
X103424853Y-60172627D01*
X103378000Y-59937082D01*
X103378000Y-59696918D01*
X103424853Y-59461373D01*
X103516758Y-59239494D01*
X103650188Y-59039802D01*
X103820002Y-58869988D01*
X103843201Y-58854487D01*
X104019692Y-58736559D01*
X104241573Y-58644653D01*
X104477118Y-58597800D01*
X104717282Y-58597800D01*
X104952827Y-58644653D01*
X105174708Y-58736559D01*
X105351199Y-58854487D01*
X105374398Y-58869988D01*
X105534042Y-59029632D01*
X105552984Y-59045178D01*
X105574595Y-59056729D01*
X105598044Y-59063842D01*
X105622430Y-59066244D01*
X105646816Y-59063842D01*
X105670265Y-59056729D01*
X105691876Y-59045178D01*
X105710818Y-59029632D01*
X105726364Y-59010690D01*
X105737915Y-58989079D01*
X105793663Y-58854490D01*
X105874056Y-58734174D01*
X106016043Y-58521675D01*
X106299075Y-58238643D01*
X106631887Y-58016265D01*
X106631890Y-58016263D01*
X107001688Y-57863088D01*
X107394264Y-57785000D01*
X107794536Y-57785000D01*
X108187112Y-57863088D01*
X108187112Y-57863088D01*
G37*
G36*
X107196512Y-53367288D02*
X107566310Y-53520463D01*
X107566313Y-53520465D01*
X107899125Y-53742843D01*
X108182157Y-54025875D01*
X108404535Y-54358687D01*
X108404537Y-54358690D01*
X108557712Y-54728488D01*
X108635800Y-55121064D01*
X108635800Y-55521336D01*
X108557712Y-55913912D01*
X108404537Y-56283710D01*
X108404535Y-56283713D01*
X108182157Y-56616525D01*
X107899125Y-56899557D01*
X107566313Y-57121935D01*
X107566310Y-57121937D01*
X107196512Y-57275112D01*
X106803936Y-57353200D01*
X106403664Y-57353200D01*
X106011088Y-57275112D01*
X105641290Y-57121937D01*
X105641287Y-57121935D01*
X105308475Y-56899557D01*
X105025443Y-56616525D01*
X104803065Y-56283713D01*
X104803063Y-56283710D01*
X104649888Y-55913912D01*
X104571800Y-55521336D01*
X104571800Y-55121064D01*
X104649888Y-54728488D01*
X104803063Y-54358690D01*
X104803065Y-54358687D01*
X105025443Y-54025875D01*
X105308475Y-53742843D01*
X105641287Y-53520465D01*
X105641290Y-53520463D01*
X106011088Y-53367288D01*
X106403664Y-53289200D01*
X106803936Y-53289200D01*
X107196512Y-53367288D01*
X107196512Y-53367288D01*
G37*
M02*
