G04 #@! TF.GenerationSoftware,KiCad,Pcbnew,5.0.2-bee76a0~70~ubuntu18.04.1*
G04 #@! TF.CreationDate,2020-04-21T07:34:43-07:00*
G04 #@! TF.ProjectId,hallway_backlight,68616c6c-7761-4795-9f62-61636b6c6967,1.0*
G04 #@! TF.SameCoordinates,Original*
G04 #@! TF.FileFunction,Copper,L2,Bot*
G04 #@! TF.FilePolarity,Positive*
%FSLAX46Y46*%
G04 Gerber Fmt 4.6, Leading zero omitted, Abs format (unit mm)*
G04 Created by KiCad (PCBNEW 5.0.2-bee76a0~70~ubuntu18.04.1) date Tue 21 Apr 2020 07:34:43 AM PDT*
%MOMM*%
%LPD*%
G01*
G04 APERTURE LIST*
G04 #@! TA.AperFunction,ComponentPad*
%ADD10C,1.930400*%
G04 #@! TD*
G04 #@! TA.AperFunction,ComponentPad*
%ADD11C,3.556000*%
G04 #@! TD*
G04 #@! TA.AperFunction,ComponentPad*
%ADD12C,4.064000*%
G04 #@! TD*
G04 #@! TA.AperFunction,ComponentPad*
%ADD13C,7.620000*%
G04 #@! TD*
G04 #@! TA.AperFunction,ViaPad*
%ADD14C,1.524000*%
G04 #@! TD*
G04 #@! TA.AperFunction,Conductor*
%ADD15C,1.016000*%
G04 #@! TD*
G04 #@! TA.AperFunction,Conductor*
%ADD16C,0.254000*%
G04 #@! TD*
%ADD17C,0.254000*%
G04 APERTURE END LIST*
D10*
G04 #@! TO.P,P1,*
G04 #@! TO.N,*
X104597200Y-59817000D03*
D11*
G04 #@! TO.P,P1,2*
G04 #@! TO.N,GND*
X107594400Y-59817000D03*
D12*
G04 #@! TO.P,P1,1*
G04 #@! TO.N,/VIN*
X113588800Y-59817000D03*
D11*
G04 #@! TO.P,P1,*
G04 #@! TO.N,*
X106603800Y-64312800D03*
X106603800Y-55321200D03*
G04 #@! TD*
D13*
G04 #@! TO.P,1/4-20,*
G04 #@! TO.N,*
X127000000Y-60325000D03*
G04 #@! TD*
G04 #@! TO.P,1/4-20,*
G04 #@! TO.N,*
X127000000Y-288925000D03*
G04 #@! TD*
D14*
G04 #@! TO.N,GND*
X113665000Y-273050000D03*
X114935000Y-171450000D03*
G04 #@! TD*
D15*
G04 #@! TO.N,GND*
X113665000Y-170180000D02*
X113665000Y-273050000D01*
X113665000Y-65887600D02*
X107594400Y-59817000D01*
X113665000Y-170180000D02*
X113665000Y-65887600D01*
X114935000Y-171450000D02*
X113665000Y-170180000D01*
G04 #@! TD*
D16*
G04 #@! TO.N,GND*
X102425500Y-51625500D02*
X151574500Y-51625500D01*
X102425500Y-51866800D02*
X151574500Y-51866800D01*
X102425500Y-52108100D02*
X151574500Y-52108100D01*
X102425500Y-52349400D02*
X151574500Y-52349400D01*
X102425500Y-52590700D02*
X151574500Y-52590700D01*
X102425500Y-52832000D02*
X151574500Y-52832000D01*
X102425500Y-53073300D02*
X105725240Y-53073300D01*
X107482361Y-53073300D02*
X151574500Y-53073300D01*
X102425500Y-53314600D02*
X105197904Y-53314600D01*
X108009696Y-53314600D02*
X151574500Y-53314600D01*
X102425500Y-53555900D02*
X104956604Y-53555900D01*
X108250996Y-53555900D02*
X151574500Y-53555900D01*
X102425500Y-53797200D02*
X104715304Y-53797200D01*
X108492296Y-53797200D02*
X151574500Y-53797200D01*
X102425500Y-54038500D02*
X104523301Y-54038500D01*
X108684300Y-54038500D02*
X151574500Y-54038500D01*
X102425500Y-54279800D02*
X104423351Y-54279800D01*
X108784250Y-54279800D02*
X151574500Y-54279800D01*
X102425500Y-54521100D02*
X104323401Y-54521100D01*
X108884200Y-54521100D02*
X151574500Y-54521100D01*
X102425500Y-54762400D02*
X104223451Y-54762400D01*
X108984150Y-54762400D02*
X151574500Y-54762400D01*
X102425500Y-55003700D02*
X104190800Y-55003700D01*
X109016800Y-55003700D02*
X151574500Y-55003700D01*
X102425500Y-55245000D02*
X104190800Y-55245000D01*
X109016800Y-55245000D02*
X151574500Y-55245000D01*
X102425500Y-55486300D02*
X104190800Y-55486300D01*
X109016800Y-55486300D02*
X151574500Y-55486300D01*
X102425500Y-55727600D02*
X104190800Y-55727600D01*
X109016800Y-55727600D02*
X151574500Y-55727600D01*
X102425500Y-55968900D02*
X104260274Y-55968900D01*
X108947325Y-55968900D02*
X125901211Y-55968900D01*
X128098790Y-55968900D02*
X151574500Y-55968900D01*
X102425500Y-56210200D02*
X104360224Y-56210200D01*
X108847375Y-56210200D02*
X125318662Y-56210200D01*
X128681339Y-56210200D02*
X151574500Y-56210200D01*
X102425500Y-56451500D02*
X104460173Y-56451500D01*
X108747426Y-56451500D02*
X124736112Y-56451500D01*
X129263889Y-56451500D02*
X151574500Y-56451500D01*
X102425500Y-56692800D02*
X104562904Y-56692800D01*
X108644696Y-56692800D02*
X124346021Y-56692800D01*
X129653979Y-56692800D02*
X151574500Y-56692800D01*
X102425500Y-56934100D02*
X104804204Y-56934100D01*
X108403396Y-56934100D02*
X124104721Y-56934100D01*
X129895279Y-56934100D02*
X151574500Y-56934100D01*
X102425500Y-57175400D02*
X105045504Y-57175400D01*
X108162096Y-57175400D02*
X112996980Y-57175400D01*
X114180621Y-57175400D02*
X123863421Y-57175400D01*
X130136579Y-57175400D02*
X151574500Y-57175400D01*
X102425500Y-57416700D02*
X105357313Y-57416700D01*
X107850286Y-57416700D02*
X112414430Y-57416700D01*
X114763171Y-57416700D02*
X123622121Y-57416700D01*
X130377879Y-57416700D02*
X151574500Y-57416700D01*
X102425500Y-57658000D02*
X105939862Y-57658000D01*
X107630573Y-57658000D02*
X111976092Y-57658000D01*
X115201508Y-57658000D02*
X123380821Y-57658000D01*
X130619179Y-57658000D02*
X151574500Y-57658000D01*
X102425500Y-57899300D02*
X106559793Y-57899300D01*
X108593038Y-57899300D02*
X111734792Y-57899300D01*
X115442808Y-57899300D02*
X123193525Y-57899300D01*
X130806476Y-57899300D02*
X151574500Y-57899300D01*
X102425500Y-58140600D02*
X106234976Y-58140600D01*
X108953825Y-58140600D02*
X111493492Y-58140600D01*
X115684108Y-58140600D02*
X123093575Y-58140600D01*
X130906426Y-58140600D02*
X151574500Y-58140600D01*
X102425500Y-58381900D02*
X103880314Y-58381900D01*
X105314087Y-58381900D02*
X106029692Y-58381900D01*
X106141339Y-58381900D02*
X106177261Y-58381900D01*
X109011539Y-58381900D02*
X109047461Y-58381900D01*
X109159109Y-58381900D02*
X111296498Y-58381900D01*
X115881103Y-58381900D02*
X122993626Y-58381900D01*
X131006375Y-58381900D02*
X151574500Y-58381900D01*
X102425500Y-58623200D02*
X103527975Y-58623200D01*
X105666425Y-58623200D02*
X105765310Y-58623200D01*
X106382639Y-58623200D02*
X106418561Y-58623200D01*
X108770239Y-58623200D02*
X108806161Y-58623200D01*
X109442720Y-58623200D02*
X111196548Y-58623200D01*
X115981053Y-58623200D02*
X122893676Y-58623200D01*
X131106325Y-58623200D02*
X151574500Y-58623200D01*
X102425500Y-58864500D02*
X103286675Y-58864500D01*
X106623939Y-58864500D02*
X106659861Y-58864500D01*
X108528939Y-58864500D02*
X108564861Y-58864500D01*
X109542931Y-58864500D02*
X111096599Y-58864500D01*
X116081002Y-58864500D02*
X122793726Y-58864500D01*
X131206275Y-58864500D02*
X151574500Y-58864500D01*
X102425500Y-59105800D02*
X103159745Y-59105800D01*
X106865239Y-59105800D02*
X106901161Y-59105800D01*
X108287639Y-59105800D02*
X108323561Y-59105800D01*
X109633537Y-59105800D02*
X110996649Y-59105800D01*
X116180952Y-59105800D02*
X122693776Y-59105800D01*
X131306225Y-59105800D02*
X151574500Y-59105800D01*
X102425500Y-59347100D02*
X103059795Y-59347100D01*
X107106539Y-59347100D02*
X107142461Y-59347100D01*
X108046339Y-59347100D02*
X108082261Y-59347100D01*
X109724143Y-59347100D02*
X110921800Y-59347100D01*
X116255800Y-59347100D02*
X122593826Y-59347100D01*
X131406175Y-59347100D02*
X151574500Y-59347100D01*
X102425500Y-59588400D02*
X102997000Y-59588400D01*
X107347839Y-59588400D02*
X107383761Y-59588400D01*
X107805039Y-59588400D02*
X107840961Y-59588400D01*
X109762273Y-59588400D02*
X110921800Y-59588400D01*
X116255800Y-59588400D02*
X122555000Y-59588400D01*
X131445000Y-59588400D02*
X151574500Y-59588400D01*
X102425500Y-59829700D02*
X102997000Y-59829700D01*
X107563739Y-59829700D02*
X107625061Y-59829700D01*
X109754186Y-59829700D02*
X110921800Y-59829700D01*
X116255800Y-59829700D02*
X122555000Y-59829700D01*
X131445000Y-59829700D02*
X151574500Y-59829700D01*
X102425500Y-60071000D02*
X102997000Y-60071000D01*
X107322439Y-60071000D02*
X107358361Y-60071000D01*
X107830439Y-60071000D02*
X107866361Y-60071000D01*
X109746099Y-60071000D02*
X110921800Y-60071000D01*
X116255800Y-60071000D02*
X122555000Y-60071000D01*
X131445000Y-60071000D02*
X151574500Y-60071000D01*
X102425500Y-60312300D02*
X103070315Y-60312300D01*
X107081139Y-60312300D02*
X107117061Y-60312300D01*
X108071739Y-60312300D02*
X108107661Y-60312300D01*
X109738012Y-60312300D02*
X110921800Y-60312300D01*
X116255800Y-60312300D02*
X122555000Y-60312300D01*
X131445000Y-60312300D02*
X151574500Y-60312300D01*
X102425500Y-60553600D02*
X103170265Y-60553600D01*
X106839839Y-60553600D02*
X106875761Y-60553600D01*
X108313039Y-60553600D02*
X108348961Y-60553600D01*
X109631072Y-60553600D02*
X111007169Y-60553600D01*
X116170430Y-60553600D02*
X122555000Y-60553600D01*
X131445000Y-60553600D02*
X151574500Y-60553600D01*
X102425500Y-60794900D02*
X103312075Y-60794900D01*
X106598539Y-60794900D02*
X106634461Y-60794900D01*
X108554339Y-60794900D02*
X108590261Y-60794900D01*
X109521515Y-60794900D02*
X111107119Y-60794900D01*
X116070480Y-60794900D02*
X122555000Y-60794900D01*
X131445000Y-60794900D02*
X151574500Y-60794900D01*
X102425500Y-61036200D02*
X103553375Y-61036200D01*
X105641025Y-61036200D02*
X105763051Y-61036200D01*
X106357239Y-61036200D02*
X106393161Y-61036200D01*
X108795639Y-61036200D02*
X108831561Y-61036200D01*
X109411958Y-61036200D02*
X111207068Y-61036200D01*
X115970531Y-61036200D02*
X122555000Y-61036200D01*
X131445000Y-61036200D02*
X151574500Y-61036200D01*
X102425500Y-61277500D02*
X103941634Y-61277500D01*
X105252765Y-61277500D02*
X106067180Y-61277500D01*
X106115939Y-61277500D02*
X106151861Y-61277500D01*
X109036939Y-61277500D02*
X109072861Y-61277500D01*
X109121619Y-61277500D02*
X111307018Y-61277500D01*
X115870581Y-61277500D02*
X122583304Y-61277500D01*
X131416695Y-61277500D02*
X151574500Y-61277500D01*
X102425500Y-61518800D02*
X106252185Y-61518800D01*
X108936614Y-61518800D02*
X111518892Y-61518800D01*
X115658708Y-61518800D02*
X122683254Y-61518800D01*
X131316745Y-61518800D02*
X151574500Y-61518800D01*
X102425500Y-61760100D02*
X106651705Y-61760100D01*
X108561362Y-61760100D02*
X111760192Y-61760100D01*
X115417408Y-61760100D02*
X122783204Y-61760100D01*
X131216795Y-61760100D02*
X151574500Y-61760100D01*
X102425500Y-62001400D02*
X105878542Y-62001400D01*
X107329060Y-62001400D02*
X112001492Y-62001400D01*
X115176108Y-62001400D02*
X122883154Y-62001400D01*
X131116845Y-62001400D02*
X151574500Y-62001400D01*
X102425500Y-62242700D02*
X105295993Y-62242700D01*
X107911608Y-62242700D02*
X112475750Y-62242700D01*
X114701849Y-62242700D02*
X122983104Y-62242700D01*
X131016895Y-62242700D02*
X151574500Y-62242700D01*
X102425500Y-62484000D02*
X105020104Y-62484000D01*
X108187496Y-62484000D02*
X123083053Y-62484000D01*
X130916946Y-62484000D02*
X151574500Y-62484000D01*
X102425500Y-62725300D02*
X104778804Y-62725300D01*
X108428796Y-62725300D02*
X123183003Y-62725300D01*
X130816996Y-62725300D02*
X151574500Y-62725300D01*
X102425500Y-62966600D02*
X104549603Y-62966600D01*
X108657998Y-62966600D02*
X123355421Y-62966600D01*
X130644579Y-62966600D02*
X151574500Y-62966600D01*
X102425500Y-63207900D02*
X104449653Y-63207900D01*
X108757948Y-63207900D02*
X123596721Y-63207900D01*
X130403279Y-63207900D02*
X151574500Y-63207900D01*
X102425500Y-63449200D02*
X104349703Y-63449200D01*
X108857898Y-63449200D02*
X123838021Y-63449200D01*
X130161979Y-63449200D02*
X151574500Y-63449200D01*
X102425500Y-63690500D02*
X104249754Y-63690500D01*
X108957847Y-63690500D02*
X124079321Y-63690500D01*
X129920679Y-63690500D02*
X151574500Y-63690500D01*
X102425500Y-63931800D02*
X104190800Y-63931800D01*
X109016800Y-63931800D02*
X124320621Y-63931800D01*
X129679379Y-63931800D02*
X151574500Y-63931800D01*
X102425500Y-64173100D02*
X104190800Y-64173100D01*
X109016800Y-64173100D02*
X124674790Y-64173100D01*
X129325209Y-64173100D02*
X151574500Y-64173100D01*
X102425500Y-64414400D02*
X104190800Y-64414400D01*
X109016800Y-64414400D02*
X125257340Y-64414400D01*
X128742659Y-64414400D02*
X151574500Y-64414400D01*
X102425500Y-64655700D02*
X104190800Y-64655700D01*
X109016800Y-64655700D02*
X125839889Y-64655700D01*
X128160110Y-64655700D02*
X151574500Y-64655700D01*
X102425500Y-64897000D02*
X104233971Y-64897000D01*
X108973628Y-64897000D02*
X151574500Y-64897000D01*
X102425500Y-65138300D02*
X104333921Y-65138300D01*
X108873678Y-65138300D02*
X151574500Y-65138300D01*
X102425500Y-65379600D02*
X104433871Y-65379600D01*
X108773728Y-65379600D02*
X151574500Y-65379600D01*
X102425500Y-65620900D02*
X104533821Y-65620900D01*
X108673778Y-65620900D02*
X151574500Y-65620900D01*
X102425500Y-65862200D02*
X104740704Y-65862200D01*
X108466896Y-65862200D02*
X151574500Y-65862200D01*
X102425500Y-66103500D02*
X104982004Y-66103500D01*
X108225596Y-66103500D02*
X151574500Y-66103500D01*
X102425500Y-66344800D02*
X105223304Y-66344800D01*
X107984296Y-66344800D02*
X151574500Y-66344800D01*
X102425500Y-66586100D02*
X105786559Y-66586100D01*
X107421040Y-66586100D02*
X151574500Y-66586100D01*
X102425500Y-66827400D02*
X151574500Y-66827400D01*
X102425500Y-67068700D02*
X151574500Y-67068700D01*
X102425500Y-67310000D02*
X151574500Y-67310000D01*
X102425500Y-67551300D02*
X151574500Y-67551300D01*
X102425500Y-67792600D02*
X151574500Y-67792600D01*
X102425500Y-68033900D02*
X151574500Y-68033900D01*
X102425500Y-68275200D02*
X151574500Y-68275200D01*
X102425500Y-68516500D02*
X151574500Y-68516500D01*
X102425500Y-68757800D02*
X151574500Y-68757800D01*
X102425500Y-68999100D02*
X151574500Y-68999100D01*
X102425500Y-69240400D02*
X151574500Y-69240400D01*
X102425500Y-69481700D02*
X151574500Y-69481700D01*
X102425500Y-69723000D02*
X151574500Y-69723000D01*
X102425500Y-69964300D02*
X151574500Y-69964300D01*
X102425500Y-70205600D02*
X151574500Y-70205600D01*
X102425500Y-70446900D02*
X151574500Y-70446900D01*
X102425500Y-70688200D02*
X151574500Y-70688200D01*
X102425500Y-70929500D02*
X151574500Y-70929500D01*
X102425500Y-71170800D02*
X151574500Y-71170800D01*
X102425500Y-71412100D02*
X151574500Y-71412100D01*
X102425500Y-71653400D02*
X151574500Y-71653400D01*
X102425500Y-71894700D02*
X151574500Y-71894700D01*
X102425500Y-72136000D02*
X151574500Y-72136000D01*
X102425500Y-72377300D02*
X151574500Y-72377300D01*
X102425500Y-72618600D02*
X151574500Y-72618600D01*
X102425500Y-72859900D02*
X151574500Y-72859900D01*
X102425500Y-73101200D02*
X151574500Y-73101200D01*
X102425500Y-73342500D02*
X151574500Y-73342500D01*
X102425500Y-73583800D02*
X151574500Y-73583800D01*
X102425500Y-73825100D02*
X151574500Y-73825100D01*
X102425500Y-74066400D02*
X151574500Y-74066400D01*
X102425500Y-74307700D02*
X151574500Y-74307700D01*
X102425500Y-74549000D02*
X151574500Y-74549000D01*
X102425500Y-74790300D02*
X151574500Y-74790300D01*
X102425500Y-75031600D02*
X151574500Y-75031600D01*
X102425500Y-75272900D02*
X151574500Y-75272900D01*
X102425500Y-75514200D02*
X151574500Y-75514200D01*
X102425500Y-75755500D02*
X151574500Y-75755500D01*
X102425500Y-75996800D02*
X151574500Y-75996800D01*
X102425500Y-76238100D02*
X151574500Y-76238100D01*
X102425500Y-76479400D02*
X151574500Y-76479400D01*
X102425500Y-76720700D02*
X151574500Y-76720700D01*
X102425500Y-76962000D02*
X151574500Y-76962000D01*
X102425500Y-77203300D02*
X151574500Y-77203300D01*
X102425500Y-77444600D02*
X151574500Y-77444600D01*
X102425500Y-77685900D02*
X151574500Y-77685900D01*
X102425500Y-77927200D02*
X151574500Y-77927200D01*
X102425500Y-78168500D02*
X151574500Y-78168500D01*
X102425500Y-78409800D02*
X151574500Y-78409800D01*
X102425500Y-78651100D02*
X151574500Y-78651100D01*
X102425500Y-78892400D02*
X151574500Y-78892400D01*
X102425500Y-79133700D02*
X151574500Y-79133700D01*
X102425500Y-79375000D02*
X151574500Y-79375000D01*
X102425500Y-79616300D02*
X151574500Y-79616300D01*
X102425500Y-79857600D02*
X151574500Y-79857600D01*
X102425500Y-80098900D02*
X151574500Y-80098900D01*
X102425500Y-80340200D02*
X151574500Y-80340200D01*
X102425500Y-80581500D02*
X151574500Y-80581500D01*
X102425500Y-80822800D02*
X151574500Y-80822800D01*
X102425500Y-81064100D02*
X151574500Y-81064100D01*
X102425500Y-81305400D02*
X151574500Y-81305400D01*
X102425500Y-81546700D02*
X151574500Y-81546700D01*
X102425500Y-81788000D02*
X151574500Y-81788000D01*
X102425500Y-82029300D02*
X151574500Y-82029300D01*
X102425500Y-82270600D02*
X151574500Y-82270600D01*
X102425500Y-82511900D02*
X151574500Y-82511900D01*
X102425500Y-82753200D02*
X151574500Y-82753200D01*
X102425500Y-82994500D02*
X151574500Y-82994500D01*
X102425500Y-83235800D02*
X151574500Y-83235800D01*
X102425500Y-83477100D02*
X151574500Y-83477100D01*
X102425500Y-83718400D02*
X151574500Y-83718400D01*
X102425500Y-83959700D02*
X151574500Y-83959700D01*
X102425500Y-84201000D02*
X151574500Y-84201000D01*
X102425500Y-84442300D02*
X151574500Y-84442300D01*
X102425500Y-84683600D02*
X151574500Y-84683600D01*
X102425500Y-84924900D02*
X151574500Y-84924900D01*
X102425500Y-85166200D02*
X151574500Y-85166200D01*
X102425500Y-85407500D02*
X151574500Y-85407500D01*
X102425500Y-85648800D02*
X151574500Y-85648800D01*
X102425500Y-85890100D02*
X151574500Y-85890100D01*
X102425500Y-86131400D02*
X151574500Y-86131400D01*
X102425500Y-86372700D02*
X151574500Y-86372700D01*
X102425500Y-86614000D02*
X151574500Y-86614000D01*
X102425500Y-86855300D02*
X151574500Y-86855300D01*
X102425500Y-87096600D02*
X151574500Y-87096600D01*
X102425500Y-87337900D02*
X151574500Y-87337900D01*
X102425500Y-87579200D02*
X151574500Y-87579200D01*
X102425500Y-87820500D02*
X151574500Y-87820500D01*
X102425500Y-88061800D02*
X151574500Y-88061800D01*
X102425500Y-88303100D02*
X151574500Y-88303100D01*
X102425500Y-88544400D02*
X151574500Y-88544400D01*
X102425500Y-88785700D02*
X151574500Y-88785700D01*
X102425500Y-89027000D02*
X151574500Y-89027000D01*
X102425500Y-89268300D02*
X151574500Y-89268300D01*
X102425500Y-89509600D02*
X151574500Y-89509600D01*
X102425500Y-89750900D02*
X151574500Y-89750900D01*
X102425500Y-89992200D02*
X151574500Y-89992200D01*
X102425500Y-90233500D02*
X151574500Y-90233500D01*
X102425500Y-90474800D02*
X151574500Y-90474800D01*
X102425500Y-90716100D02*
X151574500Y-90716100D01*
X102425500Y-90957400D02*
X151574500Y-90957400D01*
X102425500Y-91198700D02*
X151574500Y-91198700D01*
X102425500Y-91440000D02*
X151574500Y-91440000D01*
X102425500Y-91681300D02*
X151574500Y-91681300D01*
X102425500Y-91922600D02*
X151574500Y-91922600D01*
X102425500Y-92163900D02*
X151574500Y-92163900D01*
X102425500Y-92405200D02*
X151574500Y-92405200D01*
X102425500Y-92646500D02*
X151574500Y-92646500D01*
X102425500Y-92887800D02*
X151574500Y-92887800D01*
X102425500Y-93129100D02*
X151574500Y-93129100D01*
X102425500Y-93370400D02*
X151574500Y-93370400D01*
X102425500Y-93611700D02*
X151574500Y-93611700D01*
X102425500Y-93853000D02*
X151574500Y-93853000D01*
X102425500Y-94094300D02*
X151574500Y-94094300D01*
X102425500Y-94335600D02*
X151574500Y-94335600D01*
X102425500Y-94576900D02*
X151574500Y-94576900D01*
X102425500Y-94818200D02*
X151574500Y-94818200D01*
X102425500Y-95059500D02*
X151574500Y-95059500D01*
X102425500Y-95300800D02*
X151574500Y-95300800D01*
X102425500Y-95542100D02*
X151574500Y-95542100D01*
X102425500Y-95783400D02*
X151574500Y-95783400D01*
X102425500Y-96024700D02*
X151574500Y-96024700D01*
X102425500Y-96266000D02*
X151574500Y-96266000D01*
X102425500Y-96507300D02*
X151574500Y-96507300D01*
X102425500Y-96748600D02*
X151574500Y-96748600D01*
X102425500Y-96989900D02*
X151574500Y-96989900D01*
X102425500Y-97231200D02*
X151574500Y-97231200D01*
X102425500Y-97472500D02*
X151574500Y-97472500D01*
X102425500Y-97713800D02*
X151574500Y-97713800D01*
X102425500Y-97955100D02*
X151574500Y-97955100D01*
X102425500Y-98196400D02*
X151574500Y-98196400D01*
X102425500Y-98437700D02*
X151574500Y-98437700D01*
X102425500Y-98679000D02*
X151574500Y-98679000D01*
X102425500Y-98920300D02*
X151574500Y-98920300D01*
X102425500Y-99161600D02*
X151574500Y-99161600D01*
X102425500Y-99402900D02*
X151574500Y-99402900D01*
X102425500Y-99644200D02*
X151574500Y-99644200D01*
X102425500Y-99885500D02*
X151574500Y-99885500D01*
X102425500Y-100126800D02*
X151574500Y-100126800D01*
X102425500Y-100368100D02*
X151574500Y-100368100D01*
X102425500Y-100609400D02*
X151574500Y-100609400D01*
X102425500Y-100850700D02*
X151574500Y-100850700D01*
X102425500Y-101092000D02*
X151574500Y-101092000D01*
X102425500Y-101333300D02*
X151574500Y-101333300D01*
X102425500Y-101574600D02*
X151574500Y-101574600D01*
X102425500Y-101815900D02*
X151574500Y-101815900D01*
X102425500Y-102057200D02*
X151574500Y-102057200D01*
X102425500Y-102298500D02*
X151574500Y-102298500D01*
X102425500Y-102539800D02*
X151574500Y-102539800D01*
X102425500Y-102781100D02*
X151574500Y-102781100D01*
X102425500Y-103022400D02*
X151574500Y-103022400D01*
X102425500Y-103263700D02*
X151574500Y-103263700D01*
X102425500Y-103505000D02*
X151574500Y-103505000D01*
X102425500Y-103746300D02*
X151574500Y-103746300D01*
X102425500Y-103987600D02*
X151574500Y-103987600D01*
X102425500Y-104228900D02*
X151574500Y-104228900D01*
X102425500Y-104470200D02*
X151574500Y-104470200D01*
X102425500Y-104711500D02*
X151574500Y-104711500D01*
X102425500Y-104952800D02*
X151574500Y-104952800D01*
X102425500Y-105194100D02*
X151574500Y-105194100D01*
X102425500Y-105435400D02*
X151574500Y-105435400D01*
X102425500Y-105676700D02*
X151574500Y-105676700D01*
X102425500Y-105918000D02*
X151574500Y-105918000D01*
X102425500Y-106159300D02*
X151574500Y-106159300D01*
X102425500Y-106400600D02*
X151574500Y-106400600D01*
X102425500Y-106641900D02*
X151574500Y-106641900D01*
X102425500Y-106883200D02*
X151574500Y-106883200D01*
X102425500Y-107124500D02*
X151574500Y-107124500D01*
X102425500Y-107365800D02*
X151574500Y-107365800D01*
X102425500Y-107607100D02*
X151574500Y-107607100D01*
X102425500Y-107848400D02*
X151574500Y-107848400D01*
X102425500Y-108089700D02*
X151574500Y-108089700D01*
X102425500Y-108331000D02*
X151574500Y-108331000D01*
X102425500Y-108572300D02*
X151574500Y-108572300D01*
X102425500Y-108813600D02*
X151574500Y-108813600D01*
X102425500Y-109054900D02*
X151574500Y-109054900D01*
X102425500Y-109296200D02*
X151574500Y-109296200D01*
X102425500Y-109537500D02*
X151574500Y-109537500D01*
X102425500Y-109778800D02*
X151574500Y-109778800D01*
X102425500Y-110020100D02*
X151574500Y-110020100D01*
X102425500Y-110261400D02*
X151574500Y-110261400D01*
X102425500Y-110502700D02*
X151574500Y-110502700D01*
X102425500Y-110744000D02*
X151574500Y-110744000D01*
X102425500Y-110985300D02*
X151574500Y-110985300D01*
X102425500Y-111226600D02*
X151574500Y-111226600D01*
X102425500Y-111467900D02*
X151574500Y-111467900D01*
X102425500Y-111709200D02*
X151574500Y-111709200D01*
X102425500Y-111950500D02*
X151574500Y-111950500D01*
X102425500Y-112191800D02*
X151574500Y-112191800D01*
X102425500Y-112433100D02*
X151574500Y-112433100D01*
X102425500Y-112674400D02*
X151574500Y-112674400D01*
X102425500Y-112915700D02*
X151574500Y-112915700D01*
X102425500Y-113157000D02*
X151574500Y-113157000D01*
X102425500Y-113398300D02*
X151574500Y-113398300D01*
X102425500Y-113639600D02*
X151574500Y-113639600D01*
X102425500Y-113880900D02*
X151574500Y-113880900D01*
X102425500Y-114122200D02*
X151574500Y-114122200D01*
X102425500Y-114363500D02*
X151574500Y-114363500D01*
X102425500Y-114604800D02*
X151574500Y-114604800D01*
X102425500Y-114846100D02*
X151574500Y-114846100D01*
X102425500Y-115087400D02*
X151574500Y-115087400D01*
X102425500Y-115328700D02*
X151574500Y-115328700D01*
X102425500Y-115570000D02*
X151574500Y-115570000D01*
X102425500Y-115811300D02*
X151574500Y-115811300D01*
X102425500Y-116052600D02*
X151574500Y-116052600D01*
X102425500Y-116293900D02*
X151574500Y-116293900D01*
X102425500Y-116535200D02*
X151574500Y-116535200D01*
X102425500Y-116776500D02*
X151574500Y-116776500D01*
X102425500Y-117017800D02*
X151574500Y-117017800D01*
X102425500Y-117259100D02*
X151574500Y-117259100D01*
X102425500Y-117500400D02*
X151574500Y-117500400D01*
X102425500Y-117741700D02*
X151574500Y-117741700D01*
X102425500Y-117983000D02*
X151574500Y-117983000D01*
X102425500Y-118224300D02*
X151574500Y-118224300D01*
X102425500Y-118465600D02*
X151574500Y-118465600D01*
X102425500Y-118706900D02*
X151574500Y-118706900D01*
X102425500Y-118948200D02*
X151574500Y-118948200D01*
X102425500Y-119189500D02*
X151574500Y-119189500D01*
X102425500Y-119430800D02*
X151574500Y-119430800D01*
X102425500Y-119672100D02*
X151574500Y-119672100D01*
X102425500Y-119913400D02*
X151574500Y-119913400D01*
X102425500Y-120154700D02*
X151574500Y-120154700D01*
X102425500Y-120396000D02*
X151574500Y-120396000D01*
X102425500Y-120637300D02*
X151574500Y-120637300D01*
X102425500Y-120878600D02*
X151574500Y-120878600D01*
X102425500Y-121119900D02*
X151574500Y-121119900D01*
X102425500Y-121361200D02*
X151574500Y-121361200D01*
X102425500Y-121602500D02*
X151574500Y-121602500D01*
X102425500Y-121843800D02*
X151574500Y-121843800D01*
X102425500Y-122085100D02*
X151574500Y-122085100D01*
X102425500Y-122326400D02*
X151574500Y-122326400D01*
X102425500Y-122567700D02*
X151574500Y-122567700D01*
X102425500Y-122809000D02*
X151574500Y-122809000D01*
X102425500Y-123050300D02*
X151574500Y-123050300D01*
X102425500Y-123291600D02*
X151574500Y-123291600D01*
X102425500Y-123532900D02*
X151574500Y-123532900D01*
X102425500Y-123774200D02*
X151574500Y-123774200D01*
X102425500Y-124015500D02*
X151574500Y-124015500D01*
X102425500Y-124256800D02*
X151574500Y-124256800D01*
X102425500Y-124498100D02*
X151574500Y-124498100D01*
X102425500Y-124739400D02*
X151574500Y-124739400D01*
X102425500Y-124980700D02*
X151574500Y-124980700D01*
X102425500Y-125222000D02*
X151574500Y-125222000D01*
X102425500Y-125463300D02*
X151574500Y-125463300D01*
X102425500Y-125704600D02*
X151574500Y-125704600D01*
X102425500Y-125945900D02*
X151574500Y-125945900D01*
X102425500Y-126187200D02*
X151574500Y-126187200D01*
X102425500Y-126428500D02*
X151574500Y-126428500D01*
X102425500Y-126669800D02*
X151574500Y-126669800D01*
X102425500Y-126911100D02*
X151574500Y-126911100D01*
X102425500Y-127152400D02*
X151574500Y-127152400D01*
X102425500Y-127393700D02*
X151574500Y-127393700D01*
X102425500Y-127635000D02*
X151574500Y-127635000D01*
X102425500Y-127876300D02*
X151574500Y-127876300D01*
X102425500Y-128117600D02*
X151574500Y-128117600D01*
X102425500Y-128358900D02*
X151574500Y-128358900D01*
X102425500Y-128600200D02*
X151574500Y-128600200D01*
X102425500Y-128841500D02*
X151574500Y-128841500D01*
X102425500Y-129082800D02*
X151574500Y-129082800D01*
X102425500Y-129324100D02*
X151574500Y-129324100D01*
X102425500Y-129565400D02*
X151574500Y-129565400D01*
X102425500Y-129806700D02*
X151574500Y-129806700D01*
X102425500Y-130048000D02*
X151574500Y-130048000D01*
X102425500Y-130289300D02*
X151574500Y-130289300D01*
X102425500Y-130530600D02*
X151574500Y-130530600D01*
X102425500Y-130771900D02*
X151574500Y-130771900D01*
X102425500Y-131013200D02*
X151574500Y-131013200D01*
X102425500Y-131254500D02*
X151574500Y-131254500D01*
X102425500Y-131495800D02*
X151574500Y-131495800D01*
X102425500Y-131737100D02*
X151574500Y-131737100D01*
X102425500Y-131978400D02*
X151574500Y-131978400D01*
X102425500Y-132219700D02*
X151574500Y-132219700D01*
X102425500Y-132461000D02*
X151574500Y-132461000D01*
X102425500Y-132702300D02*
X151574500Y-132702300D01*
X102425500Y-132943600D02*
X151574500Y-132943600D01*
X102425500Y-133184900D02*
X151574500Y-133184900D01*
X102425500Y-133426200D02*
X151574500Y-133426200D01*
X102425500Y-133667500D02*
X151574500Y-133667500D01*
X102425500Y-133908800D02*
X151574500Y-133908800D01*
X102425500Y-134150100D02*
X151574500Y-134150100D01*
X102425500Y-134391400D02*
X151574500Y-134391400D01*
X102425500Y-134632700D02*
X151574500Y-134632700D01*
X102425500Y-134874000D02*
X151574500Y-134874000D01*
X102425500Y-135115300D02*
X151574500Y-135115300D01*
X102425500Y-135356600D02*
X151574500Y-135356600D01*
X102425500Y-135597900D02*
X151574500Y-135597900D01*
X102425500Y-135839200D02*
X151574500Y-135839200D01*
X102425500Y-136080500D02*
X151574500Y-136080500D01*
X102425500Y-136321800D02*
X151574500Y-136321800D01*
X102425500Y-136563100D02*
X151574500Y-136563100D01*
X102425500Y-136804400D02*
X151574500Y-136804400D01*
X102425500Y-137045700D02*
X151574500Y-137045700D01*
X102425500Y-137287000D02*
X151574500Y-137287000D01*
X102425500Y-137528300D02*
X151574500Y-137528300D01*
X102425500Y-137769600D02*
X151574500Y-137769600D01*
X102425500Y-138010900D02*
X151574500Y-138010900D01*
X102425500Y-138252200D02*
X151574500Y-138252200D01*
X102425500Y-138493500D02*
X151574500Y-138493500D01*
X102425500Y-138734800D02*
X151574500Y-138734800D01*
X102425500Y-138976100D02*
X151574500Y-138976100D01*
X102425500Y-139217400D02*
X151574500Y-139217400D01*
X102425500Y-139458700D02*
X151574500Y-139458700D01*
X102425500Y-139700000D02*
X151574500Y-139700000D01*
X102425500Y-139941300D02*
X151574500Y-139941300D01*
X102425500Y-140182600D02*
X151574500Y-140182600D01*
X102425500Y-140423900D02*
X151574500Y-140423900D01*
X102425500Y-140665200D02*
X151574500Y-140665200D01*
X102425500Y-140906500D02*
X151574500Y-140906500D01*
X102425500Y-141147800D02*
X151574500Y-141147800D01*
X102425500Y-141389100D02*
X151574500Y-141389100D01*
X102425500Y-141630400D02*
X151574500Y-141630400D01*
X102425500Y-141871700D02*
X151574500Y-141871700D01*
X102425500Y-142113000D02*
X151574500Y-142113000D01*
X102425500Y-142354300D02*
X151574500Y-142354300D01*
X102425500Y-142595600D02*
X151574500Y-142595600D01*
X102425500Y-142836900D02*
X151574500Y-142836900D01*
X102425500Y-143078200D02*
X151574500Y-143078200D01*
X102425500Y-143319500D02*
X151574500Y-143319500D01*
X102425500Y-143560800D02*
X151574500Y-143560800D01*
X102425500Y-143802100D02*
X151574500Y-143802100D01*
X102425500Y-144043400D02*
X151574500Y-144043400D01*
X102425500Y-144284700D02*
X151574500Y-144284700D01*
X102425500Y-144526000D02*
X151574500Y-144526000D01*
X102425500Y-144767300D02*
X151574500Y-144767300D01*
X102425500Y-145008600D02*
X151574500Y-145008600D01*
X102425500Y-145249900D02*
X151574500Y-145249900D01*
X102425500Y-145491200D02*
X151574500Y-145491200D01*
X102425500Y-145732500D02*
X151574500Y-145732500D01*
X102425500Y-145973800D02*
X151574500Y-145973800D01*
X102425500Y-146215100D02*
X151574500Y-146215100D01*
X102425500Y-146456400D02*
X151574500Y-146456400D01*
X102425500Y-146697700D02*
X151574500Y-146697700D01*
X102425500Y-146939000D02*
X151574500Y-146939000D01*
X102425500Y-147180300D02*
X151574500Y-147180300D01*
X102425500Y-147421600D02*
X151574500Y-147421600D01*
X102425500Y-147662900D02*
X151574500Y-147662900D01*
X102425500Y-147904200D02*
X151574500Y-147904200D01*
X102425500Y-148145500D02*
X151574500Y-148145500D01*
X102425500Y-148386800D02*
X151574500Y-148386800D01*
X102425500Y-148628100D02*
X151574500Y-148628100D01*
X102425500Y-148869400D02*
X151574500Y-148869400D01*
X102425500Y-149110700D02*
X151574500Y-149110700D01*
X102425500Y-149352000D02*
X151574500Y-149352000D01*
X102425500Y-149593300D02*
X151574500Y-149593300D01*
X102425500Y-149834600D02*
X151574500Y-149834600D01*
X102425500Y-150075900D02*
X151574500Y-150075900D01*
X102425500Y-150317200D02*
X151574500Y-150317200D01*
X102425500Y-150558500D02*
X151574500Y-150558500D01*
X102425500Y-150799800D02*
X151574500Y-150799800D01*
X102425500Y-151041100D02*
X151574500Y-151041100D01*
X102425500Y-151282400D02*
X151574500Y-151282400D01*
X102425500Y-151523700D02*
X151574500Y-151523700D01*
X102425500Y-151765000D02*
X151574500Y-151765000D01*
X102425500Y-152006300D02*
X151574500Y-152006300D01*
X102425500Y-152247600D02*
X151574500Y-152247600D01*
X102425500Y-152488900D02*
X151574500Y-152488900D01*
X102425500Y-152730200D02*
X151574500Y-152730200D01*
X102425500Y-152971500D02*
X151574500Y-152971500D01*
X102425500Y-153212800D02*
X151574500Y-153212800D01*
X102425500Y-153454100D02*
X151574500Y-153454100D01*
X102425500Y-153695400D02*
X151574500Y-153695400D01*
X102425500Y-153936700D02*
X151574500Y-153936700D01*
X102425500Y-154178000D02*
X151574500Y-154178000D01*
X102425500Y-154419300D02*
X151574500Y-154419300D01*
X102425500Y-154660600D02*
X151574500Y-154660600D01*
X102425500Y-154901900D02*
X151574500Y-154901900D01*
X102425500Y-155143200D02*
X151574500Y-155143200D01*
X102425500Y-155384500D02*
X151574500Y-155384500D01*
X102425500Y-155625800D02*
X151574500Y-155625800D01*
X102425500Y-155867100D02*
X151574500Y-155867100D01*
X102425500Y-156108400D02*
X151574500Y-156108400D01*
X102425500Y-156349700D02*
X151574500Y-156349700D01*
X102425500Y-156591000D02*
X151574500Y-156591000D01*
X102425500Y-156832300D02*
X151574500Y-156832300D01*
X102425500Y-157073600D02*
X151574500Y-157073600D01*
X102425500Y-157314900D02*
X151574500Y-157314900D01*
X102425500Y-157556200D02*
X151574500Y-157556200D01*
X102425500Y-157797500D02*
X151574500Y-157797500D01*
X102425500Y-158038800D02*
X151574500Y-158038800D01*
X102425500Y-158280100D02*
X151574500Y-158280100D01*
X102425500Y-158521400D02*
X151574500Y-158521400D01*
X102425500Y-158762700D02*
X151574500Y-158762700D01*
X102425500Y-159004000D02*
X151574500Y-159004000D01*
X102425500Y-159245300D02*
X151574500Y-159245300D01*
X102425500Y-159486600D02*
X151574500Y-159486600D01*
X102425500Y-159727900D02*
X151574500Y-159727900D01*
X102425500Y-159969200D02*
X151574500Y-159969200D01*
X102425500Y-160210500D02*
X151574500Y-160210500D01*
X102425500Y-160451800D02*
X151574500Y-160451800D01*
X102425500Y-160693100D02*
X151574500Y-160693100D01*
X102425500Y-160934400D02*
X151574500Y-160934400D01*
X102425500Y-161175700D02*
X151574500Y-161175700D01*
X102425500Y-161417000D02*
X151574500Y-161417000D01*
X102425500Y-161658300D02*
X151574500Y-161658300D01*
X102425500Y-161899600D02*
X151574500Y-161899600D01*
X102425500Y-162140900D02*
X151574500Y-162140900D01*
X102425500Y-162382200D02*
X151574500Y-162382200D01*
X102425500Y-162623500D02*
X151574500Y-162623500D01*
X102425500Y-162864800D02*
X151574500Y-162864800D01*
X102425500Y-163106100D02*
X151574500Y-163106100D01*
X102425500Y-163347400D02*
X151574500Y-163347400D01*
X102425500Y-163588700D02*
X151574500Y-163588700D01*
X102425500Y-163830000D02*
X151574500Y-163830000D01*
X102425500Y-164071300D02*
X151574500Y-164071300D01*
X102425500Y-164312600D02*
X151574500Y-164312600D01*
X102425500Y-164553900D02*
X151574500Y-164553900D01*
X102425500Y-164795200D02*
X151574500Y-164795200D01*
X102425500Y-165036500D02*
X151574500Y-165036500D01*
X102425500Y-165277800D02*
X151574500Y-165277800D01*
X102425500Y-165519100D02*
X151574500Y-165519100D01*
X102425500Y-165760400D02*
X151574500Y-165760400D01*
X102425500Y-166001700D02*
X151574500Y-166001700D01*
X102425500Y-166243000D02*
X151574500Y-166243000D01*
X102425500Y-166484300D02*
X151574500Y-166484300D01*
X102425500Y-166725600D02*
X151574500Y-166725600D01*
X102425500Y-166966900D02*
X151574500Y-166966900D01*
X102425500Y-167208200D02*
X151574500Y-167208200D01*
X102425500Y-167449500D02*
X151574500Y-167449500D01*
X102425500Y-167690800D02*
X151574500Y-167690800D01*
X102425500Y-167932100D02*
X151574500Y-167932100D01*
X102425500Y-168173400D02*
X151574500Y-168173400D01*
X102425500Y-168414700D02*
X151574500Y-168414700D01*
X102425500Y-168656000D02*
X151574500Y-168656000D01*
X102425500Y-168897300D02*
X151574500Y-168897300D01*
X102425500Y-169138600D02*
X151574500Y-169138600D01*
X102425500Y-169379900D02*
X151574500Y-169379900D01*
X102425500Y-169621200D02*
X151574500Y-169621200D01*
X102425500Y-169862500D02*
X151574500Y-169862500D01*
X102425500Y-170103800D02*
X151574500Y-170103800D01*
X102425500Y-170345100D02*
X151574500Y-170345100D01*
X102425500Y-170586400D02*
X151574500Y-170586400D01*
X102425500Y-170827700D02*
X151574500Y-170827700D01*
X102425500Y-171069000D02*
X151574500Y-171069000D01*
X102425500Y-171310300D02*
X151574500Y-171310300D01*
X102425500Y-171551600D02*
X151574500Y-171551600D01*
X102425500Y-171792900D02*
X151574500Y-171792900D01*
X102425500Y-172034200D02*
X151574500Y-172034200D01*
X102425500Y-172275500D02*
X151574500Y-172275500D01*
X102425500Y-172516800D02*
X151574500Y-172516800D01*
X102425500Y-172758100D02*
X151574500Y-172758100D01*
X102425500Y-172999400D02*
X151574500Y-172999400D01*
X102425500Y-173240700D02*
X151574500Y-173240700D01*
X102425500Y-173482000D02*
X151574500Y-173482000D01*
X102425500Y-173723300D02*
X151574500Y-173723300D01*
X102425500Y-173964600D02*
X151574500Y-173964600D01*
X102425500Y-174205900D02*
X151574500Y-174205900D01*
X102425500Y-174447200D02*
X151574500Y-174447200D01*
X102425500Y-174688500D02*
X151574500Y-174688500D01*
X102425500Y-174929800D02*
X151574500Y-174929800D01*
X102425500Y-175171100D02*
X151574500Y-175171100D01*
X102425500Y-175412400D02*
X151574500Y-175412400D01*
X102425500Y-175653700D02*
X151574500Y-175653700D01*
X102425500Y-175895000D02*
X151574500Y-175895000D01*
X102425500Y-176136300D02*
X151574500Y-176136300D01*
X102425500Y-176377600D02*
X151574500Y-176377600D01*
X102425500Y-176618900D02*
X151574500Y-176618900D01*
X102425500Y-176860200D02*
X151574500Y-176860200D01*
X102425500Y-177101500D02*
X151574500Y-177101500D01*
X102425500Y-177342800D02*
X151574500Y-177342800D01*
X102425500Y-177584100D02*
X151574500Y-177584100D01*
X102425500Y-177825400D02*
X151574500Y-177825400D01*
X102425500Y-178066700D02*
X151574500Y-178066700D01*
X102425500Y-178308000D02*
X151574500Y-178308000D01*
X102425500Y-178549300D02*
X151574500Y-178549300D01*
X102425500Y-178790600D02*
X151574500Y-178790600D01*
X102425500Y-179031900D02*
X151574500Y-179031900D01*
X102425500Y-179273200D02*
X151574500Y-179273200D01*
X102425500Y-179514500D02*
X151574500Y-179514500D01*
X102425500Y-179755800D02*
X151574500Y-179755800D01*
X102425500Y-179997100D02*
X151574500Y-179997100D01*
X102425500Y-180238400D02*
X151574500Y-180238400D01*
X102425500Y-180479700D02*
X151574500Y-180479700D01*
X102425500Y-180721000D02*
X151574500Y-180721000D01*
X102425500Y-180962300D02*
X151574500Y-180962300D01*
X102425500Y-181203600D02*
X151574500Y-181203600D01*
X102425500Y-181444900D02*
X151574500Y-181444900D01*
X102425500Y-181686200D02*
X151574500Y-181686200D01*
X102425500Y-181927500D02*
X151574500Y-181927500D01*
X102425500Y-182168800D02*
X151574500Y-182168800D01*
X102425500Y-182410100D02*
X151574500Y-182410100D01*
X102425500Y-182651400D02*
X151574500Y-182651400D01*
X102425500Y-182892700D02*
X151574500Y-182892700D01*
X102425500Y-183134000D02*
X151574500Y-183134000D01*
X102425500Y-183375300D02*
X151574500Y-183375300D01*
X102425500Y-183616600D02*
X151574500Y-183616600D01*
X102425500Y-183857900D02*
X151574500Y-183857900D01*
X102425500Y-184099200D02*
X151574500Y-184099200D01*
X102425500Y-184340500D02*
X151574500Y-184340500D01*
X102425500Y-184581800D02*
X151574500Y-184581800D01*
X102425500Y-184823100D02*
X151574500Y-184823100D01*
X102425500Y-185064400D02*
X151574500Y-185064400D01*
X102425500Y-185305700D02*
X151574500Y-185305700D01*
X102425500Y-185547000D02*
X151574500Y-185547000D01*
X102425500Y-185788300D02*
X151574500Y-185788300D01*
X102425500Y-186029600D02*
X151574500Y-186029600D01*
X102425500Y-186270900D02*
X151574500Y-186270900D01*
X102425500Y-186512200D02*
X151574500Y-186512200D01*
X102425500Y-186753500D02*
X151574500Y-186753500D01*
X102425500Y-186994800D02*
X151574500Y-186994800D01*
X102425500Y-187236100D02*
X151574500Y-187236100D01*
X102425500Y-187477400D02*
X151574500Y-187477400D01*
X102425500Y-187718700D02*
X151574500Y-187718700D01*
X102425500Y-187960000D02*
X151574500Y-187960000D01*
X102425500Y-188201300D02*
X151574500Y-188201300D01*
X102425500Y-188442600D02*
X151574500Y-188442600D01*
X102425500Y-188683900D02*
X151574500Y-188683900D01*
X102425500Y-188925200D02*
X151574500Y-188925200D01*
X102425500Y-189166500D02*
X151574500Y-189166500D01*
X102425500Y-189407800D02*
X151574500Y-189407800D01*
X102425500Y-189649100D02*
X151574500Y-189649100D01*
X102425500Y-189890400D02*
X151574500Y-189890400D01*
X102425500Y-190131700D02*
X151574500Y-190131700D01*
X102425500Y-190373000D02*
X151574500Y-190373000D01*
X102425500Y-190614300D02*
X151574500Y-190614300D01*
X102425500Y-190855600D02*
X151574500Y-190855600D01*
X102425500Y-191096900D02*
X151574500Y-191096900D01*
X102425500Y-191338200D02*
X151574500Y-191338200D01*
X102425500Y-191579500D02*
X151574500Y-191579500D01*
X102425500Y-191820800D02*
X151574500Y-191820800D01*
X102425500Y-192062100D02*
X151574500Y-192062100D01*
X102425500Y-192303400D02*
X151574500Y-192303400D01*
X102425500Y-192544700D02*
X151574500Y-192544700D01*
X102425500Y-192786000D02*
X151574500Y-192786000D01*
X102425500Y-193027300D02*
X151574500Y-193027300D01*
X102425500Y-193268600D02*
X151574500Y-193268600D01*
X102425500Y-193509900D02*
X151574500Y-193509900D01*
X102425500Y-193751200D02*
X151574500Y-193751200D01*
X102425500Y-193992500D02*
X151574500Y-193992500D01*
X102425500Y-194233800D02*
X151574500Y-194233800D01*
X102425500Y-194475100D02*
X151574500Y-194475100D01*
X102425500Y-194716400D02*
X151574500Y-194716400D01*
X102425500Y-194957700D02*
X151574500Y-194957700D01*
X102425500Y-195199000D02*
X151574500Y-195199000D01*
X102425500Y-195440300D02*
X151574500Y-195440300D01*
X102425500Y-195681600D02*
X151574500Y-195681600D01*
X102425500Y-195922900D02*
X151574500Y-195922900D01*
X102425500Y-196164200D02*
X151574500Y-196164200D01*
X102425500Y-196405500D02*
X151574500Y-196405500D01*
X102425500Y-196646800D02*
X151574500Y-196646800D01*
X102425500Y-196888100D02*
X151574500Y-196888100D01*
X102425500Y-197129400D02*
X151574500Y-197129400D01*
X102425500Y-197370700D02*
X151574500Y-197370700D01*
X102425500Y-197612000D02*
X151574500Y-197612000D01*
X102425500Y-197853300D02*
X151574500Y-197853300D01*
X102425500Y-198094600D02*
X151574500Y-198094600D01*
X102425500Y-198335900D02*
X151574500Y-198335900D01*
X102425500Y-198577200D02*
X151574500Y-198577200D01*
X102425500Y-198818500D02*
X151574500Y-198818500D01*
X102425500Y-199059800D02*
X151574500Y-199059800D01*
X102425500Y-199301100D02*
X151574500Y-199301100D01*
X102425500Y-199542400D02*
X151574500Y-199542400D01*
X102425500Y-199783700D02*
X151574500Y-199783700D01*
X102425500Y-200025000D02*
X151574500Y-200025000D01*
X102425500Y-200266300D02*
X151574500Y-200266300D01*
X102425500Y-200507600D02*
X151574500Y-200507600D01*
X102425500Y-200748900D02*
X151574500Y-200748900D01*
X102425500Y-200990200D02*
X151574500Y-200990200D01*
X102425500Y-201231500D02*
X151574500Y-201231500D01*
X102425500Y-201472800D02*
X151574500Y-201472800D01*
X102425500Y-201714100D02*
X151574500Y-201714100D01*
X102425500Y-201955400D02*
X151574500Y-201955400D01*
X102425500Y-202196700D02*
X151574500Y-202196700D01*
X102425500Y-202438000D02*
X151574500Y-202438000D01*
X102425500Y-202679300D02*
X151574500Y-202679300D01*
X102425500Y-202920600D02*
X151574500Y-202920600D01*
X102425500Y-203161900D02*
X151574500Y-203161900D01*
X102425500Y-203403200D02*
X151574500Y-203403200D01*
X102425500Y-203644500D02*
X151574500Y-203644500D01*
X102425500Y-203885800D02*
X151574500Y-203885800D01*
X102425500Y-204127100D02*
X151574500Y-204127100D01*
X102425500Y-204368400D02*
X151574500Y-204368400D01*
X102425500Y-204609700D02*
X151574500Y-204609700D01*
X102425500Y-204851000D02*
X151574500Y-204851000D01*
X102425500Y-205092300D02*
X151574500Y-205092300D01*
X102425500Y-205333600D02*
X151574500Y-205333600D01*
X102425500Y-205574900D02*
X151574500Y-205574900D01*
X102425500Y-205816200D02*
X151574500Y-205816200D01*
X102425500Y-206057500D02*
X151574500Y-206057500D01*
X102425500Y-206298800D02*
X151574500Y-206298800D01*
X102425500Y-206540100D02*
X151574500Y-206540100D01*
X102425500Y-206781400D02*
X151574500Y-206781400D01*
X102425500Y-207022700D02*
X151574500Y-207022700D01*
X102425500Y-207264000D02*
X151574500Y-207264000D01*
X102425500Y-207505300D02*
X151574500Y-207505300D01*
X102425500Y-207746600D02*
X151574500Y-207746600D01*
X102425500Y-207987900D02*
X151574500Y-207987900D01*
X102425500Y-208229200D02*
X151574500Y-208229200D01*
X102425500Y-208470500D02*
X151574500Y-208470500D01*
X102425500Y-208711800D02*
X151574500Y-208711800D01*
X102425500Y-208953100D02*
X151574500Y-208953100D01*
X102425500Y-209194400D02*
X151574500Y-209194400D01*
X102425500Y-209435700D02*
X151574500Y-209435700D01*
X102425500Y-209677000D02*
X151574500Y-209677000D01*
X102425500Y-209918300D02*
X151574500Y-209918300D01*
X102425500Y-210159600D02*
X151574500Y-210159600D01*
X102425500Y-210400900D02*
X151574500Y-210400900D01*
X102425500Y-210642200D02*
X151574500Y-210642200D01*
X102425500Y-210883500D02*
X151574500Y-210883500D01*
X102425500Y-211124800D02*
X151574500Y-211124800D01*
X102425500Y-211366100D02*
X151574500Y-211366100D01*
X102425500Y-211607400D02*
X151574500Y-211607400D01*
X102425500Y-211848700D02*
X151574500Y-211848700D01*
X102425500Y-212090000D02*
X151574500Y-212090000D01*
X102425500Y-212331300D02*
X151574500Y-212331300D01*
X102425500Y-212572600D02*
X151574500Y-212572600D01*
X102425500Y-212813900D02*
X151574500Y-212813900D01*
X102425500Y-213055200D02*
X151574500Y-213055200D01*
X102425500Y-213296500D02*
X151574500Y-213296500D01*
X102425500Y-213537800D02*
X151574500Y-213537800D01*
X102425500Y-213779100D02*
X151574500Y-213779100D01*
X102425500Y-214020400D02*
X151574500Y-214020400D01*
X102425500Y-214261700D02*
X151574500Y-214261700D01*
X102425500Y-214503000D02*
X151574500Y-214503000D01*
X102425500Y-214744300D02*
X151574500Y-214744300D01*
X102425500Y-214985600D02*
X151574500Y-214985600D01*
X102425500Y-215226900D02*
X151574500Y-215226900D01*
X102425500Y-215468200D02*
X151574500Y-215468200D01*
X102425500Y-215709500D02*
X151574500Y-215709500D01*
X102425500Y-215950800D02*
X151574500Y-215950800D01*
X102425500Y-216192100D02*
X151574500Y-216192100D01*
X102425500Y-216433400D02*
X151574500Y-216433400D01*
X102425500Y-216674700D02*
X151574500Y-216674700D01*
X102425500Y-216916000D02*
X151574500Y-216916000D01*
X102425500Y-217157300D02*
X151574500Y-217157300D01*
X102425500Y-217398600D02*
X151574500Y-217398600D01*
X102425500Y-217639900D02*
X151574500Y-217639900D01*
X102425500Y-217881200D02*
X151574500Y-217881200D01*
X102425500Y-218122500D02*
X151574500Y-218122500D01*
X102425500Y-218363800D02*
X151574500Y-218363800D01*
X102425500Y-218605100D02*
X151574500Y-218605100D01*
X102425500Y-218846400D02*
X151574500Y-218846400D01*
X102425500Y-219087700D02*
X151574500Y-219087700D01*
X102425500Y-219329000D02*
X151574500Y-219329000D01*
X102425500Y-219570300D02*
X151574500Y-219570300D01*
X102425500Y-219811600D02*
X151574500Y-219811600D01*
X102425500Y-220052900D02*
X151574500Y-220052900D01*
X102425500Y-220294200D02*
X151574500Y-220294200D01*
X102425500Y-220535500D02*
X151574500Y-220535500D01*
X102425500Y-220776800D02*
X151574500Y-220776800D01*
X102425500Y-221018100D02*
X151574500Y-221018100D01*
X102425500Y-221259400D02*
X151574500Y-221259400D01*
X102425500Y-221500700D02*
X151574500Y-221500700D01*
X102425500Y-221742000D02*
X151574500Y-221742000D01*
X102425500Y-221983300D02*
X151574500Y-221983300D01*
X102425500Y-222224600D02*
X151574500Y-222224600D01*
X102425500Y-222465900D02*
X151574500Y-222465900D01*
X102425500Y-222707200D02*
X151574500Y-222707200D01*
X102425500Y-222948500D02*
X151574500Y-222948500D01*
X102425500Y-223189800D02*
X151574500Y-223189800D01*
X102425500Y-223431100D02*
X151574500Y-223431100D01*
X102425500Y-223672400D02*
X151574500Y-223672400D01*
X102425500Y-223913700D02*
X151574500Y-223913700D01*
X102425500Y-224155000D02*
X151574500Y-224155000D01*
X102425500Y-224396300D02*
X151574500Y-224396300D01*
X102425500Y-224637600D02*
X151574500Y-224637600D01*
X102425500Y-224878900D02*
X151574500Y-224878900D01*
X102425500Y-225120200D02*
X151574500Y-225120200D01*
X102425500Y-225361500D02*
X151574500Y-225361500D01*
X102425500Y-225602800D02*
X151574500Y-225602800D01*
X102425500Y-225844100D02*
X151574500Y-225844100D01*
X102425500Y-226085400D02*
X151574500Y-226085400D01*
X102425500Y-226326700D02*
X151574500Y-226326700D01*
X102425500Y-226568000D02*
X151574500Y-226568000D01*
X102425500Y-226809300D02*
X151574500Y-226809300D01*
X102425500Y-227050600D02*
X151574500Y-227050600D01*
X102425500Y-227291900D02*
X151574500Y-227291900D01*
X102425500Y-227533200D02*
X151574500Y-227533200D01*
X102425500Y-227774500D02*
X151574500Y-227774500D01*
X102425500Y-228015800D02*
X151574500Y-228015800D01*
X102425500Y-228257100D02*
X151574500Y-228257100D01*
X102425500Y-228498400D02*
X151574500Y-228498400D01*
X102425500Y-228739700D02*
X151574500Y-228739700D01*
X102425500Y-228981000D02*
X151574500Y-228981000D01*
X102425500Y-229222300D02*
X151574500Y-229222300D01*
X102425500Y-229463600D02*
X151574500Y-229463600D01*
X102425500Y-229704900D02*
X151574500Y-229704900D01*
X102425500Y-229946200D02*
X151574500Y-229946200D01*
X102425500Y-230187500D02*
X151574500Y-230187500D01*
X102425500Y-230428800D02*
X151574500Y-230428800D01*
X102425500Y-230670100D02*
X151574500Y-230670100D01*
X102425500Y-230911400D02*
X151574500Y-230911400D01*
X102425500Y-231152700D02*
X151574500Y-231152700D01*
X102425500Y-231394000D02*
X151574500Y-231394000D01*
X102425500Y-231635300D02*
X151574500Y-231635300D01*
X102425500Y-231876600D02*
X151574500Y-231876600D01*
X102425500Y-232117900D02*
X151574500Y-232117900D01*
X102425500Y-232359200D02*
X151574500Y-232359200D01*
X102425500Y-232600500D02*
X151574500Y-232600500D01*
X102425500Y-232841800D02*
X151574500Y-232841800D01*
X102425500Y-233083100D02*
X151574500Y-233083100D01*
X102425500Y-233324400D02*
X151574500Y-233324400D01*
X102425500Y-233565700D02*
X151574500Y-233565700D01*
X102425500Y-233807000D02*
X151574500Y-233807000D01*
X102425500Y-234048300D02*
X151574500Y-234048300D01*
X102425500Y-234289600D02*
X151574500Y-234289600D01*
X102425500Y-234530900D02*
X151574500Y-234530900D01*
X102425500Y-234772200D02*
X151574500Y-234772200D01*
X102425500Y-235013500D02*
X151574500Y-235013500D01*
X102425500Y-235254800D02*
X151574500Y-235254800D01*
X102425500Y-235496100D02*
X151574500Y-235496100D01*
X102425500Y-235737400D02*
X151574500Y-235737400D01*
X102425500Y-235978700D02*
X151574500Y-235978700D01*
X102425500Y-236220000D02*
X151574500Y-236220000D01*
X102425500Y-236461300D02*
X151574500Y-236461300D01*
X102425500Y-236702600D02*
X151574500Y-236702600D01*
X102425500Y-236943900D02*
X151574500Y-236943900D01*
X102425500Y-237185200D02*
X151574500Y-237185200D01*
X102425500Y-237426500D02*
X151574500Y-237426500D01*
X102425500Y-237667800D02*
X151574500Y-237667800D01*
X102425500Y-237909100D02*
X151574500Y-237909100D01*
X102425500Y-238150400D02*
X151574500Y-238150400D01*
X102425500Y-238391700D02*
X151574500Y-238391700D01*
X102425500Y-238633000D02*
X151574500Y-238633000D01*
X102425500Y-238874300D02*
X151574500Y-238874300D01*
X102425500Y-239115600D02*
X151574500Y-239115600D01*
X102425500Y-239356900D02*
X151574500Y-239356900D01*
X102425500Y-239598200D02*
X151574500Y-239598200D01*
X102425500Y-239839500D02*
X151574500Y-239839500D01*
X102425500Y-240080800D02*
X151574500Y-240080800D01*
X102425500Y-240322100D02*
X151574500Y-240322100D01*
X102425500Y-240563400D02*
X151574500Y-240563400D01*
X102425500Y-240804700D02*
X151574500Y-240804700D01*
X102425500Y-241046000D02*
X151574500Y-241046000D01*
X102425500Y-241287300D02*
X151574500Y-241287300D01*
X102425500Y-241528600D02*
X151574500Y-241528600D01*
X102425500Y-241769900D02*
X151574500Y-241769900D01*
X102425500Y-242011200D02*
X151574500Y-242011200D01*
X102425500Y-242252500D02*
X151574500Y-242252500D01*
X102425500Y-242493800D02*
X151574500Y-242493800D01*
X102425500Y-242735100D02*
X151574500Y-242735100D01*
X102425500Y-242976400D02*
X151574500Y-242976400D01*
X102425500Y-243217700D02*
X151574500Y-243217700D01*
X102425500Y-243459000D02*
X151574500Y-243459000D01*
X102425500Y-243700300D02*
X151574500Y-243700300D01*
X102425500Y-243941600D02*
X151574500Y-243941600D01*
X102425500Y-244182900D02*
X151574500Y-244182900D01*
X102425500Y-244424200D02*
X151574500Y-244424200D01*
X102425500Y-244665500D02*
X151574500Y-244665500D01*
X102425500Y-244906800D02*
X151574500Y-244906800D01*
X102425500Y-245148100D02*
X151574500Y-245148100D01*
X102425500Y-245389400D02*
X151574500Y-245389400D01*
X102425500Y-245630700D02*
X151574500Y-245630700D01*
X102425500Y-245872000D02*
X151574500Y-245872000D01*
X102425500Y-246113300D02*
X151574500Y-246113300D01*
X102425500Y-246354600D02*
X151574500Y-246354600D01*
X102425500Y-246595900D02*
X151574500Y-246595900D01*
X102425500Y-246837200D02*
X151574500Y-246837200D01*
X102425500Y-247078500D02*
X151574500Y-247078500D01*
X102425500Y-247319800D02*
X151574500Y-247319800D01*
X102425500Y-247561100D02*
X151574500Y-247561100D01*
X102425500Y-247802400D02*
X151574500Y-247802400D01*
X102425500Y-248043700D02*
X151574500Y-248043700D01*
X102425500Y-248285000D02*
X151574500Y-248285000D01*
X102425500Y-248526300D02*
X151574500Y-248526300D01*
X102425500Y-248767600D02*
X151574500Y-248767600D01*
X102425500Y-249008900D02*
X151574500Y-249008900D01*
X102425500Y-249250200D02*
X151574500Y-249250200D01*
X102425500Y-249491500D02*
X151574500Y-249491500D01*
X102425500Y-249732800D02*
X151574500Y-249732800D01*
X102425500Y-249974100D02*
X151574500Y-249974100D01*
X102425500Y-250215400D02*
X151574500Y-250215400D01*
X102425500Y-250456700D02*
X151574500Y-250456700D01*
X102425500Y-250698000D02*
X151574500Y-250698000D01*
X102425500Y-250939300D02*
X151574500Y-250939300D01*
X102425500Y-251180600D02*
X151574500Y-251180600D01*
X102425500Y-251421900D02*
X151574500Y-251421900D01*
X102425500Y-251663200D02*
X151574500Y-251663200D01*
X102425500Y-251904500D02*
X151574500Y-251904500D01*
X102425500Y-252145800D02*
X151574500Y-252145800D01*
X102425500Y-252387100D02*
X151574500Y-252387100D01*
X102425500Y-252628400D02*
X151574500Y-252628400D01*
X102425500Y-252869700D02*
X151574500Y-252869700D01*
X102425500Y-253111000D02*
X151574500Y-253111000D01*
X102425500Y-253352300D02*
X151574500Y-253352300D01*
X102425500Y-253593600D02*
X151574500Y-253593600D01*
X102425500Y-253834900D02*
X151574500Y-253834900D01*
X102425500Y-254076200D02*
X151574500Y-254076200D01*
X102425500Y-254317500D02*
X151574500Y-254317500D01*
X102425500Y-254558800D02*
X151574500Y-254558800D01*
X102425500Y-254800100D02*
X151574500Y-254800100D01*
X102425500Y-255041400D02*
X151574500Y-255041400D01*
X102425500Y-255282700D02*
X151574500Y-255282700D01*
X102425500Y-255524000D02*
X151574500Y-255524000D01*
X102425500Y-255765300D02*
X151574500Y-255765300D01*
X102425500Y-256006600D02*
X151574500Y-256006600D01*
X102425500Y-256247900D02*
X151574500Y-256247900D01*
X102425500Y-256489200D02*
X151574500Y-256489200D01*
X102425500Y-256730500D02*
X151574500Y-256730500D01*
X102425500Y-256971800D02*
X151574500Y-256971800D01*
X102425500Y-257213100D02*
X151574500Y-257213100D01*
X102425500Y-257454400D02*
X151574500Y-257454400D01*
X102425500Y-257695700D02*
X151574500Y-257695700D01*
X102425500Y-257937000D02*
X151574500Y-257937000D01*
X102425500Y-258178300D02*
X151574500Y-258178300D01*
X102425500Y-258419600D02*
X151574500Y-258419600D01*
X102425500Y-258660900D02*
X151574500Y-258660900D01*
X102425500Y-258902200D02*
X151574500Y-258902200D01*
X102425500Y-259143500D02*
X151574500Y-259143500D01*
X102425500Y-259384800D02*
X151574500Y-259384800D01*
X102425500Y-259626100D02*
X151574500Y-259626100D01*
X102425500Y-259867400D02*
X151574500Y-259867400D01*
X102425500Y-260108700D02*
X151574500Y-260108700D01*
X102425500Y-260350000D02*
X151574500Y-260350000D01*
X102425500Y-260591300D02*
X151574500Y-260591300D01*
X102425500Y-260832600D02*
X151574500Y-260832600D01*
X102425500Y-261073900D02*
X151574500Y-261073900D01*
X102425500Y-261315200D02*
X151574500Y-261315200D01*
X102425500Y-261556500D02*
X151574500Y-261556500D01*
X102425500Y-261797800D02*
X151574500Y-261797800D01*
X102425500Y-262039100D02*
X151574500Y-262039100D01*
X102425500Y-262280400D02*
X151574500Y-262280400D01*
X102425500Y-262521700D02*
X151574500Y-262521700D01*
X102425500Y-262763000D02*
X151574500Y-262763000D01*
X102425500Y-263004300D02*
X151574500Y-263004300D01*
X102425500Y-263245600D02*
X151574500Y-263245600D01*
X102425500Y-263486900D02*
X151574500Y-263486900D01*
X102425500Y-263728200D02*
X151574500Y-263728200D01*
X102425500Y-263969500D02*
X151574500Y-263969500D01*
X102425500Y-264210800D02*
X151574500Y-264210800D01*
X102425500Y-264452100D02*
X151574500Y-264452100D01*
X102425500Y-264693400D02*
X151574500Y-264693400D01*
X102425500Y-264934700D02*
X151574500Y-264934700D01*
X102425500Y-265176000D02*
X151574500Y-265176000D01*
X102425500Y-265417300D02*
X151574500Y-265417300D01*
X102425500Y-265658600D02*
X151574500Y-265658600D01*
X102425500Y-265899900D02*
X151574500Y-265899900D01*
X102425500Y-266141200D02*
X151574500Y-266141200D01*
X102425500Y-266382500D02*
X151574500Y-266382500D01*
X102425500Y-266623800D02*
X151574500Y-266623800D01*
X102425500Y-266865100D02*
X151574500Y-266865100D01*
X102425500Y-267106400D02*
X151574500Y-267106400D01*
X102425500Y-267347700D02*
X151574500Y-267347700D01*
X102425500Y-267589000D02*
X151574500Y-267589000D01*
X102425500Y-267830300D02*
X151574500Y-267830300D01*
X102425500Y-268071600D02*
X151574500Y-268071600D01*
X102425500Y-268312900D02*
X151574500Y-268312900D01*
X102425500Y-268554200D02*
X151574500Y-268554200D01*
X102425500Y-268795500D02*
X151574500Y-268795500D01*
X102425500Y-269036800D02*
X151574500Y-269036800D01*
X102425500Y-269278100D02*
X151574500Y-269278100D01*
X102425500Y-269519400D02*
X151574500Y-269519400D01*
X102425500Y-269760700D02*
X151574500Y-269760700D01*
X102425500Y-270002000D02*
X151574500Y-270002000D01*
X102425500Y-270243300D02*
X151574500Y-270243300D01*
X102425500Y-270484600D02*
X151574500Y-270484600D01*
X102425500Y-270725900D02*
X151574500Y-270725900D01*
X102425500Y-270967200D02*
X151574500Y-270967200D01*
X102425500Y-271208500D02*
X151574500Y-271208500D01*
X102425500Y-271449800D02*
X151574500Y-271449800D01*
X102425500Y-271691100D02*
X151574500Y-271691100D01*
X102425500Y-271932400D02*
X151574500Y-271932400D01*
X102425500Y-272173700D02*
X151574500Y-272173700D01*
X102425500Y-272415000D02*
X151574500Y-272415000D01*
X102425500Y-272656300D02*
X151574500Y-272656300D01*
X102425500Y-272897600D02*
X151574500Y-272897600D01*
X102425500Y-273138900D02*
X151574500Y-273138900D01*
X102425500Y-273380200D02*
X151574500Y-273380200D01*
X102425500Y-273621500D02*
X151574500Y-273621500D01*
X102425500Y-273862800D02*
X151574500Y-273862800D01*
X102425500Y-274104100D02*
X151574500Y-274104100D01*
X102425500Y-274345400D02*
X151574500Y-274345400D01*
X102425500Y-274586700D02*
X151574500Y-274586700D01*
X102425500Y-274828000D02*
X151574500Y-274828000D01*
X102425500Y-275069300D02*
X151574500Y-275069300D01*
X102425500Y-275310600D02*
X151574500Y-275310600D01*
X102425500Y-275551900D02*
X151574500Y-275551900D01*
X102425500Y-275793200D02*
X151574500Y-275793200D01*
X102425500Y-276034500D02*
X151574500Y-276034500D01*
X102425500Y-276275800D02*
X151574500Y-276275800D01*
X102425500Y-276517100D02*
X151574500Y-276517100D01*
X102425500Y-276758400D02*
X151574500Y-276758400D01*
X102425500Y-276999700D02*
X151574500Y-276999700D01*
X102425500Y-277241000D02*
X151574500Y-277241000D01*
X102425500Y-277482300D02*
X151574500Y-277482300D01*
X102425500Y-277723600D02*
X151574500Y-277723600D01*
X102425500Y-277964900D02*
X151574500Y-277964900D01*
X102425500Y-278206200D02*
X151574500Y-278206200D01*
X102425500Y-278447500D02*
X151574500Y-278447500D01*
X102425500Y-278688800D02*
X151574500Y-278688800D01*
X102425500Y-278930100D02*
X151574500Y-278930100D01*
X102425500Y-279171400D02*
X151574500Y-279171400D01*
X102425500Y-279412700D02*
X151574500Y-279412700D01*
X102425500Y-279654000D02*
X151574500Y-279654000D01*
X102425500Y-279895300D02*
X151574500Y-279895300D01*
X102425500Y-280136600D02*
X151574500Y-280136600D01*
X102425500Y-280377900D02*
X151574500Y-280377900D01*
X102425500Y-280619200D02*
X151574500Y-280619200D01*
X102425500Y-280860500D02*
X151574500Y-280860500D01*
X102425500Y-281101800D02*
X151574500Y-281101800D01*
X102425500Y-281343100D02*
X151574500Y-281343100D01*
X102425500Y-281584400D02*
X151574500Y-281584400D01*
X102425500Y-281825700D02*
X151574500Y-281825700D01*
X102425500Y-282067000D02*
X151574500Y-282067000D01*
X102425500Y-282308300D02*
X151574500Y-282308300D01*
X102425500Y-282549600D02*
X151574500Y-282549600D01*
X102425500Y-282790900D02*
X151574500Y-282790900D01*
X102425500Y-283032200D02*
X151574500Y-283032200D01*
X102425500Y-283273500D02*
X151574500Y-283273500D01*
X102425500Y-283514800D02*
X151574500Y-283514800D01*
X102425500Y-283756100D02*
X151574500Y-283756100D01*
X102425500Y-283997400D02*
X151574500Y-283997400D01*
X102425500Y-284238700D02*
X151574500Y-284238700D01*
X102425500Y-284480000D02*
X126115834Y-284480000D01*
X127884166Y-284480000D02*
X151574500Y-284480000D01*
X102425500Y-284721300D02*
X125533285Y-284721300D01*
X128466716Y-284721300D02*
X151574500Y-284721300D01*
X102425500Y-284962600D02*
X124950736Y-284962600D01*
X129049265Y-284962600D02*
X151574500Y-284962600D01*
X102425500Y-285203900D02*
X124434921Y-285203900D01*
X129565079Y-285203900D02*
X151574500Y-285203900D01*
X102425500Y-285445200D02*
X124193621Y-285445200D01*
X129806379Y-285445200D02*
X151574500Y-285445200D01*
X102425500Y-285686500D02*
X123952321Y-285686500D01*
X130047679Y-285686500D02*
X151574500Y-285686500D01*
X102425500Y-285927800D02*
X123711021Y-285927800D01*
X130288979Y-285927800D02*
X151574500Y-285927800D01*
X102425500Y-286169100D02*
X123469721Y-286169100D01*
X130530279Y-286169100D02*
X151574500Y-286169100D01*
X102425500Y-286410400D02*
X123230349Y-286410400D01*
X130769652Y-286410400D02*
X151574500Y-286410400D01*
X102425500Y-286651700D02*
X123130399Y-286651700D01*
X130869602Y-286651700D02*
X151574500Y-286651700D01*
X102425500Y-286893000D02*
X123030449Y-286893000D01*
X130969552Y-286893000D02*
X151574500Y-286893000D01*
X102425500Y-287134300D02*
X122930499Y-287134300D01*
X131069502Y-287134300D02*
X151574500Y-287134300D01*
X102425500Y-287375600D02*
X122830550Y-287375600D01*
X131169451Y-287375600D02*
X151574500Y-287375600D01*
X102425500Y-287616900D02*
X122730600Y-287616900D01*
X131269401Y-287616900D02*
X151574500Y-287616900D01*
X102425500Y-287858200D02*
X122630650Y-287858200D01*
X131369351Y-287858200D02*
X151574500Y-287858200D01*
X102425500Y-288099500D02*
X122555000Y-288099500D01*
X131445000Y-288099500D02*
X151574500Y-288099500D01*
X102425500Y-288340800D02*
X122555000Y-288340800D01*
X131445000Y-288340800D02*
X151574500Y-288340800D01*
X102425500Y-288582100D02*
X122555000Y-288582100D01*
X131445000Y-288582100D02*
X151574500Y-288582100D01*
X102425500Y-288823400D02*
X122555000Y-288823400D01*
X131445000Y-288823400D02*
X151574500Y-288823400D01*
X102425500Y-289064700D02*
X122555000Y-289064700D01*
X131445000Y-289064700D02*
X151574500Y-289064700D01*
X102425500Y-289306000D02*
X122555000Y-289306000D01*
X131445000Y-289306000D02*
X151574500Y-289306000D01*
X102425500Y-289547300D02*
X122555000Y-289547300D01*
X131445000Y-289547300D02*
X151574500Y-289547300D01*
X102425500Y-289788600D02*
X122555000Y-289788600D01*
X131445000Y-289788600D02*
X151574500Y-289788600D01*
X102425500Y-290029900D02*
X122646431Y-290029900D01*
X131353568Y-290029900D02*
X151574500Y-290029900D01*
X102425500Y-290271200D02*
X122746380Y-290271200D01*
X131253619Y-290271200D02*
X151574500Y-290271200D01*
X102425500Y-290512500D02*
X122846330Y-290512500D01*
X131153669Y-290512500D02*
X151574500Y-290512500D01*
X102425500Y-290753800D02*
X122946280Y-290753800D01*
X131053719Y-290753800D02*
X151574500Y-290753800D01*
X102425500Y-290995100D02*
X123046230Y-290995100D01*
X130953769Y-290995100D02*
X151574500Y-290995100D01*
X102425500Y-291236400D02*
X123146179Y-291236400D01*
X130853820Y-291236400D02*
X151574500Y-291236400D01*
X102425500Y-291477700D02*
X123266521Y-291477700D01*
X130733479Y-291477700D02*
X151574500Y-291477700D01*
X102425500Y-291719000D02*
X123507821Y-291719000D01*
X130492179Y-291719000D02*
X151574500Y-291719000D01*
X102425500Y-291960300D02*
X123749121Y-291960300D01*
X130250879Y-291960300D02*
X151574500Y-291960300D01*
X102425500Y-292201600D02*
X123990421Y-292201600D01*
X130009579Y-292201600D02*
X151574500Y-292201600D01*
X102425500Y-292442900D02*
X124231721Y-292442900D01*
X129768279Y-292442900D02*
X151574500Y-292442900D01*
X102425500Y-292684200D02*
X124473021Y-292684200D01*
X129526979Y-292684200D02*
X151574500Y-292684200D01*
X102425500Y-292925500D02*
X125042716Y-292925500D01*
X128957283Y-292925500D02*
X151574500Y-292925500D01*
X102425500Y-293166800D02*
X125625266Y-293166800D01*
X128374733Y-293166800D02*
X151574500Y-293166800D01*
X102425500Y-293408100D02*
X151574500Y-293408100D01*
X102425500Y-293649400D02*
X151574500Y-293649400D01*
X102425500Y-293890700D02*
X151574500Y-293890700D01*
X102425500Y-294132000D02*
X151574500Y-294132000D01*
X102425500Y-294373300D02*
X151574500Y-294373300D01*
X102425500Y-294614600D02*
X151574500Y-294614600D01*
X102425500Y-294855900D02*
X151574500Y-294855900D01*
X102425500Y-295097200D02*
X151574500Y-295097200D01*
X102425500Y-295338500D02*
X151574500Y-295338500D01*
X102425500Y-295579800D02*
X151574500Y-295579800D01*
X102425500Y-295821100D02*
X151574500Y-295821100D01*
X102425500Y-296062400D02*
X151574500Y-296062400D01*
X102425500Y-296303700D02*
X151574500Y-296303700D01*
X102425500Y-296545000D02*
X151574500Y-296545000D01*
X102425500Y-296786300D02*
X151574500Y-296786300D01*
X102425500Y-297027600D02*
X151574500Y-297027600D01*
X102425500Y-297268900D02*
X151574500Y-297268900D01*
X102425500Y-297510200D02*
X151574500Y-297510200D01*
X151574501Y-297624500D02*
X151574501Y-297624500D01*
X151333201Y-51625500D02*
X151333201Y-297624500D01*
X151091901Y-51625500D02*
X151091901Y-297624500D01*
X150850601Y-51625500D02*
X150850601Y-297624500D01*
X150609301Y-51625500D02*
X150609301Y-297624500D01*
X150368001Y-51625500D02*
X150368001Y-297624500D01*
X150126701Y-51625500D02*
X150126701Y-297624500D01*
X149885401Y-51625500D02*
X149885401Y-297624500D01*
X149644101Y-51625500D02*
X149644101Y-297624500D01*
X149402801Y-51625500D02*
X149402801Y-297624500D01*
X149161501Y-51625500D02*
X149161501Y-297624500D01*
X148920201Y-51625500D02*
X148920201Y-297624500D01*
X148678901Y-51625500D02*
X148678901Y-297624500D01*
X148437601Y-51625500D02*
X148437601Y-297624500D01*
X148196301Y-51625500D02*
X148196301Y-297624500D01*
X147955001Y-51625500D02*
X147955001Y-297624500D01*
X147713701Y-51625500D02*
X147713701Y-297624500D01*
X147472401Y-51625500D02*
X147472401Y-297624500D01*
X147231101Y-51625500D02*
X147231101Y-297624500D01*
X146989801Y-51625500D02*
X146989801Y-297624500D01*
X146748501Y-51625500D02*
X146748501Y-297624500D01*
X146507201Y-51625500D02*
X146507201Y-297624500D01*
X146265901Y-51625500D02*
X146265901Y-297624500D01*
X146024601Y-51625500D02*
X146024601Y-297624500D01*
X145783301Y-51625500D02*
X145783301Y-297624500D01*
X145542001Y-51625500D02*
X145542001Y-297624500D01*
X145300701Y-51625500D02*
X145300701Y-297624500D01*
X145059401Y-51625500D02*
X145059401Y-297624500D01*
X144818101Y-51625500D02*
X144818101Y-297624500D01*
X144576801Y-51625500D02*
X144576801Y-297624500D01*
X144335501Y-51625500D02*
X144335501Y-297624500D01*
X144094201Y-51625500D02*
X144094201Y-297624500D01*
X143852901Y-51625500D02*
X143852901Y-297624500D01*
X143611601Y-51625500D02*
X143611601Y-297624500D01*
X143370301Y-51625500D02*
X143370301Y-297624500D01*
X143129001Y-51625500D02*
X143129001Y-297624500D01*
X142887701Y-51625500D02*
X142887701Y-297624500D01*
X142646401Y-51625500D02*
X142646401Y-297624500D01*
X142405101Y-51625500D02*
X142405101Y-297624500D01*
X142163801Y-51625500D02*
X142163801Y-297624500D01*
X141922501Y-51625500D02*
X141922501Y-297624500D01*
X141681201Y-51625500D02*
X141681201Y-297624500D01*
X141439901Y-51625500D02*
X141439901Y-297624500D01*
X141198601Y-51625500D02*
X141198601Y-297624500D01*
X140957301Y-51625500D02*
X140957301Y-297624500D01*
X140716001Y-51625500D02*
X140716001Y-297624500D01*
X140474701Y-51625500D02*
X140474701Y-297624500D01*
X140233401Y-51625500D02*
X140233401Y-297624500D01*
X139992101Y-51625500D02*
X139992101Y-297624500D01*
X139750801Y-51625500D02*
X139750801Y-297624500D01*
X139509501Y-51625500D02*
X139509501Y-297624500D01*
X139268201Y-51625500D02*
X139268201Y-297624500D01*
X139026901Y-51625500D02*
X139026901Y-297624500D01*
X138785601Y-51625500D02*
X138785601Y-297624500D01*
X138544301Y-51625500D02*
X138544301Y-297624500D01*
X138303001Y-51625500D02*
X138303001Y-297624500D01*
X138061701Y-51625500D02*
X138061701Y-297624500D01*
X137820401Y-51625500D02*
X137820401Y-297624500D01*
X137579101Y-51625500D02*
X137579101Y-297624500D01*
X137337801Y-51625500D02*
X137337801Y-297624500D01*
X137096501Y-51625500D02*
X137096501Y-297624500D01*
X136855201Y-51625500D02*
X136855201Y-297624500D01*
X136613901Y-51625500D02*
X136613901Y-297624500D01*
X136372601Y-51625500D02*
X136372601Y-297624500D01*
X136131301Y-51625500D02*
X136131301Y-297624500D01*
X135890001Y-51625500D02*
X135890001Y-297624500D01*
X135648701Y-51625500D02*
X135648701Y-297624500D01*
X135407401Y-51625500D02*
X135407401Y-297624500D01*
X135166101Y-51625500D02*
X135166101Y-297624500D01*
X134924801Y-51625500D02*
X134924801Y-297624500D01*
X134683501Y-51625500D02*
X134683501Y-297624500D01*
X134442201Y-51625500D02*
X134442201Y-297624500D01*
X134200901Y-51625500D02*
X134200901Y-297624500D01*
X133959601Y-51625500D02*
X133959601Y-297624500D01*
X133718301Y-51625500D02*
X133718301Y-297624500D01*
X133477001Y-51625500D02*
X133477001Y-297624500D01*
X133235701Y-51625500D02*
X133235701Y-297624500D01*
X132994401Y-51625500D02*
X132994401Y-297624500D01*
X132753101Y-51625500D02*
X132753101Y-297624500D01*
X132511801Y-51625500D02*
X132511801Y-297624500D01*
X132270501Y-51625500D02*
X132270501Y-297624500D01*
X132029201Y-51625500D02*
X132029201Y-297624500D01*
X131787901Y-51625500D02*
X131787901Y-297624500D01*
X131546601Y-51625500D02*
X131546601Y-297624500D01*
X131305301Y-51625500D02*
X131305301Y-59103571D01*
X131305301Y-61546430D02*
X131305301Y-287703571D01*
X131305301Y-290146430D02*
X131305301Y-297624500D01*
X131064001Y-51625500D02*
X131064001Y-58521022D01*
X131064001Y-62128979D02*
X131064001Y-287121022D01*
X131064001Y-290728979D02*
X131064001Y-297624500D01*
X130822701Y-51625500D02*
X130822701Y-57938473D01*
X130822701Y-62711528D02*
X130822701Y-286538473D01*
X130822701Y-291311528D02*
X130822701Y-297624500D01*
X130581401Y-51625500D02*
X130581401Y-57620222D01*
X130581401Y-63029778D02*
X130581401Y-286220222D01*
X130581401Y-291629778D02*
X130581401Y-297624500D01*
X130340101Y-51625500D02*
X130340101Y-57378922D01*
X130340101Y-63271078D02*
X130340101Y-285978922D01*
X130340101Y-291871078D02*
X130340101Y-297624500D01*
X130098801Y-51625500D02*
X130098801Y-57137622D01*
X130098801Y-63512378D02*
X130098801Y-285737622D01*
X130098801Y-292112378D02*
X130098801Y-297624500D01*
X129857501Y-51625500D02*
X129857501Y-56896322D01*
X129857501Y-63753678D02*
X129857501Y-285496322D01*
X129857501Y-292353678D02*
X129857501Y-297624500D01*
X129616201Y-51625500D02*
X129616201Y-56655022D01*
X129616201Y-63994978D02*
X129616201Y-285255022D01*
X129616201Y-292594978D02*
X129616201Y-297624500D01*
X129374901Y-51625500D02*
X129374901Y-56497483D01*
X129374901Y-64152518D02*
X129374901Y-285097483D01*
X129374901Y-292752518D02*
X129374901Y-297624500D01*
X129133601Y-51625500D02*
X129133601Y-56397534D01*
X129133601Y-64252467D02*
X129133601Y-284997534D01*
X129133601Y-292852467D02*
X129133601Y-297624500D01*
X128892301Y-51625500D02*
X128892301Y-56297584D01*
X128892301Y-64352417D02*
X128892301Y-284897584D01*
X128892301Y-292952417D02*
X128892301Y-297624500D01*
X128651001Y-51625500D02*
X128651001Y-56197634D01*
X128651001Y-64452367D02*
X128651001Y-284797634D01*
X128651001Y-293052367D02*
X128651001Y-297624500D01*
X128409701Y-51625500D02*
X128409701Y-56097684D01*
X128409701Y-64552317D02*
X128409701Y-284697684D01*
X128409701Y-293152317D02*
X128409701Y-297624500D01*
X128168401Y-51625500D02*
X128168401Y-55997735D01*
X128168401Y-64652266D02*
X128168401Y-284597735D01*
X128168401Y-293252266D02*
X128168401Y-297624500D01*
X127927101Y-51625500D02*
X127927101Y-55897785D01*
X127927101Y-64752216D02*
X127927101Y-284497785D01*
X127927101Y-293352216D02*
X127927101Y-297624500D01*
X127685801Y-51625500D02*
X127685801Y-55880000D01*
X127685801Y-64770000D02*
X127685801Y-284480000D01*
X127685801Y-293370000D02*
X127685801Y-297624500D01*
X127444501Y-51625500D02*
X127444501Y-55880000D01*
X127444501Y-64770000D02*
X127444501Y-284480000D01*
X127444501Y-293370000D02*
X127444501Y-297624500D01*
X127203201Y-51625500D02*
X127203201Y-55880000D01*
X127203201Y-64770000D02*
X127203201Y-284480000D01*
X127203201Y-293370000D02*
X127203201Y-297624500D01*
X126961901Y-51625500D02*
X126961901Y-55880000D01*
X126961901Y-64770000D02*
X126961901Y-284480000D01*
X126961901Y-293370000D02*
X126961901Y-297624500D01*
X126720601Y-51625500D02*
X126720601Y-55880000D01*
X126720601Y-64770000D02*
X126720601Y-284480000D01*
X126720601Y-293370000D02*
X126720601Y-297624500D01*
X126479301Y-51625500D02*
X126479301Y-55880000D01*
X126479301Y-64770000D02*
X126479301Y-284480000D01*
X126479301Y-293370000D02*
X126479301Y-297624500D01*
X126238001Y-51625500D02*
X126238001Y-55880000D01*
X126238001Y-64770000D02*
X126238001Y-284480000D01*
X126238001Y-293370000D02*
X126238001Y-297624500D01*
X125996701Y-51625500D02*
X125996701Y-55929346D01*
X125996701Y-64720653D02*
X125996701Y-284529346D01*
X125996701Y-293320653D02*
X125996701Y-297624500D01*
X125755401Y-51625500D02*
X125755401Y-56029296D01*
X125755401Y-64620703D02*
X125755401Y-284629296D01*
X125755401Y-293220703D02*
X125755401Y-297624500D01*
X125514101Y-51625500D02*
X125514101Y-56129246D01*
X125514101Y-64520753D02*
X125514101Y-284729246D01*
X125514101Y-293120753D02*
X125514101Y-297624500D01*
X125272801Y-51625500D02*
X125272801Y-56229195D01*
X125272801Y-64420804D02*
X125272801Y-284829195D01*
X125272801Y-293020804D02*
X125272801Y-297624500D01*
X125031501Y-51625500D02*
X125031501Y-56329145D01*
X125031501Y-64320854D02*
X125031501Y-284929145D01*
X125031501Y-292920854D02*
X125031501Y-297624500D01*
X124790201Y-51625500D02*
X124790201Y-56429095D01*
X124790201Y-64220904D02*
X124790201Y-285029095D01*
X124790201Y-292820904D02*
X124790201Y-297624500D01*
X124548901Y-51625500D02*
X124548901Y-56529045D01*
X124548901Y-64120954D02*
X124548901Y-285129045D01*
X124548901Y-292720954D02*
X124548901Y-297624500D01*
X124307601Y-51625500D02*
X124307601Y-56731220D01*
X124307601Y-63918780D02*
X124307601Y-285331220D01*
X124307601Y-292518780D02*
X124307601Y-297624500D01*
X124066301Y-51625500D02*
X124066301Y-56972520D01*
X124066301Y-63677480D02*
X124066301Y-285572520D01*
X124066301Y-292277480D02*
X124066301Y-297624500D01*
X123825001Y-51625500D02*
X123825001Y-57213820D01*
X123825001Y-63436180D02*
X123825001Y-285813820D01*
X123825001Y-292036180D02*
X123825001Y-297624500D01*
X123583701Y-51625500D02*
X123583701Y-57455120D01*
X123583701Y-63194880D02*
X123583701Y-286055120D01*
X123583701Y-291794880D02*
X123583701Y-297624500D01*
X123342401Y-51625500D02*
X123342401Y-57696420D01*
X123342401Y-62953580D02*
X123342401Y-286296420D01*
X123342401Y-291553580D02*
X123342401Y-297624500D01*
X123101101Y-51625500D02*
X123101101Y-58122430D01*
X123101101Y-62527569D02*
X123101101Y-286722430D01*
X123101101Y-291127569D02*
X123101101Y-297624500D01*
X122859801Y-51625500D02*
X122859801Y-58704979D01*
X122859801Y-61945020D02*
X122859801Y-287304979D01*
X122859801Y-290545020D02*
X122859801Y-297624500D01*
X122618501Y-51625500D02*
X122618501Y-59287529D01*
X122618501Y-61362470D02*
X122618501Y-287887529D01*
X122618501Y-289962470D02*
X122618501Y-297624500D01*
X122377201Y-51625500D02*
X122377201Y-59440834D01*
X122377201Y-59440834D02*
X122377201Y-288040834D01*
X122377201Y-288040834D02*
X122377201Y-297624500D01*
X122135901Y-51625500D02*
X122135901Y-59440834D01*
X122135901Y-59440834D02*
X122135901Y-288040834D01*
X122135901Y-288040834D02*
X122135901Y-297624500D01*
X121894601Y-51625500D02*
X121894601Y-59440834D01*
X121894601Y-59440834D02*
X121894601Y-288040834D01*
X121894601Y-288040834D02*
X121894601Y-297624500D01*
X121653301Y-51625500D02*
X121653301Y-59440834D01*
X121653301Y-59440834D02*
X121653301Y-288040834D01*
X121653301Y-288040834D02*
X121653301Y-297624500D01*
X121412001Y-51625500D02*
X121412001Y-59440834D01*
X121412001Y-59440834D02*
X121412001Y-288040834D01*
X121412001Y-288040834D02*
X121412001Y-297624500D01*
X121170701Y-51625500D02*
X121170701Y-59440834D01*
X121170701Y-59440834D02*
X121170701Y-288040834D01*
X121170701Y-288040834D02*
X121170701Y-297624500D01*
X120929401Y-51625500D02*
X120929401Y-59440834D01*
X120929401Y-59440834D02*
X120929401Y-288040834D01*
X120929401Y-288040834D02*
X120929401Y-297624500D01*
X120688101Y-51625500D02*
X120688101Y-59440834D01*
X120688101Y-59440834D02*
X120688101Y-288040834D01*
X120688101Y-288040834D02*
X120688101Y-297624500D01*
X120446801Y-51625500D02*
X120446801Y-59440834D01*
X120446801Y-59440834D02*
X120446801Y-288040834D01*
X120446801Y-288040834D02*
X120446801Y-297624500D01*
X120205501Y-51625500D02*
X120205501Y-59440834D01*
X120205501Y-59440834D02*
X120205501Y-288040834D01*
X120205501Y-288040834D02*
X120205501Y-297624500D01*
X119964201Y-51625500D02*
X119964201Y-59440834D01*
X119964201Y-59440834D02*
X119964201Y-288040834D01*
X119964201Y-288040834D02*
X119964201Y-297624500D01*
X119722901Y-51625500D02*
X119722901Y-59440834D01*
X119722901Y-59440834D02*
X119722901Y-288040834D01*
X119722901Y-288040834D02*
X119722901Y-297624500D01*
X119481601Y-51625500D02*
X119481601Y-59440834D01*
X119481601Y-59440834D02*
X119481601Y-288040834D01*
X119481601Y-288040834D02*
X119481601Y-297624500D01*
X119240301Y-51625500D02*
X119240301Y-59440834D01*
X119240301Y-59440834D02*
X119240301Y-288040834D01*
X119240301Y-288040834D02*
X119240301Y-297624500D01*
X118999001Y-51625500D02*
X118999001Y-59440834D01*
X118999001Y-59440834D02*
X118999001Y-288040834D01*
X118999001Y-288040834D02*
X118999001Y-297624500D01*
X118757701Y-51625500D02*
X118757701Y-59440834D01*
X118757701Y-59440834D02*
X118757701Y-288040834D01*
X118757701Y-288040834D02*
X118757701Y-297624500D01*
X118516401Y-51625500D02*
X118516401Y-59440834D01*
X118516401Y-59440834D02*
X118516401Y-288040834D01*
X118516401Y-288040834D02*
X118516401Y-297624500D01*
X118275101Y-51625500D02*
X118275101Y-59440834D01*
X118275101Y-59440834D02*
X118275101Y-288040834D01*
X118275101Y-288040834D02*
X118275101Y-297624500D01*
X118033801Y-51625500D02*
X118033801Y-59440834D01*
X118033801Y-59440834D02*
X118033801Y-288040834D01*
X118033801Y-288040834D02*
X118033801Y-297624500D01*
X117792501Y-51625500D02*
X117792501Y-59440834D01*
X117792501Y-59440834D02*
X117792501Y-288040834D01*
X117792501Y-288040834D02*
X117792501Y-297624500D01*
X117551201Y-51625500D02*
X117551201Y-59440834D01*
X117551201Y-59440834D02*
X117551201Y-288040834D01*
X117551201Y-288040834D02*
X117551201Y-297624500D01*
X117309901Y-51625500D02*
X117309901Y-59440834D01*
X117309901Y-59440834D02*
X117309901Y-288040834D01*
X117309901Y-288040834D02*
X117309901Y-297624500D01*
X117068601Y-51625500D02*
X117068601Y-59440834D01*
X117068601Y-59440834D02*
X117068601Y-288040834D01*
X117068601Y-288040834D02*
X117068601Y-297624500D01*
X116827301Y-51625500D02*
X116827301Y-59440834D01*
X116827301Y-59440834D02*
X116827301Y-288040834D01*
X116827301Y-288040834D02*
X116827301Y-297624500D01*
X116586001Y-51625500D02*
X116586001Y-59440834D01*
X116586001Y-59440834D02*
X116586001Y-288040834D01*
X116586001Y-288040834D02*
X116586001Y-297624500D01*
X116344701Y-51625500D02*
X116344701Y-59440834D01*
X116344701Y-59440834D02*
X116344701Y-288040834D01*
X116344701Y-288040834D02*
X116344701Y-297624500D01*
X116103401Y-51625500D02*
X116103401Y-58918577D01*
X116103401Y-60715424D02*
X116103401Y-288040834D01*
X116103401Y-288040834D02*
X116103401Y-297624500D01*
X115862101Y-51625500D02*
X115862101Y-58336027D01*
X115862101Y-61297974D02*
X115862101Y-288040834D01*
X115862101Y-288040834D02*
X115862101Y-297624500D01*
X115620801Y-51625500D02*
X115620801Y-58077293D01*
X115620801Y-61556707D02*
X115620801Y-288040834D01*
X115620801Y-288040834D02*
X115620801Y-297624500D01*
X115379501Y-51625500D02*
X115379501Y-57835993D01*
X115379501Y-61798007D02*
X115379501Y-288040834D01*
X115379501Y-288040834D02*
X115379501Y-297624500D01*
X115138201Y-51625500D02*
X115138201Y-57594693D01*
X115138201Y-62039307D02*
X115138201Y-288040834D01*
X115138201Y-288040834D02*
X115138201Y-297624500D01*
X114896901Y-51625500D02*
X114896901Y-57472093D01*
X114896901Y-62161908D02*
X114896901Y-288040834D01*
X114896901Y-288040834D02*
X114896901Y-297624500D01*
X114655601Y-51625500D02*
X114655601Y-57372144D01*
X114655601Y-62261857D02*
X114655601Y-288040834D01*
X114655601Y-288040834D02*
X114655601Y-297624500D01*
X114414301Y-51625500D02*
X114414301Y-57272194D01*
X114414301Y-62361807D02*
X114414301Y-288040834D01*
X114414301Y-288040834D02*
X114414301Y-297624500D01*
X114173001Y-51625500D02*
X114173001Y-57172245D01*
X114173001Y-62461756D02*
X114173001Y-288040834D01*
X114173001Y-288040834D02*
X114173001Y-297624500D01*
X113931701Y-51625500D02*
X113931701Y-57150000D01*
X113931701Y-62484000D02*
X113931701Y-288040834D01*
X113931701Y-288040834D02*
X113931701Y-297624500D01*
X113690401Y-51625500D02*
X113690401Y-57150000D01*
X113690401Y-62484000D02*
X113690401Y-288040834D01*
X113690401Y-288040834D02*
X113690401Y-297624500D01*
X113449101Y-51625500D02*
X113449101Y-57150000D01*
X113449101Y-62484000D02*
X113449101Y-288040834D01*
X113449101Y-288040834D02*
X113449101Y-297624500D01*
X113207801Y-51625500D02*
X113207801Y-57150000D01*
X113207801Y-62484000D02*
X113207801Y-288040834D01*
X113207801Y-288040834D02*
X113207801Y-297624500D01*
X112966501Y-51625500D02*
X112966501Y-57188024D01*
X112966501Y-62445975D02*
X112966501Y-288040834D01*
X112966501Y-288040834D02*
X112966501Y-297624500D01*
X112725201Y-51625500D02*
X112725201Y-57287974D01*
X112725201Y-62346025D02*
X112725201Y-288040834D01*
X112725201Y-288040834D02*
X112725201Y-297624500D01*
X112483901Y-51625500D02*
X112483901Y-57387923D01*
X112483901Y-62246076D02*
X112483901Y-288040834D01*
X112483901Y-288040834D02*
X112483901Y-297624500D01*
X112242601Y-51625500D02*
X112242601Y-57487873D01*
X112242601Y-62146126D02*
X112242601Y-288040834D01*
X112242601Y-288040834D02*
X112242601Y-297624500D01*
X112001301Y-51625500D02*
X112001301Y-57632791D01*
X112001301Y-62001209D02*
X112001301Y-288040834D01*
X112001301Y-288040834D02*
X112001301Y-297624500D01*
X111760001Y-51625500D02*
X111760001Y-57874091D01*
X111760001Y-61759909D02*
X111760001Y-288040834D01*
X111760001Y-288040834D02*
X111760001Y-297624500D01*
X111518701Y-51625500D02*
X111518701Y-58115391D01*
X111518701Y-61518609D02*
X111518701Y-288040834D01*
X111518701Y-288040834D02*
X111518701Y-297624500D01*
X111277401Y-51625500D02*
X111277401Y-58428002D01*
X111277401Y-61205997D02*
X111277401Y-288040834D01*
X111277401Y-288040834D02*
X111277401Y-297624500D01*
X111036101Y-51625500D02*
X111036101Y-59010553D01*
X111036101Y-60623446D02*
X111036101Y-288040834D01*
X111036101Y-288040834D02*
X111036101Y-297624500D01*
X110794801Y-51625500D02*
X110794801Y-59286501D01*
X110794801Y-59286501D02*
X110794801Y-288040834D01*
X110794801Y-288040834D02*
X110794801Y-297624500D01*
X110553501Y-51625500D02*
X110553501Y-59286501D01*
X110553501Y-59286501D02*
X110553501Y-288040834D01*
X110553501Y-288040834D02*
X110553501Y-297624500D01*
X110312201Y-51625500D02*
X110312201Y-59286501D01*
X110312201Y-59286501D02*
X110312201Y-288040834D01*
X110312201Y-288040834D02*
X110312201Y-297624500D01*
X110070901Y-51625500D02*
X110070901Y-59286501D01*
X110070901Y-59286501D02*
X110070901Y-288040834D01*
X110070901Y-288040834D02*
X110070901Y-297624500D01*
X109829601Y-51625500D02*
X109829601Y-59286501D01*
X109829601Y-59286501D02*
X109829601Y-288040834D01*
X109829601Y-288040834D02*
X109829601Y-297624500D01*
X109588301Y-51625500D02*
X109588301Y-58985330D01*
X109588301Y-60647806D02*
X109588301Y-288040834D01*
X109588301Y-288040834D02*
X109588301Y-297624500D01*
X109347001Y-51625500D02*
X109347001Y-58509205D01*
X109347001Y-61124796D02*
X109347001Y-288040834D01*
X109347001Y-288040834D02*
X109347001Y-297624500D01*
X109105701Y-51625500D02*
X109105701Y-58345715D01*
X109105701Y-61288286D02*
X109105701Y-288040834D01*
X109105701Y-288040834D02*
X109105701Y-297624500D01*
X108864401Y-51625500D02*
X108864401Y-54473302D01*
X108864401Y-56169099D02*
X108864401Y-58022507D01*
X108864401Y-58529038D02*
X108864401Y-58564960D01*
X108864401Y-61069040D02*
X108864401Y-61104962D01*
X108864401Y-61614404D02*
X108864401Y-63464902D01*
X108864401Y-65160699D02*
X108864401Y-288040834D01*
X108864401Y-288040834D02*
X108864401Y-297624500D01*
X108623101Y-51625500D02*
X108623101Y-53928005D01*
X108623101Y-56714395D02*
X108623101Y-57912950D01*
X108623101Y-58770338D02*
X108623101Y-58806260D01*
X108623101Y-60827740D02*
X108623101Y-60863662D01*
X108623101Y-61736918D02*
X108623101Y-62919605D01*
X108623101Y-65705995D02*
X108623101Y-288040834D01*
X108623101Y-288040834D02*
X108623101Y-297624500D01*
X108381801Y-51625500D02*
X108381801Y-53686705D01*
X108381801Y-56955695D02*
X108381801Y-57803393D01*
X108381801Y-59011638D02*
X108381801Y-59047560D01*
X108381801Y-60586440D02*
X108381801Y-60622362D01*
X108381801Y-61827524D02*
X108381801Y-62678305D01*
X108381801Y-65947295D02*
X108381801Y-288040834D01*
X108381801Y-288040834D02*
X108381801Y-297624500D01*
X108140501Y-51625500D02*
X108140501Y-53445405D01*
X108140501Y-57196995D02*
X108140501Y-57693835D01*
X108140501Y-59252938D02*
X108140501Y-59288860D01*
X108140501Y-60345140D02*
X108140501Y-60381062D01*
X108140501Y-61918129D02*
X108140501Y-62437005D01*
X108140501Y-66188595D02*
X108140501Y-288040834D01*
X108140501Y-288040834D02*
X108140501Y-297624500D01*
X107899201Y-51625500D02*
X107899201Y-53245962D01*
X107899201Y-57396439D02*
X107899201Y-57667003D01*
X107899201Y-59494238D02*
X107899201Y-59530160D01*
X107899201Y-60103840D02*
X107899201Y-60139762D01*
X107899201Y-61987427D02*
X107899201Y-62237562D01*
X107899201Y-66388039D02*
X107899201Y-288040834D01*
X107899201Y-288040834D02*
X107899201Y-297624500D01*
X107657901Y-51625500D02*
X107657901Y-53146012D01*
X107657901Y-57496389D02*
X107657901Y-57658916D01*
X107657901Y-59735538D02*
X107657901Y-59771460D01*
X107657901Y-59862540D02*
X107657901Y-59898462D01*
X107657901Y-61979340D02*
X107657901Y-62137612D01*
X107657901Y-66487989D02*
X107657901Y-288040834D01*
X107657901Y-288040834D02*
X107657901Y-297624500D01*
X107416601Y-51625500D02*
X107416601Y-53046062D01*
X107416601Y-57596339D02*
X107416601Y-57650829D01*
X107416601Y-59621240D02*
X107416601Y-59657162D01*
X107416601Y-59976838D02*
X107416601Y-60012760D01*
X107416601Y-61971253D02*
X107416601Y-62037661D01*
X107416601Y-66587939D02*
X107416601Y-288040834D01*
X107416601Y-288040834D02*
X107416601Y-297624500D01*
X107175301Y-51625500D02*
X107175301Y-52946112D01*
X107175301Y-59379940D02*
X107175301Y-59415862D01*
X107175301Y-60218138D02*
X107175301Y-60254060D01*
X107175301Y-66687889D02*
X107175301Y-288040834D01*
X107175301Y-288040834D02*
X107175301Y-297624500D01*
X106934001Y-51625500D02*
X106934001Y-52908200D01*
X106934001Y-57734200D02*
X106934001Y-57758788D01*
X106934001Y-59138640D02*
X106934001Y-59174562D01*
X106934001Y-60459438D02*
X106934001Y-60495360D01*
X106934001Y-61888270D02*
X106934001Y-61899800D01*
X106934001Y-66725800D02*
X106934001Y-288040834D01*
X106934001Y-288040834D02*
X106934001Y-297624500D01*
X106692701Y-51625500D02*
X106692701Y-52908200D01*
X106692701Y-57734200D02*
X106692701Y-57849394D01*
X106692701Y-58897340D02*
X106692701Y-58933262D01*
X106692701Y-60700738D02*
X106692701Y-60736660D01*
X106692701Y-61778713D02*
X106692701Y-61899800D01*
X106692701Y-66725800D02*
X106692701Y-288040834D01*
X106692701Y-288040834D02*
X106692701Y-297624500D01*
X106451401Y-51625500D02*
X106451401Y-52908200D01*
X106451401Y-57734200D02*
X106451401Y-57939999D01*
X106451401Y-58656040D02*
X106451401Y-58691962D01*
X106451401Y-60942038D02*
X106451401Y-60977960D01*
X106451401Y-61669155D02*
X106451401Y-61899800D01*
X106451401Y-66725800D02*
X106451401Y-288040834D01*
X106451401Y-288040834D02*
X106451401Y-297624500D01*
X106210101Y-51625500D02*
X106210101Y-52908200D01*
X106210101Y-57734200D02*
X106210101Y-58177313D01*
X106210101Y-58414740D02*
X106210101Y-58450662D01*
X106210101Y-61183338D02*
X106210101Y-61219260D01*
X106210101Y-61456686D02*
X106210101Y-61899800D01*
X106210101Y-66725800D02*
X106210101Y-288040834D01*
X106210101Y-288040834D02*
X106210101Y-297624500D01*
X105968801Y-51625500D02*
X105968801Y-52972413D01*
X105968801Y-57669986D02*
X105968801Y-58423155D01*
X105968801Y-61210844D02*
X105968801Y-61964013D01*
X105968801Y-66661586D02*
X105968801Y-288040834D01*
X105968801Y-288040834D02*
X105968801Y-297624500D01*
X105727501Y-51625500D02*
X105727501Y-53072363D01*
X105727501Y-57570036D02*
X105727501Y-58684276D01*
X105727501Y-60982994D02*
X105727501Y-62063963D01*
X105727501Y-66561636D02*
X105727501Y-288040834D01*
X105727501Y-288040834D02*
X105727501Y-297624500D01*
X105486201Y-51625500D02*
X105486201Y-53172313D01*
X105486201Y-57470086D02*
X105486201Y-58453193D01*
X105486201Y-61180808D02*
X105486201Y-62163913D01*
X105486201Y-66461686D02*
X105486201Y-288040834D01*
X105486201Y-288040834D02*
X105486201Y-297624500D01*
X105244901Y-51625500D02*
X105244901Y-53272262D01*
X105244901Y-57370137D02*
X105244901Y-58353243D01*
X105244901Y-61280758D02*
X105244901Y-62263862D01*
X105244901Y-66361737D02*
X105244901Y-288040834D01*
X105244901Y-288040834D02*
X105244901Y-297624500D01*
X105003601Y-51625500D02*
X105003601Y-53508903D01*
X105003601Y-57133497D02*
X105003601Y-58253293D01*
X105003601Y-61380708D02*
X105003601Y-62500503D01*
X105003601Y-66125097D02*
X105003601Y-288040834D01*
X105003601Y-288040834D02*
X105003601Y-297624500D01*
X104762301Y-51625500D02*
X104762301Y-53750203D01*
X104762301Y-56892197D02*
X104762301Y-58216800D01*
X104762301Y-61417200D02*
X104762301Y-62741803D01*
X104762301Y-65883797D02*
X104762301Y-288040834D01*
X104762301Y-288040834D02*
X104762301Y-297624500D01*
X104521001Y-51625500D02*
X104521001Y-54044050D01*
X104521001Y-56598349D02*
X104521001Y-58216800D01*
X104521001Y-61417200D02*
X104521001Y-63035650D01*
X104521001Y-65589949D02*
X104521001Y-288040834D01*
X104521001Y-288040834D02*
X104521001Y-297624500D01*
X104279701Y-51625500D02*
X104279701Y-54626599D01*
X104279701Y-56015800D02*
X104279701Y-58216800D01*
X104279701Y-61417200D02*
X104279701Y-63618199D01*
X104279701Y-65007400D02*
X104279701Y-288040834D01*
X104279701Y-288040834D02*
X104279701Y-297624500D01*
X104038401Y-51625500D02*
X104038401Y-54841225D01*
X104038401Y-54841225D02*
X104038401Y-58316417D01*
X104038401Y-61317582D02*
X104038401Y-63832825D01*
X104038401Y-63832825D02*
X104038401Y-288040834D01*
X104038401Y-288040834D02*
X104038401Y-297624500D01*
X103797101Y-51625500D02*
X103797101Y-54841225D01*
X103797101Y-54841225D02*
X103797101Y-58416367D01*
X103797101Y-61217632D02*
X103797101Y-63832825D01*
X103797101Y-63832825D02*
X103797101Y-288040834D01*
X103797101Y-288040834D02*
X103797101Y-297624500D01*
X103555801Y-51625500D02*
X103555801Y-54841225D01*
X103555801Y-54841225D02*
X103555801Y-58595374D01*
X103555801Y-61038626D02*
X103555801Y-63832825D01*
X103555801Y-63832825D02*
X103555801Y-288040834D01*
X103555801Y-288040834D02*
X103555801Y-297624500D01*
X103314501Y-51625500D02*
X103314501Y-54841225D01*
X103314501Y-54841225D02*
X103314501Y-58836674D01*
X103314501Y-60797326D02*
X103314501Y-63832825D01*
X103314501Y-63832825D02*
X103314501Y-288040834D01*
X103314501Y-288040834D02*
X103314501Y-297624500D01*
X103073201Y-51625500D02*
X103073201Y-54841225D01*
X103073201Y-54841225D02*
X103073201Y-59314734D01*
X103073201Y-60319265D02*
X103073201Y-63832825D01*
X103073201Y-63832825D02*
X103073201Y-288040834D01*
X103073201Y-288040834D02*
X103073201Y-297624500D01*
X102831901Y-51625500D02*
X102831901Y-54841225D01*
X102831901Y-54841225D02*
X102831901Y-59498700D01*
X102831901Y-59498700D02*
X102831901Y-63832825D01*
X102831901Y-63832825D02*
X102831901Y-288040834D01*
X102831901Y-288040834D02*
X102831901Y-297624500D01*
X102590601Y-51625500D02*
X102590601Y-54841225D01*
X102590601Y-54841225D02*
X102590601Y-59498700D01*
X102590601Y-59498700D02*
X102590601Y-63832825D01*
X102590601Y-63832825D02*
X102590601Y-288040834D01*
X102590601Y-288040834D02*
X102590601Y-297624500D01*
D17*
X151574501Y-297624500D02*
X102425500Y-297624500D01*
X102425500Y-288040834D01*
X122555000Y-288040834D01*
X122555000Y-289809166D01*
X123231711Y-291442890D01*
X124482110Y-292693289D01*
X126115834Y-293370000D01*
X127884166Y-293370000D01*
X129517890Y-292693289D01*
X130768289Y-291442890D01*
X131445000Y-289809166D01*
X131445000Y-288040834D01*
X130768289Y-286407110D01*
X129517890Y-285156711D01*
X127884166Y-284480000D01*
X126115834Y-284480000D01*
X124482110Y-285156711D01*
X123231711Y-286407110D01*
X122555000Y-288040834D01*
X102425500Y-288040834D01*
X102425500Y-63832825D01*
X104190800Y-63832825D01*
X104190800Y-64792775D01*
X104558158Y-65679654D01*
X105236946Y-66358442D01*
X106123825Y-66725800D01*
X107083775Y-66725800D01*
X107970654Y-66358442D01*
X108649442Y-65679654D01*
X109016800Y-64792775D01*
X109016800Y-63832825D01*
X108649442Y-62945946D01*
X107970654Y-62267158D01*
X107242165Y-61965407D01*
X107951297Y-61989173D01*
X108755384Y-61687247D01*
X108877993Y-61605322D01*
X109074593Y-61315154D01*
X107594400Y-59834961D01*
X106114207Y-61315154D01*
X106310807Y-61605322D01*
X106959395Y-61899800D01*
X106123825Y-61899800D01*
X105236946Y-62267158D01*
X104558158Y-62945946D01*
X104190800Y-63832825D01*
X102425500Y-63832825D01*
X102425500Y-59498700D01*
X102997000Y-59498700D01*
X102997000Y-60135300D01*
X103240616Y-60723441D01*
X103690759Y-61173584D01*
X104278900Y-61417200D01*
X104915500Y-61417200D01*
X105503641Y-61173584D01*
X105717352Y-60959873D01*
X105724153Y-60977984D01*
X105806078Y-61100593D01*
X106096246Y-61297193D01*
X107576439Y-59817000D01*
X107612361Y-59817000D01*
X109092554Y-61297193D01*
X109382722Y-61100593D01*
X109737804Y-60318525D01*
X109766573Y-59460103D01*
X109701388Y-59286501D01*
X110921800Y-59286501D01*
X110921800Y-60347499D01*
X111327826Y-61327734D01*
X112078066Y-62077974D01*
X113058301Y-62484000D01*
X114119299Y-62484000D01*
X115099534Y-62077974D01*
X115849774Y-61327734D01*
X116255800Y-60347499D01*
X116255800Y-59440834D01*
X122555000Y-59440834D01*
X122555000Y-61209166D01*
X123231711Y-62842890D01*
X124482110Y-64093289D01*
X126115834Y-64770000D01*
X127884166Y-64770000D01*
X129517890Y-64093289D01*
X130768289Y-62842890D01*
X131445000Y-61209166D01*
X131445000Y-59440834D01*
X130768289Y-57807110D01*
X129517890Y-56556711D01*
X127884166Y-55880000D01*
X126115834Y-55880000D01*
X124482110Y-56556711D01*
X123231711Y-57807110D01*
X122555000Y-59440834D01*
X116255800Y-59440834D01*
X116255800Y-59286501D01*
X115849774Y-58306266D01*
X115099534Y-57556026D01*
X114119299Y-57150000D01*
X113058301Y-57150000D01*
X112078066Y-57556026D01*
X111327826Y-58306266D01*
X110921800Y-59286501D01*
X109701388Y-59286501D01*
X109464647Y-58656016D01*
X109382722Y-58533407D01*
X109092554Y-58336807D01*
X107612361Y-59817000D01*
X107576439Y-59817000D01*
X106096246Y-58336807D01*
X105806078Y-58533407D01*
X105734432Y-58691207D01*
X105503641Y-58460416D01*
X104915500Y-58216800D01*
X104278900Y-58216800D01*
X103690759Y-58460416D01*
X103240616Y-58910559D01*
X102997000Y-59498700D01*
X102425500Y-59498700D01*
X102425500Y-54841225D01*
X104190800Y-54841225D01*
X104190800Y-55801175D01*
X104558158Y-56688054D01*
X105236946Y-57366842D01*
X106123825Y-57734200D01*
X106999486Y-57734200D01*
X106433416Y-57946753D01*
X106310807Y-58028678D01*
X106114207Y-58318846D01*
X107594400Y-59799039D01*
X109074593Y-58318846D01*
X108877993Y-58028678D01*
X108095925Y-57673596D01*
X107294896Y-57646750D01*
X107970654Y-57366842D01*
X108649442Y-56688054D01*
X109016800Y-55801175D01*
X109016800Y-54841225D01*
X108649442Y-53954346D01*
X107970654Y-53275558D01*
X107083775Y-52908200D01*
X106123825Y-52908200D01*
X105236946Y-53275558D01*
X104558158Y-53954346D01*
X104190800Y-54841225D01*
X102425500Y-54841225D01*
X102425500Y-51625500D01*
X151574500Y-51625500D01*
X151574501Y-297624500D01*
G04 #@! TD*
M02*
