G04 #@! TF.GenerationSoftware,KiCad,Pcbnew,5.0.2-bee76a0~70~ubuntu18.04.1*
G04 #@! TF.CreationDate,2020-04-21T07:34:43-07:00*
G04 #@! TF.ProjectId,hallway_backlight,68616c6c-7761-4795-9f62-61636b6c6967,1.0*
G04 #@! TF.SameCoordinates,Original*
G04 #@! TF.FileFunction,Legend,Top*
G04 #@! TF.FilePolarity,Positive*
%FSLAX46Y46*%
G04 Gerber Fmt 4.6, Leading zero omitted, Abs format (unit mm)*
G04 Created by KiCad (PCBNEW 5.0.2-bee76a0~70~ubuntu18.04.1) date Tue 21 Apr 2020 07:34:43 AM PDT*
%MOMM*%
%LPD*%
G01*
G04 APERTURE LIST*
%ADD10C,0.304800*%
%ADD11C,0.381000*%
G04 APERTURE END LIST*
D10*
X107315000Y-70007238D02*
X107315000Y-67975238D01*
X107895571Y-67975238D01*
X108040714Y-68072000D01*
X108113285Y-68168761D01*
X108185857Y-68362285D01*
X108185857Y-68652571D01*
X108113285Y-68846095D01*
X108040714Y-68942857D01*
X107895571Y-69039619D01*
X107315000Y-69039619D01*
X108693857Y-67975238D02*
X109056714Y-70007238D01*
X109347000Y-68555809D01*
X109637285Y-70007238D01*
X110000142Y-67975238D01*
X111451571Y-70007238D02*
X110943571Y-69039619D01*
X110580714Y-70007238D02*
X110580714Y-67975238D01*
X111161285Y-67975238D01*
X111306428Y-68072000D01*
X111379000Y-68168761D01*
X111451571Y-68362285D01*
X111451571Y-68652571D01*
X111379000Y-68846095D01*
X111306428Y-68942857D01*
X111161285Y-69039619D01*
X110580714Y-69039619D01*
X106964238Y-288326285D02*
X104932238Y-288326285D01*
X104932238Y-287963428D01*
X105029000Y-287745714D01*
X105222523Y-287600571D01*
X105416047Y-287528000D01*
X105803095Y-287455428D01*
X106093380Y-287455428D01*
X106480428Y-287528000D01*
X106673952Y-287600571D01*
X106867476Y-287745714D01*
X106964238Y-287963428D01*
X106964238Y-288326285D01*
X106964238Y-286802285D02*
X105609571Y-286802285D01*
X104932238Y-286802285D02*
X105029000Y-286874857D01*
X105125761Y-286802285D01*
X105029000Y-286729714D01*
X104932238Y-286802285D01*
X105125761Y-286802285D01*
X106867476Y-285423428D02*
X106964238Y-285568571D01*
X106964238Y-285858857D01*
X106867476Y-286004000D01*
X106770714Y-286076571D01*
X106577190Y-286149142D01*
X105996619Y-286149142D01*
X105803095Y-286076571D01*
X105706333Y-286004000D01*
X105609571Y-285858857D01*
X105609571Y-285568571D01*
X105706333Y-285423428D01*
X106964238Y-284770285D02*
X104932238Y-284770285D01*
X106190142Y-284625142D02*
X106964238Y-284189714D01*
X105609571Y-284189714D02*
X106383666Y-284770285D01*
X106964238Y-283536571D02*
X105609571Y-283536571D01*
X104932238Y-283536571D02*
X105029000Y-283609142D01*
X105125761Y-283536571D01*
X105029000Y-283464000D01*
X104932238Y-283536571D01*
X105125761Y-283536571D01*
X105609571Y-282810857D02*
X106964238Y-282810857D01*
X105803095Y-282810857D02*
X105706333Y-282738285D01*
X105609571Y-282593142D01*
X105609571Y-282375428D01*
X105706333Y-282230285D01*
X105899857Y-282157714D01*
X106964238Y-282157714D01*
X106867476Y-281504571D02*
X106964238Y-281359428D01*
X106964238Y-281069142D01*
X106867476Y-280924000D01*
X106673952Y-280851428D01*
X106577190Y-280851428D01*
X106383666Y-280924000D01*
X106286904Y-281069142D01*
X106286904Y-281286857D01*
X106190142Y-281432000D01*
X105996619Y-281504571D01*
X105899857Y-281504571D01*
X105706333Y-281432000D01*
X105609571Y-281286857D01*
X105609571Y-281069142D01*
X105706333Y-280924000D01*
X106964238Y-279980571D02*
X106867476Y-280125714D01*
X106770714Y-280198285D01*
X106577190Y-280270857D01*
X105996619Y-280270857D01*
X105803095Y-280198285D01*
X105706333Y-280125714D01*
X105609571Y-279980571D01*
X105609571Y-279762857D01*
X105706333Y-279617714D01*
X105803095Y-279545142D01*
X105996619Y-279472571D01*
X106577190Y-279472571D01*
X106770714Y-279545142D01*
X106867476Y-279617714D01*
X106964238Y-279762857D01*
X106964238Y-279980571D01*
X105609571Y-278819428D02*
X106964238Y-278819428D01*
X105803095Y-278819428D02*
X105706333Y-278746857D01*
X105609571Y-278601714D01*
X105609571Y-278384000D01*
X105706333Y-278238857D01*
X105899857Y-278166285D01*
X106964238Y-278166285D01*
X106964238Y-275553714D02*
X106964238Y-276279428D01*
X104932238Y-276279428D01*
X106964238Y-274392571D02*
X105899857Y-274392571D01*
X105706333Y-274465142D01*
X105609571Y-274610285D01*
X105609571Y-274900571D01*
X105706333Y-275045714D01*
X106867476Y-274392571D02*
X106964238Y-274537714D01*
X106964238Y-274900571D01*
X106867476Y-275045714D01*
X106673952Y-275118285D01*
X106480428Y-275118285D01*
X106286904Y-275045714D01*
X106190142Y-274900571D01*
X106190142Y-274537714D01*
X106093380Y-274392571D01*
X106964238Y-273666857D02*
X104932238Y-273666857D01*
X105706333Y-273666857D02*
X105609571Y-273521714D01*
X105609571Y-273231428D01*
X105706333Y-273086285D01*
X105803095Y-273013714D01*
X105996619Y-272941142D01*
X106577190Y-272941142D01*
X106770714Y-273013714D01*
X106867476Y-273086285D01*
X106964238Y-273231428D01*
X106964238Y-273521714D01*
X106867476Y-273666857D01*
X148874238Y-284552571D02*
X146842238Y-284552571D01*
X147809857Y-284552571D02*
X147809857Y-283681714D01*
X148874238Y-283681714D02*
X146842238Y-283681714D01*
X148874238Y-282302857D02*
X147809857Y-282302857D01*
X147616333Y-282375428D01*
X147519571Y-282520571D01*
X147519571Y-282810857D01*
X147616333Y-282956000D01*
X148777476Y-282302857D02*
X148874238Y-282448000D01*
X148874238Y-282810857D01*
X148777476Y-282956000D01*
X148583952Y-283028571D01*
X148390428Y-283028571D01*
X148196904Y-282956000D01*
X148100142Y-282810857D01*
X148100142Y-282448000D01*
X148003380Y-282302857D01*
X148874238Y-281359428D02*
X148777476Y-281504571D01*
X148583952Y-281577142D01*
X146842238Y-281577142D01*
X148874238Y-280561142D02*
X148777476Y-280706285D01*
X148583952Y-280778857D01*
X146842238Y-280778857D01*
X147519571Y-280125714D02*
X148874238Y-279835428D01*
X147906619Y-279545142D01*
X148874238Y-279254857D01*
X147519571Y-278964571D01*
X148874238Y-277730857D02*
X147809857Y-277730857D01*
X147616333Y-277803428D01*
X147519571Y-277948571D01*
X147519571Y-278238857D01*
X147616333Y-278384000D01*
X148777476Y-277730857D02*
X148874238Y-277876000D01*
X148874238Y-278238857D01*
X148777476Y-278384000D01*
X148583952Y-278456571D01*
X148390428Y-278456571D01*
X148196904Y-278384000D01*
X148100142Y-278238857D01*
X148100142Y-277876000D01*
X148003380Y-277730857D01*
X147519571Y-277150285D02*
X148874238Y-276787428D01*
X147519571Y-276424571D02*
X148874238Y-276787428D01*
X149358047Y-276932571D01*
X149454809Y-277005142D01*
X149551571Y-277150285D01*
X148293666Y-274755428D02*
X148293666Y-274029714D01*
X148874238Y-274900571D02*
X146842238Y-274392571D01*
X148874238Y-273884571D01*
X148874238Y-273376571D02*
X147519571Y-273376571D01*
X147906619Y-273376571D02*
X147713095Y-273304000D01*
X147616333Y-273231428D01*
X147519571Y-273086285D01*
X147519571Y-272941142D01*
X148777476Y-271852571D02*
X148874238Y-271997714D01*
X148874238Y-272288000D01*
X148777476Y-272433142D01*
X148583952Y-272505714D01*
X147809857Y-272505714D01*
X147616333Y-272433142D01*
X147519571Y-272288000D01*
X147519571Y-271997714D01*
X147616333Y-271852571D01*
X147809857Y-271780000D01*
X148003380Y-271780000D01*
X148196904Y-272505714D01*
X147519571Y-271126857D02*
X148874238Y-271126857D01*
X147713095Y-271126857D02*
X147616333Y-271054285D01*
X147519571Y-270909142D01*
X147519571Y-270691428D01*
X147616333Y-270546285D01*
X147809857Y-270473714D01*
X148874238Y-270473714D01*
X148874238Y-269094857D02*
X147809857Y-269094857D01*
X147616333Y-269167428D01*
X147519571Y-269312571D01*
X147519571Y-269602857D01*
X147616333Y-269748000D01*
X148777476Y-269094857D02*
X148874238Y-269240000D01*
X148874238Y-269602857D01*
X148777476Y-269748000D01*
X148583952Y-269820571D01*
X148390428Y-269820571D01*
X148196904Y-269748000D01*
X148100142Y-269602857D01*
X148100142Y-269240000D01*
X148003380Y-269094857D01*
X147809857Y-266700000D02*
X147906619Y-266482285D01*
X148003380Y-266409714D01*
X148196904Y-266337142D01*
X148487190Y-266337142D01*
X148680714Y-266409714D01*
X148777476Y-266482285D01*
X148874238Y-266627428D01*
X148874238Y-267208000D01*
X146842238Y-267208000D01*
X146842238Y-266700000D01*
X146939000Y-266554857D01*
X147035761Y-266482285D01*
X147229285Y-266409714D01*
X147422809Y-266409714D01*
X147616333Y-266482285D01*
X147713095Y-266554857D01*
X147809857Y-266700000D01*
X147809857Y-267208000D01*
X148874238Y-265030857D02*
X147809857Y-265030857D01*
X147616333Y-265103428D01*
X147519571Y-265248571D01*
X147519571Y-265538857D01*
X147616333Y-265684000D01*
X148777476Y-265030857D02*
X148874238Y-265176000D01*
X148874238Y-265538857D01*
X148777476Y-265684000D01*
X148583952Y-265756571D01*
X148390428Y-265756571D01*
X148196904Y-265684000D01*
X148100142Y-265538857D01*
X148100142Y-265176000D01*
X148003380Y-265030857D01*
X148777476Y-263652000D02*
X148874238Y-263797142D01*
X148874238Y-264087428D01*
X148777476Y-264232571D01*
X148680714Y-264305142D01*
X148487190Y-264377714D01*
X147906619Y-264377714D01*
X147713095Y-264305142D01*
X147616333Y-264232571D01*
X147519571Y-264087428D01*
X147519571Y-263797142D01*
X147616333Y-263652000D01*
X148874238Y-262998857D02*
X146842238Y-262998857D01*
X148100142Y-262853714D02*
X148874238Y-262418285D01*
X147519571Y-262418285D02*
X148293666Y-262998857D01*
X148874238Y-261547428D02*
X148777476Y-261692571D01*
X148583952Y-261765142D01*
X146842238Y-261765142D01*
X148874238Y-260966857D02*
X147519571Y-260966857D01*
X146842238Y-260966857D02*
X146939000Y-261039428D01*
X147035761Y-260966857D01*
X146939000Y-260894285D01*
X146842238Y-260966857D01*
X147035761Y-260966857D01*
X147519571Y-259588000D02*
X149164523Y-259588000D01*
X149358047Y-259660571D01*
X149454809Y-259733142D01*
X149551571Y-259878285D01*
X149551571Y-260096000D01*
X149454809Y-260241142D01*
X148777476Y-259588000D02*
X148874238Y-259733142D01*
X148874238Y-260023428D01*
X148777476Y-260168571D01*
X148680714Y-260241142D01*
X148487190Y-260313714D01*
X147906619Y-260313714D01*
X147713095Y-260241142D01*
X147616333Y-260168571D01*
X147519571Y-260023428D01*
X147519571Y-259733142D01*
X147616333Y-259588000D01*
X148874238Y-258862285D02*
X146842238Y-258862285D01*
X148874238Y-258209142D02*
X147809857Y-258209142D01*
X147616333Y-258281714D01*
X147519571Y-258426857D01*
X147519571Y-258644571D01*
X147616333Y-258789714D01*
X147713095Y-258862285D01*
X147519571Y-257701142D02*
X147519571Y-257120571D01*
X146842238Y-257483428D02*
X148583952Y-257483428D01*
X148777476Y-257410857D01*
X148874238Y-257265714D01*
X148874238Y-257120571D01*
X147519571Y-255596571D02*
X148874238Y-255233714D01*
X147519571Y-254870857D01*
X148874238Y-253492000D02*
X148874238Y-254362857D01*
X148874238Y-253927428D02*
X146842238Y-253927428D01*
X147132523Y-254072571D01*
X147326047Y-254217714D01*
X147422809Y-254362857D01*
X148680714Y-252838857D02*
X148777476Y-252766285D01*
X148874238Y-252838857D01*
X148777476Y-252911428D01*
X148680714Y-252838857D01*
X148874238Y-252838857D01*
X146842238Y-251822857D02*
X146842238Y-251677714D01*
X146939000Y-251532571D01*
X147035761Y-251460000D01*
X147229285Y-251387428D01*
X147616333Y-251314857D01*
X148100142Y-251314857D01*
X148487190Y-251387428D01*
X148680714Y-251460000D01*
X148777476Y-251532571D01*
X148874238Y-251677714D01*
X148874238Y-251822857D01*
X148777476Y-251968000D01*
X148680714Y-252040571D01*
X148487190Y-252113142D01*
X148100142Y-252185714D01*
X147616333Y-252185714D01*
X147229285Y-252113142D01*
X147035761Y-252040571D01*
X146939000Y-251968000D01*
X146842238Y-251822857D01*
D11*
X101600000Y-174625000D02*
X152400000Y-174625000D01*
G04 #@! TO.C,P1*
X101600000Y-66802000D02*
X101600000Y-52832000D01*
X101600000Y-52832000D02*
X116205000Y-52832000D01*
X116205000Y-52832000D02*
X116205000Y-66802000D01*
X116205000Y-66802000D02*
X101600000Y-66802000D01*
G04 #@! TO.C,1/4-20*
X133350000Y-60325000D02*
G75*
G03X133350000Y-60325000I-6350000J0D01*
G01*
X133350000Y-288925000D02*
G75*
G03X133350000Y-288925000I-6350000J0D01*
G01*
G04 #@! TO.C,D0\002C0*
X117856000Y-77724000D02*
X118872000Y-78994000D01*
X117856000Y-73406000D02*
X117856000Y-78994000D01*
X117856000Y-78994000D02*
X123444000Y-78994000D01*
X123444000Y-78994000D02*
X123444000Y-73406000D01*
X123444000Y-73406000D02*
X117856000Y-73406000D01*
G04 #@! TO.C,D0\002C1*
X117856000Y-84074000D02*
X118872000Y-85344000D01*
X117856000Y-79756000D02*
X117856000Y-85344000D01*
X117856000Y-85344000D02*
X123444000Y-85344000D01*
X123444000Y-85344000D02*
X123444000Y-79756000D01*
X123444000Y-79756000D02*
X117856000Y-79756000D01*
G04 #@! TO.C,D0\002C2*
X117856000Y-90424000D02*
X118872000Y-91694000D01*
X117856000Y-86106000D02*
X117856000Y-91694000D01*
X117856000Y-91694000D02*
X123444000Y-91694000D01*
X123444000Y-91694000D02*
X123444000Y-86106000D01*
X123444000Y-86106000D02*
X117856000Y-86106000D01*
G04 #@! TO.C,D0\002C3*
X117856000Y-96774000D02*
X118872000Y-98044000D01*
X117856000Y-92456000D02*
X117856000Y-98044000D01*
X117856000Y-98044000D02*
X123444000Y-98044000D01*
X123444000Y-98044000D02*
X123444000Y-92456000D01*
X123444000Y-92456000D02*
X117856000Y-92456000D01*
G04 #@! TO.C,D0\002C4*
X117856000Y-103124000D02*
X118872000Y-104394000D01*
X117856000Y-98806000D02*
X117856000Y-104394000D01*
X117856000Y-104394000D02*
X123444000Y-104394000D01*
X123444000Y-104394000D02*
X123444000Y-98806000D01*
X123444000Y-98806000D02*
X117856000Y-98806000D01*
G04 #@! TO.C,D0\002C5*
X117856000Y-109474000D02*
X118872000Y-110744000D01*
X117856000Y-105156000D02*
X117856000Y-110744000D01*
X117856000Y-110744000D02*
X123444000Y-110744000D01*
X123444000Y-110744000D02*
X123444000Y-105156000D01*
X123444000Y-105156000D02*
X117856000Y-105156000D01*
G04 #@! TO.C,D0\002C6*
X117856000Y-115824000D02*
X118872000Y-117094000D01*
X117856000Y-111506000D02*
X117856000Y-117094000D01*
X117856000Y-117094000D02*
X123444000Y-117094000D01*
X123444000Y-117094000D02*
X123444000Y-111506000D01*
X123444000Y-111506000D02*
X117856000Y-111506000D01*
G04 #@! TO.C,D0\002C7*
X117856000Y-122174000D02*
X118872000Y-123444000D01*
X117856000Y-117856000D02*
X117856000Y-123444000D01*
X117856000Y-123444000D02*
X123444000Y-123444000D01*
X123444000Y-123444000D02*
X123444000Y-117856000D01*
X123444000Y-117856000D02*
X117856000Y-117856000D01*
G04 #@! TO.C,D0\002C8*
X117856000Y-128524000D02*
X118872000Y-129794000D01*
X117856000Y-124206000D02*
X117856000Y-129794000D01*
X117856000Y-129794000D02*
X123444000Y-129794000D01*
X123444000Y-129794000D02*
X123444000Y-124206000D01*
X123444000Y-124206000D02*
X117856000Y-124206000D01*
G04 #@! TO.C,D0\002C9*
X117856000Y-134874000D02*
X118872000Y-136144000D01*
X117856000Y-130556000D02*
X117856000Y-136144000D01*
X117856000Y-136144000D02*
X123444000Y-136144000D01*
X123444000Y-136144000D02*
X123444000Y-130556000D01*
X123444000Y-130556000D02*
X117856000Y-130556000D01*
G04 #@! TO.C,D0\002C10*
X117856000Y-141224000D02*
X118872000Y-142494000D01*
X117856000Y-136906000D02*
X117856000Y-142494000D01*
X117856000Y-142494000D02*
X123444000Y-142494000D01*
X123444000Y-142494000D02*
X123444000Y-136906000D01*
X123444000Y-136906000D02*
X117856000Y-136906000D01*
G04 #@! TO.C,D0\002C11*
X117856000Y-147574000D02*
X118872000Y-148844000D01*
X117856000Y-143256000D02*
X117856000Y-148844000D01*
X117856000Y-148844000D02*
X123444000Y-148844000D01*
X123444000Y-148844000D02*
X123444000Y-143256000D01*
X123444000Y-143256000D02*
X117856000Y-143256000D01*
G04 #@! TO.C,D0\002C12*
X117856000Y-153924000D02*
X118872000Y-155194000D01*
X117856000Y-149606000D02*
X117856000Y-155194000D01*
X117856000Y-155194000D02*
X123444000Y-155194000D01*
X123444000Y-155194000D02*
X123444000Y-149606000D01*
X123444000Y-149606000D02*
X117856000Y-149606000D01*
G04 #@! TO.C,D0\002C13*
X117856000Y-160274000D02*
X118872000Y-161544000D01*
X117856000Y-155956000D02*
X117856000Y-161544000D01*
X117856000Y-161544000D02*
X123444000Y-161544000D01*
X123444000Y-161544000D02*
X123444000Y-155956000D01*
X123444000Y-155956000D02*
X117856000Y-155956000D01*
G04 #@! TO.C,D0\002C14*
X117856000Y-166624000D02*
X118872000Y-167894000D01*
X117856000Y-162306000D02*
X117856000Y-167894000D01*
X117856000Y-167894000D02*
X123444000Y-167894000D01*
X123444000Y-167894000D02*
X123444000Y-162306000D01*
X123444000Y-162306000D02*
X117856000Y-162306000D01*
G04 #@! TO.C,D0\002C15*
X117856000Y-172974000D02*
X118872000Y-174244000D01*
X117856000Y-168656000D02*
X117856000Y-174244000D01*
X117856000Y-174244000D02*
X123444000Y-174244000D01*
X123444000Y-174244000D02*
X123444000Y-168656000D01*
X123444000Y-168656000D02*
X117856000Y-168656000D01*
G04 #@! TO.C,D1\002C0*
X124206000Y-77724000D02*
X125222000Y-78994000D01*
X124206000Y-73406000D02*
X124206000Y-78994000D01*
X124206000Y-78994000D02*
X129794000Y-78994000D01*
X129794000Y-78994000D02*
X129794000Y-73406000D01*
X129794000Y-73406000D02*
X124206000Y-73406000D01*
G04 #@! TO.C,D1\002C1*
X124206000Y-84074000D02*
X125222000Y-85344000D01*
X124206000Y-79756000D02*
X124206000Y-85344000D01*
X124206000Y-85344000D02*
X129794000Y-85344000D01*
X129794000Y-85344000D02*
X129794000Y-79756000D01*
X129794000Y-79756000D02*
X124206000Y-79756000D01*
G04 #@! TO.C,D1\002C2*
X124206000Y-90424000D02*
X125222000Y-91694000D01*
X124206000Y-86106000D02*
X124206000Y-91694000D01*
X124206000Y-91694000D02*
X129794000Y-91694000D01*
X129794000Y-91694000D02*
X129794000Y-86106000D01*
X129794000Y-86106000D02*
X124206000Y-86106000D01*
G04 #@! TO.C,D1\002C3*
X124206000Y-96774000D02*
X125222000Y-98044000D01*
X124206000Y-92456000D02*
X124206000Y-98044000D01*
X124206000Y-98044000D02*
X129794000Y-98044000D01*
X129794000Y-98044000D02*
X129794000Y-92456000D01*
X129794000Y-92456000D02*
X124206000Y-92456000D01*
G04 #@! TO.C,D1\002C4*
X124206000Y-103124000D02*
X125222000Y-104394000D01*
X124206000Y-98806000D02*
X124206000Y-104394000D01*
X124206000Y-104394000D02*
X129794000Y-104394000D01*
X129794000Y-104394000D02*
X129794000Y-98806000D01*
X129794000Y-98806000D02*
X124206000Y-98806000D01*
G04 #@! TO.C,D1\002C5*
X124206000Y-109474000D02*
X125222000Y-110744000D01*
X124206000Y-105156000D02*
X124206000Y-110744000D01*
X124206000Y-110744000D02*
X129794000Y-110744000D01*
X129794000Y-110744000D02*
X129794000Y-105156000D01*
X129794000Y-105156000D02*
X124206000Y-105156000D01*
G04 #@! TO.C,D1\002C6*
X124206000Y-115824000D02*
X125222000Y-117094000D01*
X124206000Y-111506000D02*
X124206000Y-117094000D01*
X124206000Y-117094000D02*
X129794000Y-117094000D01*
X129794000Y-117094000D02*
X129794000Y-111506000D01*
X129794000Y-111506000D02*
X124206000Y-111506000D01*
G04 #@! TO.C,D1\002C7*
X124206000Y-122174000D02*
X125222000Y-123444000D01*
X124206000Y-117856000D02*
X124206000Y-123444000D01*
X124206000Y-123444000D02*
X129794000Y-123444000D01*
X129794000Y-123444000D02*
X129794000Y-117856000D01*
X129794000Y-117856000D02*
X124206000Y-117856000D01*
G04 #@! TO.C,D1\002C8*
X124206000Y-128524000D02*
X125222000Y-129794000D01*
X124206000Y-124206000D02*
X124206000Y-129794000D01*
X124206000Y-129794000D02*
X129794000Y-129794000D01*
X129794000Y-129794000D02*
X129794000Y-124206000D01*
X129794000Y-124206000D02*
X124206000Y-124206000D01*
G04 #@! TO.C,D1\002C9*
X124206000Y-134874000D02*
X125222000Y-136144000D01*
X124206000Y-130556000D02*
X124206000Y-136144000D01*
X124206000Y-136144000D02*
X129794000Y-136144000D01*
X129794000Y-136144000D02*
X129794000Y-130556000D01*
X129794000Y-130556000D02*
X124206000Y-130556000D01*
G04 #@! TO.C,D1\002C10*
X124206000Y-141224000D02*
X125222000Y-142494000D01*
X124206000Y-136906000D02*
X124206000Y-142494000D01*
X124206000Y-142494000D02*
X129794000Y-142494000D01*
X129794000Y-142494000D02*
X129794000Y-136906000D01*
X129794000Y-136906000D02*
X124206000Y-136906000D01*
G04 #@! TO.C,D1\002C11*
X124206000Y-147574000D02*
X125222000Y-148844000D01*
X124206000Y-143256000D02*
X124206000Y-148844000D01*
X124206000Y-148844000D02*
X129794000Y-148844000D01*
X129794000Y-148844000D02*
X129794000Y-143256000D01*
X129794000Y-143256000D02*
X124206000Y-143256000D01*
G04 #@! TO.C,D1\002C12*
X124206000Y-153924000D02*
X125222000Y-155194000D01*
X124206000Y-149606000D02*
X124206000Y-155194000D01*
X124206000Y-155194000D02*
X129794000Y-155194000D01*
X129794000Y-155194000D02*
X129794000Y-149606000D01*
X129794000Y-149606000D02*
X124206000Y-149606000D01*
G04 #@! TO.C,D1\002C13*
X124206000Y-160274000D02*
X125222000Y-161544000D01*
X124206000Y-155956000D02*
X124206000Y-161544000D01*
X124206000Y-161544000D02*
X129794000Y-161544000D01*
X129794000Y-161544000D02*
X129794000Y-155956000D01*
X129794000Y-155956000D02*
X124206000Y-155956000D01*
G04 #@! TO.C,D1\002C14*
X124206000Y-166624000D02*
X125222000Y-167894000D01*
X124206000Y-162306000D02*
X124206000Y-167894000D01*
X124206000Y-167894000D02*
X129794000Y-167894000D01*
X129794000Y-167894000D02*
X129794000Y-162306000D01*
X129794000Y-162306000D02*
X124206000Y-162306000D01*
G04 #@! TO.C,D1\002C15*
X124206000Y-172974000D02*
X125222000Y-174244000D01*
X124206000Y-168656000D02*
X124206000Y-174244000D01*
X124206000Y-174244000D02*
X129794000Y-174244000D01*
X129794000Y-174244000D02*
X129794000Y-168656000D01*
X129794000Y-168656000D02*
X124206000Y-168656000D01*
G04 #@! TO.C,D2\002C0*
X130556000Y-77724000D02*
X131572000Y-78994000D01*
X130556000Y-73406000D02*
X130556000Y-78994000D01*
X130556000Y-78994000D02*
X136144000Y-78994000D01*
X136144000Y-78994000D02*
X136144000Y-73406000D01*
X136144000Y-73406000D02*
X130556000Y-73406000D01*
G04 #@! TO.C,D2\002C1*
X130556000Y-84074000D02*
X131572000Y-85344000D01*
X130556000Y-79756000D02*
X130556000Y-85344000D01*
X130556000Y-85344000D02*
X136144000Y-85344000D01*
X136144000Y-85344000D02*
X136144000Y-79756000D01*
X136144000Y-79756000D02*
X130556000Y-79756000D01*
G04 #@! TO.C,D2\002C2*
X130556000Y-90424000D02*
X131572000Y-91694000D01*
X130556000Y-86106000D02*
X130556000Y-91694000D01*
X130556000Y-91694000D02*
X136144000Y-91694000D01*
X136144000Y-91694000D02*
X136144000Y-86106000D01*
X136144000Y-86106000D02*
X130556000Y-86106000D01*
G04 #@! TO.C,D2\002C3*
X130556000Y-96774000D02*
X131572000Y-98044000D01*
X130556000Y-92456000D02*
X130556000Y-98044000D01*
X130556000Y-98044000D02*
X136144000Y-98044000D01*
X136144000Y-98044000D02*
X136144000Y-92456000D01*
X136144000Y-92456000D02*
X130556000Y-92456000D01*
G04 #@! TO.C,D2\002C4*
X130556000Y-103124000D02*
X131572000Y-104394000D01*
X130556000Y-98806000D02*
X130556000Y-104394000D01*
X130556000Y-104394000D02*
X136144000Y-104394000D01*
X136144000Y-104394000D02*
X136144000Y-98806000D01*
X136144000Y-98806000D02*
X130556000Y-98806000D01*
G04 #@! TO.C,D2\002C5*
X130556000Y-109474000D02*
X131572000Y-110744000D01*
X130556000Y-105156000D02*
X130556000Y-110744000D01*
X130556000Y-110744000D02*
X136144000Y-110744000D01*
X136144000Y-110744000D02*
X136144000Y-105156000D01*
X136144000Y-105156000D02*
X130556000Y-105156000D01*
G04 #@! TO.C,D2\002C6*
X130556000Y-115824000D02*
X131572000Y-117094000D01*
X130556000Y-111506000D02*
X130556000Y-117094000D01*
X130556000Y-117094000D02*
X136144000Y-117094000D01*
X136144000Y-117094000D02*
X136144000Y-111506000D01*
X136144000Y-111506000D02*
X130556000Y-111506000D01*
G04 #@! TO.C,D2\002C7*
X130556000Y-122174000D02*
X131572000Y-123444000D01*
X130556000Y-117856000D02*
X130556000Y-123444000D01*
X130556000Y-123444000D02*
X136144000Y-123444000D01*
X136144000Y-123444000D02*
X136144000Y-117856000D01*
X136144000Y-117856000D02*
X130556000Y-117856000D01*
G04 #@! TO.C,D2\002C8*
X130556000Y-128524000D02*
X131572000Y-129794000D01*
X130556000Y-124206000D02*
X130556000Y-129794000D01*
X130556000Y-129794000D02*
X136144000Y-129794000D01*
X136144000Y-129794000D02*
X136144000Y-124206000D01*
X136144000Y-124206000D02*
X130556000Y-124206000D01*
G04 #@! TO.C,D2\002C9*
X130556000Y-134874000D02*
X131572000Y-136144000D01*
X130556000Y-130556000D02*
X130556000Y-136144000D01*
X130556000Y-136144000D02*
X136144000Y-136144000D01*
X136144000Y-136144000D02*
X136144000Y-130556000D01*
X136144000Y-130556000D02*
X130556000Y-130556000D01*
G04 #@! TO.C,D2\002C10*
X130556000Y-141224000D02*
X131572000Y-142494000D01*
X130556000Y-136906000D02*
X130556000Y-142494000D01*
X130556000Y-142494000D02*
X136144000Y-142494000D01*
X136144000Y-142494000D02*
X136144000Y-136906000D01*
X136144000Y-136906000D02*
X130556000Y-136906000D01*
G04 #@! TO.C,D2\002C11*
X130556000Y-147574000D02*
X131572000Y-148844000D01*
X130556000Y-143256000D02*
X130556000Y-148844000D01*
X130556000Y-148844000D02*
X136144000Y-148844000D01*
X136144000Y-148844000D02*
X136144000Y-143256000D01*
X136144000Y-143256000D02*
X130556000Y-143256000D01*
G04 #@! TO.C,D2\002C12*
X130556000Y-153924000D02*
X131572000Y-155194000D01*
X130556000Y-149606000D02*
X130556000Y-155194000D01*
X130556000Y-155194000D02*
X136144000Y-155194000D01*
X136144000Y-155194000D02*
X136144000Y-149606000D01*
X136144000Y-149606000D02*
X130556000Y-149606000D01*
G04 #@! TO.C,D2\002C13*
X130556000Y-160274000D02*
X131572000Y-161544000D01*
X130556000Y-155956000D02*
X130556000Y-161544000D01*
X130556000Y-161544000D02*
X136144000Y-161544000D01*
X136144000Y-161544000D02*
X136144000Y-155956000D01*
X136144000Y-155956000D02*
X130556000Y-155956000D01*
G04 #@! TO.C,D2\002C14*
X130556000Y-166624000D02*
X131572000Y-167894000D01*
X130556000Y-162306000D02*
X130556000Y-167894000D01*
X130556000Y-167894000D02*
X136144000Y-167894000D01*
X136144000Y-167894000D02*
X136144000Y-162306000D01*
X136144000Y-162306000D02*
X130556000Y-162306000D01*
G04 #@! TO.C,D2\002C15*
X130556000Y-172974000D02*
X131572000Y-174244000D01*
X130556000Y-168656000D02*
X130556000Y-174244000D01*
X130556000Y-174244000D02*
X136144000Y-174244000D01*
X136144000Y-174244000D02*
X136144000Y-168656000D01*
X136144000Y-168656000D02*
X130556000Y-168656000D01*
G04 #@! TO.C,D3\002C0*
X117856000Y-179324000D02*
X118872000Y-180594000D01*
X117856000Y-175006000D02*
X117856000Y-180594000D01*
X117856000Y-180594000D02*
X123444000Y-180594000D01*
X123444000Y-180594000D02*
X123444000Y-175006000D01*
X123444000Y-175006000D02*
X117856000Y-175006000D01*
G04 #@! TO.C,D3\002C1*
X117856000Y-185674000D02*
X118872000Y-186944000D01*
X117856000Y-181356000D02*
X117856000Y-186944000D01*
X117856000Y-186944000D02*
X123444000Y-186944000D01*
X123444000Y-186944000D02*
X123444000Y-181356000D01*
X123444000Y-181356000D02*
X117856000Y-181356000D01*
G04 #@! TO.C,D3\002C2*
X117856000Y-192024000D02*
X118872000Y-193294000D01*
X117856000Y-187706000D02*
X117856000Y-193294000D01*
X117856000Y-193294000D02*
X123444000Y-193294000D01*
X123444000Y-193294000D02*
X123444000Y-187706000D01*
X123444000Y-187706000D02*
X117856000Y-187706000D01*
G04 #@! TO.C,D3\002C3*
X117856000Y-198374000D02*
X118872000Y-199644000D01*
X117856000Y-194056000D02*
X117856000Y-199644000D01*
X117856000Y-199644000D02*
X123444000Y-199644000D01*
X123444000Y-199644000D02*
X123444000Y-194056000D01*
X123444000Y-194056000D02*
X117856000Y-194056000D01*
G04 #@! TO.C,D3\002C4*
X117856000Y-204724000D02*
X118872000Y-205994000D01*
X117856000Y-200406000D02*
X117856000Y-205994000D01*
X117856000Y-205994000D02*
X123444000Y-205994000D01*
X123444000Y-205994000D02*
X123444000Y-200406000D01*
X123444000Y-200406000D02*
X117856000Y-200406000D01*
G04 #@! TO.C,D3\002C5*
X117856000Y-211074000D02*
X118872000Y-212344000D01*
X117856000Y-206756000D02*
X117856000Y-212344000D01*
X117856000Y-212344000D02*
X123444000Y-212344000D01*
X123444000Y-212344000D02*
X123444000Y-206756000D01*
X123444000Y-206756000D02*
X117856000Y-206756000D01*
G04 #@! TO.C,D3\002C6*
X117856000Y-217424000D02*
X118872000Y-218694000D01*
X117856000Y-213106000D02*
X117856000Y-218694000D01*
X117856000Y-218694000D02*
X123444000Y-218694000D01*
X123444000Y-218694000D02*
X123444000Y-213106000D01*
X123444000Y-213106000D02*
X117856000Y-213106000D01*
G04 #@! TO.C,D3\002C7*
X117856000Y-223774000D02*
X118872000Y-225044000D01*
X117856000Y-219456000D02*
X117856000Y-225044000D01*
X117856000Y-225044000D02*
X123444000Y-225044000D01*
X123444000Y-225044000D02*
X123444000Y-219456000D01*
X123444000Y-219456000D02*
X117856000Y-219456000D01*
G04 #@! TO.C,D3\002C8*
X117856000Y-230124000D02*
X118872000Y-231394000D01*
X117856000Y-225806000D02*
X117856000Y-231394000D01*
X117856000Y-231394000D02*
X123444000Y-231394000D01*
X123444000Y-231394000D02*
X123444000Y-225806000D01*
X123444000Y-225806000D02*
X117856000Y-225806000D01*
G04 #@! TO.C,D3\002C9*
X117856000Y-236474000D02*
X118872000Y-237744000D01*
X117856000Y-232156000D02*
X117856000Y-237744000D01*
X117856000Y-237744000D02*
X123444000Y-237744000D01*
X123444000Y-237744000D02*
X123444000Y-232156000D01*
X123444000Y-232156000D02*
X117856000Y-232156000D01*
G04 #@! TO.C,D3\002C10*
X117856000Y-242824000D02*
X118872000Y-244094000D01*
X117856000Y-238506000D02*
X117856000Y-244094000D01*
X117856000Y-244094000D02*
X123444000Y-244094000D01*
X123444000Y-244094000D02*
X123444000Y-238506000D01*
X123444000Y-238506000D02*
X117856000Y-238506000D01*
G04 #@! TO.C,D3\002C11*
X117856000Y-249174000D02*
X118872000Y-250444000D01*
X117856000Y-244856000D02*
X117856000Y-250444000D01*
X117856000Y-250444000D02*
X123444000Y-250444000D01*
X123444000Y-250444000D02*
X123444000Y-244856000D01*
X123444000Y-244856000D02*
X117856000Y-244856000D01*
G04 #@! TO.C,D3\002C12*
X117856000Y-255524000D02*
X118872000Y-256794000D01*
X117856000Y-251206000D02*
X117856000Y-256794000D01*
X117856000Y-256794000D02*
X123444000Y-256794000D01*
X123444000Y-256794000D02*
X123444000Y-251206000D01*
X123444000Y-251206000D02*
X117856000Y-251206000D01*
G04 #@! TO.C,D3\002C13*
X117856000Y-261874000D02*
X118872000Y-263144000D01*
X117856000Y-257556000D02*
X117856000Y-263144000D01*
X117856000Y-263144000D02*
X123444000Y-263144000D01*
X123444000Y-263144000D02*
X123444000Y-257556000D01*
X123444000Y-257556000D02*
X117856000Y-257556000D01*
G04 #@! TO.C,D3\002C14*
X117856000Y-268224000D02*
X118872000Y-269494000D01*
X117856000Y-263906000D02*
X117856000Y-269494000D01*
X117856000Y-269494000D02*
X123444000Y-269494000D01*
X123444000Y-269494000D02*
X123444000Y-263906000D01*
X123444000Y-263906000D02*
X117856000Y-263906000D01*
G04 #@! TO.C,D3\002C15*
X117856000Y-274574000D02*
X118872000Y-275844000D01*
X117856000Y-270256000D02*
X117856000Y-275844000D01*
X117856000Y-275844000D02*
X123444000Y-275844000D01*
X123444000Y-275844000D02*
X123444000Y-270256000D01*
X123444000Y-270256000D02*
X117856000Y-270256000D01*
G04 #@! TO.C,D4\002C0*
X124206000Y-179324000D02*
X125222000Y-180594000D01*
X124206000Y-175006000D02*
X124206000Y-180594000D01*
X124206000Y-180594000D02*
X129794000Y-180594000D01*
X129794000Y-180594000D02*
X129794000Y-175006000D01*
X129794000Y-175006000D02*
X124206000Y-175006000D01*
G04 #@! TO.C,D4\002C1*
X124206000Y-185674000D02*
X125222000Y-186944000D01*
X124206000Y-181356000D02*
X124206000Y-186944000D01*
X124206000Y-186944000D02*
X129794000Y-186944000D01*
X129794000Y-186944000D02*
X129794000Y-181356000D01*
X129794000Y-181356000D02*
X124206000Y-181356000D01*
G04 #@! TO.C,D4\002C2*
X124206000Y-192024000D02*
X125222000Y-193294000D01*
X124206000Y-187706000D02*
X124206000Y-193294000D01*
X124206000Y-193294000D02*
X129794000Y-193294000D01*
X129794000Y-193294000D02*
X129794000Y-187706000D01*
X129794000Y-187706000D02*
X124206000Y-187706000D01*
G04 #@! TO.C,D4\002C3*
X124206000Y-198374000D02*
X125222000Y-199644000D01*
X124206000Y-194056000D02*
X124206000Y-199644000D01*
X124206000Y-199644000D02*
X129794000Y-199644000D01*
X129794000Y-199644000D02*
X129794000Y-194056000D01*
X129794000Y-194056000D02*
X124206000Y-194056000D01*
G04 #@! TO.C,D4\002C4*
X124206000Y-204724000D02*
X125222000Y-205994000D01*
X124206000Y-200406000D02*
X124206000Y-205994000D01*
X124206000Y-205994000D02*
X129794000Y-205994000D01*
X129794000Y-205994000D02*
X129794000Y-200406000D01*
X129794000Y-200406000D02*
X124206000Y-200406000D01*
G04 #@! TO.C,D4\002C5*
X124206000Y-211074000D02*
X125222000Y-212344000D01*
X124206000Y-206756000D02*
X124206000Y-212344000D01*
X124206000Y-212344000D02*
X129794000Y-212344000D01*
X129794000Y-212344000D02*
X129794000Y-206756000D01*
X129794000Y-206756000D02*
X124206000Y-206756000D01*
G04 #@! TO.C,D4\002C6*
X124206000Y-217424000D02*
X125222000Y-218694000D01*
X124206000Y-213106000D02*
X124206000Y-218694000D01*
X124206000Y-218694000D02*
X129794000Y-218694000D01*
X129794000Y-218694000D02*
X129794000Y-213106000D01*
X129794000Y-213106000D02*
X124206000Y-213106000D01*
G04 #@! TO.C,D4\002C7*
X124206000Y-223774000D02*
X125222000Y-225044000D01*
X124206000Y-219456000D02*
X124206000Y-225044000D01*
X124206000Y-225044000D02*
X129794000Y-225044000D01*
X129794000Y-225044000D02*
X129794000Y-219456000D01*
X129794000Y-219456000D02*
X124206000Y-219456000D01*
G04 #@! TO.C,D4\002C8*
X124206000Y-230124000D02*
X125222000Y-231394000D01*
X124206000Y-225806000D02*
X124206000Y-231394000D01*
X124206000Y-231394000D02*
X129794000Y-231394000D01*
X129794000Y-231394000D02*
X129794000Y-225806000D01*
X129794000Y-225806000D02*
X124206000Y-225806000D01*
G04 #@! TO.C,D4\002C9*
X124206000Y-236474000D02*
X125222000Y-237744000D01*
X124206000Y-232156000D02*
X124206000Y-237744000D01*
X124206000Y-237744000D02*
X129794000Y-237744000D01*
X129794000Y-237744000D02*
X129794000Y-232156000D01*
X129794000Y-232156000D02*
X124206000Y-232156000D01*
G04 #@! TO.C,D4\002C10*
X124206000Y-242824000D02*
X125222000Y-244094000D01*
X124206000Y-238506000D02*
X124206000Y-244094000D01*
X124206000Y-244094000D02*
X129794000Y-244094000D01*
X129794000Y-244094000D02*
X129794000Y-238506000D01*
X129794000Y-238506000D02*
X124206000Y-238506000D01*
G04 #@! TO.C,D4\002C11*
X124206000Y-249174000D02*
X125222000Y-250444000D01*
X124206000Y-244856000D02*
X124206000Y-250444000D01*
X124206000Y-250444000D02*
X129794000Y-250444000D01*
X129794000Y-250444000D02*
X129794000Y-244856000D01*
X129794000Y-244856000D02*
X124206000Y-244856000D01*
G04 #@! TO.C,D4\002C12*
X124206000Y-255524000D02*
X125222000Y-256794000D01*
X124206000Y-251206000D02*
X124206000Y-256794000D01*
X124206000Y-256794000D02*
X129794000Y-256794000D01*
X129794000Y-256794000D02*
X129794000Y-251206000D01*
X129794000Y-251206000D02*
X124206000Y-251206000D01*
G04 #@! TO.C,D4\002C13*
X124206000Y-261874000D02*
X125222000Y-263144000D01*
X124206000Y-257556000D02*
X124206000Y-263144000D01*
X124206000Y-263144000D02*
X129794000Y-263144000D01*
X129794000Y-263144000D02*
X129794000Y-257556000D01*
X129794000Y-257556000D02*
X124206000Y-257556000D01*
G04 #@! TO.C,D4\002C14*
X124206000Y-268224000D02*
X125222000Y-269494000D01*
X124206000Y-263906000D02*
X124206000Y-269494000D01*
X124206000Y-269494000D02*
X129794000Y-269494000D01*
X129794000Y-269494000D02*
X129794000Y-263906000D01*
X129794000Y-263906000D02*
X124206000Y-263906000D01*
G04 #@! TO.C,D4\002C15*
X124206000Y-274574000D02*
X125222000Y-275844000D01*
X124206000Y-270256000D02*
X124206000Y-275844000D01*
X124206000Y-275844000D02*
X129794000Y-275844000D01*
X129794000Y-275844000D02*
X129794000Y-270256000D01*
X129794000Y-270256000D02*
X124206000Y-270256000D01*
G04 #@! TO.C,D5\002C0*
X130556000Y-179324000D02*
X131572000Y-180594000D01*
X130556000Y-175006000D02*
X130556000Y-180594000D01*
X130556000Y-180594000D02*
X136144000Y-180594000D01*
X136144000Y-180594000D02*
X136144000Y-175006000D01*
X136144000Y-175006000D02*
X130556000Y-175006000D01*
G04 #@! TO.C,D5\002C1*
X130556000Y-185674000D02*
X131572000Y-186944000D01*
X130556000Y-181356000D02*
X130556000Y-186944000D01*
X130556000Y-186944000D02*
X136144000Y-186944000D01*
X136144000Y-186944000D02*
X136144000Y-181356000D01*
X136144000Y-181356000D02*
X130556000Y-181356000D01*
G04 #@! TO.C,D5\002C2*
X130556000Y-192024000D02*
X131572000Y-193294000D01*
X130556000Y-187706000D02*
X130556000Y-193294000D01*
X130556000Y-193294000D02*
X136144000Y-193294000D01*
X136144000Y-193294000D02*
X136144000Y-187706000D01*
X136144000Y-187706000D02*
X130556000Y-187706000D01*
G04 #@! TO.C,D5\002C3*
X130556000Y-198374000D02*
X131572000Y-199644000D01*
X130556000Y-194056000D02*
X130556000Y-199644000D01*
X130556000Y-199644000D02*
X136144000Y-199644000D01*
X136144000Y-199644000D02*
X136144000Y-194056000D01*
X136144000Y-194056000D02*
X130556000Y-194056000D01*
G04 #@! TO.C,D5\002C4*
X130556000Y-204724000D02*
X131572000Y-205994000D01*
X130556000Y-200406000D02*
X130556000Y-205994000D01*
X130556000Y-205994000D02*
X136144000Y-205994000D01*
X136144000Y-205994000D02*
X136144000Y-200406000D01*
X136144000Y-200406000D02*
X130556000Y-200406000D01*
G04 #@! TO.C,D5\002C5*
X130556000Y-211074000D02*
X131572000Y-212344000D01*
X130556000Y-206756000D02*
X130556000Y-212344000D01*
X130556000Y-212344000D02*
X136144000Y-212344000D01*
X136144000Y-212344000D02*
X136144000Y-206756000D01*
X136144000Y-206756000D02*
X130556000Y-206756000D01*
G04 #@! TO.C,D5\002C6*
X130556000Y-217424000D02*
X131572000Y-218694000D01*
X130556000Y-213106000D02*
X130556000Y-218694000D01*
X130556000Y-218694000D02*
X136144000Y-218694000D01*
X136144000Y-218694000D02*
X136144000Y-213106000D01*
X136144000Y-213106000D02*
X130556000Y-213106000D01*
G04 #@! TO.C,D5\002C7*
X130556000Y-223774000D02*
X131572000Y-225044000D01*
X130556000Y-219456000D02*
X130556000Y-225044000D01*
X130556000Y-225044000D02*
X136144000Y-225044000D01*
X136144000Y-225044000D02*
X136144000Y-219456000D01*
X136144000Y-219456000D02*
X130556000Y-219456000D01*
G04 #@! TO.C,D5\002C8*
X130556000Y-230124000D02*
X131572000Y-231394000D01*
X130556000Y-225806000D02*
X130556000Y-231394000D01*
X130556000Y-231394000D02*
X136144000Y-231394000D01*
X136144000Y-231394000D02*
X136144000Y-225806000D01*
X136144000Y-225806000D02*
X130556000Y-225806000D01*
G04 #@! TO.C,D5\002C9*
X130556000Y-236474000D02*
X131572000Y-237744000D01*
X130556000Y-232156000D02*
X130556000Y-237744000D01*
X130556000Y-237744000D02*
X136144000Y-237744000D01*
X136144000Y-237744000D02*
X136144000Y-232156000D01*
X136144000Y-232156000D02*
X130556000Y-232156000D01*
G04 #@! TO.C,D5\002C10*
X130556000Y-242824000D02*
X131572000Y-244094000D01*
X130556000Y-238506000D02*
X130556000Y-244094000D01*
X130556000Y-244094000D02*
X136144000Y-244094000D01*
X136144000Y-244094000D02*
X136144000Y-238506000D01*
X136144000Y-238506000D02*
X130556000Y-238506000D01*
G04 #@! TO.C,D5\002C11*
X130556000Y-249174000D02*
X131572000Y-250444000D01*
X130556000Y-244856000D02*
X130556000Y-250444000D01*
X130556000Y-250444000D02*
X136144000Y-250444000D01*
X136144000Y-250444000D02*
X136144000Y-244856000D01*
X136144000Y-244856000D02*
X130556000Y-244856000D01*
G04 #@! TO.C,D5\002C12*
X130556000Y-255524000D02*
X131572000Y-256794000D01*
X130556000Y-251206000D02*
X130556000Y-256794000D01*
X130556000Y-256794000D02*
X136144000Y-256794000D01*
X136144000Y-256794000D02*
X136144000Y-251206000D01*
X136144000Y-251206000D02*
X130556000Y-251206000D01*
G04 #@! TO.C,D5\002C13*
X130556000Y-261874000D02*
X131572000Y-263144000D01*
X130556000Y-257556000D02*
X130556000Y-263144000D01*
X130556000Y-263144000D02*
X136144000Y-263144000D01*
X136144000Y-263144000D02*
X136144000Y-257556000D01*
X136144000Y-257556000D02*
X130556000Y-257556000D01*
G04 #@! TO.C,D5\002C14*
X130556000Y-268224000D02*
X131572000Y-269494000D01*
X130556000Y-263906000D02*
X130556000Y-269494000D01*
X130556000Y-269494000D02*
X136144000Y-269494000D01*
X136144000Y-269494000D02*
X136144000Y-263906000D01*
X136144000Y-263906000D02*
X130556000Y-263906000D01*
G04 #@! TO.C,D5\002C15*
X130556000Y-274574000D02*
X131572000Y-275844000D01*
X130556000Y-270256000D02*
X130556000Y-275844000D01*
X130556000Y-275844000D02*
X136144000Y-275844000D01*
X136144000Y-275844000D02*
X136144000Y-270256000D01*
X136144000Y-270256000D02*
X130556000Y-270256000D01*
G04 #@! TO.C,P1*
D10*
X117112142Y-60506428D02*
X117112142Y-58982428D01*
X117692714Y-58982428D01*
X117837857Y-59055000D01*
X117910428Y-59127571D01*
X117983000Y-59272714D01*
X117983000Y-59490428D01*
X117910428Y-59635571D01*
X117837857Y-59708142D01*
X117692714Y-59780714D01*
X117112142Y-59780714D01*
X119434428Y-60506428D02*
X118563571Y-60506428D01*
X118999000Y-60506428D02*
X118999000Y-58982428D01*
X118853857Y-59200142D01*
X118708714Y-59345285D01*
X118563571Y-59417857D01*
G04 #@! TD*
M02*
