  0
SECTION
  2
ENTITIES
  0
LINE
 10
-171.450000
 11
-171.450000
 20
-5.080000
 21
5.080000
  0
LINE
 10
-171.450000
 11
-171.400000
 20
5.080000
 21
5.876000
  0
LINE
 10
-171.400000
 11
-171.251000
 20
5.876000
 21
6.659000
  0
LINE
 10
-171.251000
 11
-171.004000
 20
6.659000
 21
7.418000
  0
LINE
 10
-171.004000
 11
-170.665000
 20
7.418000
 21
8.139000
  0
LINE
 10
-170.665000
 11
-170.237000
 20
8.139000
 21
8.812000
  0
LINE
 10
-170.237000
 11
-169.729000
 20
8.812000
 21
9.427000
  0
LINE
 10
-169.729000
 11
-169.148000
 20
9.427000
 21
9.973000
  0
LINE
 10
-169.148000
 11
-168.503000
 20
9.973000
 21
10.441000
  0
LINE
 10
-168.503000
 11
-167.804000
 20
10.441000
 21
10.826000
  0
LINE
 10
-167.804000
 11
-167.062000
 20
10.826000
 21
11.119000
  0
LINE
 10
-167.062000
 11
-166.290000
 20
11.119000
 21
11.318000
  0
LINE
 10
-166.290000
 11
-165.499000
 20
11.318000
 21
11.417000
  0
LINE
 10
-165.499000
 11
-165.100000
 20
11.417000
 21
11.417000
  0
LINE
 10
-165.100000
 11
-165.100000
 20
11.417000
 21
11.430000
  0
LINE
 10
-165.100000
 11
165.100000
 20
11.430000
 21
11.430000
  0
LINE
 10
165.100000
 11
165.100000
 20
11.430000
 21
11.417000
  0
LINE
 10
165.100000
 11
165.499000
 20
11.417000
 21
11.417000
  0
LINE
 10
165.499000
 11
166.290000
 20
11.417000
 21
11.318000
  0
LINE
 10
166.290000
 11
167.062000
 20
11.318000
 21
11.119000
  0
LINE
 10
167.062000
 11
167.804000
 20
11.119000
 21
10.826000
  0
LINE
 10
167.804000
 11
168.503000
 20
10.826000
 21
10.441000
  0
LINE
 10
168.503000
 11
169.148000
 20
10.441000
 21
9.973000
  0
LINE
 10
169.148000
 11
169.729000
 20
9.973000
 21
9.427000
  0
LINE
 10
169.729000
 11
170.237000
 20
9.427000
 21
8.812000
  0
LINE
 10
170.237000
 11
170.665000
 20
8.812000
 21
8.139000
  0
LINE
 10
170.665000
 11
171.004000
 20
8.139000
 21
7.418000
  0
LINE
 10
171.004000
 11
171.251000
 20
7.418000
 21
6.659000
  0
LINE
 10
171.251000
 11
171.400000
 20
6.659000
 21
5.876000
  0
LINE
 10
171.400000
 11
171.450000
 20
5.876000
 21
5.080000
  0
LINE
 10
171.450000
 11
171.450000
 20
5.080000
 21
-5.080000
  0
LINE
 10
171.450000
 11
171.400000
 20
-5.080000
 21
-5.876000
  0
LINE
 10
171.400000
 11
171.251000
 20
-5.876000
 21
-6.659000
  0
LINE
 10
171.251000
 11
171.004000
 20
-6.659000
 21
-7.418000
  0
LINE
 10
171.004000
 11
170.665000
 20
-7.418000
 21
-8.139000
  0
LINE
 10
170.665000
 11
170.237000
 20
-8.139000
 21
-8.812000
  0
LINE
 10
170.237000
 11
169.729000
 20
-8.812000
 21
-9.427000
  0
LINE
 10
169.729000
 11
169.148000
 20
-9.427000
 21
-9.973000
  0
LINE
 10
169.148000
 11
168.503000
 20
-9.973000
 21
-10.441000
  0
LINE
 10
168.503000
 11
167.804000
 20
-10.441000
 21
-10.826000
  0
LINE
 10
167.804000
 11
167.062000
 20
-10.826000
 21
-11.119000
  0
LINE
 10
167.062000
 11
166.290000
 20
-11.119000
 21
-11.318000
  0
LINE
 10
166.290000
 11
165.499000
 20
-11.318000
 21
-11.417000
  0
LINE
 10
165.499000
 11
165.100000
 20
-11.417000
 21
-11.417000
  0
LINE
 10
165.100000
 11
165.100000
 20
-11.417000
 21
-11.430000
  0
LINE
 10
165.100000
 11
-165.100000
 20
-11.430000
 21
-11.430000
  0
LINE
 10
-165.100000
 11
-165.100000
 20
-11.430000
 21
-11.417000
  0
LINE
 10
-165.100000
 11
-165.499000
 20
-11.417000
 21
-11.417000
  0
LINE
 10
-165.499000
 11
-166.290000
 20
-11.417000
 21
-11.318000
  0
LINE
 10
-166.290000
 11
-167.062000
 20
-11.318000
 21
-11.119000
  0
LINE
 10
-167.062000
 11
-167.804000
 20
-11.119000
 21
-10.826000
  0
LINE
 10
-167.804000
 11
-168.503000
 20
-10.826000
 21
-10.441000
  0
LINE
 10
-168.503000
 11
-169.148000
 20
-10.441000
 21
-9.973000
  0
LINE
 10
-169.148000
 11
-169.729000
 20
-9.973000
 21
-9.427000
  0
LINE
 10
-169.729000
 11
-170.237000
 20
-9.427000
 21
-8.812000
  0
LINE
 10
-170.237000
 11
-170.665000
 20
-8.812000
 21
-8.139000
  0
LINE
 10
-170.665000
 11
-171.004000
 20
-8.139000
 21
-7.418000
  0
LINE
 10
-171.004000
 11
-171.251000
 20
-7.418000
 21
-6.659000
  0
LINE
 10
-171.251000
 11
-171.400000
 20
-6.659000
 21
-5.876000
  0
LINE
 10
-171.400000
 11
-171.450000
 20
-5.876000
 21
-5.080000
  0
LINE
 10
-159.868000
 11
-159.859000
 20
0.000000
 21
0.140000
  0
LINE
 10
-159.859000
 11
-159.832000
 20
0.140000
 21
0.278000
  0
LINE
 10
-159.832000
 11
-159.789000
 20
0.278000
 21
0.411000
  0
LINE
 10
-159.789000
 11
-159.729000
 20
0.411000
 21
0.538000
  0
LINE
 10
-159.729000
 11
-159.654000
 20
0.538000
 21
0.657000
  0
LINE
 10
-159.654000
 11
-159.565000
 20
0.657000
 21
0.765000
  0
LINE
 10
-159.565000
 11
-159.462000
 20
0.765000
 21
0.861000
  0
LINE
 10
-159.462000
 11
-159.349000
 20
0.861000
 21
0.944000
  0
LINE
 10
-159.349000
 11
-159.226000
 20
0.944000
 21
1.011000
  0
LINE
 10
-159.226000
 11
-159.095000
 20
1.011000
 21
1.063000
  0
LINE
 10
-159.095000
 11
-158.959000
 20
1.063000
 21
1.098000
  0
LINE
 10
-158.959000
 11
-158.820000
 20
1.098000
 21
1.115000
  0
LINE
 10
-158.820000
 11
-158.680000
 20
1.115000
 21
1.115000
  0
LINE
 10
-158.680000
 11
-158.541000
 20
1.115000
 21
1.098000
  0
LINE
 10
-158.541000
 11
-158.405000
 20
1.098000
 21
1.063000
  0
LINE
 10
-158.405000
 11
-158.274000
 20
1.063000
 21
1.011000
  0
LINE
 10
-158.274000
 11
-158.151000
 20
1.011000
 21
0.944000
  0
LINE
 10
-158.151000
 11
-158.038000
 20
0.944000
 21
0.861000
  0
LINE
 10
-158.038000
 11
-157.935000
 20
0.861000
 21
0.765000
  0
LINE
 10
-157.935000
 11
-157.846000
 20
0.765000
 21
0.657000
  0
LINE
 10
-157.846000
 11
-157.771000
 20
0.657000
 21
0.538000
  0
LINE
 10
-157.771000
 11
-157.711000
 20
0.538000
 21
0.411000
  0
LINE
 10
-157.711000
 11
-157.668000
 20
0.411000
 21
0.278000
  0
LINE
 10
-157.668000
 11
-157.641000
 20
0.278000
 21
0.140000
  0
LINE
 10
-157.641000
 11
-157.632000
 20
0.140000
 21
0.000000
  0
LINE
 10
-157.632000
 11
-157.641000
 20
0.000000
 21
-0.140000
  0
LINE
 10
-157.641000
 11
-157.668000
 20
-0.140000
 21
-0.278000
  0
LINE
 10
-157.668000
 11
-157.711000
 20
-0.278000
 21
-0.411000
  0
LINE
 10
-157.711000
 11
-157.771000
 20
-0.411000
 21
-0.538000
  0
LINE
 10
-157.771000
 11
-157.846000
 20
-0.538000
 21
-0.657000
  0
LINE
 10
-157.846000
 11
-157.935000
 20
-0.657000
 21
-0.765000
  0
LINE
 10
-157.935000
 11
-158.038000
 20
-0.765000
 21
-0.861000
  0
LINE
 10
-158.038000
 11
-158.151000
 20
-0.861000
 21
-0.944000
  0
LINE
 10
-158.151000
 11
-158.274000
 20
-0.944000
 21
-1.011000
  0
LINE
 10
-158.274000
 11
-158.405000
 20
-1.011000
 21
-1.063000
  0
LINE
 10
-158.405000
 11
-158.541000
 20
-1.063000
 21
-1.098000
  0
LINE
 10
-158.541000
 11
-158.680000
 20
-1.098000
 21
-1.115000
  0
LINE
 10
-158.680000
 11
-158.820000
 20
-1.115000
 21
-1.115000
  0
LINE
 10
-158.820000
 11
-158.959000
 20
-1.115000
 21
-1.098000
  0
LINE
 10
-158.959000
 11
-159.095000
 20
-1.098000
 21
-1.063000
  0
LINE
 10
-159.095000
 11
-159.226000
 20
-1.063000
 21
-1.011000
  0
LINE
 10
-159.226000
 11
-159.349000
 20
-1.011000
 21
-0.944000
  0
LINE
 10
-159.349000
 11
-159.462000
 20
-0.944000
 21
-0.861000
  0
LINE
 10
-159.462000
 11
-159.565000
 20
-0.861000
 21
-0.765000
  0
LINE
 10
-159.565000
 11
-159.654000
 20
-0.765000
 21
-0.657000
  0
LINE
 10
-159.654000
 11
-159.729000
 20
-0.657000
 21
-0.538000
  0
LINE
 10
-159.729000
 11
-159.789000
 20
-0.538000
 21
-0.411000
  0
LINE
 10
-159.789000
 11
-159.832000
 20
-0.411000
 21
-0.278000
  0
LINE
 10
-159.832000
 11
-159.859000
 20
-0.278000
 21
-0.140000
  0
LINE
 10
-159.859000
 11
-159.868000
 20
-0.140000
 21
0.000000
  0
LINE
 10
-142.964000
 11
-142.938000
 20
0.000000
 21
0.409000
  0
LINE
 10
-142.938000
 11
-142.861000
 20
0.409000
 21
0.812000
  0
LINE
 10
-142.861000
 11
-142.735000
 20
0.812000
 21
1.202000
  0
LINE
 10
-142.735000
 11
-142.560000
 20
1.202000
 21
1.572000
  0
LINE
 10
-142.560000
 11
-142.341000
 20
1.572000
 21
1.918000
  0
LINE
 10
-142.341000
 11
-142.079000
 20
1.918000
 21
2.234000
  0
LINE
 10
-142.079000
 11
-141.780000
 20
2.234000
 21
2.515000
  0
LINE
 10
-141.780000
 11
-141.449000
 20
2.515000
 21
2.756000
  0
LINE
 10
-141.449000
 11
-141.090000
 20
2.756000
 21
2.953000
  0
LINE
 10
-141.090000
 11
-140.709000
 20
2.953000
 21
3.104000
  0
LINE
 10
-140.709000
 11
-140.312000
 20
3.104000
 21
3.206000
  0
LINE
 10
-140.312000
 11
-139.905000
 20
3.206000
 21
3.257000
  0
LINE
 10
-139.905000
 11
-139.495000
 20
3.257000
 21
3.257000
  0
LINE
 10
-139.495000
 11
-139.088000
 20
3.257000
 21
3.206000
  0
LINE
 10
-139.088000
 11
-138.691000
 20
3.206000
 21
3.104000
  0
LINE
 10
-138.691000
 11
-138.310000
 20
3.104000
 21
2.953000
  0
LINE
 10
-138.310000
 11
-137.951000
 20
2.953000
 21
2.756000
  0
LINE
 10
-137.951000
 11
-137.620000
 20
2.756000
 21
2.515000
  0
LINE
 10
-137.620000
 11
-137.321000
 20
2.515000
 21
2.234000
  0
LINE
 10
-137.321000
 11
-137.059000
 20
2.234000
 21
1.918000
  0
LINE
 10
-137.059000
 11
-136.840000
 20
1.918000
 21
1.572000
  0
LINE
 10
-136.840000
 11
-136.665000
 20
1.572000
 21
1.202000
  0
LINE
 10
-136.665000
 11
-136.539000
 20
1.202000
 21
0.812000
  0
LINE
 10
-136.539000
 11
-136.462000
 20
0.812000
 21
0.409000
  0
LINE
 10
-136.462000
 11
-136.436000
 20
0.409000
 21
0.000000
  0
LINE
 10
-136.436000
 11
-136.462000
 20
0.000000
 21
-0.409000
  0
LINE
 10
-136.462000
 11
-136.539000
 20
-0.409000
 21
-0.812000
  0
LINE
 10
-136.539000
 11
-136.665000
 20
-0.812000
 21
-1.202000
  0
LINE
 10
-136.665000
 11
-136.840000
 20
-1.202000
 21
-1.572000
  0
LINE
 10
-136.840000
 11
-137.059000
 20
-1.572000
 21
-1.918000
  0
LINE
 10
-137.059000
 11
-137.321000
 20
-1.918000
 21
-2.234000
  0
LINE
 10
-137.321000
 11
-137.620000
 20
-2.234000
 21
-2.515000
  0
LINE
 10
-137.620000
 11
-137.951000
 20
-2.515000
 21
-2.756000
  0
LINE
 10
-137.951000
 11
-138.310000
 20
-2.756000
 21
-2.953000
  0
LINE
 10
-138.310000
 11
-138.691000
 20
-2.953000
 21
-3.104000
  0
LINE
 10
-138.691000
 11
-139.088000
 20
-3.104000
 21
-3.206000
  0
LINE
 10
-139.088000
 11
-139.495000
 20
-3.206000
 21
-3.257000
  0
LINE
 10
-139.495000
 11
-139.905000
 20
-3.257000
 21
-3.257000
  0
LINE
 10
-139.905000
 11
-140.312000
 20
-3.257000
 21
-3.206000
  0
LINE
 10
-140.312000
 11
-140.709000
 20
-3.206000
 21
-3.104000
  0
LINE
 10
-140.709000
 11
-141.090000
 20
-3.104000
 21
-2.953000
  0
LINE
 10
-141.090000
 11
-141.449000
 20
-2.953000
 21
-2.756000
  0
LINE
 10
-141.449000
 11
-141.780000
 20
-2.756000
 21
-2.515000
  0
LINE
 10
-141.780000
 11
-142.079000
 20
-2.515000
 21
-2.234000
  0
LINE
 10
-142.079000
 11
-142.341000
 20
-2.234000
 21
-1.918000
  0
LINE
 10
-142.341000
 11
-142.560000
 20
-1.918000
 21
-1.572000
  0
LINE
 10
-142.560000
 11
-142.735000
 20
-1.572000
 21
-1.202000
  0
LINE
 10
-142.735000
 11
-142.861000
 20
-1.202000
 21
-0.812000
  0
LINE
 10
-142.861000
 11
-142.938000
 20
-0.812000
 21
-0.409000
  0
LINE
 10
-142.938000
 11
-142.964000
 20
-0.409000
 21
0.000000
  0
LINE
 10
136.436000
 11
136.462000
 20
0.000000
 21
0.409000
  0
LINE
 10
136.462000
 11
136.539000
 20
0.409000
 21
0.812000
  0
LINE
 10
136.539000
 11
136.665000
 20
0.812000
 21
1.202000
  0
LINE
 10
136.665000
 11
136.840000
 20
1.202000
 21
1.572000
  0
LINE
 10
136.840000
 11
137.059000
 20
1.572000
 21
1.918000
  0
LINE
 10
137.059000
 11
137.321000
 20
1.918000
 21
2.234000
  0
LINE
 10
137.321000
 11
137.620000
 20
2.234000
 21
2.515000
  0
LINE
 10
137.620000
 11
137.951000
 20
2.515000
 21
2.756000
  0
LINE
 10
137.951000
 11
138.310000
 20
2.756000
 21
2.953000
  0
LINE
 10
138.310000
 11
138.691000
 20
2.953000
 21
3.104000
  0
LINE
 10
138.691000
 11
139.088000
 20
3.104000
 21
3.206000
  0
LINE
 10
139.088000
 11
139.495000
 20
3.206000
 21
3.257000
  0
LINE
 10
139.495000
 11
139.905000
 20
3.257000
 21
3.257000
  0
LINE
 10
139.905000
 11
140.312000
 20
3.257000
 21
3.206000
  0
LINE
 10
140.312000
 11
140.709000
 20
3.206000
 21
3.104000
  0
LINE
 10
140.709000
 11
141.090000
 20
3.104000
 21
2.953000
  0
LINE
 10
141.090000
 11
141.449000
 20
2.953000
 21
2.756000
  0
LINE
 10
141.449000
 11
141.780000
 20
2.756000
 21
2.515000
  0
LINE
 10
141.780000
 11
142.079000
 20
2.515000
 21
2.234000
  0
LINE
 10
142.079000
 11
142.341000
 20
2.234000
 21
1.918000
  0
LINE
 10
142.341000
 11
142.560000
 20
1.918000
 21
1.572000
  0
LINE
 10
142.560000
 11
142.735000
 20
1.572000
 21
1.202000
  0
LINE
 10
142.735000
 11
142.861000
 20
1.202000
 21
0.812000
  0
LINE
 10
142.861000
 11
142.938000
 20
0.812000
 21
0.409000
  0
LINE
 10
142.938000
 11
142.964000
 20
0.409000
 21
0.000000
  0
LINE
 10
142.964000
 11
142.938000
 20
0.000000
 21
-0.409000
  0
LINE
 10
142.938000
 11
142.861000
 20
-0.409000
 21
-0.812000
  0
LINE
 10
142.861000
 11
142.735000
 20
-0.812000
 21
-1.202000
  0
LINE
 10
142.735000
 11
142.560000
 20
-1.202000
 21
-1.572000
  0
LINE
 10
142.560000
 11
142.341000
 20
-1.572000
 21
-1.918000
  0
LINE
 10
142.341000
 11
142.079000
 20
-1.918000
 21
-2.234000
  0
LINE
 10
142.079000
 11
141.780000
 20
-2.234000
 21
-2.515000
  0
LINE
 10
141.780000
 11
141.449000
 20
-2.515000
 21
-2.756000
  0
LINE
 10
141.449000
 11
141.090000
 20
-2.756000
 21
-2.953000
  0
LINE
 10
141.090000
 11
140.709000
 20
-2.953000
 21
-3.104000
  0
LINE
 10
140.709000
 11
140.312000
 20
-3.104000
 21
-3.206000
  0
LINE
 10
140.312000
 11
139.905000
 20
-3.206000
 21
-3.257000
  0
LINE
 10
139.905000
 11
139.495000
 20
-3.257000
 21
-3.257000
  0
LINE
 10
139.495000
 11
139.088000
 20
-3.257000
 21
-3.206000
  0
LINE
 10
139.088000
 11
138.691000
 20
-3.206000
 21
-3.104000
  0
LINE
 10
138.691000
 11
138.310000
 20
-3.104000
 21
-2.953000
  0
LINE
 10
138.310000
 11
137.951000
 20
-2.953000
 21
-2.756000
  0
LINE
 10
137.951000
 11
137.620000
 20
-2.756000
 21
-2.515000
  0
LINE
 10
137.620000
 11
137.321000
 20
-2.515000
 21
-2.234000
  0
LINE
 10
137.321000
 11
137.059000
 20
-2.234000
 21
-1.918000
  0
LINE
 10
137.059000
 11
136.840000
 20
-1.918000
 21
-1.572000
  0
LINE
 10
136.840000
 11
136.665000
 20
-1.572000
 21
-1.202000
  0
LINE
 10
136.665000
 11
136.539000
 20
-1.202000
 21
-0.812000
  0
LINE
 10
136.539000
 11
136.462000
 20
-0.812000
 21
-0.409000
  0
LINE
 10
136.462000
 11
136.436000
 20
-0.409000
 21
0.000000
  0
LINE
 10
157.632000
 11
157.641000
 20
0.000000
 21
0.140000
  0
LINE
 10
157.641000
 11
157.668000
 20
0.140000
 21
0.278000
  0
LINE
 10
157.668000
 11
157.711000
 20
0.278000
 21
0.411000
  0
LINE
 10
157.711000
 11
157.771000
 20
0.411000
 21
0.538000
  0
LINE
 10
157.771000
 11
157.846000
 20
0.538000
 21
0.657000
  0
LINE
 10
157.846000
 11
157.935000
 20
0.657000
 21
0.765000
  0
LINE
 10
157.935000
 11
158.038000
 20
0.765000
 21
0.861000
  0
LINE
 10
158.038000
 11
158.151000
 20
0.861000
 21
0.944000
  0
LINE
 10
158.151000
 11
158.274000
 20
0.944000
 21
1.011000
  0
LINE
 10
158.274000
 11
158.405000
 20
1.011000
 21
1.063000
  0
LINE
 10
158.405000
 11
158.541000
 20
1.063000
 21
1.098000
  0
LINE
 10
158.541000
 11
158.680000
 20
1.098000
 21
1.115000
  0
LINE
 10
158.680000
 11
158.820000
 20
1.115000
 21
1.115000
  0
LINE
 10
158.820000
 11
158.959000
 20
1.115000
 21
1.098000
  0
LINE
 10
158.959000
 11
159.095000
 20
1.098000
 21
1.063000
  0
LINE
 10
159.095000
 11
159.226000
 20
1.063000
 21
1.011000
  0
LINE
 10
159.226000
 11
159.349000
 20
1.011000
 21
0.944000
  0
LINE
 10
159.349000
 11
159.462000
 20
0.944000
 21
0.861000
  0
LINE
 10
159.462000
 11
159.565000
 20
0.861000
 21
0.765000
  0
LINE
 10
159.565000
 11
159.654000
 20
0.765000
 21
0.657000
  0
LINE
 10
159.654000
 11
159.729000
 20
0.657000
 21
0.538000
  0
LINE
 10
159.729000
 11
159.789000
 20
0.538000
 21
0.411000
  0
LINE
 10
159.789000
 11
159.832000
 20
0.411000
 21
0.278000
  0
LINE
 10
159.832000
 11
159.859000
 20
0.278000
 21
0.140000
  0
LINE
 10
159.859000
 11
159.868000
 20
0.140000
 21
0.000000
  0
LINE
 10
159.868000
 11
159.859000
 20
0.000000
 21
-0.140000
  0
LINE
 10
159.859000
 11
159.832000
 20
-0.140000
 21
-0.278000
  0
LINE
 10
159.832000
 11
159.789000
 20
-0.278000
 21
-0.411000
  0
LINE
 10
159.789000
 11
159.729000
 20
-0.411000
 21
-0.538000
  0
LINE
 10
159.729000
 11
159.654000
 20
-0.538000
 21
-0.657000
  0
LINE
 10
159.654000
 11
159.565000
 20
-0.657000
 21
-0.765000
  0
LINE
 10
159.565000
 11
159.462000
 20
-0.765000
 21
-0.861000
  0
LINE
 10
159.462000
 11
159.349000
 20
-0.861000
 21
-0.944000
  0
LINE
 10
159.349000
 11
159.226000
 20
-0.944000
 21
-1.011000
  0
LINE
 10
159.226000
 11
159.095000
 20
-1.011000
 21
-1.063000
  0
LINE
 10
159.095000
 11
158.959000
 20
-1.063000
 21
-1.098000
  0
LINE
 10
158.959000
 11
158.820000
 20
-1.098000
 21
-1.115000
  0
LINE
 10
158.820000
 11
158.680000
 20
-1.115000
 21
-1.115000
  0
LINE
 10
158.680000
 11
158.541000
 20
-1.115000
 21
-1.098000
  0
LINE
 10
158.541000
 11
158.405000
 20
-1.098000
 21
-1.063000
  0
LINE
 10
158.405000
 11
158.274000
 20
-1.063000
 21
-1.011000
  0
LINE
 10
158.274000
 11
158.151000
 20
-1.011000
 21
-0.944000
  0
LINE
 10
158.151000
 11
158.038000
 20
-0.944000
 21
-0.861000
  0
LINE
 10
158.038000
 11
157.935000
 20
-0.861000
 21
-0.765000
  0
LINE
 10
157.935000
 11
157.846000
 20
-0.765000
 21
-0.657000
  0
LINE
 10
157.846000
 11
157.771000
 20
-0.657000
 21
-0.538000
  0
LINE
 10
157.771000
 11
157.711000
 20
-0.538000
 21
-0.411000
  0
LINE
 10
157.711000
 11
157.668000
 20
-0.411000
 21
-0.278000
  0
LINE
 10
157.668000
 11
157.641000
 20
-0.278000
 21
-0.140000
  0
LINE
 10
157.641000
 11
157.632000
 20
-0.140000
 21
0.000000
  0
ENDSEC
  0
EOF
