  0
SECTION
  2
ENTITIES
  0
LINE
 10
-152.400000
 11
-152.400000
 20
-29.500000
 21
29.500000
  0
LINE
 10
-152.400000
 11
152.400000
 20
29.500000
 21
29.500000
  0
LINE
 10
152.400000
 11
152.400000
 20
29.500000
 21
-29.500000
  0
LINE
 10
152.400000
 11
-152.400000
 20
-29.500000
 21
-29.500000
  0
LINE
 10
-143.002000
 11
-142.976000
 20
-19.050000
 21
-18.636000
  0
LINE
 10
-142.976000
 11
-142.898000
 20
-18.636000
 21
-18.229000
  0
LINE
 10
-142.898000
 11
-142.770000
 20
-18.229000
 21
-17.834000
  0
LINE
 10
-142.770000
 11
-142.594000
 20
-17.834000
 21
-17.459000
  0
LINE
 10
-142.594000
 11
-142.371000
 20
-17.459000
 21
-17.109000
  0
LINE
 10
-142.371000
 11
-142.107000
 20
-17.109000
 21
-16.790000
  0
LINE
 10
-142.107000
 11
-141.805000
 20
-16.790000
 21
-16.506000
  0
LINE
 10
-141.805000
 11
-141.469000
 20
-16.506000
 21
-16.262000
  0
LINE
 10
-141.469000
 11
-141.106000
 20
-16.262000
 21
-16.062000
  0
LINE
 10
-141.106000
 11
-140.720000
 20
-16.062000
 21
-15.910000
  0
LINE
 10
-140.720000
 11
-140.319000
 20
-15.910000
 21
-15.806000
  0
LINE
 10
-140.319000
 11
-139.907000
 20
-15.806000
 21
-15.755000
  0
LINE
 10
-139.907000
 11
-139.493000
 20
-15.755000
 21
-15.755000
  0
LINE
 10
-139.493000
 11
-139.081000
 20
-15.755000
 21
-15.806000
  0
LINE
 10
-139.081000
 11
-138.680000
 20
-15.806000
 21
-15.910000
  0
LINE
 10
-138.680000
 11
-138.294000
 20
-15.910000
 21
-16.062000
  0
LINE
 10
-138.294000
 11
-137.931000
 20
-16.062000
 21
-16.262000
  0
LINE
 10
-137.931000
 11
-137.595000
 20
-16.262000
 21
-16.506000
  0
LINE
 10
-137.595000
 11
-137.293000
 20
-16.506000
 21
-16.790000
  0
LINE
 10
-137.293000
 11
-137.029000
 20
-16.790000
 21
-17.109000
  0
LINE
 10
-137.029000
 11
-136.806000
 20
-17.109000
 21
-17.459000
  0
LINE
 10
-136.806000
 11
-136.630000
 20
-17.459000
 21
-17.834000
  0
LINE
 10
-136.630000
 11
-136.502000
 20
-17.834000
 21
-18.229000
  0
LINE
 10
-136.502000
 11
-136.424000
 20
-18.229000
 21
-18.636000
  0
LINE
 10
-136.424000
 11
-136.398000
 20
-18.636000
 21
-19.050000
  0
LINE
 10
-136.398000
 11
-136.424000
 20
-19.050000
 21
-19.464000
  0
LINE
 10
-136.424000
 11
-136.502000
 20
-19.464000
 21
-19.871000
  0
LINE
 10
-136.502000
 11
-136.630000
 20
-19.871000
 21
-20.266000
  0
LINE
 10
-136.630000
 11
-136.806000
 20
-20.266000
 21
-20.641000
  0
LINE
 10
-136.806000
 11
-137.029000
 20
-20.641000
 21
-20.991000
  0
LINE
 10
-137.029000
 11
-137.293000
 20
-20.991000
 21
-21.310000
  0
LINE
 10
-137.293000
 11
-137.595000
 20
-21.310000
 21
-21.594000
  0
LINE
 10
-137.595000
 11
-137.931000
 20
-21.594000
 21
-21.838000
  0
LINE
 10
-137.931000
 11
-138.294000
 20
-21.838000
 21
-22.038000
  0
LINE
 10
-138.294000
 11
-138.680000
 20
-22.038000
 21
-22.190000
  0
LINE
 10
-138.680000
 11
-139.081000
 20
-22.190000
 21
-22.294000
  0
LINE
 10
-139.081000
 11
-139.493000
 20
-22.294000
 21
-22.345000
  0
LINE
 10
-139.493000
 11
-139.907000
 20
-22.345000
 21
-22.345000
  0
LINE
 10
-139.907000
 11
-140.319000
 20
-22.345000
 21
-22.294000
  0
LINE
 10
-140.319000
 11
-140.720000
 20
-22.294000
 21
-22.190000
  0
LINE
 10
-140.720000
 11
-141.106000
 20
-22.190000
 21
-22.038000
  0
LINE
 10
-141.106000
 11
-141.469000
 20
-22.038000
 21
-21.838000
  0
LINE
 10
-141.469000
 11
-141.805000
 20
-21.838000
 21
-21.594000
  0
LINE
 10
-141.805000
 11
-142.107000
 20
-21.594000
 21
-21.310000
  0
LINE
 10
-142.107000
 11
-142.371000
 20
-21.310000
 21
-20.991000
  0
LINE
 10
-142.371000
 11
-142.594000
 20
-20.991000
 21
-20.641000
  0
LINE
 10
-142.594000
 11
-142.770000
 20
-20.641000
 21
-20.266000
  0
LINE
 10
-142.770000
 11
-142.898000
 20
-20.266000
 21
-19.871000
  0
LINE
 10
-142.898000
 11
-142.976000
 20
-19.871000
 21
-19.464000
  0
LINE
 10
-142.976000
 11
-143.002000
 20
-19.464000
 21
-19.050000
  0
LINE
 10
-143.002000
 11
-142.976000
 20
19.050000
 21
19.464000
  0
LINE
 10
-142.976000
 11
-142.898000
 20
19.464000
 21
19.871000
  0
LINE
 10
-142.898000
 11
-142.770000
 20
19.871000
 21
20.266000
  0
LINE
 10
-142.770000
 11
-142.594000
 20
20.266000
 21
20.641000
  0
LINE
 10
-142.594000
 11
-142.371000
 20
20.641000
 21
20.991000
  0
LINE
 10
-142.371000
 11
-142.107000
 20
20.991000
 21
21.310000
  0
LINE
 10
-142.107000
 11
-141.805000
 20
21.310000
 21
21.594000
  0
LINE
 10
-141.805000
 11
-141.469000
 20
21.594000
 21
21.838000
  0
LINE
 10
-141.469000
 11
-141.106000
 20
21.838000
 21
22.038000
  0
LINE
 10
-141.106000
 11
-140.720000
 20
22.038000
 21
22.190000
  0
LINE
 10
-140.720000
 11
-140.319000
 20
22.190000
 21
22.294000
  0
LINE
 10
-140.319000
 11
-139.907000
 20
22.294000
 21
22.345000
  0
LINE
 10
-139.907000
 11
-139.493000
 20
22.345000
 21
22.345000
  0
LINE
 10
-139.493000
 11
-139.081000
 20
22.345000
 21
22.294000
  0
LINE
 10
-139.081000
 11
-138.680000
 20
22.294000
 21
22.190000
  0
LINE
 10
-138.680000
 11
-138.294000
 20
22.190000
 21
22.038000
  0
LINE
 10
-138.294000
 11
-137.931000
 20
22.038000
 21
21.838000
  0
LINE
 10
-137.931000
 11
-137.595000
 20
21.838000
 21
21.594000
  0
LINE
 10
-137.595000
 11
-137.293000
 20
21.594000
 21
21.310000
  0
LINE
 10
-137.293000
 11
-137.029000
 20
21.310000
 21
20.991000
  0
LINE
 10
-137.029000
 11
-136.806000
 20
20.991000
 21
20.641000
  0
LINE
 10
-136.806000
 11
-136.630000
 20
20.641000
 21
20.266000
  0
LINE
 10
-136.630000
 11
-136.502000
 20
20.266000
 21
19.871000
  0
LINE
 10
-136.502000
 11
-136.424000
 20
19.871000
 21
19.464000
  0
LINE
 10
-136.424000
 11
-136.398000
 20
19.464000
 21
19.050000
  0
LINE
 10
-136.398000
 11
-136.424000
 20
19.050000
 21
18.636000
  0
LINE
 10
-136.424000
 11
-136.502000
 20
18.636000
 21
18.229000
  0
LINE
 10
-136.502000
 11
-136.630000
 20
18.229000
 21
17.834000
  0
LINE
 10
-136.630000
 11
-136.806000
 20
17.834000
 21
17.459000
  0
LINE
 10
-136.806000
 11
-137.029000
 20
17.459000
 21
17.109000
  0
LINE
 10
-137.029000
 11
-137.293000
 20
17.109000
 21
16.790000
  0
LINE
 10
-137.293000
 11
-137.595000
 20
16.790000
 21
16.506000
  0
LINE
 10
-137.595000
 11
-137.931000
 20
16.506000
 21
16.262000
  0
LINE
 10
-137.931000
 11
-138.294000
 20
16.262000
 21
16.062000
  0
LINE
 10
-138.294000
 11
-138.680000
 20
16.062000
 21
15.910000
  0
LINE
 10
-138.680000
 11
-139.081000
 20
15.910000
 21
15.806000
  0
LINE
 10
-139.081000
 11
-139.493000
 20
15.806000
 21
15.755000
  0
LINE
 10
-139.493000
 11
-139.907000
 20
15.755000
 21
15.755000
  0
LINE
 10
-139.907000
 11
-140.319000
 20
15.755000
 21
15.806000
  0
LINE
 10
-140.319000
 11
-140.720000
 20
15.806000
 21
15.910000
  0
LINE
 10
-140.720000
 11
-141.106000
 20
15.910000
 21
16.062000
  0
LINE
 10
-141.106000
 11
-141.469000
 20
16.062000
 21
16.262000
  0
LINE
 10
-141.469000
 11
-141.805000
 20
16.262000
 21
16.506000
  0
LINE
 10
-141.805000
 11
-142.107000
 20
16.506000
 21
16.790000
  0
LINE
 10
-142.107000
 11
-142.371000
 20
16.790000
 21
17.109000
  0
LINE
 10
-142.371000
 11
-142.594000
 20
17.109000
 21
17.459000
  0
LINE
 10
-142.594000
 11
-142.770000
 20
17.459000
 21
17.834000
  0
LINE
 10
-142.770000
 11
-142.898000
 20
17.834000
 21
18.229000
  0
LINE
 10
-142.898000
 11
-142.976000
 20
18.229000
 21
18.636000
  0
LINE
 10
-142.976000
 11
-143.002000
 20
18.636000
 21
19.050000
  0
LINE
 10
-14.600000
 11
-14.587000
 20
-25.000000
 21
-24.799000
  0
LINE
 10
-14.587000
 11
-14.550000
 20
-24.799000
 21
-24.602000
  0
LINE
 10
-14.550000
 11
-14.488000
 20
-24.602000
 21
-24.411000
  0
LINE
 10
-14.488000
 11
-14.402000
 20
-24.411000
 21
-24.229000
  0
LINE
 10
-14.402000
 11
-14.294000
 20
-24.229000
 21
-24.060000
  0
LINE
 10
-14.294000
 11
-14.166000
 20
-24.060000
 21
-23.905000
  0
LINE
 10
-14.166000
 11
-14.020000
 20
-23.905000
 21
-23.767000
  0
LINE
 10
-14.020000
 11
-13.857000
 20
-23.767000
 21
-23.649000
  0
LINE
 10
-13.857000
 11
-13.681000
 20
-23.649000
 21
-23.552000
  0
LINE
 10
-13.681000
 11
-13.494000
 20
-23.552000
 21
-23.478000
  0
LINE
 10
-13.494000
 11
-13.300000
 20
-23.478000
 21
-23.428000
  0
LINE
 10
-13.300000
 11
-13.100000
 20
-23.428000
 21
-23.403000
  0
LINE
 10
-13.100000
 11
-12.900000
 20
-23.403000
 21
-23.403000
  0
LINE
 10
-12.900000
 11
-12.700000
 20
-23.403000
 21
-23.428000
  0
LINE
 10
-12.700000
 11
-12.506000
 20
-23.428000
 21
-23.478000
  0
LINE
 10
-12.506000
 11
-12.319000
 20
-23.478000
 21
-23.552000
  0
LINE
 10
-12.319000
 11
-12.143000
 20
-23.552000
 21
-23.649000
  0
LINE
 10
-12.143000
 11
-11.980000
 20
-23.649000
 21
-23.767000
  0
LINE
 10
-11.980000
 11
-11.834000
 20
-23.767000
 21
-23.905000
  0
LINE
 10
-11.834000
 11
-11.706000
 20
-23.905000
 21
-24.060000
  0
LINE
 10
-11.706000
 11
-11.598000
 20
-24.060000
 21
-24.229000
  0
LINE
 10
-11.598000
 11
-11.512000
 20
-24.229000
 21
-24.411000
  0
LINE
 10
-11.512000
 11
-11.450000
 20
-24.411000
 21
-24.602000
  0
LINE
 10
-11.450000
 11
-11.413000
 20
-24.602000
 21
-24.799000
  0
LINE
 10
-11.413000
 11
-11.400000
 20
-24.799000
 21
-25.000000
  0
LINE
 10
-11.400000
 11
-11.413000
 20
-25.000000
 21
-25.201000
  0
LINE
 10
-11.413000
 11
-11.450000
 20
-25.201000
 21
-25.398000
  0
LINE
 10
-11.450000
 11
-11.512000
 20
-25.398000
 21
-25.589000
  0
LINE
 10
-11.512000
 11
-11.598000
 20
-25.589000
 21
-25.771000
  0
LINE
 10
-11.598000
 11
-11.706000
 20
-25.771000
 21
-25.940000
  0
LINE
 10
-11.706000
 11
-11.834000
 20
-25.940000
 21
-26.095000
  0
LINE
 10
-11.834000
 11
-11.980000
 20
-26.095000
 21
-26.233000
  0
LINE
 10
-11.980000
 11
-12.143000
 20
-26.233000
 21
-26.351000
  0
LINE
 10
-12.143000
 11
-12.319000
 20
-26.351000
 21
-26.448000
  0
LINE
 10
-12.319000
 11
-12.506000
 20
-26.448000
 21
-26.522000
  0
LINE
 10
-12.506000
 11
-12.700000
 20
-26.522000
 21
-26.572000
  0
LINE
 10
-12.700000
 11
-12.900000
 20
-26.572000
 21
-26.597000
  0
LINE
 10
-12.900000
 11
-13.100000
 20
-26.597000
 21
-26.597000
  0
LINE
 10
-13.100000
 11
-13.300000
 20
-26.597000
 21
-26.572000
  0
LINE
 10
-13.300000
 11
-13.494000
 20
-26.572000
 21
-26.522000
  0
LINE
 10
-13.494000
 11
-13.681000
 20
-26.522000
 21
-26.448000
  0
LINE
 10
-13.681000
 11
-13.857000
 20
-26.448000
 21
-26.351000
  0
LINE
 10
-13.857000
 11
-14.020000
 20
-26.351000
 21
-26.233000
  0
LINE
 10
-14.020000
 11
-14.166000
 20
-26.233000
 21
-26.095000
  0
LINE
 10
-14.166000
 11
-14.294000
 20
-26.095000
 21
-25.940000
  0
LINE
 10
-14.294000
 11
-14.402000
 20
-25.940000
 21
-25.771000
  0
LINE
 10
-14.402000
 11
-14.488000
 20
-25.771000
 21
-25.589000
  0
LINE
 10
-14.488000
 11
-14.550000
 20
-25.589000
 21
-25.398000
  0
LINE
 10
-14.550000
 11
-14.587000
 20
-25.398000
 21
-25.201000
  0
LINE
 10
-14.587000
 11
-14.600000
 20
-25.201000
 21
-25.000000
  0
LINE
 10
-14.600000
 11
-14.587000
 20
25.000000
 21
25.201000
  0
LINE
 10
-14.587000
 11
-14.550000
 20
25.201000
 21
25.398000
  0
LINE
 10
-14.550000
 11
-14.488000
 20
25.398000
 21
25.589000
  0
LINE
 10
-14.488000
 11
-14.402000
 20
25.589000
 21
25.771000
  0
LINE
 10
-14.402000
 11
-14.294000
 20
25.771000
 21
25.940000
  0
LINE
 10
-14.294000
 11
-14.166000
 20
25.940000
 21
26.095000
  0
LINE
 10
-14.166000
 11
-14.020000
 20
26.095000
 21
26.233000
  0
LINE
 10
-14.020000
 11
-13.857000
 20
26.233000
 21
26.351000
  0
LINE
 10
-13.857000
 11
-13.681000
 20
26.351000
 21
26.448000
  0
LINE
 10
-13.681000
 11
-13.494000
 20
26.448000
 21
26.522000
  0
LINE
 10
-13.494000
 11
-13.300000
 20
26.522000
 21
26.572000
  0
LINE
 10
-13.300000
 11
-13.100000
 20
26.572000
 21
26.597000
  0
LINE
 10
-13.100000
 11
-12.900000
 20
26.597000
 21
26.597000
  0
LINE
 10
-12.900000
 11
-12.700000
 20
26.597000
 21
26.572000
  0
LINE
 10
-12.700000
 11
-12.506000
 20
26.572000
 21
26.522000
  0
LINE
 10
-12.506000
 11
-12.319000
 20
26.522000
 21
26.448000
  0
LINE
 10
-12.319000
 11
-12.143000
 20
26.448000
 21
26.351000
  0
LINE
 10
-12.143000
 11
-11.980000
 20
26.351000
 21
26.233000
  0
LINE
 10
-11.980000
 11
-11.834000
 20
26.233000
 21
26.095000
  0
LINE
 10
-11.834000
 11
-11.706000
 20
26.095000
 21
25.940000
  0
LINE
 10
-11.706000
 11
-11.598000
 20
25.940000
 21
25.771000
  0
LINE
 10
-11.598000
 11
-11.512000
 20
25.771000
 21
25.589000
  0
LINE
 10
-11.512000
 11
-11.450000
 20
25.589000
 21
25.398000
  0
LINE
 10
-11.450000
 11
-11.413000
 20
25.398000
 21
25.201000
  0
LINE
 10
-11.413000
 11
-11.400000
 20
25.201000
 21
25.000000
  0
LINE
 10
-11.400000
 11
-11.413000
 20
25.000000
 21
24.799000
  0
LINE
 10
-11.413000
 11
-11.450000
 20
24.799000
 21
24.602000
  0
LINE
 10
-11.450000
 11
-11.512000
 20
24.602000
 21
24.411000
  0
LINE
 10
-11.512000
 11
-11.598000
 20
24.411000
 21
24.229000
  0
LINE
 10
-11.598000
 11
-11.706000
 20
24.229000
 21
24.060000
  0
LINE
 10
-11.706000
 11
-11.834000
 20
24.060000
 21
23.905000
  0
LINE
 10
-11.834000
 11
-11.980000
 20
23.905000
 21
23.767000
  0
LINE
 10
-11.980000
 11
-12.143000
 20
23.767000
 21
23.649000
  0
LINE
 10
-12.143000
 11
-12.319000
 20
23.649000
 21
23.552000
  0
LINE
 10
-12.319000
 11
-12.506000
 20
23.552000
 21
23.478000
  0
LINE
 10
-12.506000
 11
-12.700000
 20
23.478000
 21
23.428000
  0
LINE
 10
-12.700000
 11
-12.900000
 20
23.428000
 21
23.403000
  0
LINE
 10
-12.900000
 11
-13.100000
 20
23.403000
 21
23.403000
  0
LINE
 10
-13.100000
 11
-13.300000
 20
23.403000
 21
23.428000
  0
LINE
 10
-13.300000
 11
-13.494000
 20
23.428000
 21
23.478000
  0
LINE
 10
-13.494000
 11
-13.681000
 20
23.478000
 21
23.552000
  0
LINE
 10
-13.681000
 11
-13.857000
 20
23.552000
 21
23.649000
  0
LINE
 10
-13.857000
 11
-14.020000
 20
23.649000
 21
23.767000
  0
LINE
 10
-14.020000
 11
-14.166000
 20
23.767000
 21
23.905000
  0
LINE
 10
-14.166000
 11
-14.294000
 20
23.905000
 21
24.060000
  0
LINE
 10
-14.294000
 11
-14.402000
 20
24.060000
 21
24.229000
  0
LINE
 10
-14.402000
 11
-14.488000
 20
24.229000
 21
24.411000
  0
LINE
 10
-14.488000
 11
-14.550000
 20
24.411000
 21
24.602000
  0
LINE
 10
-14.550000
 11
-14.587000
 20
24.602000
 21
24.799000
  0
LINE
 10
-14.587000
 11
-14.600000
 20
24.799000
 21
25.000000
  0
LINE
 10
-12.700000
 11
-12.700000
 20
35.500000
 21
60.900000
  0
LINE
 10
-12.700000
 11
12.700000
 20
60.900000
 21
60.900000
  0
LINE
 10
12.700000
 11
12.700000
 20
60.900000
 21
35.500000
  0
LINE
 10
12.700000
 11
-12.700000
 20
35.500000
 21
35.500000
  0
LINE
 10
11.400000
 11
11.413000
 20
-25.000000
 21
-24.799000
  0
LINE
 10
11.413000
 11
11.450000
 20
-24.799000
 21
-24.602000
  0
LINE
 10
11.450000
 11
11.512000
 20
-24.602000
 21
-24.411000
  0
LINE
 10
11.512000
 11
11.598000
 20
-24.411000
 21
-24.229000
  0
LINE
 10
11.598000
 11
11.706000
 20
-24.229000
 21
-24.060000
  0
LINE
 10
11.706000
 11
11.834000
 20
-24.060000
 21
-23.905000
  0
LINE
 10
11.834000
 11
11.980000
 20
-23.905000
 21
-23.767000
  0
LINE
 10
11.980000
 11
12.143000
 20
-23.767000
 21
-23.649000
  0
LINE
 10
12.143000
 11
12.319000
 20
-23.649000
 21
-23.552000
  0
LINE
 10
12.319000
 11
12.506000
 20
-23.552000
 21
-23.478000
  0
LINE
 10
12.506000
 11
12.700000
 20
-23.478000
 21
-23.428000
  0
LINE
 10
12.700000
 11
12.900000
 20
-23.428000
 21
-23.403000
  0
LINE
 10
12.900000
 11
13.100000
 20
-23.403000
 21
-23.403000
  0
LINE
 10
13.100000
 11
13.300000
 20
-23.403000
 21
-23.428000
  0
LINE
 10
13.300000
 11
13.494000
 20
-23.428000
 21
-23.478000
  0
LINE
 10
13.494000
 11
13.681000
 20
-23.478000
 21
-23.552000
  0
LINE
 10
13.681000
 11
13.857000
 20
-23.552000
 21
-23.649000
  0
LINE
 10
13.857000
 11
14.020000
 20
-23.649000
 21
-23.767000
  0
LINE
 10
14.020000
 11
14.166000
 20
-23.767000
 21
-23.905000
  0
LINE
 10
14.166000
 11
14.294000
 20
-23.905000
 21
-24.060000
  0
LINE
 10
14.294000
 11
14.402000
 20
-24.060000
 21
-24.229000
  0
LINE
 10
14.402000
 11
14.488000
 20
-24.229000
 21
-24.411000
  0
LINE
 10
14.488000
 11
14.550000
 20
-24.411000
 21
-24.602000
  0
LINE
 10
14.550000
 11
14.587000
 20
-24.602000
 21
-24.799000
  0
LINE
 10
14.587000
 11
14.600000
 20
-24.799000
 21
-25.000000
  0
LINE
 10
14.600000
 11
14.587000
 20
-25.000000
 21
-25.201000
  0
LINE
 10
14.587000
 11
14.550000
 20
-25.201000
 21
-25.398000
  0
LINE
 10
14.550000
 11
14.488000
 20
-25.398000
 21
-25.589000
  0
LINE
 10
14.488000
 11
14.402000
 20
-25.589000
 21
-25.771000
  0
LINE
 10
14.402000
 11
14.294000
 20
-25.771000
 21
-25.940000
  0
LINE
 10
14.294000
 11
14.166000
 20
-25.940000
 21
-26.095000
  0
LINE
 10
14.166000
 11
14.020000
 20
-26.095000
 21
-26.233000
  0
LINE
 10
14.020000
 11
13.857000
 20
-26.233000
 21
-26.351000
  0
LINE
 10
13.857000
 11
13.681000
 20
-26.351000
 21
-26.448000
  0
LINE
 10
13.681000
 11
13.494000
 20
-26.448000
 21
-26.522000
  0
LINE
 10
13.494000
 11
13.300000
 20
-26.522000
 21
-26.572000
  0
LINE
 10
13.300000
 11
13.100000
 20
-26.572000
 21
-26.597000
  0
LINE
 10
13.100000
 11
12.900000
 20
-26.597000
 21
-26.597000
  0
LINE
 10
12.900000
 11
12.700000
 20
-26.597000
 21
-26.572000
  0
LINE
 10
12.700000
 11
12.506000
 20
-26.572000
 21
-26.522000
  0
LINE
 10
12.506000
 11
12.319000
 20
-26.522000
 21
-26.448000
  0
LINE
 10
12.319000
 11
12.143000
 20
-26.448000
 21
-26.351000
  0
LINE
 10
12.143000
 11
11.980000
 20
-26.351000
 21
-26.233000
  0
LINE
 10
11.980000
 11
11.834000
 20
-26.233000
 21
-26.095000
  0
LINE
 10
11.834000
 11
11.706000
 20
-26.095000
 21
-25.940000
  0
LINE
 10
11.706000
 11
11.598000
 20
-25.940000
 21
-25.771000
  0
LINE
 10
11.598000
 11
11.512000
 20
-25.771000
 21
-25.589000
  0
LINE
 10
11.512000
 11
11.450000
 20
-25.589000
 21
-25.398000
  0
LINE
 10
11.450000
 11
11.413000
 20
-25.398000
 21
-25.201000
  0
LINE
 10
11.413000
 11
11.400000
 20
-25.201000
 21
-25.000000
  0
LINE
 10
11.400000
 11
11.413000
 20
25.000000
 21
25.201000
  0
LINE
 10
11.413000
 11
11.450000
 20
25.201000
 21
25.398000
  0
LINE
 10
11.450000
 11
11.512000
 20
25.398000
 21
25.589000
  0
LINE
 10
11.512000
 11
11.598000
 20
25.589000
 21
25.771000
  0
LINE
 10
11.598000
 11
11.706000
 20
25.771000
 21
25.940000
  0
LINE
 10
11.706000
 11
11.834000
 20
25.940000
 21
26.095000
  0
LINE
 10
11.834000
 11
11.980000
 20
26.095000
 21
26.233000
  0
LINE
 10
11.980000
 11
12.143000
 20
26.233000
 21
26.351000
  0
LINE
 10
12.143000
 11
12.319000
 20
26.351000
 21
26.448000
  0
LINE
 10
12.319000
 11
12.506000
 20
26.448000
 21
26.522000
  0
LINE
 10
12.506000
 11
12.700000
 20
26.522000
 21
26.572000
  0
LINE
 10
12.700000
 11
12.900000
 20
26.572000
 21
26.597000
  0
LINE
 10
12.900000
 11
13.100000
 20
26.597000
 21
26.597000
  0
LINE
 10
13.100000
 11
13.300000
 20
26.597000
 21
26.572000
  0
LINE
 10
13.300000
 11
13.494000
 20
26.572000
 21
26.522000
  0
LINE
 10
13.494000
 11
13.681000
 20
26.522000
 21
26.448000
  0
LINE
 10
13.681000
 11
13.857000
 20
26.448000
 21
26.351000
  0
LINE
 10
13.857000
 11
14.020000
 20
26.351000
 21
26.233000
  0
LINE
 10
14.020000
 11
14.166000
 20
26.233000
 21
26.095000
  0
LINE
 10
14.166000
 11
14.294000
 20
26.095000
 21
25.940000
  0
LINE
 10
14.294000
 11
14.402000
 20
25.940000
 21
25.771000
  0
LINE
 10
14.402000
 11
14.488000
 20
25.771000
 21
25.589000
  0
LINE
 10
14.488000
 11
14.550000
 20
25.589000
 21
25.398000
  0
LINE
 10
14.550000
 11
14.587000
 20
25.398000
 21
25.201000
  0
LINE
 10
14.587000
 11
14.600000
 20
25.201000
 21
25.000000
  0
LINE
 10
14.600000
 11
14.587000
 20
25.000000
 21
24.799000
  0
LINE
 10
14.587000
 11
14.550000
 20
24.799000
 21
24.602000
  0
LINE
 10
14.550000
 11
14.488000
 20
24.602000
 21
24.411000
  0
LINE
 10
14.488000
 11
14.402000
 20
24.411000
 21
24.229000
  0
LINE
 10
14.402000
 11
14.294000
 20
24.229000
 21
24.060000
  0
LINE
 10
14.294000
 11
14.166000
 20
24.060000
 21
23.905000
  0
LINE
 10
14.166000
 11
14.020000
 20
23.905000
 21
23.767000
  0
LINE
 10
14.020000
 11
13.857000
 20
23.767000
 21
23.649000
  0
LINE
 10
13.857000
 11
13.681000
 20
23.649000
 21
23.552000
  0
LINE
 10
13.681000
 11
13.494000
 20
23.552000
 21
23.478000
  0
LINE
 10
13.494000
 11
13.300000
 20
23.478000
 21
23.428000
  0
LINE
 10
13.300000
 11
13.100000
 20
23.428000
 21
23.403000
  0
LINE
 10
13.100000
 11
12.900000
 20
23.403000
 21
23.403000
  0
LINE
 10
12.900000
 11
12.700000
 20
23.403000
 21
23.428000
  0
LINE
 10
12.700000
 11
12.506000
 20
23.428000
 21
23.478000
  0
LINE
 10
12.506000
 11
12.319000
 20
23.478000
 21
23.552000
  0
LINE
 10
12.319000
 11
12.143000
 20
23.552000
 21
23.649000
  0
LINE
 10
12.143000
 11
11.980000
 20
23.649000
 21
23.767000
  0
LINE
 10
11.980000
 11
11.834000
 20
23.767000
 21
23.905000
  0
LINE
 10
11.834000
 11
11.706000
 20
23.905000
 21
24.060000
  0
LINE
 10
11.706000
 11
11.598000
 20
24.060000
 21
24.229000
  0
LINE
 10
11.598000
 11
11.512000
 20
24.229000
 21
24.411000
  0
LINE
 10
11.512000
 11
11.450000
 20
24.411000
 21
24.602000
  0
LINE
 10
11.450000
 11
11.413000
 20
24.602000
 21
24.799000
  0
LINE
 10
11.413000
 11
11.400000
 20
24.799000
 21
25.000000
  0
LINE
 10
136.398000
 11
136.424000
 20
-19.050000
 21
-18.636000
  0
LINE
 10
136.424000
 11
136.502000
 20
-18.636000
 21
-18.229000
  0
LINE
 10
136.502000
 11
136.630000
 20
-18.229000
 21
-17.834000
  0
LINE
 10
136.630000
 11
136.806000
 20
-17.834000
 21
-17.459000
  0
LINE
 10
136.806000
 11
137.029000
 20
-17.459000
 21
-17.109000
  0
LINE
 10
137.029000
 11
137.293000
 20
-17.109000
 21
-16.790000
  0
LINE
 10
137.293000
 11
137.595000
 20
-16.790000
 21
-16.506000
  0
LINE
 10
137.595000
 11
137.931000
 20
-16.506000
 21
-16.262000
  0
LINE
 10
137.931000
 11
138.294000
 20
-16.262000
 21
-16.062000
  0
LINE
 10
138.294000
 11
138.680000
 20
-16.062000
 21
-15.910000
  0
LINE
 10
138.680000
 11
139.081000
 20
-15.910000
 21
-15.806000
  0
LINE
 10
139.081000
 11
139.493000
 20
-15.806000
 21
-15.755000
  0
LINE
 10
139.493000
 11
139.907000
 20
-15.755000
 21
-15.755000
  0
LINE
 10
139.907000
 11
140.319000
 20
-15.755000
 21
-15.806000
  0
LINE
 10
140.319000
 11
140.720000
 20
-15.806000
 21
-15.910000
  0
LINE
 10
140.720000
 11
141.106000
 20
-15.910000
 21
-16.062000
  0
LINE
 10
141.106000
 11
141.469000
 20
-16.062000
 21
-16.262000
  0
LINE
 10
141.469000
 11
141.805000
 20
-16.262000
 21
-16.506000
  0
LINE
 10
141.805000
 11
142.107000
 20
-16.506000
 21
-16.790000
  0
LINE
 10
142.107000
 11
142.371000
 20
-16.790000
 21
-17.109000
  0
LINE
 10
142.371000
 11
142.594000
 20
-17.109000
 21
-17.459000
  0
LINE
 10
142.594000
 11
142.770000
 20
-17.459000
 21
-17.834000
  0
LINE
 10
142.770000
 11
142.898000
 20
-17.834000
 21
-18.229000
  0
LINE
 10
142.898000
 11
142.976000
 20
-18.229000
 21
-18.636000
  0
LINE
 10
142.976000
 11
143.002000
 20
-18.636000
 21
-19.050000
  0
LINE
 10
143.002000
 11
142.976000
 20
-19.050000
 21
-19.464000
  0
LINE
 10
142.976000
 11
142.898000
 20
-19.464000
 21
-19.871000
  0
LINE
 10
142.898000
 11
142.770000
 20
-19.871000
 21
-20.266000
  0
LINE
 10
142.770000
 11
142.594000
 20
-20.266000
 21
-20.641000
  0
LINE
 10
142.594000
 11
142.371000
 20
-20.641000
 21
-20.991000
  0
LINE
 10
142.371000
 11
142.107000
 20
-20.991000
 21
-21.310000
  0
LINE
 10
142.107000
 11
141.805000
 20
-21.310000
 21
-21.594000
  0
LINE
 10
141.805000
 11
141.469000
 20
-21.594000
 21
-21.838000
  0
LINE
 10
141.469000
 11
141.106000
 20
-21.838000
 21
-22.038000
  0
LINE
 10
141.106000
 11
140.720000
 20
-22.038000
 21
-22.190000
  0
LINE
 10
140.720000
 11
140.319000
 20
-22.190000
 21
-22.294000
  0
LINE
 10
140.319000
 11
139.907000
 20
-22.294000
 21
-22.345000
  0
LINE
 10
139.907000
 11
139.493000
 20
-22.345000
 21
-22.345000
  0
LINE
 10
139.493000
 11
139.081000
 20
-22.345000
 21
-22.294000
  0
LINE
 10
139.081000
 11
138.680000
 20
-22.294000
 21
-22.190000
  0
LINE
 10
138.680000
 11
138.294000
 20
-22.190000
 21
-22.038000
  0
LINE
 10
138.294000
 11
137.931000
 20
-22.038000
 21
-21.838000
  0
LINE
 10
137.931000
 11
137.595000
 20
-21.838000
 21
-21.594000
  0
LINE
 10
137.595000
 11
137.293000
 20
-21.594000
 21
-21.310000
  0
LINE
 10
137.293000
 11
137.029000
 20
-21.310000
 21
-20.991000
  0
LINE
 10
137.029000
 11
136.806000
 20
-20.991000
 21
-20.641000
  0
LINE
 10
136.806000
 11
136.630000
 20
-20.641000
 21
-20.266000
  0
LINE
 10
136.630000
 11
136.502000
 20
-20.266000
 21
-19.871000
  0
LINE
 10
136.502000
 11
136.424000
 20
-19.871000
 21
-19.464000
  0
LINE
 10
136.424000
 11
136.398000
 20
-19.464000
 21
-19.050000
  0
LINE
 10
136.398000
 11
136.424000
 20
19.050000
 21
19.464000
  0
LINE
 10
136.424000
 11
136.502000
 20
19.464000
 21
19.871000
  0
LINE
 10
136.502000
 11
136.630000
 20
19.871000
 21
20.266000
  0
LINE
 10
136.630000
 11
136.806000
 20
20.266000
 21
20.641000
  0
LINE
 10
136.806000
 11
137.029000
 20
20.641000
 21
20.991000
  0
LINE
 10
137.029000
 11
137.293000
 20
20.991000
 21
21.310000
  0
LINE
 10
137.293000
 11
137.595000
 20
21.310000
 21
21.594000
  0
LINE
 10
137.595000
 11
137.931000
 20
21.594000
 21
21.838000
  0
LINE
 10
137.931000
 11
138.294000
 20
21.838000
 21
22.038000
  0
LINE
 10
138.294000
 11
138.680000
 20
22.038000
 21
22.190000
  0
LINE
 10
138.680000
 11
139.081000
 20
22.190000
 21
22.294000
  0
LINE
 10
139.081000
 11
139.493000
 20
22.294000
 21
22.345000
  0
LINE
 10
139.493000
 11
139.907000
 20
22.345000
 21
22.345000
  0
LINE
 10
139.907000
 11
140.319000
 20
22.345000
 21
22.294000
  0
LINE
 10
140.319000
 11
140.720000
 20
22.294000
 21
22.190000
  0
LINE
 10
140.720000
 11
141.106000
 20
22.190000
 21
22.038000
  0
LINE
 10
141.106000
 11
141.469000
 20
22.038000
 21
21.838000
  0
LINE
 10
141.469000
 11
141.805000
 20
21.838000
 21
21.594000
  0
LINE
 10
141.805000
 11
142.107000
 20
21.594000
 21
21.310000
  0
LINE
 10
142.107000
 11
142.371000
 20
21.310000
 21
20.991000
  0
LINE
 10
142.371000
 11
142.594000
 20
20.991000
 21
20.641000
  0
LINE
 10
142.594000
 11
142.770000
 20
20.641000
 21
20.266000
  0
LINE
 10
142.770000
 11
142.898000
 20
20.266000
 21
19.871000
  0
LINE
 10
142.898000
 11
142.976000
 20
19.871000
 21
19.464000
  0
LINE
 10
142.976000
 11
143.002000
 20
19.464000
 21
19.050000
  0
LINE
 10
143.002000
 11
142.976000
 20
19.050000
 21
18.636000
  0
LINE
 10
142.976000
 11
142.898000
 20
18.636000
 21
18.229000
  0
LINE
 10
142.898000
 11
142.770000
 20
18.229000
 21
17.834000
  0
LINE
 10
142.770000
 11
142.594000
 20
17.834000
 21
17.459000
  0
LINE
 10
142.594000
 11
142.371000
 20
17.459000
 21
17.109000
  0
LINE
 10
142.371000
 11
142.107000
 20
17.109000
 21
16.790000
  0
LINE
 10
142.107000
 11
141.805000
 20
16.790000
 21
16.506000
  0
LINE
 10
141.805000
 11
141.469000
 20
16.506000
 21
16.262000
  0
LINE
 10
141.469000
 11
141.106000
 20
16.262000
 21
16.062000
  0
LINE
 10
141.106000
 11
140.720000
 20
16.062000
 21
15.910000
  0
LINE
 10
140.720000
 11
140.319000
 20
15.910000
 21
15.806000
  0
LINE
 10
140.319000
 11
139.907000
 20
15.806000
 21
15.755000
  0
LINE
 10
139.907000
 11
139.493000
 20
15.755000
 21
15.755000
  0
LINE
 10
139.493000
 11
139.081000
 20
15.755000
 21
15.806000
  0
LINE
 10
139.081000
 11
138.680000
 20
15.806000
 21
15.910000
  0
LINE
 10
138.680000
 11
138.294000
 20
15.910000
 21
16.062000
  0
LINE
 10
138.294000
 11
137.931000
 20
16.062000
 21
16.262000
  0
LINE
 10
137.931000
 11
137.595000
 20
16.262000
 21
16.506000
  0
LINE
 10
137.595000
 11
137.293000
 20
16.506000
 21
16.790000
  0
LINE
 10
137.293000
 11
137.029000
 20
16.790000
 21
17.109000
  0
LINE
 10
137.029000
 11
136.806000
 20
17.109000
 21
17.459000
  0
LINE
 10
136.806000
 11
136.630000
 20
17.459000
 21
17.834000
  0
LINE
 10
136.630000
 11
136.502000
 20
17.834000
 21
18.229000
  0
LINE
 10
136.502000
 11
136.424000
 20
18.229000
 21
18.636000
  0
LINE
 10
136.424000
 11
136.398000
 20
18.636000
 21
19.050000
  0
ENDSEC
  0
EOF
