G04 #@! TF.GenerationSoftware,KiCad,Pcbnew,5.0.2-bee76a0~70~ubuntu18.04.1*
G04 #@! TF.CreationDate,2020-04-21T07:29:41-07:00*
G04 #@! TF.ProjectId,hallway_panels_arena,68616c6c-7761-4795-9f70-616e656c735f,1.0*
G04 #@! TF.SameCoordinates,Original*
G04 #@! TF.FileFunction,Copper,L1,Top*
G04 #@! TF.FilePolarity,Positive*
%FSLAX46Y46*%
G04 Gerber Fmt 4.6, Leading zero omitted, Abs format (unit mm)*
G04 Created by KiCad (PCBNEW 5.0.2-bee76a0~70~ubuntu18.04.1) date Tue 21 Apr 2020 07:29:41 AM PDT*
%MOMM*%
%LPD*%
G01*
G04 APERTURE LIST*
G04 #@! TA.AperFunction,ComponentPad*
%ADD10R,1.524000X1.524000*%
G04 #@! TD*
G04 #@! TA.AperFunction,ComponentPad*
%ADD11C,1.524000*%
G04 #@! TD*
G04 #@! TA.AperFunction,ViaPad*
%ADD12C,5.080000*%
G04 #@! TD*
G04 #@! TA.AperFunction,ComponentPad*
%ADD13C,1.930400*%
G04 #@! TD*
G04 #@! TA.AperFunction,ComponentPad*
%ADD14C,3.556000*%
G04 #@! TD*
G04 #@! TA.AperFunction,ComponentPad*
%ADD15C,4.064000*%
G04 #@! TD*
G04 #@! TA.AperFunction,ComponentPad*
%ADD16R,1.778000X1.778000*%
G04 #@! TD*
G04 #@! TA.AperFunction,ComponentPad*
%ADD17C,1.778000*%
G04 #@! TD*
G04 #@! TA.AperFunction,ComponentPad*
%ADD18C,2.540000*%
G04 #@! TD*
G04 #@! TA.AperFunction,ComponentPad*
%ADD19O,2.781300X2.781300*%
G04 #@! TD*
G04 #@! TA.AperFunction,ComponentPad*
%ADD20C,2.781300*%
G04 #@! TD*
G04 #@! TA.AperFunction,ComponentPad*
%ADD21C,8.128000*%
G04 #@! TD*
G04 #@! TA.AperFunction,ViaPad*
%ADD22C,0.889000*%
G04 #@! TD*
G04 #@! TA.AperFunction,Conductor*
%ADD23C,1.016000*%
G04 #@! TD*
G04 #@! TA.AperFunction,Conductor*
%ADD24C,2.032000*%
G04 #@! TD*
G04 #@! TA.AperFunction,Conductor*
%ADD25C,0.228600*%
G04 #@! TD*
G04 APERTURE END LIST*
D10*
G04 #@! TO.P,P10,1*
G04 #@! TO.N,/SCL*
X194310000Y-83058000D03*
D11*
G04 #@! TO.P,P10,2*
G04 #@! TO.N,/SDA*
X196850000Y-83058000D03*
G04 #@! TO.P,P10,3*
G04 #@! TO.N,/5V*
X199390000Y-83058000D03*
G04 #@! TO.P,P10,4*
G04 #@! TO.N,N/C*
X201930000Y-83058000D03*
G04 #@! TO.P,P10,5*
X204470000Y-83058000D03*
G04 #@! TO.P,P10,6*
X207010000Y-83058000D03*
G04 #@! TO.P,P10,7*
G04 #@! TO.N,/5V*
X209550000Y-83058000D03*
G04 #@! TO.P,P10,8*
G04 #@! TO.N,GND*
X212090000Y-83058000D03*
G04 #@! TD*
G04 #@! TO.P,J2,1*
G04 #@! TO.N,/SCL1*
X43942000Y-70713600D03*
G04 #@! TO.P,J2,2*
G04 #@! TO.N,/SDA1*
X43942000Y-73456800D03*
G04 #@! TO.P,J2,3*
G04 #@! TO.N,/SCL2*
X43942000Y-76200000D03*
G04 #@! TO.P,J2,4*
G04 #@! TO.N,/SDA2*
X43942000Y-78943200D03*
G04 #@! TO.P,J2,5*
G04 #@! TO.N,GND*
X43942000Y-81686400D03*
G04 #@! TO.P,J2,6*
G04 #@! TO.N,/SCL0*
X41402000Y-72085200D03*
G04 #@! TO.P,J2,7*
G04 #@! TO.N,/SCL3*
X41402000Y-74828400D03*
G04 #@! TO.P,J2,8*
G04 #@! TO.N,/SDA0*
X41402000Y-77571600D03*
G04 #@! TO.P,J2,9*
G04 #@! TO.N,/SDA3*
X41402000Y-80314800D03*
D12*
G04 #@! TD*
G04 #@! TO.N,*
G04 #@! TO.C,J2*
X42672000Y-63677800D03*
G04 #@! TO.N,*
G04 #@! TO.C,J2*
X42672000Y-88722200D03*
G04 #@! TD*
D11*
G04 #@! TO.P,J1,1*
G04 #@! TO.N,/SCL1*
X362458000Y-81686400D03*
G04 #@! TO.P,J1,2*
G04 #@! TO.N,/SDA1*
X362458000Y-78943200D03*
G04 #@! TO.P,J1,3*
G04 #@! TO.N,/SCL2*
X362458000Y-76200000D03*
G04 #@! TO.P,J1,4*
G04 #@! TO.N,/SDA2*
X362458000Y-73456800D03*
G04 #@! TO.P,J1,5*
G04 #@! TO.N,GND*
X362458000Y-70713600D03*
G04 #@! TO.P,J1,6*
G04 #@! TO.N,/SCL0*
X364998000Y-80314800D03*
G04 #@! TO.P,J1,7*
G04 #@! TO.N,/SCL3*
X364998000Y-77571600D03*
G04 #@! TO.P,J1,8*
G04 #@! TO.N,/SDA0*
X364998000Y-74828400D03*
G04 #@! TO.P,J1,9*
G04 #@! TO.N,/SDA3*
X364998000Y-72085200D03*
D12*
G04 #@! TD*
G04 #@! TO.N,*
G04 #@! TO.C,J1*
X363728000Y-88722200D03*
G04 #@! TO.N,*
G04 #@! TO.C,J1*
X363728000Y-63677800D03*
G04 #@! TD*
D13*
G04 #@! TO.P,P6,*
G04 #@! TO.N,*
X95250000Y-63677800D03*
D14*
G04 #@! TO.P,P6,2*
G04 #@! TO.N,GND*
X95250000Y-66675000D03*
D15*
G04 #@! TO.P,P6,1*
G04 #@! TO.N,N-000002*
X95250000Y-72669400D03*
D14*
G04 #@! TO.P,P6,*
G04 #@! TO.N,*
X90754200Y-65684400D03*
X99745800Y-65684400D03*
G04 #@! TD*
D13*
G04 #@! TO.P,P3,*
G04 #@! TO.N,*
X311150000Y-63677800D03*
D14*
G04 #@! TO.P,P3,2*
G04 #@! TO.N,GND*
X311150000Y-66675000D03*
D15*
G04 #@! TO.P,P3,1*
G04 #@! TO.N,N-000002*
X311150000Y-72669400D03*
D14*
G04 #@! TO.P,P3,*
G04 #@! TO.N,*
X306654200Y-65684400D03*
X315645800Y-65684400D03*
G04 #@! TD*
D16*
G04 #@! TO.P,P4,1*
G04 #@! TO.N,/SCL1*
X328930000Y-67310000D03*
D17*
G04 #@! TO.P,P4,2*
G04 #@! TO.N,/SCL0*
X328930000Y-64770000D03*
G04 #@! TO.P,P4,3*
G04 #@! TO.N,/SDA1*
X331470000Y-67310000D03*
G04 #@! TO.P,P4,4*
G04 #@! TO.N,/SCL3*
X331470000Y-64770000D03*
G04 #@! TO.P,P4,5*
G04 #@! TO.N,/SCL2*
X334010000Y-67310000D03*
G04 #@! TO.P,P4,6*
G04 #@! TO.N,/SDA0*
X334010000Y-64770000D03*
G04 #@! TO.P,P4,7*
G04 #@! TO.N,/SDA2*
X336550000Y-67310000D03*
G04 #@! TO.P,P4,8*
G04 #@! TO.N,/SDA3*
X336550000Y-64770000D03*
G04 #@! TO.P,P4,9*
G04 #@! TO.N,GND*
X339090000Y-67310000D03*
G04 #@! TO.P,P4,10*
X339090000Y-64770000D03*
G04 #@! TD*
D16*
G04 #@! TO.P,P1,1*
G04 #@! TO.N,/SCL1*
X67310000Y-67310000D03*
D17*
G04 #@! TO.P,P1,2*
G04 #@! TO.N,/SCL0*
X67310000Y-64770000D03*
G04 #@! TO.P,P1,3*
G04 #@! TO.N,/SDA1*
X69850000Y-67310000D03*
G04 #@! TO.P,P1,4*
G04 #@! TO.N,/SCL3*
X69850000Y-64770000D03*
G04 #@! TO.P,P1,5*
G04 #@! TO.N,/SCL2*
X72390000Y-67310000D03*
G04 #@! TO.P,P1,6*
G04 #@! TO.N,/SDA0*
X72390000Y-64770000D03*
G04 #@! TO.P,P1,7*
G04 #@! TO.N,/SDA2*
X74930000Y-67310000D03*
G04 #@! TO.P,P1,8*
G04 #@! TO.N,/SDA3*
X74930000Y-64770000D03*
G04 #@! TO.P,P1,9*
G04 #@! TO.N,GND*
X77470000Y-67310000D03*
G04 #@! TO.P,P1,10*
X77470000Y-64770000D03*
G04 #@! TD*
D10*
G04 #@! TO.P,P7,1*
G04 #@! TO.N,/SCL*
X96926400Y-83058000D03*
D11*
G04 #@! TO.P,P7,2*
G04 #@! TO.N,/SDA*
X99466400Y-83058000D03*
G04 #@! TO.P,P7,3*
G04 #@! TO.N,/5V*
X102006400Y-83058000D03*
G04 #@! TO.P,P7,4*
G04 #@! TO.N,N/C*
X104546400Y-83058000D03*
G04 #@! TO.P,P7,5*
X107086400Y-83058000D03*
G04 #@! TO.P,P7,6*
X109626400Y-83058000D03*
G04 #@! TO.P,P7,7*
G04 #@! TO.N,/5V*
X112166400Y-83058000D03*
G04 #@! TO.P,P7,8*
G04 #@! TO.N,GND*
X114706400Y-83058000D03*
G04 #@! TD*
D10*
G04 #@! TO.P,P9,1*
G04 #@! TO.N,/SCL*
X161848800Y-83058000D03*
D11*
G04 #@! TO.P,P9,2*
G04 #@! TO.N,/SDA*
X164388800Y-83058000D03*
G04 #@! TO.P,P9,3*
G04 #@! TO.N,/5V*
X166928800Y-83058000D03*
G04 #@! TO.P,P9,4*
G04 #@! TO.N,N/C*
X169468800Y-83058000D03*
G04 #@! TO.P,P9,5*
X172008800Y-83058000D03*
G04 #@! TO.P,P9,6*
X174548800Y-83058000D03*
G04 #@! TO.P,P9,7*
G04 #@! TO.N,/5V*
X177088800Y-83058000D03*
G04 #@! TO.P,P9,8*
G04 #@! TO.N,GND*
X179628800Y-83058000D03*
G04 #@! TD*
D10*
G04 #@! TO.P,P13,1*
G04 #@! TO.N,/SCL*
X291693600Y-83058000D03*
D11*
G04 #@! TO.P,P13,2*
G04 #@! TO.N,/SDA*
X294233600Y-83058000D03*
G04 #@! TO.P,P13,3*
G04 #@! TO.N,/5V*
X296773600Y-83058000D03*
G04 #@! TO.P,P13,4*
G04 #@! TO.N,N/C*
X299313600Y-83058000D03*
G04 #@! TO.P,P13,5*
X301853600Y-83058000D03*
G04 #@! TO.P,P13,6*
X304393600Y-83058000D03*
G04 #@! TO.P,P13,7*
G04 #@! TO.N,/5V*
X306933600Y-83058000D03*
G04 #@! TO.P,P13,8*
G04 #@! TO.N,GND*
X309473600Y-83058000D03*
G04 #@! TD*
D10*
G04 #@! TO.P,P11,1*
G04 #@! TO.N,/SCL*
X226771200Y-83058000D03*
D11*
G04 #@! TO.P,P11,2*
G04 #@! TO.N,/SDA*
X229311200Y-83058000D03*
G04 #@! TO.P,P11,3*
G04 #@! TO.N,/5V*
X231851200Y-83058000D03*
G04 #@! TO.P,P11,4*
G04 #@! TO.N,N/C*
X234391200Y-83058000D03*
G04 #@! TO.P,P11,5*
X236931200Y-83058000D03*
G04 #@! TO.P,P11,6*
X239471200Y-83058000D03*
G04 #@! TO.P,P11,7*
G04 #@! TO.N,/5V*
X242011200Y-83058000D03*
G04 #@! TO.P,P11,8*
G04 #@! TO.N,GND*
X244551200Y-83058000D03*
G04 #@! TD*
D10*
G04 #@! TO.P,P8,1*
G04 #@! TO.N,/SCL*
X129387600Y-83058000D03*
D11*
G04 #@! TO.P,P8,2*
G04 #@! TO.N,/SDA*
X131927600Y-83058000D03*
G04 #@! TO.P,P8,3*
G04 #@! TO.N,/5V*
X134467600Y-83058000D03*
G04 #@! TO.P,P8,4*
G04 #@! TO.N,N/C*
X137007600Y-83058000D03*
G04 #@! TO.P,P8,5*
X139547600Y-83058000D03*
G04 #@! TO.P,P8,6*
X142087600Y-83058000D03*
G04 #@! TO.P,P8,7*
G04 #@! TO.N,/5V*
X144627600Y-83058000D03*
G04 #@! TO.P,P8,8*
G04 #@! TO.N,GND*
X147167600Y-83058000D03*
G04 #@! TD*
D10*
G04 #@! TO.P,P12,1*
G04 #@! TO.N,/SCL*
X259232400Y-83058000D03*
D11*
G04 #@! TO.P,P12,2*
G04 #@! TO.N,/SDA*
X261772400Y-83058000D03*
G04 #@! TO.P,P12,3*
G04 #@! TO.N,/5V*
X264312400Y-83058000D03*
G04 #@! TO.P,P12,4*
G04 #@! TO.N,N/C*
X266852400Y-83058000D03*
G04 #@! TO.P,P12,5*
X269392400Y-83058000D03*
G04 #@! TO.P,P12,6*
X271932400Y-83058000D03*
G04 #@! TO.P,P12,7*
G04 #@! TO.N,/5V*
X274472400Y-83058000D03*
G04 #@! TO.P,P12,8*
G04 #@! TO.N,GND*
X277012400Y-83058000D03*
G04 #@! TD*
D18*
G04 #@! TO.P,C2,1*
G04 #@! TO.N,/5V*
X251460000Y-66040000D03*
G04 #@! TO.P,C2,2*
G04 #@! TO.N,GND*
X256540000Y-66040000D03*
G04 #@! TD*
G04 #@! TO.P,C1,1*
G04 #@! TO.N,/5V*
X149860000Y-66040000D03*
G04 #@! TO.P,C1,2*
G04 #@! TO.N,GND*
X154940000Y-66040000D03*
G04 #@! TD*
D19*
G04 #@! TO.P,SW1,1*
G04 #@! TO.N,N-000002*
X52171600Y-79781400D03*
G04 #@! TO.P,SW1,2*
G04 #@! TO.N,/5V*
X52171600Y-84861400D03*
G04 #@! TO.P,SW1,3*
G04 #@! TO.N,N/C*
X52171600Y-89941400D03*
D20*
G04 #@! TO.P,SW1,*
G04 #@! TO.N,*
X54711600Y-67081400D03*
X49631600Y-67081400D03*
G04 #@! TD*
D10*
G04 #@! TO.P,P5,1*
G04 #@! TO.N,/SDA0*
X217170000Y-71120000D03*
D11*
G04 #@! TO.P,P5,2*
G04 #@! TO.N,/SDA*
X214630000Y-71120000D03*
G04 #@! TO.P,P5,3*
G04 #@! TO.N,/SDA1*
X217170000Y-68580000D03*
G04 #@! TO.P,P5,4*
G04 #@! TO.N,/SDA*
X214630000Y-68580000D03*
G04 #@! TO.P,P5,5*
G04 #@! TO.N,/SDA2*
X217170000Y-66040000D03*
G04 #@! TO.P,P5,6*
G04 #@! TO.N,/SDA*
X214630000Y-66040000D03*
G04 #@! TO.P,P5,7*
G04 #@! TO.N,/SDA3*
X217170000Y-63500000D03*
G04 #@! TO.P,P5,8*
G04 #@! TO.N,/SDA*
X214630000Y-63500000D03*
G04 #@! TD*
D10*
G04 #@! TO.P,P2,1*
G04 #@! TO.N,/SCL0*
X191770000Y-71120000D03*
D11*
G04 #@! TO.P,P2,2*
G04 #@! TO.N,/SCL*
X189230000Y-71120000D03*
G04 #@! TO.P,P2,3*
G04 #@! TO.N,/SCL1*
X191770000Y-68580000D03*
G04 #@! TO.P,P2,4*
G04 #@! TO.N,/SCL*
X189230000Y-68580000D03*
G04 #@! TO.P,P2,5*
G04 #@! TO.N,/SCL2*
X191770000Y-66040000D03*
G04 #@! TO.P,P2,6*
G04 #@! TO.N,/SCL*
X189230000Y-66040000D03*
G04 #@! TO.P,P2,7*
G04 #@! TO.N,/SCL3*
X191770000Y-63500000D03*
G04 #@! TO.P,P2,8*
G04 #@! TO.N,/SCL*
X189230000Y-63500000D03*
G04 #@! TD*
D21*
G04 #@! TO.P,1/4-20\002C1,*
G04 #@! TO.N,*
X63500000Y-79105760D03*
G04 #@! TD*
G04 #@! TO.P,1/4-20\002C2,*
G04 #@! TO.N,*
X342900000Y-79105760D03*
G04 #@! TD*
D22*
G04 #@! TO.N,/SCL1*
X326623680Y-66568320D03*
G04 #@! TO.N,/SDA0*
X245701820Y-63126620D03*
G04 #@! TO.N,/SDA1*
X236783880Y-68770500D03*
G04 #@! TO.N,/SDA2*
X70139560Y-72397620D03*
G04 #@! TD*
D23*
G04 #@! TO.N,/5V*
X306933600Y-87503000D02*
X305536600Y-88900000D01*
X306933600Y-83058000D02*
X306933600Y-87503000D01*
X296773600Y-85471000D02*
X293344600Y-88900000D01*
X296773600Y-83058000D02*
X296773600Y-85471000D01*
X274472400Y-85877400D02*
X271449800Y-88900000D01*
X274472400Y-83058000D02*
X274472400Y-85877400D01*
X264312400Y-85293200D02*
X260705600Y-88900000D01*
X264312400Y-83058000D02*
X264312400Y-85293200D01*
X242011200Y-83743800D02*
X236855000Y-88900000D01*
X242011200Y-83058000D02*
X242011200Y-83743800D01*
X231851200Y-83388200D02*
X226339400Y-88900000D01*
X231851200Y-83058000D02*
X231851200Y-83388200D01*
X209550000Y-84455000D02*
X205105000Y-88900000D01*
X209550000Y-83058000D02*
X209550000Y-84455000D01*
X199390000Y-83616800D02*
X194106800Y-88900000D01*
X199390000Y-83058000D02*
X199390000Y-83616800D01*
X177088800Y-83058000D02*
X171246800Y-88900000D01*
X172593000Y-88519000D02*
X172593000Y-88900000D01*
X172212000Y-88900000D02*
X172593000Y-88519000D01*
X171246800Y-88900000D02*
X172212000Y-88900000D01*
X166928800Y-84226400D02*
X162255200Y-88900000D01*
X166928800Y-83058000D02*
X166928800Y-84226400D01*
X144627600Y-84175600D02*
X139903200Y-88900000D01*
X144627600Y-83058000D02*
X144627600Y-84175600D01*
X134467600Y-83997800D02*
X129565400Y-88900000D01*
X134467600Y-83058000D02*
X134467600Y-83997800D01*
X102006400Y-83997800D02*
X97104200Y-88900000D01*
X102006400Y-83058000D02*
X102006400Y-83997800D01*
X112166400Y-83083400D02*
X106349800Y-88900000D01*
X112166400Y-83058000D02*
X112166400Y-83083400D01*
D24*
X59791600Y-88900000D02*
X97104200Y-88900000D01*
X55753000Y-84861400D02*
X59791600Y-88900000D01*
X52171600Y-84861400D02*
X55753000Y-84861400D01*
X97104200Y-88900000D02*
X106349800Y-88900000D01*
X106349800Y-88900000D02*
X129565400Y-88900000D01*
X129565400Y-88900000D02*
X139903200Y-88900000D01*
X139903200Y-88900000D02*
X162255200Y-88900000D01*
X162255200Y-88900000D02*
X171246800Y-88900000D01*
X171246800Y-88900000D02*
X172212000Y-88900000D01*
X172212000Y-88900000D02*
X172593000Y-88900000D01*
X172593000Y-88900000D02*
X194106800Y-88900000D01*
X194106800Y-88900000D02*
X205105000Y-88900000D01*
X205105000Y-88900000D02*
X226339400Y-88900000D01*
X226339400Y-88900000D02*
X236855000Y-88900000D01*
X236855000Y-88900000D02*
X260705600Y-88900000D01*
X260705600Y-88900000D02*
X271449800Y-88900000D01*
X271449800Y-88900000D02*
X293344600Y-88900000D01*
X293344600Y-88900000D02*
X305536600Y-88900000D01*
X305536600Y-88900000D02*
X305917600Y-88900000D01*
D25*
G04 #@! TO.N,/SCL*
X129387600Y-83058000D02*
X129981960Y-83058000D01*
X98115120Y-81869280D02*
X98115120Y-83058000D01*
X99641660Y-80342740D02*
X98115120Y-81869280D01*
X127266700Y-80342740D02*
X99641660Y-80342740D01*
X129981960Y-83058000D02*
X127266700Y-80342740D01*
X96926400Y-83058000D02*
X98115120Y-83058000D01*
X289316160Y-81869280D02*
X290504880Y-83058000D01*
X263773920Y-81869280D02*
X289316160Y-81869280D01*
X262978900Y-82664300D02*
X263773920Y-81869280D01*
X262978900Y-84185760D02*
X262978900Y-82664300D01*
X262917940Y-84246720D02*
X262978900Y-84185760D01*
X260484620Y-84246720D02*
X262917940Y-84246720D01*
X260421120Y-84183220D02*
X260484620Y-84246720D01*
X260421120Y-83058000D02*
X260421120Y-84183220D01*
X259232400Y-83058000D02*
X260421120Y-83058000D01*
X291693600Y-83058000D02*
X290504880Y-83058000D01*
X131770120Y-81269840D02*
X129981960Y-83058000D01*
X158871920Y-81269840D02*
X131770120Y-81269840D01*
X160660080Y-83058000D02*
X158871920Y-81269840D01*
X161848800Y-83058000D02*
X160660080Y-83058000D01*
G04 #@! TO.N,/SCL0*
X191770000Y-71120000D02*
X190581280Y-71120000D01*
X65991740Y-66088260D02*
X67310000Y-64770000D01*
X65991740Y-68577460D02*
X65991740Y-66088260D01*
X66055240Y-68640960D02*
X65991740Y-68577460D01*
X67871340Y-68640960D02*
X66055240Y-68640960D01*
X74424540Y-75194160D02*
X67871340Y-68640960D01*
X187203080Y-75194160D02*
X74424540Y-75194160D01*
X190581280Y-71815960D02*
X187203080Y-75194160D01*
X190581280Y-71120000D02*
X190581280Y-71815960D01*
G04 #@! TO.N,/SCL1*
X326872600Y-66568320D02*
X327614280Y-67310000D01*
X326623680Y-66568320D02*
X326872600Y-66568320D01*
X328930000Y-67310000D02*
X327614280Y-67310000D01*
X69850000Y-69850000D02*
X67310000Y-67310000D01*
X190500000Y-69850000D02*
X69850000Y-69850000D01*
X191770000Y-68580000D02*
X190500000Y-69850000D01*
G04 #@! TO.N,/SCL2*
X190500000Y-67310000D02*
X191770000Y-66040000D01*
X158917640Y-67310000D02*
X190500000Y-67310000D01*
X157065980Y-69161660D02*
X158917640Y-67310000D01*
X74241660Y-69161660D02*
X157065980Y-69161660D01*
X72390000Y-67310000D02*
X74241660Y-69161660D01*
X331655420Y-69664580D02*
X334010000Y-67310000D01*
X233766360Y-69664580D02*
X331655420Y-69664580D01*
X228871780Y-64770000D02*
X233766360Y-69664580D01*
X193040000Y-64770000D02*
X228871780Y-64770000D01*
X191770000Y-66040000D02*
X193040000Y-64770000D01*
G04 #@! TO.N,/SCL3*
X68529200Y-63449200D02*
X69850000Y-64770000D01*
X48955960Y-63449200D02*
X68529200Y-63449200D01*
X42593260Y-69811900D02*
X48955960Y-63449200D01*
X42593260Y-73637140D02*
X42593260Y-69811900D01*
X41402000Y-74828400D02*
X42593260Y-73637140D01*
G04 #@! TO.N,/SDA*
X260581140Y-81866740D02*
X261772400Y-83058000D01*
X230502460Y-81866740D02*
X260581140Y-81866740D01*
X229311200Y-83058000D02*
X230502460Y-81866740D01*
X130736340Y-84249260D02*
X131927600Y-83058000D01*
X120020080Y-84249260D02*
X130736340Y-84249260D01*
X117299740Y-81528920D02*
X120020080Y-84249260D01*
X100995480Y-81528920D02*
X117299740Y-81528920D01*
X99466400Y-83058000D02*
X100995480Y-81528920D01*
X263550400Y-81280000D02*
X261772400Y-83058000D01*
X292455600Y-81280000D02*
X263550400Y-81280000D01*
X294233600Y-83058000D02*
X292455600Y-81280000D01*
X163197540Y-84249260D02*
X164388800Y-83058000D01*
X150969980Y-84249260D02*
X163197540Y-84249260D01*
X148590000Y-81869280D02*
X150969980Y-84249260D01*
X133116320Y-81869280D02*
X148590000Y-81869280D01*
X131927600Y-83058000D02*
X133116320Y-81869280D01*
X165582600Y-81864200D02*
X164388800Y-83058000D01*
X195656200Y-81864200D02*
X165582600Y-81864200D01*
X196850000Y-83058000D02*
X195656200Y-81864200D01*
X208788000Y-71120000D02*
X214630000Y-71120000D01*
X196850000Y-83058000D02*
X208788000Y-71120000D01*
X219207080Y-72953880D02*
X229311200Y-83058000D01*
X216463880Y-72953880D02*
X219207080Y-72953880D01*
X214630000Y-71120000D02*
X216463880Y-72953880D01*
G04 #@! TO.N,/SDA0*
X246900700Y-61927740D02*
X245701820Y-63126620D01*
X331167740Y-61927740D02*
X246900700Y-61927740D01*
X334010000Y-64770000D02*
X331167740Y-61927740D01*
X39850060Y-76019660D02*
X41402000Y-77571600D01*
X39850060Y-71704200D02*
X39850060Y-76019660D01*
X48648620Y-62905640D02*
X39850060Y-71704200D01*
X70525640Y-62905640D02*
X48648620Y-62905640D01*
X72390000Y-64770000D02*
X70525640Y-62905640D01*
G04 #@! TO.N,/SDA1*
X236982000Y-68968620D02*
X236783880Y-68770500D01*
X329811380Y-68968620D02*
X236982000Y-68968620D01*
X331470000Y-67310000D02*
X329811380Y-68968620D01*
X70431660Y-73456800D02*
X43942000Y-73456800D01*
X74137520Y-77162660D02*
X70431660Y-73456800D01*
X201975720Y-77162660D02*
X74137520Y-77162660D01*
X209290920Y-69847460D02*
X201975720Y-77162660D01*
X215902540Y-69847460D02*
X209290920Y-69847460D01*
X217170000Y-68580000D02*
X215902540Y-69847460D01*
G04 #@! TO.N,/SDA2*
X221338140Y-70208140D02*
X217170000Y-66040000D01*
X333651860Y-70208140D02*
X221338140Y-70208140D01*
X336550000Y-67310000D02*
X333651860Y-70208140D01*
X73667620Y-75925680D02*
X70139560Y-72397620D01*
X202280520Y-75925680D02*
X73667620Y-75925680D01*
X210896200Y-67310000D02*
X202280520Y-75925680D01*
X215900000Y-67310000D02*
X210896200Y-67310000D01*
X217170000Y-66040000D02*
X215900000Y-67310000D01*
G04 #@! TO.N,/SDA3*
X333164180Y-61384180D02*
X336550000Y-64770000D01*
X219285820Y-61384180D02*
X333164180Y-61384180D01*
X217170000Y-63500000D02*
X219285820Y-61384180D01*
X74930000Y-64770000D02*
X74930000Y-62357000D01*
X75206860Y-62080140D02*
X74930000Y-62357000D01*
X215750140Y-62080140D02*
X75206860Y-62080140D01*
X217170000Y-63500000D02*
X215750140Y-62080140D01*
X39306500Y-78219300D02*
X41402000Y-80314800D01*
X39306500Y-71300340D02*
X39306500Y-78219300D01*
X48249840Y-62357000D02*
X39306500Y-71300340D01*
X74930000Y-62357000D02*
X48249840Y-62357000D01*
G04 #@! TO.N,GND*
X78059280Y-67899280D02*
X77470000Y-67310000D01*
X94025720Y-67899280D02*
X78059280Y-67899280D01*
X95250000Y-66675000D02*
X94025720Y-67899280D01*
X77470000Y-64770000D02*
X77470000Y-67310000D01*
G04 #@! TD*
M02*
